mtllib Hair.mtl
o Mesh_0005.rip.028_Mesh_0005.rip_mesh0000.037
v -0.100000 0.213477 0.260078
v -0.130000 0.300000 0.254258
v 0.030000 0.504531 0.306875
v 0.140000 0.460000 0.254414
v 0.213672 0.510508 0.201758
v 0.179219 0.639922 0.108359
v 0.300000 0.580000 0.119648
v 0.293789 0.573359 0.000000
v 0.310117 0.229336 -0.174648
v 0.245234 0.112539 -0.195820
v 0.089453 0.030000 -0.218633
v 0.173399 0.612734 0.226055
v 0.065234 0.596563 0.203398
v 0.064844 0.708242 0.118242
v -0.060000 0.720000 0.000000
v -0.150000 0.680000 0.000000
v -0.053398 0.664219 -0.104023
v -0.170000 0.692344 -0.113398
v -0.190469 0.624766 -0.111016
v -0.250547 0.582695 -0.112578
v -0.315937 0.520781 0.000000
v -0.301445 0.436563 -0.040000
v -0.297891 0.474492 0.029648
v 0.160000 0.110000 -0.199922
v 0.210000 0.010000 -0.146016
v 0.339180 0.225742 -0.103398
v 0.335195 0.334375 -0.113086
v 0.370078 0.220000 0.000000
v 0.352461 0.334375 0.000000
v 0.335195 0.334375 0.113086
v 0.261016 0.336953 0.206211
v 0.052774 0.403984 0.290000
v 0.329453 0.090000 0.000000
v 0.339180 0.225742 0.103398
v 0.249805 0.226602 0.225469
v 0.165000 0.220000 0.263359
v 0.094648 0.110000 0.259570
v 0.038594 0.110000 0.257148
v 0.089453 0.030000 0.218633
v -0.100000 0.213477 -0.260078
v -0.130000 0.300000 -0.254258
v -0.150000 0.390000 -0.238398
v -0.070000 0.490000 -0.264766
v -0.130703 0.590000 -0.200000
v -0.207187 0.549063 -0.176562
v -0.250820 0.440391 -0.147148
v 0.373242 0.465117 0.000000
v 0.333047 0.456602 -0.108359
v 0.173399 0.612734 -0.226055
v 0.140000 0.460000 -0.254414
v 0.052774 0.403984 -0.290000
v -0.297461 0.530000 0.080000
v -0.277226 0.608008 0.040000
v -0.190469 0.624766 0.110117
v -0.053398 0.664219 0.104023
v -0.150000 0.390000 0.238398
v -0.130703 0.590000 0.200000
v -0.056445 0.396641 -0.277500
v 0.160000 0.324766 -0.261289
v 0.088789 0.216055 -0.301211
v 0.094648 0.110000 -0.259570
v -0.250820 0.440391 0.149180
v -0.260000 0.520039 0.155820
v -0.250547 0.582695 0.111602
v -0.160000 0.471328 0.216680
v 0.165000 0.220000 -0.263359
v 0.249805 0.226602 -0.225469
v 0.261016 0.336953 -0.206211
v -0.150000 0.390000 -0.238398
v -0.160000 0.471328 -0.216680
v -0.180000 0.402813 -0.180117
v 0.245234 0.112539 0.195820
v -0.006211 0.209609 0.274023
v -0.041172 0.307148 0.269844
v -0.170000 0.692344 0.113398
v 0.030000 0.504531 -0.306875
v -0.040586 0.644531 -0.223828
v 0.300000 0.580000 -0.119609
v 0.179219 0.639922 -0.108359
v 0.210000 0.680000 0.000000
v 0.066914 0.691953 0.000000
v 0.160000 0.110000 -0.199922
v 0.089453 0.030000 -0.218633
v 0.038594 0.110000 -0.257148
v -0.006211 0.209609 -0.274023
v -0.041172 0.307148 -0.269844
v 0.015781 0.382539 0.000000
v -0.100000 0.213477 -0.260078
v -0.130000 0.300000 -0.254258
v 0.333047 0.456602 0.108359
v 0.286680 0.438711 0.207344
v -0.250820 0.440391 -0.147148
v -0.301445 0.436563 -0.040000
v -0.277226 0.608008 -0.040000
v -0.210469 0.653320 0.000000
v -0.260000 0.520039 -0.158789
v -0.180000 0.402813 -0.180117
v -0.160000 0.471328 -0.216680
v 0.286680 0.438711 -0.207344
v -0.207187 0.549063 0.176563
v -0.180000 0.402813 0.180039
v 0.288750 0.100000 -0.090078
v 0.255508 -0.010000 -0.000000
v 0.288750 0.100000 -0.090078
v 0.255508 -0.010000 -0.000000
v 0.288750 0.100000 0.090078
v 0.210000 0.010000 -0.146016
v -0.041172 0.307148 -0.269844
v 0.070000 0.318359 -0.323125
v 0.174023 0.094102 0.099961
v 0.210000 0.010000 0.146016
v -0.041172 0.307148 0.269844
v -0.100000 0.213477 0.260078
v 0.038594 0.110000 0.257148
v -0.006211 0.209609 0.274023
v -0.297891 0.474492 0.029648
v 0.160000 0.110000 0.199922
v 0.089453 0.030000 0.218633
v 0.174023 0.094102 -0.099961
v -0.222539 0.462148 -0.189961
v -0.250820 0.440391 0.149180
v -0.297461 0.530000 0.080000
v -0.222539 0.462148 0.189961
v -0.160000 0.471328 0.216680
v -0.180000 0.402813 0.180039
v -0.056445 0.396641 0.277500
v -0.070000 0.490000 0.264766
v -0.130000 0.300000 0.254258
v -0.150000 0.390000 0.238398
v 0.160000 0.110000 0.199922
v 0.210000 0.010000 0.146016
v 0.288750 0.100000 0.090078
v 0.310117 0.229336 0.174648
v 0.038594 0.110000 -0.257148
v -0.006211 0.209609 -0.274023
v -0.260000 0.418281 -0.120000
v 0.065234 0.596563 -0.203398
v 0.064844 0.708242 -0.118242
v 0.213672 0.510508 -0.201758
v -0.040586 0.644531 0.223828
v 0.070000 0.318359 0.323125
v 0.160000 0.324766 0.261289
v 0.088789 0.216055 0.301211
v -0.299375 0.512617 -0.090000
v -0.090586 0.572227 0.000000
vn 0.1733 -0.0062 -0.9848
vn 0.2382 0.0045 -0.9712
vn 0.2396 0.0564 -0.9692
vn 0.2241 -0.0185 -0.9744
vn -0.0753 -0.0798 -0.9940
vn 0.3297 -0.2292 -0.9159
vn 0.0071 -0.3441 -0.9389
vn -0.0894 -0.6522 -0.7528
vn -0.3527 -0.1900 -0.9162
vn -0.3739 -0.6480 -0.6635
vn -0.5705 -0.3508 -0.7426
vn -0.4346 -0.8168 -0.3795
vn -0.7112 -0.5823 -0.3939
vn -0.7832 -0.6217 -0.0000
vn -0.8964 -0.1775 -0.4062
vn -0.9724 -0.2334 -0.0000
vn -0.9989 -0.0466 -0.0000
vn -0.8964 -0.1776 0.4062
vn -0.9163 -0.0657 0.3951
vn -0.6507 0.0008 0.7593
vn -0.8092 0.1196 0.5752
vn -0.5325 0.0792 0.8427
vn -0.5199 0.4445 0.7295
vn -0.4240 0.1649 0.8905
vn -0.3225 0.4670 0.8233
vn -0.2939 0.4191 0.8591
vn -0.3874 0.4398 0.8103
vn 0.0984 0.3724 0.9228
vn -0.0683 -0.9294 -0.3628
vn -0.1258 -0.9921 0.0000
vn 0.0530 -0.9249 -0.3765
vn 0.1016 -0.9948 -0.0000
vn 0.2292 -0.9734 -0.0000
vn 0.0530 -0.9249 0.3765
vn 0.3917 -0.8290 0.3992
vn 0.4348 -0.4978 0.7504
vn 0.6878 -0.5356 0.4900
vn 0.6305 -0.5839 0.5115
vn 0.7312 -0.6450 0.2221
vn 0.9070 -0.0387 0.4193
vn 0.9961 -0.0805 -0.0358
vn 0.9612 0.1946 0.1956
vn 0.9488 0.2337 -0.2127
vn -0.5357 0.5107 0.6725
vn -0.8108 0.4307 0.3964
vn -0.9215 0.1749 0.3467
vn -0.9939 0.1106 0.0000
vn -0.9163 -0.0657 -0.3951
vn -0.6507 0.0008 -0.7593
vn -0.7083 -0.2008 -0.6767
vn -0.4411 -0.0769 -0.8941
vn -0.8799 0.4751 0.0000
vn -0.9215 0.1749 -0.3467
vn -0.8092 0.1196 -0.5752
vn -0.5325 0.0792 -0.8427
vn -0.4240 0.1649 -0.8905
vn -0.1281 0.2064 -0.9700
vn -0.2939 0.4191 -0.8591
vn 0.0984 0.3724 -0.9228
vn -0.3874 0.4398 -0.8103
vn 0.1733 -0.0062 0.9848
vn 0.2396 0.0564 0.9692
vn 0.2382 0.0045 0.9712
vn 0.2241 -0.0185 0.9744
vn 0.4203 -0.1012 0.9017
vn 0.3297 -0.2292 0.9159
vn 0.4441 -0.1043 0.8899
vn 0.4687 -0.4014 0.7869
vn 0.7153 -0.2046 0.6682
vn 0.7436 0.2960 0.5996
vn -0.7112 -0.5823 0.3937
vn -0.5705 -0.3508 0.7426
vn -0.4347 -0.8167 0.3795
vn -0.3739 -0.6480 0.6635
vn -0.0894 -0.6522 0.7528
vn -0.3527 -0.1900 0.9162
vn 0.0071 -0.3441 0.9389
vn -0.0753 -0.0798 0.9940
vn 0.9077 -0.2269 -0.3531
vn 0.7280 -0.6488 -0.2215
vn 0.6251 -0.5850 -0.5167
vn 0.6903 -0.5339 -0.4883
vn 0.4359 -0.4982 -0.7496
vn 0.3931 -0.8279 -0.4001
vn 0.4203 -0.1012 -0.9017
vn 0.4441 -0.1042 -0.8899
vn 0.0212 -0.7691 -0.6388
vn -0.0645 -0.0854 0.9943
vn -0.4411 -0.0769 0.8941
vn -0.1281 0.2064 0.9700
vn 0.7534 0.2756 -0.5970
vn 0.7419 -0.1933 -0.6421
vn 0.4799 -0.3990 -0.7814
vn -0.7083 -0.2008 0.6767
vn 0.7856 0.2923 -0.5453
vn 0.7968 0.2590 -0.5460
vn 0.8377 0.5462 0.0000
vn 0.1735 0.7931 -0.5838
vn 0.3557 0.9344 -0.0207
vn -0.5732 0.7195 -0.3922
vn 0.0858 0.6938 -0.7151
vn -0.3225 0.4670 -0.8233
vn -0.5199 0.4445 -0.7295
vn 0.2632 0.1440 -0.9539
vn -0.0645 -0.0854 -0.9943
vn 0.5595 -0.8288 -0.0006
vn 0.0212 -0.7691 0.6388
vn -0.0683 -0.9294 0.3628
vn -0.4873 -0.8732 -0.0000
vn 0.4491 0.6525 -0.6104
vn 0.3860 0.5431 -0.7457
vn 0.8703 0.3746 -0.3198
vn 0.8929 0.3449 -0.2893
vn 0.0451 0.9596 -0.2776
vn 0.0474 0.8277 -0.5592
vn -0.0503 0.7140 0.6983
vn -0.4368 0.8001 -0.4111
vn 0.5465 0.1740 0.8192
vn 0.4338 0.4414 0.7855
vn 0.5462 0.1625 -0.8217
vn 0.4250 0.4372 -0.7926
vn -0.8041 0.5946 0.0000
vn -0.8108 0.4307 -0.3964
vn -0.0690 0.9731 0.2198
vn 0.7511 0.6548 -0.0837
vn 0.4427 0.8967 0.0000
vn 0.7511 0.6548 0.0837
vn -0.0690 0.9731 -0.2198
vn 0.5679 0.5688 -0.5950
vn 0.2632 0.1440 0.9539
vn 0.5679 0.5688 0.5950
vn 0.4491 0.6525 0.6104
vn 0.0451 0.9596 0.2776
vn 0.0474 0.8277 0.5592
vn 0.7856 0.2923 0.5453
vn 0.8703 0.3746 0.3198
vn 0.8929 0.3449 0.2893
vn -0.1707 0.9823 0.0771
vn -0.4212 0.7303 -0.5379
vn 0.3860 0.5431 0.7457
vn -0.5625 0.7230 0.4010
vn 0.1055 0.6862 0.7197
vn 0.1741 0.7929 0.5839
vn 0.7968 0.2590 0.5460
vn -0.5357 0.5107 -0.6725
usemtl Material.013
s 1
f 1/2323/1 2/2324/2 74/2325/3
f 2/2324/2 126/2326/4 74/2325/3
f 74/2325/3 126/2326/4 32/2327/5
f 126/2326/4 127/2328/6 32/2327/5
f 32/2327/5 127/2328/6 3/2329/7
f 127/2328/6 13/2330/8 3/2329/7
f 3/2329/7 13/2330/8 4/2331/9
f 13/2330/8 12/2332/10 4/2331/9
f 4/2331/9 12/2332/10 5/2333/11
f 12/2332/10 6/2334/12 5/2333/11
f 5/2333/11 6/2334/12 7/2335/13
f 6/2334/12 8/2336/14 7/2335/13
f 7/2335/13 8/2336/14 90/2337/15
f 8/2336/14 47/2338/16 90/2337/15
f 90/2337/15 47/2338/16 29/2339/17
f 47/2338/16 48/2340/18 29/2339/17
f 29/2339/17 48/2340/18 27/2341/19
f 48/2340/18 68/2342/20 27/2341/19
f 27/2341/19 68/2342/20 9/2343/21
f 68/2342/20 67/2344/22 9/2343/21
f 9/2343/21 67/2344/22 10/2345/23
f 67/2344/22 66/2346/24 10/2345/23
f 10/2345/23 66/2346/24 24/2347/25
f 66/2346/24 61/2348/26 24/2347/25
f 24/2347/25 61/2348/26 11/2349/27
f 61/2348/26 134/2350/28 11/2349/27
f 12/2332/10 13/2330/8 6/2334/12
f 13/2330/8 14/2351/29 6/2334/12
f 6/2334/12 14/2351/29 81/2352/30
f 14/2351/29 55/2353/31 81/2352/30
f 81/2352/30 55/2353/31 15/2354/32
f 55/2353/31 16/2355/33 15/2354/32
f 15/2354/32 16/2355/33 17/2356/34
f 16/2355/33 18/2357/35 17/2356/34
f 17/2356/34 18/2357/35 44/2358/36
f 18/2357/35 19/2359/37 44/2358/36
f 44/2358/36 19/2359/37 20/2360/38
f 19/2359/37 94/2361/39 20/2360/38
f 20/2360/38 94/2361/39 144/2362/40
f 94/2361/39 21/2363/41 144/2362/40
f 144/2362/40 21/2363/41 22/2364/42
f 21/2363/41 23/2365/43 22/2364/42
f 24/2347/25 25/2366/44 10/2345/23
f 25/2366/44 102/2367/45 10/2345/23
f 10/2345/23 102/2367/45 9/2343/21
f 102/2367/45 26/2368/46 9/2343/21
f 9/2343/21 26/2368/46 27/2341/19
f 26/2368/46 28/2369/47 27/2341/19
f 27/2341/19 28/2369/47 29/2339/17
f 28/2369/47 30/2370/48 29/2339/17
f 29/2339/17 30/2370/48 90/2337/15
f 30/2370/48 31/2371/49 90/2337/15
f 90/2337/15 31/2371/49 91/2372/50
f 31/2371/49 142/2373/51 91/2372/50
f 91/2372/50 142/2373/51 4/2331/9
f 142/2373/51 32/2327/5 4/2331/9
f 4/2331/9 32/2327/5 3/2329/7
f 26/2368/46 33/2374/52 28/2369/47
f 33/2374/52 34/2375/53 28/2369/47
f 28/2369/47 34/2375/53 30/2370/48
f 34/2375/53 133/2376/54 30/2370/48
f 30/2370/48 133/2376/54 31/2371/49
f 133/2376/54 35/2377/55 31/2371/49
f 31/2371/49 35/2377/55 142/2373/51
f 35/2377/55 36/2378/56 142/2373/51
f 142/2373/51 36/2378/56 143/2379/57
f 36/2378/56 37/2380/58 143/2379/57
f 143/2379/57 37/2380/58 38/2381/59
f 37/2380/58 39/2382/60 38/2381/59
f 40/2383/61 108/2384/62 41/2385/63
f 108/2384/62 58/2386/64 41/2385/63
f 41/2385/63 58/2386/64 42/2387/65
f 58/2386/64 43/2388/66 42/2387/65
f 42/2387/65 43/2388/66 98/2389/67
f 43/2388/66 44/2358/36 98/2389/67
f 98/2389/67 44/2358/36 45/2390/68
f 44/2358/36 20/2360/38 45/2390/68
f 45/2390/68 20/2360/38 96/2391/69
f 20/2360/38 144/2362/40 96/2391/69
f 96/2391/69 144/2362/40 46/2392/70
f 47/2338/16 8/2336/14 48/2340/18
f 8/2336/14 78/2393/71 48/2340/18
f 48/2340/18 78/2393/71 139/2394/72
f 78/2393/71 79/2395/73 139/2394/72
f 139/2394/72 79/2395/73 49/2396/74
f 79/2395/73 137/2397/75 49/2396/74
f 49/2396/74 137/2397/75 50/2398/76
f 137/2397/75 76/2399/77 50/2398/76
f 50/2398/76 76/2399/77 51/2400/78
f 76/2399/77 43/2388/66 51/2400/78
f 51/2400/78 43/2388/66 58/2386/64
f 23/2365/43 21/2363/41 52/2401/79
f 21/2363/41 53/2402/80 52/2401/79
f 52/2401/79 53/2402/80 64/2403/81
f 53/2402/80 54/2404/82 64/2403/81
f 64/2403/81 54/2404/82 57/2405/83
f 54/2404/82 75/2406/84 57/2405/83
f 57/2405/83 75/2406/84 55/2353/31
f 75/2406/84 16/2355/33 55/2353/31
f 56/2407/85 65/2408/86 127/2328/6
f 65/2408/86 57/2405/83 127/2328/6
f 127/2328/6 57/2405/83 140/2409/87
f 57/2405/83 55/2353/31 140/2409/87
f 140/2409/87 55/2353/31 13/2330/8
f 55/2353/31 14/2351/29 13/2330/8
f 58/2386/64 108/2384/62 51/2400/78
f 108/2384/62 109/2410/88 51/2400/78
f 51/2400/78 109/2410/88 59/2411/89
f 109/2410/88 60/2412/90 59/2411/89
f 59/2411/89 60/2412/90 66/2346/24
f 60/2412/90 61/2348/26 66/2346/24
f 62/2413/91 52/2401/79 63/2414/92
f 52/2401/79 64/2403/81 63/2414/92
f 63/2414/92 64/2403/81 100/2415/93
f 64/2403/81 57/2405/83 100/2415/93
f 100/2415/93 57/2405/83 65/2408/86
f 66/2346/24 67/2344/22 59/2411/89
f 67/2344/22 68/2342/20 59/2411/89
f 59/2411/89 68/2342/20 99/2416/94
f 68/2342/20 48/2340/18 99/2416/94
f 99/2416/94 48/2340/18 139/2394/72
f 89/2417/95 69/2418/96 87/2419/97
f 69/2418/96 70/2420/98 87/2419/97
f 87/2419/97 70/2420/98 145/2421/99
f 70/2420/98 71/2422/100 145/2421/99
f 145/2421/99 71/2422/100 92/2423/101
f 39/2382/60 37/2380/58 130/2424/102
f 37/2380/58 36/2378/56 130/2424/102
f 130/2424/102 36/2378/56 72/2425/103
f 36/2378/56 35/2377/55 72/2425/103
f 72/2425/103 35/2377/55 133/2376/54
f 38/2381/59 73/2426/104 143/2379/57
f 73/2426/104 74/2325/3 143/2379/57
f 143/2379/57 74/2325/3 141/2427/105
f 74/2325/3 32/2327/5 141/2427/105
f 141/2427/105 32/2327/5 142/2373/51
f 21/2363/41 94/2361/39 53/2402/80
f 94/2361/39 95/2428/106 53/2402/80
f 53/2402/80 95/2428/106 54/2404/82
f 95/2428/106 75/2406/84 54/2404/82
f 77/2429/107 137/2397/75 17/2356/34
f 137/2397/75 138/2430/108 17/2356/34
f 17/2356/34 138/2430/108 81/2352/30
f 138/2430/108 79/2395/73 81/2352/30
f 76/2399/77 137/2397/75 43/2388/66
f 137/2397/75 77/2429/107 43/2388/66
f 43/2388/66 77/2429/107 44/2358/36
f 77/2429/107 17/2356/34 44/2358/36
f 78/2393/71 8/2336/14 79/2395/73
f 8/2336/14 80/2431/109 79/2395/73
f 79/2395/73 80/2431/109 81/2352/30
f 80/2431/109 6/2334/12 81/2352/30
f 82/2432/110 83/2433/111 87/2419/97
f 83/2433/111 84/2434/112 87/2419/97
f 87/2419/97 84/2434/112 85/2435/113
f 85/2435/113 86/2436/114 87/2419/97
f 86/2436/114 88/2437/115 87/2419/97
f 87/2419/97 88/2437/115 89/2417/95
f 7/2335/13 90/2337/15 5/2333/11
f 90/2337/15 91/2372/50 5/2333/11
f 5/2333/11 91/2372/50 4/2331/9
f 92/2423/101 144/2362/40 145/2421/99
f 145/2421/99 136/2438/116 93/2439/117
f 94/2361/39 19/2359/37 95/2428/106
f 19/2359/37 18/2357/35 95/2428/106
f 95/2428/106 18/2357/35 16/2355/33
f 96/2391/69 46/2392/70 120/2440/118
f 46/2392/70 97/2441/119 120/2440/118
f 120/2440/118 97/2441/119 98/2389/67
f 51/2400/78 59/2411/89 50/2398/76
f 59/2411/89 99/2416/94 50/2398/76
f 50/2398/76 99/2416/94 139/2394/72
f 63/2414/92 100/2415/93 123/2442/120
f 100/2415/93 65/2408/86 123/2442/120
f 123/2442/120 65/2408/86 101/2443/121
f 26/2368/46 102/2367/45 33/2374/52
f 102/2367/45 103/2444/122 33/2374/52
f 33/2374/52 103/2444/122 132/2445/123
f 104/2446/124 119/2447/125 105/2448/126
f 119/2447/125 110/2449/127 105/2448/126
f 105/2448/126 110/2449/127 106/2450/128
f 104/2446/124 107/2451/129 119/2447/125
f 107/2451/129 82/2432/110 119/2447/125
f 119/2447/125 82/2432/110 87/2419/97
f 135/2452/130 60/2412/90 108/2384/62
f 60/2412/90 109/2410/88 108/2384/62
f 106/2450/128 110/2449/127 111/2453/131
f 110/2449/127 117/2454/132 111/2453/131
f 112/2455/133 87/2419/97 113/2456/134
f 87/2419/97 128/2457/135 113/2456/134
f 114/2458/136 87/2419/97 115/2459/137
f 87/2419/97 112/2455/133 115/2459/137
f 122/2460/138 145/2421/99 116/2461/139
f 145/2421/99 93/2439/117 116/2461/139
f 117/2454/132 87/2419/97 118/2462/140
f 87/2419/97 114/2458/136 118/2462/140
f 119/2447/125 87/2419/97 110/2449/127
f 87/2419/97 117/2454/132 110/2449/127
f 96/2391/69 120/2440/118 45/2390/68
f 120/2440/118 98/2389/67 45/2390/68
f 125/2463/141 145/2421/99 121/2464/142
f 145/2421/99 122/2460/138 121/2464/142
f 63/2414/92 123/2442/120 62/2413/91
f 123/2442/120 101/2443/121 62/2413/91
f 87/2419/97 145/2421/99 124/2465/143
f 145/2421/99 125/2463/141 124/2465/143
f 2/2324/2 56/2407/85 126/2326/4
f 56/2407/85 127/2328/6 126/2326/4
f 128/2457/135 87/2419/97 129/2466/144
f 87/2419/97 124/2465/143 129/2466/144
f 130/2424/102 72/2425/103 131/2467/145
f 72/2425/103 132/2445/123 131/2467/145
f 33/2374/52 132/2445/123 34/2375/53
f 132/2445/123 133/2376/54 34/2375/53
f 61/2348/26 60/2412/90 134/2350/28
f 60/2412/90 135/2452/130 134/2350/28
f 16/2355/33 75/2406/84 95/2428/106
f 22/2364/42 136/2438/116 144/2362/40
f 137/2397/75 79/2395/73 138/2430/108
f 50/2398/76 139/2394/72 49/2396/74
f 15/2354/32 17/2356/34 81/2352/30
f 6/2334/12 80/2431/109 8/2336/14
f 13/2330/8 127/2328/6 140/2409/87
f 72/2425/103 133/2376/54 132/2445/123
f 141/2427/105 142/2373/51 143/2379/57
f 144/2362/40 136/2438/116 145/2421/99
