mtllib Hair.mtl
o Mesh_0005.rip.046_Mesh_0005.rip_mesh0000.056
v 0.021250 0.154375 -0.293008
v 0.039297 0.251289 -0.304375
v 0.160000 0.442617 -0.266133
v 0.045000 0.439492 -0.293789
v -0.090000 0.520000 -0.245547
v -0.048672 0.610625 -0.187617
v -0.182226 0.628633 0.000000
v -0.252500 0.543477 0.000000
v -0.173476 0.612070 0.106016
v -0.236641 0.541094 0.106016
v -0.200000 0.520000 0.187617
v -0.160000 0.440000 0.250000
v -0.085898 0.439492 0.280664
v -0.144492 0.060000 0.244414
v 0.002891 0.071875 0.270312
v 0.262422 0.332266 0.200273
v 0.335195 0.334375 0.113086
v 0.331563 0.455039 0.106016
v 0.284219 0.572851 0.000000
v 0.028672 0.529570 -0.254414
v -0.144492 0.060000 -0.244414
v 0.002891 0.071875 -0.270312
v -0.119492 0.120000 -0.269922
v -0.098008 0.190000 -0.286914
v -0.086484 0.270000 -0.295547
v 0.045039 0.340000 -0.307773
v -0.080000 0.350000 -0.296016
v -0.085898 0.439492 -0.280664
v -0.160000 0.440000 -0.250000
v -0.230000 0.439492 -0.187617
v -0.119492 0.120000 0.269922
v -0.098008 0.190000 0.286914
v 0.021250 0.154375 0.293008
v 0.155898 0.240000 0.258125
v 0.270274 0.561172 -0.106016
v 0.176406 0.639922 -0.106016
v -0.086484 0.270000 0.295547
v 0.039297 0.251289 0.304375
v 0.159336 0.334375 0.267031
v 0.160000 0.442617 0.266133
v 0.260000 0.450000 0.197852
v 0.158399 0.581836 0.187617
v 0.270274 0.561172 0.106016
v 0.176406 0.639922 0.106016
v 0.185508 0.655664 0.000000
v 0.063125 0.692422 0.000000
v 0.260000 0.450000 -0.197852
v 0.262422 0.332266 -0.200273
v 0.331563 0.455039 -0.106016
v 0.348633 0.461250 0.000000
v 0.323555 0.218242 0.106211
v 0.255938 0.224609 0.197187
v 0.135898 0.090000 0.238125
v 0.159336 0.334375 -0.267031
v 0.335195 0.334375 -0.113086
v 0.352461 0.334375 0.000000
v 0.290000 0.120000 0.100000
v 0.230000 0.105703 0.190000
v -0.173476 0.612070 -0.106016
v -0.270000 0.439492 0.106016
v -0.230000 0.439492 0.187617
v 0.158399 0.581836 -0.187617
v 0.060039 0.674883 -0.106016
v -0.058203 0.664453 -0.106016
v -0.150000 0.580000 0.187617
v -0.048672 0.610625 0.187617
v -0.080000 0.350000 0.296016
v 0.155898 0.240000 -0.258125
v 0.135898 0.090000 -0.238125
v 0.255938 0.224609 -0.197188
v 0.230000 0.105703 -0.190000
v 0.323555 0.218242 -0.106211
v 0.290000 0.120000 -0.100000
v 0.340547 0.216250 0.000000
v 0.310000 0.130000 0.000000
v -0.061211 0.681445 0.000000
v 0.060039 0.674883 0.106016
v -0.058203 0.664453 0.106016
v -0.090000 0.520000 0.245547
v 0.290000 0.120000 -0.100000
v 0.310000 0.130000 0.000000
v 0.290000 0.120000 0.100000
v -0.150000 0.580000 -0.187617
v -0.200000 0.520000 -0.187617
v -0.236641 0.541094 -0.106016
v -0.270000 0.439492 -0.106016
v -0.284726 0.439492 0.000000
v 0.107461 0.440547 0.069844
v -0.085898 0.439492 0.280664
v -0.080000 0.350000 0.296016
v 0.107461 0.440547 -0.069844
v -0.160000 0.440000 -0.250000
v -0.230000 0.439492 -0.187617
v -0.270000 0.439492 -0.106016
v -0.284726 0.439492 0.000000
v -0.270000 0.439492 0.106016
v -0.085898 0.439492 -0.280664
v -0.080000 0.350000 -0.296016
v -0.086484 0.270000 -0.295547
v -0.098008 0.190000 -0.286914
v -0.119492 0.120000 -0.269922
v -0.144492 0.060000 -0.244414
v 0.002891 0.071875 -0.270312
v 0.135898 0.090000 -0.238125
v 0.081445 0.191133 -0.193789
v 0.230000 0.105703 -0.190000
v 0.230000 0.105703 0.190000
v 0.135898 0.090000 0.238125
v 0.002891 0.071875 0.270312
v -0.144492 0.060000 0.244414
v -0.059531 0.456758 0.000000
v -0.160000 0.440000 0.250000
v -0.086484 0.270000 0.295547
v -0.098008 0.190000 0.286914
v 0.081445 0.191133 0.193789
v -0.119492 0.120000 0.269922
v -0.230000 0.439492 0.187617
v 0.028672 0.529570 0.254414
v 0.045000 0.439492 0.293789
v 0.045039 0.340000 0.307773
vn -0.0433 0.2900 0.9560
vn -0.3902 0.1976 0.8993
vn -0.1150 0.2018 0.9727
vn -0.4357 0.1317 0.8904
vn -0.1444 0.0988 0.9846
vn -0.4476 0.0407 0.8933
vn -0.1176 -0.0328 0.9925
vn -0.3990 -0.2399 0.8850
vn -0.0700 -0.2752 0.9588
vn -0.0518 -0.5243 0.8500
vn 0.2370 -0.4596 0.8559
vn 0.0945 -0.7193 0.6883
vn 0.4402 -0.6243 0.6453
vn 0.2223 -0.9106 0.3484
vn 0.5718 -0.7644 0.2979
vn 0.6022 -0.7983 0.0000
vn 0.8789 -0.4770 0.0000
vn 0.5718 -0.7644 -0.2979
vn 0.8294 -0.4758 -0.2928
vn 0.4402 -0.6243 -0.6453
vn 0.6675 -0.4033 -0.6260
vn 0.2370 -0.4596 -0.8559
vn 0.4709 -0.3521 -0.8089
vn 0.1761 -0.3110 -0.9340
vn 0.1363 0.3390 -0.9309
vn 0.1211 0.2782 -0.9529
vn -0.0433 0.2900 -0.9560
vn -0.1150 0.2018 -0.9727
vn -0.3902 0.1976 -0.8993
vn -0.4357 0.1317 -0.8904
vn -0.6561 0.1340 -0.7427
vn -0.6633 0.0170 -0.7481
vn -0.9115 0.0258 -0.4105
vn -0.8872 -0.2522 -0.3863
vn -0.9608 -0.2773 -0.0000
vn -0.7660 -0.6428 -0.0000
vn -0.8872 -0.2522 0.3863
vn -0.7045 -0.5907 0.3935
vn -0.6516 -0.2374 0.7204
vn -0.3454 -0.6127 0.7108
vn 0.1363 0.3390 0.9309
vn 0.1211 0.2782 0.9529
vn 0.0960 0.1483 0.9843
vn 0.0851 0.0526 0.9950
vn 0.0928 -0.0809 0.9924
vn 0.1761 -0.3110 0.9340
vn 0.4709 -0.3521 0.8089
vn 0.6675 -0.4033 0.6260
vn 0.7770 -0.2895 0.5589
vn 0.9101 -0.3074 0.2778
vn 0.0960 0.1483 -0.9843
vn -0.1444 0.0988 -0.9846
vn -0.4476 0.0407 -0.8933
vn -0.6516 -0.2374 -0.7204
vn -0.7045 -0.5907 -0.3935
vn -0.4755 -0.8797 0.0000
vn -0.4343 -0.8165 0.3803
vn -0.0978 -0.9081 0.4071
vn 0.0851 0.0526 -0.9950
vn -0.1176 -0.0328 -0.9925
vn -0.3990 -0.2399 -0.8850
vn -0.3454 -0.6127 -0.7108
vn -0.4343 -0.8165 -0.3803
vn -0.1031 -0.9947 0.0000
vn -0.6633 0.0170 0.7481
vn -0.9115 0.0258 0.4105
vn -0.9993 0.0371 0.0000
vn -0.9063 0.2045 -0.3699
vn -0.6251 0.2025 -0.7538
vn -0.6561 0.1340 0.7427
vn -0.9063 0.2045 0.3699
vn -0.9762 0.2170 0.0000
vn -0.8803 0.3231 -0.3474
vn 0.8294 -0.4758 0.2928
vn 0.9527 -0.3040 -0.0000
vn 0.9101 -0.3074 -0.2778
vn 0.7770 -0.2895 -0.5589
vn 0.2460 -0.9693 0.0000
vn 0.2223 -0.9106 -0.3484
vn -0.0978 -0.9081 -0.4071
vn 0.0945 -0.7193 -0.6883
vn -0.0518 -0.5243 -0.8500
vn -0.0700 -0.2752 -0.9588
vn 0.0928 -0.0809 -0.9924
vn -0.6251 0.2025 0.7538
vn -0.8803 0.3231 0.3474
vn -0.9426 0.3338 0.0000
vn 0.4067 0.8829 -0.2348
vn 0.4336 0.4923 -0.7548
vn 0.3269 0.9451 0.0000
vn 0.4336 0.4923 0.7548
vn 0.4067 0.8829 0.2348
vn 0.4286 0.7211 0.5444
vn 0.4668 0.7717 0.4320
vn 0.4050 0.7984 0.4455
vn 0.6049 0.1069 0.7891
vn 0.4842 -0.0917 0.8701
vn 0.4668 0.7717 -0.4320
vn 0.4050 0.7984 -0.4455
vn 0.0016 1.0000 0.0000
vn -0.0316 0.9980 -0.0542
vn -0.0563 0.9976 -0.0406
vn -0.0704 0.9973 -0.0227
vn -0.0764 0.9971 0.0000
vn -0.0704 0.9973 0.0227
vn 0.6049 0.1069 -0.7891
vn 0.4842 -0.0917 -0.8701
vn 0.4466 -0.2558 -0.8574
vn 0.4510 -0.4470 -0.7725
vn 0.2559 -0.0687 -0.9642
vn -0.0894 0.5789 -0.8105
vn 0.2445 0.4967 -0.8328
vn 0.4286 0.7211 -0.5444
vn 0.2445 0.4967 0.8328
vn -0.0894 0.5789 0.8105
vn 0.2559 -0.0687 0.9642
vn 0.4510 -0.4470 0.7725
vn -0.0316 0.9980 0.0542
vn 0.4466 -0.2558 0.8574
vn -0.0563 0.9976 0.0406
usemtl Material.013
s 1
f 22/4259/1 69/4260/2 1/4261/3
f 69/4260/2 68/4262/4 1/4261/3
f 1/4261/3 68/4262/4 2/4263/5
f 68/4262/4 54/4264/6 2/4263/5
f 2/4263/5 54/4264/6 26/4265/7
f 54/4264/6 3/4266/8 26/4265/7
f 26/4265/7 3/4266/8 4/4267/9
f 3/4266/8 20/4268/10 4/4267/9
f 4/4267/9 20/4268/10 5/4269/11
f 20/4268/10 6/4270/12 5/4269/11
f 5/4269/11 6/4270/12 83/4271/13
f 6/4270/12 64/4272/14 83/4271/13
f 83/4271/13 64/4272/14 59/4273/15
f 64/4272/14 7/4274/16 59/4273/15
f 59/4273/15 7/4274/16 8/4275/17
f 7/4274/16 9/4276/18 8/4275/17
f 8/4275/17 9/4276/18 10/4277/19
f 9/4276/18 65/4278/20 10/4277/19
f 10/4277/19 65/4278/20 11/4279/21
f 65/4278/20 79/4280/22 11/4279/21
f 11/4279/21 79/4280/22 12/4281/23
f 79/4280/22 13/4282/24 12/4281/23
f 14/4283/25 31/4284/26 15/4285/27
f 31/4284/26 33/4286/28 15/4285/27
f 15/4285/27 33/4286/28 53/4287/29
f 33/4286/28 34/4288/30 53/4287/29
f 53/4287/29 34/4288/30 52/4289/31
f 34/4288/30 16/4290/32 52/4289/31
f 52/4289/31 16/4290/32 17/4291/33
f 16/4290/32 18/4292/34 17/4291/33
f 17/4291/33 18/4292/34 50/4293/35
f 18/4292/34 19/4294/36 50/4293/35
f 50/4293/35 19/4294/36 49/4295/37
f 19/4294/36 35/4296/38 49/4295/37
f 49/4295/37 35/4296/38 47/4297/39
f 35/4296/38 62/4298/40 47/4297/39
f 47/4297/39 62/4298/40 3/4266/8
f 62/4298/40 20/4268/10 3/4266/8
f 21/4299/41 22/4259/1 23/4300/42
f 22/4259/1 1/4261/3 23/4300/42
f 23/4300/42 1/4261/3 24/4301/43
f 1/4261/3 2/4263/5 24/4301/43
f 24/4301/43 2/4263/5 25/4302/44
f 2/4263/5 26/4265/7 25/4302/44
f 25/4302/44 26/4265/7 27/4303/45
f 26/4265/7 4/4267/9 27/4303/45
f 27/4303/45 4/4267/9 28/4304/46
f 4/4267/9 5/4269/11 28/4304/46
f 28/4304/46 5/4269/11 29/4305/47
f 5/4269/11 84/4306/48 29/4305/47
f 29/4305/47 84/4306/48 30/4307/49
f 84/4306/48 86/4308/50 30/4307/49
f 31/4284/26 32/4309/51 33/4286/28
f 32/4309/51 38/4310/52 33/4286/28
f 33/4286/28 38/4310/52 34/4288/30
f 38/4310/52 39/4311/53 34/4288/30
f 34/4288/30 39/4311/53 16/4290/32
f 39/4311/53 41/4312/54 16/4290/32
f 16/4290/32 41/4312/54 18/4292/34
f 41/4312/54 43/4313/55 18/4292/34
f 18/4292/34 43/4313/55 19/4294/36
f 43/4313/55 45/4314/56 19/4294/36
f 19/4294/36 45/4314/56 35/4296/38
f 45/4314/56 36/4315/57 35/4296/38
f 35/4296/38 36/4315/57 62/4298/40
f 36/4315/57 63/4316/58 62/4298/40
f 32/4309/51 37/4317/59 38/4310/52
f 37/4317/59 120/4318/60 38/4310/52
f 38/4310/52 120/4318/60 39/4311/53
f 120/4318/60 40/4319/61 39/4311/53
f 39/4311/53 40/4319/61 41/4312/54
f 40/4319/61 42/4320/62 41/4312/54
f 41/4312/54 42/4320/62 43/4313/55
f 42/4320/62 44/4321/63 43/4313/55
f 43/4313/55 44/4321/63 45/4314/56
f 44/4321/63 46/4322/64 45/4314/56
f 45/4314/56 46/4322/64 36/4315/57
f 46/4322/64 63/4316/58 36/4315/57
f 3/4266/8 54/4264/6 47/4297/39
f 54/4264/6 48/4323/65 47/4297/39
f 47/4297/39 48/4323/65 49/4295/37
f 48/4323/65 55/4324/66 49/4295/37
f 49/4295/37 55/4324/66 50/4293/35
f 55/4324/66 56/4325/67 50/4293/35
f 50/4293/35 56/4325/67 17/4291/33
f 56/4325/67 51/4326/68 17/4291/33
f 17/4291/33 51/4326/68 52/4289/31
f 51/4326/68 58/4327/69 52/4289/31
f 52/4289/31 58/4327/69 53/4287/29
f 54/4264/6 68/4262/4 48/4323/65
f 68/4262/4 70/4328/70 48/4323/65
f 48/4323/65 70/4328/70 55/4324/66
f 70/4328/70 72/4329/71 55/4324/66
f 55/4324/66 72/4329/71 56/4325/67
f 72/4329/71 74/4330/72 56/4325/67
f 56/4325/67 74/4330/72 51/4326/68
f 74/4330/72 57/4331/73 51/4326/68
f 51/4326/68 57/4331/73 58/4327/69
f 83/4271/13 59/4273/15 85/4332/74
f 59/4273/15 8/4275/17 85/4332/74
f 85/4332/74 8/4275/17 87/4333/75
f 8/4275/17 10/4277/19 87/4333/75
f 87/4333/75 10/4277/19 60/4334/76
f 10/4277/19 11/4279/21 60/4334/76
f 60/4334/76 11/4279/21 61/4335/77
f 11/4279/21 12/4281/23 61/4335/77
f 20/4268/10 62/4298/40 6/4270/12
f 62/4298/40 63/4316/58 6/4270/12
f 6/4270/12 63/4316/58 64/4272/14
f 63/4316/58 76/4336/78 64/4272/14
f 64/4272/14 76/4336/78 7/4274/16
f 76/4336/78 78/4337/79 7/4274/16
f 7/4274/16 78/4337/79 9/4276/18
f 78/4337/79 65/4278/20 9/4276/18
f 46/4322/64 44/4321/63 77/4338/80
f 44/4321/63 42/4320/62 77/4338/80
f 77/4338/80 42/4320/62 66/4339/81
f 42/4320/62 118/4340/82 66/4339/81
f 66/4339/81 118/4340/82 79/4280/22
f 118/4340/82 119/4341/83 79/4280/22
f 79/4280/22 119/4341/83 13/4282/24
f 119/4341/83 67/4342/84 13/4282/24
f 68/4262/4 69/4260/2 70/4328/70
f 69/4260/2 71/4343/85 70/4328/70
f 70/4328/70 71/4343/85 72/4329/71
f 71/4343/85 73/4344/86 72/4329/71
f 72/4329/71 73/4344/86 74/4330/72
f 73/4344/86 75/4345/87 74/4330/72
f 74/4330/72 75/4345/87 57/4331/73
f 63/4316/58 46/4322/64 76/4336/78
f 46/4322/64 77/4338/80 76/4336/78
f 76/4336/78 77/4338/80 78/4337/79
f 77/4338/80 66/4339/81 78/4337/79
f 78/4337/79 66/4339/81 65/4278/20
f 66/4339/81 79/4280/22 65/4278/20
f 80/4346/88 105/4347/89 81/4348/90
f 105/4347/89 115/4349/91 81/4348/90
f 81/4348/90 115/4349/91 82/4350/92
f 115/4349/91 107/4351/93 82/4350/92
f 5/4269/11 83/4271/13 84/4306/48
f 83/4271/13 85/4332/74 84/4306/48
f 84/4306/48 85/4332/74 86/4308/50
f 85/4332/74 87/4333/75 86/4308/50
f 88/4352/94 89/4353/95 115/4349/91
f 89/4353/95 90/4354/96 115/4349/91
f 115/4349/91 90/4354/96 113/4355/97
f 91/4356/98 97/4357/99 111/4358/100
f 97/4357/99 92/4359/101 111/4358/100
f 111/4358/100 92/4359/101 93/4360/102
f 93/4360/102 94/4361/103 111/4358/100
f 94/4361/103 95/4362/104 111/4358/100
f 111/4358/100 95/4362/104 96/4363/105
f 91/4356/98 105/4347/89 97/4357/99
f 105/4347/89 98/4364/106 97/4357/99
f 98/4364/106 105/4347/89 99/4365/107
f 105/4347/89 100/4366/108 99/4365/107
f 100/4366/108 105/4347/89 101/4367/109
f 105/4347/89 102/4368/110 101/4367/109
f 102/4368/110 105/4347/89 103/4369/111
f 105/4347/89 104/4370/112 103/4369/111
f 104/4370/112 105/4347/89 106/4371/113
f 105/4347/89 80/4346/88 106/4371/113
f 107/4351/93 115/4349/91 108/4372/114
f 115/4349/91 109/4373/115 108/4372/114
f 109/4373/115 115/4349/91 110/4374/116
f 115/4349/91 116/4375/117 110/4374/116
f 88/4352/94 111/4358/100 89/4353/95
f 111/4358/100 112/4376/118 89/4353/95
f 113/4355/97 114/4377/119 115/4349/91
f 114/4377/119 116/4375/117 115/4349/91
f 96/4363/105 117/4378/120 111/4358/100
f 117/4378/120 112/4376/118 111/4358/100
f 42/4320/62 40/4319/61 118/4340/82
f 40/4319/61 119/4341/83 118/4340/82
f 40/4319/61 120/4318/60 119/4341/83
f 120/4318/60 67/4342/84 119/4341/83
f 37/4317/59 67/4342/84 120/4318/60
