mtllib Hair.mtl
o Mesh_0005.rip.037_Mesh_0005.rip_mesh0000.046
v -0.090000 0.280000 -0.254531
v -0.108945 0.438398 -0.247656
v -0.134531 0.530000 -0.232031
v 0.027031 0.518516 -0.240000
v -0.170000 0.630195 -0.210000
v -0.037734 0.658242 -0.147305
v -0.039140 0.675547 -0.101055
v 0.059570 0.672148 0.000000
v -0.040000 0.690000 0.000000
v -0.039140 0.675547 0.101055
v -0.165000 0.655781 0.161992
v -0.170000 0.630195 0.210000
v -0.090000 0.280000 0.254531
v -0.108945 0.438398 0.247656
v 0.149414 0.567813 0.176992
v 0.175000 0.637461 0.000000
v -0.022773 0.620000 -0.193516
v 0.249024 0.431211 0.186680
v 0.281523 0.231914 0.106680
v 0.183789 0.108906 -0.106680
v 0.239453 0.247187 -0.186680
v 0.138906 0.155547 -0.186680
v 0.090234 0.219062 -0.240000
v 0.000000 0.334375 -0.263008
v 0.150938 0.334375 -0.246484
v 0.312813 0.448203 0.100000
v 0.255000 0.548320 0.100000
v -0.159961 0.673203 0.100000
v 0.056641 0.655625 -0.100000
v -0.134531 0.530000 0.232031
v 0.027031 0.518516 0.240000
v 0.166445 0.622617 0.100000
v 0.281523 0.231914 -0.106680
v 0.316211 0.334375 -0.106680
v 0.296016 0.226641 0.000000
v 0.332500 0.334375 0.000000
v 0.316211 0.334375 0.106680
v -0.220000 0.638867 0.170000
v -0.250000 0.643477 0.120000
v -0.270000 0.646367 0.060000
v -0.160000 0.682148 0.000000
v -0.277226 0.647578 0.000000
v -0.210312 0.533906 -0.020430
v -0.270000 0.646367 0.060000
v -0.165000 0.655781 -0.161992
v -0.220000 0.638867 -0.170000
v -0.250000 0.643477 -0.120000
v -0.134531 0.530000 0.232031
v -0.160937 0.538320 0.156602
v -0.170000 0.630195 0.210000
v 0.013516 0.423906 0.263008
v 0.121719 0.436484 0.240000
v 0.000000 0.334375 0.263008
v 0.150938 0.334375 0.246484
v 0.090234 0.219062 0.240000
v 0.239453 0.247187 0.186680
v 0.138906 0.155547 0.186680
v 0.183789 0.108906 0.106680
v -0.189180 0.539141 -0.109883
v -0.186719 0.544492 -0.141484
v -0.250000 0.643477 -0.120000
v -0.211016 0.548477 -0.099844
v -0.227500 0.552070 -0.048398
v -0.204648 0.535117 -0.051992
v 0.013516 0.423906 -0.263008
v 0.328906 0.454062 0.000000
v 0.312813 0.448203 -0.100000
v -0.189180 0.539141 0.109883
v 0.000000 0.334375 -0.263008
v -0.090000 0.280000 -0.254531
v -0.108945 0.438398 -0.247656
v -0.134531 0.530000 -0.232031
v -0.170000 0.630195 -0.210000
v 0.268125 0.559336 0.000000
v 0.166445 0.622617 -0.100000
v 0.255000 0.548320 -0.100000
v -0.227500 0.552070 0.048398
v -0.211016 0.548477 0.099844
v 0.000000 0.334375 0.263008
v -0.118867 0.427930 0.000000
v -0.090000 0.280000 0.254531
v -0.108945 0.438398 0.247656
v 0.056641 0.655625 0.100000
v -0.022773 0.620000 0.193516
v -0.037734 0.658242 0.147305
v 0.191055 0.096289 0.000000
v -0.160937 0.538320 -0.156602
v -0.220000 0.638867 -0.170000
v -0.232539 0.553984 0.000000
v -0.277226 0.647578 0.000000
v -0.270000 0.646367 -0.060000
v -0.213008 0.535273 0.000000
v -0.210312 0.533906 0.020430
v -0.204648 0.535117 0.051992
v 0.249024 0.431211 -0.186680
v 0.121719 0.436484 -0.240000
v 0.149414 0.567813 -0.176992
v -0.250000 0.643477 0.120000
v -0.186719 0.544492 0.141484
v -0.220000 0.638867 0.170000
v -0.270000 0.646367 -0.060000
v -0.159961 0.673203 -0.100000
vn 0.1115 -0.0298 0.9933
vn 0.0023 0.0150 0.9999
vn 0.1111 -0.0924 0.9895
vn -0.0349 -0.1111 0.9932
vn 0.0486 -0.1963 0.9793
vn -0.1467 -0.3430 0.9278
vn 0.0218 -0.7294 0.6837
vn -0.1992 -0.6548 0.7290
vn -0.1538 -0.8680 0.4721
vn -0.2591 -0.8996 0.3515
vn -0.0929 -0.9661 0.2407
vn -0.2391 -0.9710 -0.0000
vn -0.0671 -0.9977 0.0000
vn -0.0929 -0.9661 -0.2407
vn 0.1460 -0.9732 -0.1776
vn 0.1083 -0.9254 -0.3632
vn 0.2395 -0.9207 -0.3080
vn 0.0218 -0.7294 -0.6837
vn 0.1115 -0.0298 -0.9933
vn 0.1111 -0.0924 -0.9895
vn 0.0023 0.0150 -0.9999
vn -0.0349 -0.1111 -0.9932
vn -0.3269 0.0359 -0.9444
vn -0.2924 -0.2294 -0.9284
vn -0.6136 -0.2080 -0.7617
vn -0.3875 -0.5643 -0.7290
vn -0.7041 -0.5866 -0.4002
vn -0.4344 -0.8165 -0.3803
vn -0.7660 -0.6428 0.0000
vn -0.4755 -0.8797 -0.0000
vn -0.4344 -0.8165 0.3803
vn -0.3875 -0.5643 0.7290
vn -0.6265 0.3145 -0.7132
vn -0.9146 0.1129 -0.3883
vn -0.8348 0.4539 -0.3115
vn -0.8777 0.4793 0.0000
vn -0.7814 0.6240 0.0000
vn -0.8348 0.4539 0.3115
vn -0.7089 0.6123 0.3501
vn -0.6265 0.3145 0.7132
vn -0.4556 0.4999 0.7366
vn -0.2791 0.2538 0.9261
vn -0.3269 0.0359 0.9444
vn -0.6136 -0.2080 0.7617
vn -0.9146 0.1129 0.3883
vn -0.8875 -0.2595 0.3807
vn -0.9897 0.1430 0.0000
vn -0.9614 -0.2751 0.0000
vn -0.8875 -0.2595 -0.3807
vn 0.1684 -0.9857 -0.0000
vn 0.1460 -0.9732 0.1776
vn 0.1083 -0.9254 0.3632
vn -0.2591 -0.8996 -0.3515
vn -0.1538 -0.8680 -0.4721
vn 0.0486 -0.1963 -0.9793
vn -0.1467 -0.3430 -0.9278
vn -0.1992 -0.6548 -0.7290
vn 0.2711 -0.9448 -0.1839
vn 0.2779 -0.9564 -0.0898
vn 0.2829 -0.9592 -0.0000
vn 0.2779 -0.9564 0.0898
vn 0.6695 0.7396 0.0689
vn 0.7837 0.6040 0.1452
vn 0.6920 0.7219 0.0000
vn 0.8164 0.5775 0.0000
vn 0.7837 0.6040 -0.1452
vn 0.9057 0.4239 -0.0000
vn 0.8894 0.4194 -0.1820
vn 0.2395 -0.9207 0.3080
vn 0.2711 -0.9448 0.1839
vn 0.9814 0.1860 -0.0472
vn 0.8588 0.5122 -0.0000
vn 0.9255 0.3354 -0.1761
vn 0.7492 0.5354 -0.3898
vn 0.7371 0.3925 -0.5502
vn 0.7105 0.4305 -0.5566
vn -0.2791 0.2538 -0.9261
vn -0.4556 0.4999 -0.7366
vn -0.7089 0.6123 -0.3501
vn 0.5849 0.7981 0.1449
vn 0.4384 0.8800 0.1830
vn 0.7007 0.6578 0.2764
vn 0.5690 0.6844 0.4559
vn 0.8380 0.4164 0.3525
vn 0.7105 0.4305 0.5566
vn 0.8894 0.4194 0.1820
vn -0.2924 -0.2294 0.9284
vn -0.7041 -0.5866 0.4002
vn 0.5849 0.7981 -0.1449
vn 0.7007 0.6578 -0.2764
vn 0.4384 0.8800 -0.1830
vn 0.5690 0.6844 -0.4559
vn -0.4864 0.7303 -0.4796
vn 0.1981 0.8570 -0.4756
vn 0.9814 0.1860 0.0472
vn 0.9255 0.3354 0.1761
vn 0.7492 0.5354 0.3898
vn 0.7371 0.3925 0.5502
vn 0.8380 0.4164 -0.3525
vn -0.4864 0.7303 0.4796
vn 0.1981 0.8570 0.4756
vn 0.6695 0.7396 -0.0689
usemtl Material.013
s 1
f 1/3451/1 24/3452/2 2/3453/3
f 24/3452/2 65/3454/4 2/3453/3
f 2/3453/3 65/3454/4 3/3455/5
f 65/3454/4 4/3456/6 3/3455/5
f 3/3455/5 4/3456/6 5/3457/7
f 4/3456/6 17/3458/8 5/3457/7
f 5/3457/7 17/3458/8 6/3459/9
f 17/3458/8 29/3460/10 6/3459/9
f 6/3459/9 29/3460/10 7/3461/11
f 29/3460/10 8/3462/12 7/3461/11
f 7/3461/11 8/3462/12 9/3463/13
f 8/3462/12 10/3464/14 9/3463/13
f 9/3463/13 10/3464/14 28/3465/15
f 10/3464/14 11/3466/16 28/3465/15
f 28/3465/15 11/3466/16 38/3467/17
f 11/3466/16 12/3468/18 38/3467/17
f 13/3469/19 14/3470/20 53/3471/21
f 14/3470/20 51/3472/22 53/3471/21
f 53/3471/21 51/3472/22 54/3473/23
f 51/3472/22 52/3474/24 54/3473/23
f 54/3473/23 52/3474/24 18/3475/25
f 52/3474/24 15/3476/26 18/3475/25
f 18/3475/25 15/3476/26 27/3477/27
f 15/3476/26 32/3478/28 27/3477/27
f 27/3477/27 32/3478/28 74/3479/29
f 32/3478/28 16/3480/30 74/3479/29
f 74/3479/29 16/3480/30 75/3481/31
f 16/3480/30 29/3460/10 75/3481/31
f 75/3481/31 29/3460/10 97/3482/32
f 29/3460/10 17/3458/8 97/3482/32
f 97/3482/32 17/3458/8 4/3456/6
f 54/3473/23 18/3475/25 56/3483/33
f 18/3475/25 37/3484/34 56/3483/33
f 56/3483/33 37/3484/34 19/3485/35
f 37/3484/34 35/3486/36 19/3485/35
f 19/3485/35 35/3486/36 86/3487/37
f 35/3486/36 33/3488/38 86/3487/37
f 86/3487/37 33/3488/38 20/3489/39
f 33/3488/38 21/3490/40 20/3489/39
f 20/3489/39 21/3490/40 22/3491/41
f 21/3490/40 23/3492/42 22/3491/41
f 24/3452/2 23/3492/42 25/3493/43
f 23/3492/42 21/3490/40 25/3493/43
f 25/3493/43 21/3490/40 95/3494/44
f 21/3490/40 34/3495/45 95/3494/44
f 95/3494/44 34/3495/45 67/3496/46
f 34/3495/45 36/3497/47 67/3496/46
f 67/3496/46 36/3497/47 66/3498/48
f 36/3497/47 26/3499/49 66/3498/48
f 66/3498/48 26/3499/49 27/3477/27
f 26/3499/49 18/3475/25 27/3477/27
f 28/3465/15 41/3500/50 9/3463/13
f 41/3500/50 102/3501/51 9/3463/13
f 9/3463/13 102/3501/51 7/3461/11
f 102/3501/51 45/3502/52 7/3461/11
f 7/3461/11 45/3502/52 6/3459/9
f 45/3502/52 5/3457/7 6/3459/9
f 29/3460/10 16/3480/30 8/3462/12
f 16/3480/30 83/3503/53 8/3462/12
f 8/3462/12 83/3503/53 10/3464/14
f 83/3503/53 85/3504/54 10/3464/14
f 10/3464/14 85/3504/54 11/3466/16
f 85/3504/54 12/3468/18 11/3466/16
f 30/3505/55 12/3468/18 31/3506/56
f 12/3468/18 84/3507/57 31/3506/56
f 31/3506/56 84/3507/57 15/3476/26
f 84/3507/57 83/3503/53 15/3476/26
f 15/3476/26 83/3503/53 32/3478/28
f 83/3503/53 16/3480/30 32/3478/28
f 21/3490/40 33/3488/38 34/3495/45
f 33/3488/38 35/3486/36 34/3495/45
f 34/3495/45 35/3486/36 36/3497/47
f 35/3486/36 37/3484/34 36/3497/47
f 36/3497/47 37/3484/34 26/3499/49
f 37/3484/34 18/3475/25 26/3499/49
f 38/3467/17 39/3508/58 28/3465/15
f 39/3508/58 40/3509/59 28/3465/15
f 28/3465/15 40/3509/59 41/3500/50
f 40/3509/59 42/3510/60 41/3500/50
f 41/3500/50 42/3510/60 101/3511/61
f 43/3512/62 63/3513/63 92/3514/64
f 63/3513/63 89/3515/65 92/3514/64
f 92/3514/64 89/3515/65 77/3516/66
f 89/3515/65 90/3517/67 77/3516/66
f 77/3516/66 90/3517/67 44/3518/68
f 5/3457/7 45/3502/52 46/3519/69
f 45/3502/52 102/3501/51 46/3519/69
f 46/3519/69 102/3501/51 47/3520/70
f 102/3501/51 101/3511/61 47/3520/70
f 82/3521/71 80/3522/72 48/3523/73
f 80/3522/72 49/3524/74 48/3523/73
f 48/3523/73 49/3524/74 50/3525/75
f 49/3524/74 100/3526/76 50/3525/75
f 14/3470/20 30/3505/55 51/3472/22
f 30/3505/55 31/3506/56 51/3472/22
f 51/3472/22 31/3506/56 52/3474/24
f 31/3506/56 15/3476/26 52/3474/24
f 53/3471/21 54/3473/23 55/3527/77
f 54/3473/23 56/3483/33 55/3527/77
f 55/3527/77 56/3483/33 57/3528/78
f 56/3483/33 58/3529/79 57/3528/78
f 64/3530/80 59/3531/81 62/3532/82
f 59/3531/81 60/3533/83 62/3532/82
f 62/3532/82 60/3533/83 61/3534/84
f 60/3533/83 88/3535/85 61/3534/84
f 61/3534/84 91/3536/86 62/3532/82
f 91/3536/86 63/3513/63 62/3532/82
f 62/3532/82 63/3513/63 64/3530/80
f 63/3513/63 43/3512/62 64/3530/80
f 24/3452/2 25/3493/43 65/3454/4
f 25/3493/43 96/3537/87 65/3454/4
f 65/3454/4 96/3537/87 4/3456/6
f 96/3537/87 97/3482/32 4/3456/6
f 27/3477/27 74/3479/29 66/3498/48
f 74/3479/29 76/3538/88 66/3498/48
f 66/3498/48 76/3538/88 67/3496/46
f 76/3538/88 95/3494/44 67/3496/46
f 94/3539/89 78/3540/90 68/3541/91
f 78/3540/90 99/3542/92 68/3541/91
f 68/3541/91 99/3542/92 49/3524/74
f 99/3542/92 100/3526/76 49/3524/74
f 69/3543/93 70/3544/94 80/3522/72
f 70/3544/94 71/3545/95 80/3522/72
f 80/3522/72 71/3545/95 72/3546/96
f 80/3522/72 72/3546/96 87/3547/97
f 72/3546/96 73/3548/98 87/3547/97
f 87/3547/97 73/3548/98 88/3535/85
f 74/3479/29 75/3481/31 76/3538/88
f 75/3481/31 97/3482/32 76/3538/88
f 76/3538/88 97/3482/32 95/3494/44
f 94/3539/89 77/3516/66 78/3540/90
f 77/3516/66 44/3518/68 78/3540/90
f 78/3540/90 44/3518/68 98/3549/99
f 79/3550/100 80/3522/72 81/3551/101
f 80/3522/72 82/3521/71 81/3551/101
f 83/3503/53 84/3507/57 85/3504/54
f 84/3507/57 12/3468/18 85/3504/54
f 56/3483/33 19/3485/35 58/3529/79
f 19/3485/35 86/3487/37 58/3529/79
f 59/3531/81 87/3547/97 60/3533/83
f 87/3547/97 88/3535/85 60/3533/83
f 89/3515/65 63/3513/63 90/3517/67
f 63/3513/63 91/3536/86 90/3517/67
f 92/3514/64 77/3516/66 93/3552/102
f 77/3516/66 94/3539/89 93/3552/102
f 25/3493/43 95/3494/44 96/3537/87
f 95/3494/44 97/3482/32 96/3537/87
f 78/3540/90 98/3549/99 99/3542/92
f 98/3549/99 100/3526/76 99/3542/92
f 41/3500/50 101/3511/61 102/3501/51
