mtllib Hair.mtl
o Mesh_0005.rip.062_Mesh_0005.rip_mesh0000.074
v -0.188476 0.499648 0.201016
v -0.148086 0.567266 0.196016
v -0.248437 0.556524 0.000000
v 0.158399 0.581836 -0.187617
v 0.132227 0.444258 -0.268789
v 0.263945 0.437031 -0.197852
v 0.260977 0.336562 -0.210195
v 0.340000 0.330000 -0.113086
v 0.316641 0.203086 -0.113867
v 0.243320 0.084648 -0.113867
v 0.256250 0.074727 0.000000
v 0.331563 0.455039 -0.106016
v 0.348633 0.461250 0.000000
v 0.284219 0.572851 0.000000
v 0.263945 0.437031 0.197852
v 0.158399 0.581836 0.187617
v 0.132227 0.444258 0.268789
v 0.028672 0.529570 0.254414
v 0.000000 0.334375 0.293281
v -0.109219 0.350000 0.260000
v -0.095703 0.469883 0.254414
v -0.048672 0.610625 0.187617
v -0.058203 0.664453 0.106016
v 0.063125 0.692422 0.000000
v 0.060039 0.674883 -0.106016
v -0.234609 0.546289 -0.103984
v -0.095703 0.469883 -0.254414
v 0.000000 0.334375 -0.293281
v 0.160000 0.334375 -0.274336
v 0.000000 0.260000 -0.294023
v 0.147734 0.243594 -0.275898
v 0.112344 0.185195 -0.275898
v 0.186250 0.128477 -0.212773
v -0.165000 0.390000 0.235625
v -0.210000 0.419727 0.201016
v -0.270000 0.460000 0.103984
v -0.234609 0.546289 0.103984
v -0.290000 0.470000 0.000000
v -0.173476 0.612070 -0.106016
v -0.148086 0.567266 -0.196016
v -0.048672 0.610625 -0.187617
v 0.028672 0.529570 -0.254414
v 0.360000 0.330000 0.000000
v 0.331563 0.455039 0.106016
v 0.260977 0.336562 0.210195
v 0.333281 0.199101 0.000000
v 0.340000 0.330000 0.112500
v 0.147734 0.243594 0.275898
v 0.112344 0.185195 0.275898
v 0.046992 0.614922 0.187617
v 0.060039 0.674883 0.106016
v 0.176406 0.639922 0.106016
v 0.176406 0.639922 -0.106016
v 0.270274 0.561172 -0.106016
v 0.270274 0.561172 0.106016
v 0.185508 0.655664 0.000000
v -0.109219 0.350000 -0.260000
v -0.165000 0.390000 -0.235625
v -0.188476 0.499648 -0.201016
v -0.210000 0.419727 -0.201016
v -0.270000 0.460000 -0.103984
v 0.014297 0.429258 -0.278789
v 0.316641 0.203086 0.113867
v 0.243320 0.084648 0.113867
v 0.186250 0.128477 0.212773
v 0.112344 0.185195 0.275898
v 0.186250 0.128477 0.212773
v 0.243320 0.084648 0.113867
v 0.256250 0.074727 0.000000
v 0.243320 0.084648 -0.113867
v 0.186250 0.128477 -0.212773
v 0.112344 0.185195 -0.275898
v 0.000000 0.260000 -0.294023
v -0.109219 0.350000 -0.260000
v -0.165000 0.390000 -0.235625
v -0.210000 0.419727 -0.201016
v -0.270000 0.460000 -0.103984
v 0.243047 0.220742 -0.212773
v 0.000000 0.260000 0.294023
v 0.160000 0.334375 0.274336
v 0.046992 0.614922 -0.187617
v -0.058203 0.664453 -0.106016
v -0.173476 0.612070 0.106016
v -0.061211 0.681445 0.000000
v 0.243047 0.220742 0.212773
v -0.182226 0.628633 0.000000
v 0.000000 0.260000 0.294023
v 0.000000 0.410000 0.000000
v -0.109219 0.350000 0.260000
v -0.165000 0.390000 0.235625
v -0.210000 0.419727 0.201016
v -0.270000 0.460000 0.103984
v -0.290000 0.470000 0.000000
v 0.014297 0.429258 0.278789
vn 0.4269 -0.1297 -0.8949
vn 0.2815 -0.2462 -0.9274
vn 0.6226 -0.2995 -0.7229
vn 0.4318 -0.5724 -0.6971
vn 0.7920 -0.5018 -0.3477
vn 0.5470 -0.7654 -0.3390
vn 0.8274 -0.5617 0.0000
vn 0.5817 -0.8134 0.0000
vn 0.5470 -0.7654 0.3390
vn 0.2298 -0.9024 0.3646
vn 0.1605 -0.7154 0.6800
vn -0.0809 -0.7176 0.6917
vn -0.0200 -0.4385 0.8985
vn -0.3744 -0.5892 0.7160
vn -0.2870 -0.2527 0.9240
vn -0.6308 -0.2396 0.7380
vn -0.6569 -0.0053 0.7540
vn -0.9142 0.0443 0.4029
vn -0.6456 0.2356 0.7264
vn -0.8649 0.3300 0.3783
vn -0.5978 0.3679 0.7123
vn -0.7902 0.4892 0.3692
vn -0.8502 0.5264 0.0000
vn -0.9323 0.3618 -0.0001
vn -0.9983 0.0591 -0.0003
vn -0.8803 -0.2783 0.3842
vn -0.9536 -0.3012 -0.0000
vn -0.7660 -0.6428 -0.0000
vn -0.8803 -0.2776 -0.3847
vn -0.7041 -0.5865 -0.4003
vn -0.6312 -0.2392 -0.7378
vn -0.3744 -0.5892 -0.7160
vn -0.2870 -0.2527 -0.9240
vn -0.0200 -0.4385 -0.8985
vn 0.0388 -0.1921 -0.9806
vn 0.0850 -0.0618 -0.9945
vn 0.0026 0.0042 -1.0000
vn 0.1605 -0.7154 -0.6800
vn -0.0809 -0.7176 -0.6917
vn 0.2298 -0.9024 -0.3646
vn -0.0958 -0.9188 -0.3829
vn 0.2460 -0.9693 0.0000
vn -0.1031 -0.9947 -0.0000
vn -0.0958 -0.9188 0.3829
vn -0.4343 -0.8165 0.3803
vn -0.7041 -0.5865 0.4003
vn 0.9127 -0.4086 0.0000
vn 0.8587 -0.3293 0.3926
vn 0.7920 -0.5018 0.3477
vn 0.6226 -0.2995 0.7229
vn 0.4318 -0.5724 0.6971
vn 0.2815 -0.2462 0.9274
vn 0.0388 -0.1921 0.9806
vn 0.0850 -0.0618 0.9945
vn -0.3583 -0.0512 0.9322
vn 0.0026 0.0042 1.0000
vn -0.3473 0.1178 0.9303
vn -0.3139 0.1902 0.9302
vn 0.6577 -0.1771 -0.7321
vn 0.8587 -0.3293 -0.3926
vn -0.9146 0.0446 -0.4019
vn -0.6580 -0.0052 -0.7530
vn -0.3583 -0.0512 -0.9322
vn -0.8650 0.3291 -0.3787
vn -0.6460 0.2353 -0.7262
vn -0.5978 0.3679 -0.7123
vn -0.3473 0.1178 -0.9303
vn -0.3139 0.1902 -0.9302
vn -0.4343 -0.8165 -0.3803
vn -0.4755 -0.8797 -0.0000
vn 0.3052 -0.0675 0.9499
vn 0.4269 -0.1297 0.8949
vn 0.6577 -0.1771 0.7321
vn -0.7902 0.4892 -0.3692
vn 0.5375 0.7511 0.3832
vn 0.6549 0.6941 0.2989
vn 0.5311 0.8473 0.0000
vn 0.7422 0.6404 0.1976
vn 0.7809 0.6174 0.0953
vn 0.7945 0.6072 0.0000
vn 0.7809 0.6174 -0.0953
vn 0.7422 0.6404 -0.1976
vn 0.6549 0.6941 -0.2989
vn 0.5375 0.7511 -0.3832
vn 0.4723 0.7945 -0.3818
vn 0.3856 0.8566 -0.3427
vn 0.3031 0.9132 -0.2725
vn 0.2321 0.9626 -0.1397
vn 0.4723 0.7945 0.3818
vn 0.3856 0.8566 0.3427
vn 0.3031 0.9132 0.2725
vn 0.2321 0.9626 0.1397
vn 0.2026 0.9793 -0.0000
vn 0.3052 -0.0675 -0.9499
usemtl Material.013
s 1
f 20/6662/94 34/6663/1 21/6664/2
f 34/6663/1 1/6665/3 21/6664/2
f 21/6664/2 1/6665/3 2/6666/4
f 1/6665/3 37/6667/5 2/6666/4
f 2/6666/4 37/6667/5 83/6668/6
f 37/6667/5 3/6669/7 83/6668/6
f 83/6668/6 3/6669/7 86/6670/8
f 3/6669/7 39/6671/9 86/6670/8
f 86/6670/8 39/6671/9 82/6672/10
f 39/6671/9 41/6673/11 82/6672/10
f 82/6672/10 41/6673/11 81/6674/12
f 41/6673/11 42/6675/13 81/6674/12
f 81/6674/12 42/6675/13 4/6676/14
f 42/6675/13 5/6677/15 4/6676/14
f 4/6676/14 5/6677/15 6/6678/16
f 5/6677/15 7/6679/17 6/6678/16
f 6/6678/16 7/6679/17 8/6680/18
f 7/6679/17 78/6681/19 8/6680/18
f 8/6680/18 78/6681/19 9/6682/20
f 78/6681/19 33/6683/21 9/6682/20
f 9/6682/20 33/6683/21 10/6684/22
f 10/6684/22 11/6685/23 9/6682/20
f 11/6685/23 46/6686/24 9/6682/20
f 9/6682/20 46/6686/24 8/6680/18
f 46/6686/24 43/6687/25 8/6680/18
f 8/6680/18 43/6687/25 12/6688/26
f 43/6687/25 13/6689/27 12/6688/26
f 12/6688/26 13/6689/27 14/6690/28
f 13/6689/27 44/6691/29 14/6690/28
f 14/6690/28 44/6691/29 55/6692/30
f 44/6691/29 15/6693/31 55/6692/30
f 55/6692/30 15/6693/31 16/6694/32
f 15/6693/31 17/6695/33 16/6694/32
f 16/6694/32 17/6695/33 18/6696/34
f 17/6695/33 94/6697/35 18/6696/34
f 18/6696/34 94/6697/35 21/6664/2
f 94/6697/35 19/6698/36 21/6664/2
f 21/6664/2 19/6698/36 20/6662/94
f 19/6698/36 79/6699/37 20/6662/94
f 21/6664/2 2/6666/4 18/6696/34
f 2/6666/4 22/6700/38 18/6696/34
f 18/6696/34 22/6700/38 50/6701/39
f 22/6700/38 23/6702/40 50/6701/39
f 50/6701/39 23/6702/40 51/6703/41
f 23/6702/40 84/6704/42 51/6703/41
f 51/6703/41 84/6704/42 24/6705/43
f 84/6704/42 25/6706/44 24/6705/43
f 24/6705/43 25/6706/44 53/6707/45
f 25/6706/44 4/6676/14 53/6707/45
f 53/6707/45 4/6676/14 54/6708/46
f 4/6676/14 6/6678/16 54/6708/46
f 54/6708/46 6/6678/16 12/6688/26
f 6/6678/16 8/6680/18 12/6688/26
f 38/6709/47 61/6710/48 26/6711/49
f 61/6710/48 59/6712/50 26/6711/49
f 26/6711/49 59/6712/50 40/6713/51
f 59/6712/50 27/6714/52 40/6713/51
f 40/6713/51 27/6714/52 42/6675/13
f 27/6714/52 62/6715/53 42/6675/13
f 42/6675/13 62/6715/53 5/6677/15
f 62/6715/53 28/6716/54 5/6677/15
f 5/6677/15 28/6716/54 29/6717/55
f 28/6716/54 30/6718/56 29/6717/55
f 29/6717/55 30/6718/56 31/6719/57
f 30/6718/56 32/6720/58 31/6719/57
f 31/6719/57 32/6720/58 33/6683/21
f 34/6663/1 35/6721/59 1/6665/3
f 35/6721/59 36/6722/60 1/6665/3
f 1/6665/3 36/6722/60 37/6667/5
f 36/6722/60 38/6709/47 37/6667/5
f 37/6667/5 38/6709/47 3/6669/7
f 38/6709/47 26/6711/49 3/6669/7
f 3/6669/7 26/6711/49 39/6671/9
f 26/6711/49 40/6713/51 39/6671/9
f 39/6671/9 40/6713/51 41/6673/11
f 40/6713/51 42/6675/13 41/6673/11
f 13/6689/27 43/6687/25 44/6691/29
f 43/6687/25 47/6723/61 44/6691/29
f 44/6691/29 47/6723/61 15/6693/31
f 47/6723/61 45/6724/62 15/6693/31
f 15/6693/31 45/6724/62 17/6695/33
f 45/6724/62 80/6725/63 17/6695/33
f 17/6695/33 80/6725/63 19/6698/36
f 80/6725/63 79/6699/37 19/6698/36
f 43/6687/25 46/6686/24 47/6723/61
f 46/6686/24 63/6726/64 47/6723/61
f 47/6723/61 63/6726/64 85/6727/65
f 63/6726/64 65/6728/66 85/6727/65
f 85/6727/65 65/6728/66 48/6729/67
f 65/6728/66 49/6730/68 48/6729/67
f 48/6729/67 49/6730/68 79/6699/37
f 18/6696/34 50/6701/39 16/6694/32
f 50/6701/39 51/6703/41 16/6694/32
f 16/6694/32 51/6703/41 52/6731/69
f 51/6703/41 24/6705/43 52/6731/69
f 52/6731/69 24/6705/43 56/6732/70
f 24/6705/43 53/6707/45 56/6732/70
f 56/6732/70 53/6707/45 54/6708/46
f 16/6694/32 52/6731/69 55/6692/30
f 52/6731/69 56/6732/70 55/6692/30
f 55/6692/30 56/6732/70 14/6690/28
f 56/6732/70 54/6708/46 14/6690/28
f 14/6690/28 54/6708/46 12/6688/26
f 57/6733/71 27/6714/52 58/6734/72
f 27/6714/52 59/6712/50 58/6734/72
f 58/6734/72 59/6712/50 60/6735/73
f 59/6712/50 61/6710/48 60/6735/73
f 62/6715/53 27/6714/52 28/6716/54
f 27/6714/52 57/6733/71 28/6716/54
f 28/6716/54 57/6733/71 30/6718/56
f 46/6686/24 11/6685/23 63/6726/64
f 11/6685/23 64/6736/74 63/6726/64
f 63/6726/64 64/6736/74 65/6728/66
f 87/6737/75 66/6738/76 88/6739/77
f 66/6738/76 67/6740/78 88/6739/77
f 88/6739/77 67/6740/78 68/6741/79
f 68/6741/79 69/6742/80 88/6739/77
f 69/6742/80 70/6743/81 88/6739/77
f 88/6739/77 70/6743/81 71/6744/82
f 71/6744/82 72/6745/83 88/6739/77
f 72/6745/83 73/6746/84 88/6739/77
f 88/6739/77 73/6746/84 74/6747/85
f 74/6747/85 75/6748/86 88/6739/77
f 75/6748/86 76/6749/87 88/6739/77
f 88/6739/77 76/6749/87 77/6750/88
f 5/6677/15 29/6717/55 7/6679/17
f 29/6717/55 78/6681/19 7/6679/17
f 79/6699/37 80/6725/63 48/6729/67
f 80/6725/63 85/6727/65 48/6729/67
f 4/6676/14 25/6706/44 81/6674/12
f 25/6706/44 82/6672/10 81/6674/12
f 2/6666/4 83/6668/6 22/6700/38
f 83/6668/6 23/6702/40 22/6700/38
f 83/6668/6 86/6670/8 23/6702/40
f 86/6670/8 84/6704/42 23/6702/40
f 47/6723/61 85/6727/65 45/6724/62
f 85/6727/65 80/6725/63 45/6724/62
f 25/6706/44 84/6704/42 82/6672/10
f 84/6704/42 86/6670/8 82/6672/10
f 29/6717/55 31/6719/57 78/6681/19
f 31/6719/57 33/6683/21 78/6681/19
f 87/6737/75 88/6739/77 89/6751/89
f 88/6739/77 90/6752/90 89/6751/89
f 90/6752/90 88/6739/77 91/6753/91
f 88/6739/77 92/6754/92 91/6753/91
f 77/6750/88 93/6755/93 88/6739/77
f 93/6755/93 92/6754/92 88/6739/77
f 94/6697/35 17/6695/33 19/6698/36
