mtllib Hair.mtl
o Mesh_0005.rip.057_Mesh_0005.rip_mesh0000.069
v -0.180117 0.579609 -0.211211
v -0.212969 0.678047 -0.082109
v -0.108789 0.695352 -0.090391
v 0.063125 0.692422 0.000000
v -0.096367 0.660547 0.160781
v 0.048750 0.607461 0.200859
v 0.030000 0.500000 0.272969
v -0.075000 0.409727 0.305625
v -0.075000 0.295430 0.317578
v -0.075000 0.186602 0.305625
v -0.014297 -0.020117 0.220937
v -0.195351 0.639805 -0.155117
v 0.030000 0.500000 -0.272969
v 0.296563 0.295430 -0.197734
v 0.170117 0.186367 -0.281250
v 0.323828 0.080937 -0.074375
v 0.295977 -0.020117 -0.000000
v 0.340273 0.080937 0.000000
v 0.323828 0.080937 0.074375
v 0.347305 0.186601 0.097187
v 0.163477 0.080078 0.246523
v 0.042617 0.186602 0.299883
v -0.075820 -0.105781 0.159727
v -0.116094 -0.020117 0.201641
v -0.075000 -0.020117 0.218086
v -0.150234 0.080938 0.245586
v -0.075000 0.080938 0.271172
v -0.173047 0.186602 0.273750
v -0.181055 0.295430 0.283477
v -0.173047 0.409727 0.273750
v -0.090312 0.599531 0.219258
v -0.108789 0.695352 0.090391
v -0.118008 0.709844 0.000000
v -0.276289 0.622344 -0.078867
v -0.243984 0.600547 -0.150977
v -0.241562 0.537148 -0.135039
v -0.193476 0.520039 -0.195508
v -0.096367 0.660547 -0.160781
v 0.176406 0.639922 0.106016
v 0.270274 0.561172 0.106016
v 0.287188 0.409727 0.201016
v 0.287188 0.186602 -0.193398
v -0.160000 0.480000 -0.258242
v -0.090312 0.599531 -0.219258
v -0.075000 0.409727 -0.305625
v 0.170117 0.409141 -0.281250
v 0.172461 0.295430 -0.293281
v 0.163477 0.080078 -0.246523
v 0.150391 -0.020117 -0.206836
v 0.124258 -0.103008 -0.125703
v 0.260000 0.080937 -0.181094
v 0.347305 0.186601 -0.097188
v 0.368984 0.186601 0.000000
v 0.287188 0.186602 0.193398
v 0.170117 0.186367 0.281250
v 0.172461 0.295430 0.293281
v -0.272891 0.547539 -0.068242
v -0.283047 0.550977 0.000000
v -0.272891 0.547539 0.068242
v -0.241562 0.537148 0.135039
v -0.243984 0.600547 0.150977
v -0.193476 0.520039 0.195508
v -0.180117 0.579609 0.211211
v -0.160000 0.480000 0.258242
v -0.286758 0.631211 0.000000
v -0.218281 0.691680 0.000000
v -0.276289 0.622344 0.078867
v -0.212969 0.678047 0.082109
v -0.195351 0.639805 0.155117
v 0.048750 0.607461 -0.200859
v 0.060039 0.674883 -0.106016
v 0.270274 0.561172 -0.106016
v 0.333047 0.456602 0.108359
v 0.355156 0.295430 0.106211
v 0.296563 0.295430 0.197734
v 0.050625 0.295430 0.310547
v 0.161328 0.582305 -0.201016
v 0.333047 0.456602 -0.108359
v 0.349961 0.462734 0.000000
v 0.378906 0.295430 0.000000
v -0.173047 0.186602 -0.273750
v -0.150234 0.080938 -0.245586
v -0.075000 0.080938 -0.271172
v 0.019844 0.080937 -0.269062
v 0.176406 0.639922 -0.106016
v 0.185508 0.655664 0.000000
v 0.284219 0.572851 0.000000
v 0.217539 -0.020117 -0.154648
v 0.240586 -0.122227 -0.000000
v 0.260000 0.080937 0.181094
v 0.217539 -0.020117 0.154648
v 0.150391 -0.020117 0.206836
v 0.019844 0.080937 0.269062
v 0.065859 -0.020117 0.190977
v -0.173047 0.409727 -0.273750
v 0.042617 0.409727 -0.299883
v 0.050625 0.295430 -0.310547
v -0.075000 0.295430 -0.317578
v -0.075000 0.186602 -0.305625
v -0.181055 0.295430 -0.283477
v 0.042617 0.186602 -0.299883
v 0.287188 0.409727 -0.201016
v -0.116094 -0.020117 -0.201641
v -0.075000 -0.020117 -0.218086
v -0.075820 -0.105781 -0.159727
v -0.014297 -0.020117 -0.220937
v 0.042617 0.409727 0.299883
v 0.170117 0.409141 0.281250
v 0.161328 0.582305 0.201016
v 0.065859 -0.020117 -0.190977
v 0.060039 0.674883 0.106016
v 0.124258 -0.103008 0.125703
v 0.355156 0.295430 -0.106211
v -0.181055 0.295430 -0.283477
v -0.173047 0.409727 -0.273750
v -0.160000 0.480000 -0.258242
v -0.193476 0.520039 -0.195508
v -0.272891 0.547539 -0.068242
v -0.283047 0.550977 0.000000
v -0.241562 0.537148 -0.135039
v 0.124258 -0.103008 -0.125703
v 0.065859 -0.020117 -0.190977
v 0.019844 0.080937 -0.269062
v 0.107930 0.093633 -0.186680
v 0.152813 0.046992 -0.084609
v 0.152813 0.046992 0.084609
v 0.160117 0.034375 0.000000
v 0.019844 0.080937 0.269062
v -0.014297 -0.020117 -0.220937
v -0.075820 -0.105781 -0.159727
v -0.116094 -0.020117 -0.201641
v -0.150234 0.080938 -0.245586
v -0.173047 0.186602 -0.273750
v 0.217539 -0.020117 0.154648
v 0.124258 -0.103008 0.125703
v 0.065859 -0.020117 0.190977
v -0.014297 -0.020117 0.220937
v -0.075820 -0.105781 0.159727
v -0.193476 0.520039 0.195508
v -0.241562 0.537148 0.135039
v -0.173047 0.409727 0.273750
v -0.160000 0.480000 0.258242
v -0.150234 0.080938 0.245586
v -0.173047 0.186602 0.273750
v -0.181055 0.295430 0.283477
v -0.272891 0.547539 0.068242
v 0.140000 0.440000 0.000000
v -0.116094 -0.020117 0.201641
v 0.107930 0.093633 0.186680
v 0.240586 -0.122227 -0.000000
v 0.217539 -0.020117 -0.154648
vn 0.3166 -0.3289 0.8897
vn 0.4652 -0.3652 0.8064
vn 0.8083 0.0135 0.5886
vn 0.7714 -0.2508 0.5848
vn 0.3626 -0.7054 0.6091
vn 0.4198 -0.8460 0.3288
vn 0.0533 -0.9487 0.3117
vn 0.0494 -0.9988 -0.0000
vn -0.1955 -0.9807 -0.0000
vn 0.0533 -0.9487 -0.3117
vn -0.1825 -0.9119 -0.3676
vn 0.0581 -0.8019 -0.5946
vn -0.1241 -0.6821 -0.7206
vn 0.0805 -0.5710 -0.8170
vn -0.0800 -0.4184 -0.9047
vn 0.1265 -0.2245 -0.9662
vn -0.0969 -0.1994 -0.9751
vn 0.1270 0.0031 -0.9919
vn -0.0996 0.0026 -0.9950
vn 0.1269 0.2062 -0.9702
vn -0.0931 0.2039 -0.9746
vn 0.1352 0.3807 -0.9148
vn -0.0470 0.3757 -0.9256
vn 0.1712 0.5030 -0.8472
vn 0.0414 0.4698 -0.8818
vn 0.1651 0.5542 -0.8158
vn 0.0581 -0.8019 0.5946
vn 0.0805 -0.5710 0.8170
vn -0.1241 -0.6821 0.7206
vn -0.0800 -0.4184 0.9047
vn -0.3748 -0.6044 0.7030
vn -0.3606 -0.2416 0.9009
vn -0.7037 -0.2247 0.6740
vn -0.3782 0.0088 0.9257
vn -0.7395 0.0257 0.6727
vn -0.3767 0.2047 0.9034
vn -0.7221 0.1800 0.6680
vn -0.3593 0.3450 0.8671
vn -0.6797 0.3464 0.6465
vn -0.6428 0.5021 0.5785
vn -0.8652 0.3624 0.3465
vn -0.8739 0.4860 0.0000
vn -0.9443 0.3292 -0.0000
vn -0.8652 0.3624 -0.3465
vn -0.9095 0.1838 -0.3728
vn -0.6797 0.3464 -0.6465
vn -0.7221 0.1800 -0.6680
vn -0.3593 0.3450 -0.8671
vn -0.3767 0.2047 -0.9034
vn 0.3224 0.4968 -0.8058
vn 0.3036 0.3735 -0.8765
vn 0.3053 0.1997 -0.9311
vn 0.3068 0.0017 -0.9518
vn 0.3036 -0.1762 -0.9364
vn 0.3166 -0.3289 -0.8897
vn 0.4652 -0.3652 -0.8064
vn 0.3626 -0.7054 -0.6091
vn 0.4198 -0.8460 -0.3288
vn 0.4351 -0.9004 -0.0000
vn 0.8832 -0.3491 0.3131
vn 0.8601 0.1465 0.4887
vn -0.1825 -0.9119 0.3676
vn -0.4755 -0.8797 0.0000
vn -0.4403 -0.8294 -0.3438
vn -0.3748 -0.6044 -0.7030
vn -0.7112 -0.5960 -0.3727
vn -0.7037 -0.2247 -0.6740
vn -0.8735 -0.3291 -0.3587
vn -0.9265 -0.0064 -0.3763
vn -0.9996 -0.0281 -0.0000
vn -0.9846 0.1750 -0.0000
vn -0.9265 -0.0064 0.3763
vn -0.9095 0.1838 0.3728
vn 0.1265 -0.2245 0.9662
vn -0.0969 -0.1994 0.9751
vn -0.0996 0.0026 0.9950
vn -0.0931 0.2039 0.9746
vn -0.0470 0.3757 0.9256
vn -0.2478 0.5774 0.7779
vn -0.1521 0.7154 0.6819
vn -0.7395 0.0257 -0.6727
vn -0.3782 0.0088 -0.9257
vn 0.9589 0.0772 0.2729
vn 0.9173 -0.3983 -0.0000
vn 0.9989 0.0462 -0.0000
vn 0.9589 0.0772 -0.2729
vn 0.8832 -0.3491 -0.3131
vn 0.8601 0.1465 -0.4887
vn 0.7714 -0.2508 -0.5848
vn 0.8083 0.0135 -0.5886
vn -0.4403 -0.8294 0.3438
vn -0.7112 -0.5960 0.3727
vn -0.7614 -0.6483 0.0000
vn -0.9373 -0.3486 -0.0000
vn -0.3606 -0.2416 -0.9009
vn -0.8735 -0.3291 0.3587
vn 0.3053 0.1997 0.9311
vn 0.3036 0.3735 0.8765
vn 0.1352 0.3807 0.9148
vn 0.1712 0.5030 0.8472
vn 0.0414 0.4698 0.8818
vn -0.8790 0.4768 0.0000
vn -0.6428 0.5021 -0.5785
vn -0.2478 0.5774 -0.7779
vn 0.1393 0.6551 -0.7426
vn 0.3036 -0.1762 0.9364
vn 0.1270 0.0031 0.9919
vn 0.3068 0.0017 0.9518
vn 0.1269 0.2062 0.9702
vn 0.3224 0.4968 0.8058
vn 0.1651 0.5542 0.8158
vn 0.1393 0.6551 0.7426
vn -0.1521 0.7154 -0.6819
vn 0.6628 -0.0037 -0.7488
vn 0.6564 0.0291 -0.7538
vn 0.8298 0.5580 0.0000
vn 0.6126 0.4640 -0.6398
vn 0.3323 0.9242 -0.1884
vn 0.2606 0.9645 -0.0426
vn 0.2550 0.9667 -0.0195
vn 0.2537 0.9673 -0.0000
vn 0.2924 0.8110 -0.5068
vn 0.2977 0.1991 -0.9337
vn 0.9113 0.2240 -0.3454
vn 0.7665 -0.1440 -0.6259
vn 0.7946 0.0303 -0.6064
vn -0.4748 0.4319 -0.7668
vn 0.9598 0.2806 0.0000
vn 0.8583 0.5131 0.0000
vn 0.9113 0.2240 0.3454
vn 0.2924 0.8110 0.5068
vn 0.7946 0.0303 0.6064
vn 0.7665 -0.1440 0.6259
vn -0.4748 0.4319 0.7668
vn -0.8957 0.3967 -0.2007
vn -0.0102 0.2846 -0.9586
vn 0.6796 -0.0578 -0.7313
vn 0.6901 -0.0648 -0.7208
vn 0.6744 -0.0365 -0.7375
vn 0.2977 0.1991 0.9337
vn -0.8957 0.3967 0.2007
vn -0.0102 0.2846 0.9586
vn 0.6126 0.4640 0.6398
vn 0.3323 0.9242 0.1884
vn 0.2606 0.9645 0.0426
vn 0.6628 -0.0037 0.7488
vn 0.6564 0.0291 0.7538
vn 0.6901 -0.0648 0.7208
vn 0.6744 -0.0365 0.7375
vn 0.2550 0.9667 0.0195
vn 0.6796 -0.0578 0.7313
usemtl Material.013
s 1
f 43/5892/1 1/5893/2 37/5894/3
f 37/5894/3 1/5893/2 35/5895/4
f 1/5893/2 12/5896/5 35/5895/4
f 35/5895/4 12/5896/5 2/5897/6
f 12/5896/5 3/5898/7 2/5897/6
f 2/5897/6 3/5898/7 33/5899/8
f 3/5898/7 4/5900/9 33/5899/8
f 33/5899/8 4/5900/9 32/5901/10
f 4/5900/9 111/5902/11 32/5901/10
f 32/5901/10 111/5902/11 5/5903/12
f 111/5902/11 6/5904/13 5/5903/12
f 5/5903/12 6/5904/13 31/5905/14
f 6/5904/13 7/5906/15 31/5905/14
f 31/5905/14 7/5906/15 8/5907/16
f 7/5906/15 107/5908/17 8/5907/16
f 8/5907/16 107/5908/17 9/5909/18
f 107/5908/17 76/5910/19 9/5909/18
f 9/5909/18 76/5910/19 10/5911/20
f 76/5910/19 22/5912/21 10/5911/20
f 10/5911/20 22/5912/21 27/5913/22
f 22/5912/21 93/5914/23 27/5913/22
f 27/5913/22 93/5914/23 25/5915/24
f 93/5914/23 11/5916/25 25/5915/24
f 25/5915/24 11/5916/25 23/5917/26
f 12/5896/5 1/5893/2 38/5918/27
f 1/5893/2 44/5919/28 38/5918/27
f 38/5918/27 44/5919/28 70/5920/29
f 44/5919/28 13/5921/30 70/5920/29
f 70/5920/29 13/5921/30 77/5922/31
f 13/5921/30 46/5923/32 77/5922/31
f 77/5922/31 46/5923/32 102/5924/33
f 46/5923/32 47/5925/34 102/5924/33
f 102/5924/33 47/5925/34 14/5926/35
f 47/5925/34 15/5927/36 14/5926/35
f 14/5926/35 15/5927/36 42/5928/37
f 15/5927/36 48/5929/38 42/5928/37
f 42/5928/37 48/5929/38 51/5930/39
f 48/5929/38 88/5931/40 51/5930/39
f 51/5930/39 88/5931/40 16/5932/41
f 88/5931/40 17/5933/42 16/5932/41
f 16/5932/41 17/5933/42 18/5934/43
f 17/5933/42 19/5935/44 18/5934/43
f 18/5934/43 19/5935/44 20/5936/45
f 19/5935/44 90/5937/46 20/5936/45
f 20/5936/45 90/5937/46 54/5938/47
f 90/5937/46 21/5939/48 54/5938/47
f 54/5938/47 21/5939/48 55/5940/49
f 21/5939/48 93/5914/23 55/5940/49
f 55/5940/49 93/5914/23 22/5912/21
f 23/5917/26 24/5941/50 25/5915/24
f 24/5941/50 26/5942/51 25/5915/24
f 25/5915/24 26/5942/51 27/5913/22
f 26/5942/51 28/5943/52 27/5913/22
f 27/5913/22 28/5943/52 10/5911/20
f 28/5943/52 29/5944/53 10/5911/20
f 10/5911/20 29/5944/53 9/5909/18
f 29/5944/53 30/5945/54 9/5909/18
f 9/5909/18 30/5945/54 8/5907/16
f 30/5945/54 64/5946/55 8/5907/16
f 8/5907/16 64/5946/55 31/5905/14
f 64/5946/55 63/5947/56 31/5905/14
f 31/5905/14 63/5947/56 5/5903/12
f 63/5947/56 69/5948/57 5/5903/12
f 5/5903/12 69/5948/57 32/5901/10
f 69/5948/57 68/5949/58 32/5901/10
f 32/5901/10 68/5949/58 33/5899/8
f 68/5949/58 66/5950/59 33/5899/8
f 33/5899/8 66/5950/59 2/5897/6
f 66/5950/59 34/5951/60 2/5897/6
f 2/5897/6 34/5951/60 35/5895/4
f 34/5951/60 36/5952/61 35/5895/4
f 35/5895/4 36/5952/61 37/5894/3
f 12/5896/5 38/5918/27 3/5898/7
f 38/5918/27 71/5953/62 3/5898/7
f 3/5898/7 71/5953/62 4/5900/9
f 71/5953/62 86/5954/63 4/5900/9
f 4/5900/9 86/5954/63 111/5902/11
f 86/5954/63 39/5955/64 111/5902/11
f 111/5902/11 39/5955/64 109/5956/65
f 39/5955/64 40/5957/66 109/5956/65
f 109/5956/65 40/5957/66 41/5958/67
f 40/5957/66 73/5959/68 41/5958/67
f 41/5958/67 73/5959/68 74/5960/69
f 73/5959/68 80/5961/70 74/5960/69
f 74/5960/69 80/5961/70 53/5962/71
f 80/5961/70 113/5963/72 53/5962/71
f 53/5962/71 113/5963/72 52/5964/73
f 113/5963/72 42/5928/37 52/5964/73
f 52/5964/73 42/5928/37 51/5930/39
f 1/5893/2 43/5892/1 44/5919/28
f 43/5892/1 45/5965/74 44/5919/28
f 44/5919/28 45/5965/74 13/5921/30
f 45/5965/74 96/5966/75 13/5921/30
f 13/5921/30 96/5966/75 46/5923/32
f 96/5966/75 97/5967/76 46/5923/32
f 46/5923/32 97/5967/76 47/5925/34
f 97/5967/76 101/5968/77 47/5925/34
f 47/5925/34 101/5968/77 15/5927/36
f 101/5968/77 84/5969/78 15/5927/36
f 15/5927/36 84/5969/78 48/5929/38
f 84/5969/78 49/5970/79 48/5929/38
f 48/5929/38 49/5970/79 88/5931/40
f 49/5970/79 50/5971/80 88/5931/40
f 51/5930/39 16/5932/41 52/5964/73
f 16/5932/41 18/5934/43 52/5964/73
f 52/5964/73 18/5934/43 53/5962/71
f 18/5934/43 20/5936/45 53/5962/71
f 53/5962/71 20/5936/45 74/5960/69
f 20/5936/45 54/5938/47 74/5960/69
f 74/5960/69 54/5938/47 75/5972/81
f 54/5938/47 55/5940/49 75/5972/81
f 75/5972/81 55/5940/49 56/5973/82
f 55/5940/49 22/5912/21 56/5973/82
f 56/5973/82 22/5912/21 76/5910/19
f 57/5974/83 65/5975/84 58/5976/85
f 58/5976/85 65/5975/84 59/5977/86
f 65/5975/84 67/5978/87 59/5977/86
f 59/5977/86 67/5978/87 60/5979/88
f 67/5978/87 61/5980/89 60/5979/88
f 60/5979/88 61/5980/89 62/5981/90
f 61/5980/89 63/5947/56 62/5981/90
f 62/5981/90 63/5947/56 64/5946/55
f 36/5952/61 34/5951/60 57/5974/83
f 57/5974/83 34/5951/60 65/5975/84
f 34/5951/60 66/5950/59 65/5975/84
f 65/5975/84 66/5950/59 67/5978/87
f 66/5950/59 68/5949/58 67/5978/87
f 67/5978/87 68/5949/58 61/5980/89
f 68/5949/58 69/5948/57 61/5980/89
f 61/5980/89 69/5948/57 63/5947/56
f 38/5918/27 70/5920/29 71/5953/62
f 70/5920/29 77/5922/31 71/5953/62
f 71/5953/62 77/5922/31 85/5982/91
f 77/5922/31 72/5983/92 85/5982/91
f 85/5982/91 72/5983/92 87/5984/93
f 72/5983/92 79/5985/94 87/5984/93
f 87/5984/93 79/5985/94 40/5957/66
f 79/5985/94 73/5959/68 40/5957/66
f 74/5960/69 75/5972/81 41/5958/67
f 75/5972/81 56/5973/82 41/5958/67
f 41/5958/67 56/5973/82 108/5986/95
f 56/5973/82 76/5910/19 108/5986/95
f 108/5986/95 76/5910/19 107/5908/17
f 77/5922/31 102/5924/33 72/5983/92
f 102/5924/33 78/5987/96 72/5983/92
f 72/5983/92 78/5987/96 79/5985/94
f 78/5987/96 80/5961/70 79/5985/94
f 79/5985/94 80/5961/70 73/5959/68
f 81/5988/97 82/5989/98 83/5990/99
f 82/5989/98 104/5991/100 83/5990/99
f 83/5990/99 104/5991/100 84/5969/78
f 104/5991/100 106/5992/101 84/5969/78
f 71/5953/62 85/5982/91 86/5954/63
f 85/5982/91 87/5984/93 86/5954/63
f 86/5954/63 87/5984/93 39/5955/64
f 87/5984/93 40/5957/66 39/5955/64
f 88/5931/40 89/5993/102 17/5933/42
f 89/5993/102 91/5994/103 17/5933/42
f 17/5933/42 91/5994/103 19/5935/44
f 91/5994/103 90/5937/46 19/5935/44
f 90/5937/46 91/5994/103 21/5939/48
f 91/5994/103 92/5995/104 21/5939/48
f 21/5939/48 92/5995/104 93/5914/23
f 92/5995/104 94/5996/105 93/5914/23
f 43/5892/1 95/5997/106 45/5965/74
f 95/5997/106 98/5998/107 45/5965/74
f 45/5965/74 98/5998/107 96/5966/75
f 98/5998/107 97/5967/76 96/5966/75
f 95/5997/106 100/5999/108 98/5998/107
f 100/5999/108 99/6000/109 98/5998/107
f 98/5998/107 99/6000/109 97/5967/76
f 99/6000/109 101/5968/77 97/5967/76
f 100/5999/108 81/5988/97 99/6000/109
f 81/5988/97 83/5990/99 99/6000/109
f 99/6000/109 83/5990/99 101/5968/77
f 83/5990/99 84/5969/78 101/5968/77
f 80/5961/70 78/5987/96 113/5963/72
f 78/5987/96 102/5924/33 113/5963/72
f 113/5963/72 102/5924/33 14/5926/35
f 82/5989/98 103/6001/110 104/5991/100
f 103/6001/110 105/6002/111 104/5991/100
f 104/5991/100 105/6002/111 106/5992/101
f 107/5908/17 7/5906/15 108/5986/95
f 7/5906/15 109/5956/65 108/5986/95
f 108/5986/95 109/5956/65 41/5958/67
f 50/5971/80 49/5970/79 110/6003/112
f 49/5970/79 84/5969/78 110/6003/112
f 111/5902/11 109/5956/65 6/5904/13
f 109/5956/65 7/5906/15 6/5904/13
f 94/5996/105 92/5995/104 112/6004/113
f 92/5995/104 91/5994/103 112/6004/113
f 42/5928/37 113/5963/72 14/5926/35
f 114/6005/114 115/6006/115 147/6007/116
f 115/6006/115 116/6008/117 147/6007/116
f 147/6007/116 116/6008/117 117/6009/118
f 120/6010/119 147/6007/116 117/6009/118
f 147/6007/116 118/6011/120 119/6012/121
f 147/6007/116 120/6010/119 118/6011/120
f 151/6013/122 121/6014/123 125/6015/124
f 121/6014/123 122/6016/125 125/6015/124
f 125/6015/124 122/6016/125 124/6017/126
f 122/6016/125 123/6018/127 124/6017/126
f 124/6017/126 123/6018/127 147/6007/116
f 124/6017/126 147/6007/116 125/6015/124
f 147/6007/116 127/6019/128 125/6015/124
f 125/6015/124 127/6019/128 150/6020/129
f 127/6019/128 126/6021/130 150/6020/129
f 150/6020/129 126/6021/130 134/6022/131
f 127/6019/128 147/6007/116 126/6021/130
f 147/6007/116 149/6023/132 126/6021/130
f 126/6021/130 149/6023/132 136/6024/133
f 149/6023/132 128/6025/134 136/6024/133
f 123/6018/127 129/6026/135 147/6007/116
f 129/6026/135 130/6027/136 147/6007/116
f 147/6007/116 130/6027/136 131/6028/137
f 131/6028/137 132/6029/138 147/6007/116
f 132/6029/138 133/6030/139 147/6007/116
f 147/6007/116 133/6030/139 114/6005/114
f 134/6022/131 126/6021/130 135/6031/140
f 126/6021/130 136/6024/133 135/6031/140
f 128/6025/134 147/6007/116 137/6032/141
f 147/6007/116 138/6033/142 137/6032/141
f 142/6034/143 147/6007/116 139/6035/144
f 147/6007/116 140/6036/145 139/6035/144
f 145/6037/146 147/6007/116 141/6038/147
f 147/6007/116 142/6034/143 141/6038/147
f 143/6039/148 147/6007/116 144/6040/149
f 147/6007/116 145/6037/146 144/6040/149
f 140/6036/145 147/6007/116 146/6041/150
f 147/6007/116 119/6012/121 146/6041/150
f 138/6033/142 147/6007/116 148/6042/151
f 147/6007/116 143/6039/148 148/6042/151
f 149/6023/132 147/6007/116 128/6025/134
f 125/6015/124 150/6020/129 151/6013/122
