mtllib Hair.mtl
o Mesh_0005.rip.030_Mesh_0005.rip_mesh0000.039
v -0.248789 0.429609 0.154766
v -0.186523 0.486875 0.201016
v 0.000000 0.620000 0.204180
v -0.060000 0.670000 0.106016
v 0.161328 0.582305 -0.205742
v 0.335195 0.334375 -0.113086
v 0.335195 0.334375 0.113086
v 0.321289 0.210469 0.113086
v 0.183789 0.108906 0.106680
v 0.160664 0.134453 0.217383
v -0.120000 0.240000 -0.244414
v -0.120000 0.340000 -0.244766
v -0.050000 0.410000 -0.261172
v -0.249492 0.509063 -0.186914
v -0.290937 0.538125 -0.123320
v -0.190000 0.660000 0.000000
v -0.164101 0.605859 0.168437
v -0.180000 0.640898 0.100000
v -0.070000 0.690000 0.000000
v 0.063125 0.692422 0.000000
v 0.060039 0.674883 -0.106016
v 0.020000 0.460000 -0.302266
v -0.050000 0.410000 0.261172
v 0.028672 0.529570 0.254414
v 0.263945 0.437031 0.197852
v 0.270274 0.561172 0.106016
v 0.331563 0.455039 0.106016
v -0.120000 0.240000 0.244414
v -0.120000 0.340000 0.244766
v -0.040000 0.289023 0.265273
v 0.020000 0.460000 0.302266
v 0.080000 0.400000 0.267578
v 0.132227 0.444258 0.262461
v 0.206914 0.288164 0.254844
v 0.090234 0.219062 0.240000
v -0.040000 0.289023 -0.265273
v -0.000898 0.330352 -0.272734
v -0.088437 0.453242 -0.257266
v 0.028672 0.529570 -0.254414
v -0.130000 0.542969 -0.228633
v 0.000000 0.620000 -0.204180
v -0.164101 0.605859 -0.168437
v -0.060000 0.670000 -0.106016
v -0.180000 0.633086 -0.100000
v -0.140000 0.410000 0.239883
v -0.100000 0.480000 0.254414
v -0.130000 0.542969 0.228672
v 0.060039 0.674883 0.106016
v 0.284219 0.572851 0.000000
v 0.263945 0.437031 -0.197852
v 0.140000 0.340000 -0.261289
v 0.206914 0.288164 -0.254844
v 0.090234 0.219062 -0.240000
v 0.160664 0.134453 -0.217383
v 0.183789 0.108906 -0.106680
v -0.183047 0.556055 0.190586
v -0.232266 0.574102 0.129609
v -0.296484 0.539805 0.057344
v -0.298672 0.562149 -0.047500
v -0.140000 0.410000 -0.239883
v -0.178711 0.478477 -0.236445
v -0.259258 0.424922 -0.169102
v -0.297109 0.451563 -0.094961
v -0.120000 0.340000 -0.244766
v -0.120000 0.240000 -0.244414
v -0.040000 0.289023 -0.265273
v 0.331563 0.455039 -0.106016
v 0.348633 0.461250 0.000000
v 0.270274 0.561172 -0.106016
v 0.176406 0.639922 -0.106016
v 0.185508 0.655664 0.000000
v -0.000898 0.330352 0.272734
v 0.047461 0.280781 0.292969
v 0.140000 0.340000 0.261289
v 0.223672 0.062930 0.000000
v 0.313750 0.220156 0.000000
v 0.253828 0.241953 -0.197852
v -0.248789 0.429609 0.154766
v -0.186523 0.486875 0.201016
v -0.140000 0.410000 0.239883
v -0.120000 0.340000 0.244766
v -0.120000 0.240000 0.244414
v -0.040000 0.289023 0.265273
v -0.260000 0.500000 0.151875
v -0.276914 0.448125 0.096992
v -0.299492 0.493086 0.078711
v -0.290430 0.420000 0.043750
v 0.161328 0.582305 0.205742
v 0.176406 0.639922 0.106016
v 0.253828 0.241953 0.197852
v 0.352461 0.334375 0.000000
v -0.260000 0.500000 0.151875
v -0.276914 0.448125 0.096992
v -0.290430 0.420000 0.043750
v -0.303750 0.412695 -0.007891
v -0.313359 0.485586 -0.015820
v -0.297109 0.451563 -0.094961
v -0.100000 0.540000 0.104570
v -0.259258 0.424922 -0.169102
v -0.140000 0.410000 -0.239883
v -0.000898 0.330352 -0.272734
v 0.047461 0.280781 -0.292969
v -0.274531 0.581914 0.035234
v -0.036992 0.290625 0.000000
v -0.000898 0.330352 0.272734
v 0.090234 0.219062 0.240000
v 0.047461 0.280781 0.292969
v 0.183789 0.108906 0.106680
v 0.160664 0.134453 0.217383
v 0.183789 0.108906 -0.106680
v 0.223672 0.062930 0.000000
v 0.090234 0.219062 -0.240000
v 0.160664 0.134453 -0.217383
v 0.047461 0.280781 -0.292969
v 0.080000 0.400000 -0.267578
v -0.303750 0.412695 -0.007891
v -0.313359 0.485586 -0.015820
v 0.132227 0.444258 -0.262461
v 0.321289 0.210469 -0.113086
vn 0.5619 0.0556 -0.8253
vn 0.7279 -0.1925 -0.6581
vn 0.5360 -0.1028 -0.8379
vn 0.5441 -0.3661 -0.7550
vn 0.3434 -0.3620 -0.8666
vn 0.3927 -0.6782 -0.6211
vn 0.0221 -0.7030 -0.7109
vn 0.1375 -0.9263 -0.3508
vn -0.1246 -0.9308 -0.3436
vn -0.1312 -0.9914 0.0000
vn -0.4755 -0.8797 0.0000
vn -0.1246 -0.9308 0.3436
vn -0.4420 -0.8323 0.3344
vn -0.3824 -0.5702 0.7271
vn -0.7210 -0.5830 0.3744
vn -0.6392 -0.1940 0.7442
vn -0.8875 -0.2596 0.3808
vn -0.9199 0.0627 0.3872
vn -0.9897 0.1430 0.0000
vn -0.8825 0.4703 0.0000
vn -0.9199 0.0627 -0.3872
vn -0.8286 0.4836 -0.2821
vn -0.6234 0.3341 -0.7069
vn -0.6981 0.6195 -0.3590
vn -0.5824 0.3736 -0.7220
vn 0.2503 0.0034 0.9682
vn 0.2334 -0.0078 0.9723
vn 0.2402 -0.0047 0.9707
vn 0.3174 0.1118 0.9417
vn 0.3057 0.1060 0.9462
vn 0.2412 -0.0667 0.9682
vn 0.4081 -0.0760 0.9098
vn 0.2457 -0.4306 0.8684
vn 0.6624 -0.2312 0.7126
vn 0.3715 -0.7100 0.5983
vn 0.8292 -0.3587 0.4287
vn 0.4280 -0.8398 0.3342
vn 0.8522 -0.5098 0.1178
vn 0.4442 -0.8955 0.0268
vn 0.7361 -0.6491 -0.1918
vn 0.4376 -0.8285 -0.3495
vn 0.6799 -0.5405 -0.4955
vn 0.1453 -0.9893 0.0086
vn 0.1569 -0.9258 0.3438
vn 0.0222 -0.7029 0.7109
vn -0.0321 -0.4631 0.8857
vn -0.3296 -0.1415 0.9335
vn 0.0232 -0.1911 0.9813
vn -0.1988 0.0792 0.9768
vn 0.1552 -0.0227 0.9876
vn -0.2465 0.0449 0.9681
vn 0.2402 -0.0047 -0.9707
vn 0.3314 -0.0205 -0.9433
vn 0.3233 0.0912 -0.9419
vn 0.3285 -0.1461 -0.9331
vn -0.0031 -0.1683 -0.9857
vn -0.0515 -0.4773 -0.8772
vn -0.3296 -0.1415 -0.9335
vn -0.3824 -0.5702 -0.7271
vn -0.6392 -0.1940 -0.7442
vn -0.7210 -0.5830 -0.3744
vn -0.8875 -0.2596 -0.3808
vn -0.9614 -0.2751 0.0000
vn 0.2503 0.0034 -0.9682
vn 0.2334 -0.0078 -0.9723
vn 0.1552 -0.0227 -0.9876
vn -0.1988 0.0792 -0.9768
vn -0.2493 -0.0107 -0.9684
vn -0.3890 0.1881 -0.9018
vn -0.2895 0.2727 -0.9175
vn -0.4420 -0.8323 -0.3344
vn -0.7661 -0.6428 -0.0000
vn -0.2493 -0.0107 0.9684
vn -0.3890 0.1881 0.9018
vn -0.2895 0.2727 0.9175
vn -0.6234 0.3341 0.7069
vn -0.5824 0.3736 0.7220
vn -0.6981 0.6195 0.3590
vn 0.9301 -0.0210 -0.3668
vn 0.8860 -0.3564 -0.2967
vn 0.9981 -0.0560 -0.0251
vn 0.7544 0.0791 0.6516
vn 0.9365 0.0228 0.3499
vn 0.6900 0.6471 -0.3243
vn 0.4726 0.8673 0.1564
vn 0.9469 0.1725 -0.2715
vn 0.7759 0.6305 -0.0212
vn 0.4068 0.8572 -0.3157
vn -0.6405 0.7680 0.0026
vn -0.2465 0.0449 -0.9681
vn -0.8677 0.4971 0.0000
vn -0.8286 0.4836 0.2821
vn -0.1575 0.5768 0.8016
vn -0.1447 0.9158 0.3746
vn 0.7380 0.3642 0.5681
vn 0.9306 0.0967 0.3530
vn 0.4068 0.8572 0.3157
vn -0.6405 0.7680 -0.0026
vn 0.8666 0.2626 -0.4244
vn 0.9182 0.2578 -0.3009
vn 0.9648 0.1674 -0.2029
vn -0.1153 0.9159 0.3846
vn -0.4034 0.8116 -0.4225
vn -0.5113 0.8551 -0.0863
vn -0.6289 0.4410 0.6403
vn -0.3926 0.8682 0.3035
vn -0.0387 0.9272 -0.3727
vn -0.0739 0.9339 -0.3497
vn 0.2151 0.9619 0.1686
vn 0.7326 0.6539 0.1892
vn 0.7326 0.6538 -0.1892
vn 0.2151 0.9619 -0.1686
vn 0.6868 0.7188 -0.1081
vn 0.7271 0.6601 -0.1886
vn 0.6579 0.7531 0.0000
vn 0.6515 0.7563 -0.0601
vn 0.6868 0.7188 0.1081
vn 0.6515 0.7563 0.0601
vn 0.7271 0.6601 0.1886
usemtl Material.013
s 1
f 1/2617/1 84/2618/2 2/2619/3
f 84/2618/2 56/2620/4 2/2619/3
f 2/2619/3 56/2620/4 47/2621/5
f 56/2620/4 17/2622/6 47/2621/5
f 47/2621/5 17/2622/6 3/2623/7
f 17/2622/6 4/2624/8 3/2623/7
f 3/2623/7 4/2624/8 48/2625/9
f 4/2624/8 20/2626/10 48/2625/9
f 48/2625/9 20/2626/10 71/2627/11
f 20/2626/10 21/2628/12 71/2627/11
f 71/2627/11 21/2628/12 70/2629/13
f 21/2628/12 5/2630/14 70/2629/13
f 70/2629/13 5/2630/14 69/2631/15
f 5/2630/14 50/2632/16 69/2631/15
f 69/2631/15 50/2632/16 67/2633/17
f 50/2632/16 6/2634/18 67/2633/17
f 67/2633/17 6/2634/18 91/2635/19
f 6/2634/18 76/2636/20 91/2635/19
f 91/2635/19 76/2636/20 7/2637/21
f 76/2636/20 8/2638/22 7/2637/21
f 7/2637/21 8/2638/22 90/2639/23
f 8/2638/22 9/2640/24 90/2639/23
f 90/2639/23 9/2640/24 10/2641/25
f 11/2642/26 36/2643/27 12/2644/28
f 36/2643/27 13/2645/29 12/2644/28
f 12/2644/28 13/2645/29 60/2646/30
f 13/2645/29 38/2647/31 60/2646/30
f 60/2646/30 38/2647/31 61/2648/32
f 38/2647/31 40/2649/33 61/2648/32
f 61/2648/32 40/2649/33 14/2650/34
f 40/2649/33 42/2651/35 14/2650/34
f 14/2650/34 42/2651/35 15/2652/36
f 42/2651/35 44/2653/37 15/2652/36
f 15/2652/36 44/2653/37 59/2654/38
f 44/2653/37 16/2655/39 59/2654/38
f 59/2654/38 16/2655/39 103/2656/40
f 16/2655/39 18/2657/41 103/2656/40
f 103/2656/40 18/2657/41 57/2658/42
f 18/2657/41 17/2622/6 57/2658/42
f 57/2658/42 17/2622/6 56/2620/4
f 17/2622/6 18/2657/41 4/2624/8
f 18/2657/41 19/2659/43 4/2624/8
f 4/2624/8 19/2659/43 20/2626/10
f 19/2659/43 43/2660/44 20/2626/10
f 20/2626/10 43/2660/44 21/2628/12
f 43/2660/44 41/2661/45 21/2628/12
f 21/2628/12 41/2661/45 5/2630/14
f 41/2661/45 39/2662/46 5/2630/14
f 5/2630/14 39/2662/46 118/2663/47
f 39/2662/46 22/2664/48 118/2663/47
f 118/2663/47 22/2664/48 115/2665/49
f 22/2664/48 37/2666/50 115/2665/49
f 115/2665/49 37/2666/50 114/2667/51
f 29/2668/52 45/2669/53 23/2670/54
f 45/2669/53 46/2671/55 23/2670/54
f 23/2670/54 46/2671/55 31/2672/56
f 46/2671/55 24/2673/57 31/2672/56
f 31/2672/56 24/2673/57 33/2674/58
f 24/2673/57 88/2675/59 33/2674/58
f 33/2674/58 88/2675/59 25/2676/60
f 88/2675/59 26/2677/61 25/2676/60
f 25/2676/60 26/2677/61 27/2678/62
f 26/2677/61 68/2679/63 27/2678/62
f 27/2678/62 68/2679/63 91/2635/19
f 68/2679/63 67/2633/17 91/2635/19
f 28/2680/64 29/2668/52 30/2681/65
f 29/2668/52 23/2670/54 30/2681/65
f 30/2681/65 23/2670/54 72/2682/66
f 23/2670/54 31/2672/56 72/2682/66
f 72/2682/66 31/2672/56 32/2683/67
f 31/2672/56 33/2674/58 32/2683/67
f 32/2683/67 33/2674/58 74/2684/68
f 33/2674/58 25/2676/60 74/2684/68
f 74/2684/68 25/2676/60 34/2685/69
f 25/2676/60 90/2639/23 34/2685/69
f 34/2685/69 90/2639/23 35/2686/70
f 90/2639/23 10/2641/25 35/2686/70
f 36/2643/27 37/2666/50 13/2645/29
f 37/2666/50 22/2664/48 13/2645/29
f 13/2645/29 22/2664/48 38/2647/31
f 22/2664/48 39/2662/46 38/2647/31
f 38/2647/31 39/2662/46 40/2649/33
f 39/2662/46 41/2661/45 40/2649/33
f 40/2649/33 41/2661/45 42/2651/35
f 41/2661/45 43/2660/44 42/2651/35
f 42/2651/35 43/2660/44 44/2653/37
f 43/2660/44 19/2659/43 44/2653/37
f 44/2653/37 19/2659/43 16/2655/39
f 19/2659/43 18/2657/41 16/2655/39
f 45/2669/53 2/2619/3 46/2671/55
f 2/2619/3 47/2621/5 46/2671/55
f 46/2671/55 47/2621/5 24/2673/57
f 47/2621/5 3/2623/7 24/2673/57
f 24/2673/57 3/2623/7 88/2675/59
f 3/2623/7 48/2625/9 88/2675/59
f 88/2675/59 48/2625/9 89/2687/71
f 48/2625/9 71/2627/11 89/2687/71
f 89/2687/71 71/2627/11 49/2688/72
f 5/2630/14 118/2663/47 50/2632/16
f 118/2663/47 51/2689/73 50/2632/16
f 50/2632/16 51/2689/73 52/2690/74
f 51/2689/73 53/2691/75 52/2690/74
f 52/2690/74 53/2691/75 77/2692/76
f 53/2691/75 54/2693/77 77/2692/76
f 77/2692/76 54/2693/77 55/2694/78
f 56/2620/4 84/2618/2 57/2658/42
f 84/2618/2 86/2695/79 57/2658/42
f 57/2658/42 86/2695/79 58/2696/80
f 86/2695/79 117/2697/81 58/2696/80
f 58/2696/80 117/2697/81 59/2654/38
f 117/2697/81 15/2652/36 59/2654/38
f 60/2646/30 61/2648/32 62/2698/82
f 61/2648/32 14/2650/34 62/2698/82
f 62/2698/82 14/2650/34 63/2699/83
f 14/2650/34 15/2652/36 63/2699/83
f 63/2699/83 15/2652/36 117/2697/81
f 100/2700/84 98/2701/85 64/2702/86
f 98/2701/85 104/2703/87 64/2702/86
f 64/2702/86 104/2703/87 65/2704/88
f 104/2703/87 66/2705/89 65/2704/88
f 67/2633/17 68/2679/63 69/2631/15
f 68/2679/63 49/2688/72 69/2631/15
f 69/2631/15 49/2688/72 70/2629/13
f 49/2688/72 71/2627/11 70/2629/13
f 72/2682/66 32/2683/67 73/2706/90
f 32/2683/67 74/2684/68 73/2706/90
f 73/2706/90 74/2684/68 35/2686/70
f 74/2684/68 34/2685/69 35/2686/70
f 75/2707/91 76/2636/20 55/2694/78
f 76/2636/20 119/2708/92 55/2694/78
f 55/2694/78 119/2708/92 77/2692/76
f 119/2708/92 6/2634/18 77/2692/76
f 78/2709/93 79/2710/94 98/2701/85
f 79/2710/94 80/2711/95 98/2701/85
f 98/2701/85 80/2711/95 81/2712/96
f 98/2701/85 81/2712/96 104/2703/87
f 81/2712/96 82/2713/97 104/2703/87
f 104/2703/87 82/2713/97 83/2714/98
f 84/2618/2 85/2715/99 86/2695/79
f 85/2715/99 87/2716/100 86/2695/79
f 86/2695/79 87/2716/100 116/2717/101
f 88/2675/59 89/2687/71 26/2677/61
f 89/2687/71 49/2688/72 26/2677/61
f 26/2677/61 49/2688/72 68/2679/63
f 90/2639/23 25/2676/60 7/2637/21
f 25/2676/60 27/2678/62 7/2637/21
f 7/2637/21 27/2678/62 91/2635/19
f 78/2709/93 98/2701/85 92/2718/102
f 98/2701/85 93/2719/103 92/2718/102
f 93/2719/103 98/2701/85 94/2720/104
f 98/2701/85 95/2721/105 94/2720/104
f 95/2721/105 98/2701/85 96/2722/106
f 98/2701/85 97/2723/107 96/2722/106
f 97/2723/107 98/2701/85 99/2724/108
f 98/2701/85 100/2700/84 99/2724/108
f 66/2705/89 104/2703/87 101/2725/109
f 104/2703/87 102/2726/110 101/2725/109
f 57/2658/42 58/2696/80 103/2656/40
f 58/2696/80 59/2654/38 103/2656/40
f 107/2727/111 104/2703/87 105/2728/112
f 104/2703/87 83/2714/98 105/2728/112
f 109/2729/113 104/2703/87 106/2730/114
f 104/2703/87 107/2727/111 106/2730/114
f 111/2731/115 104/2703/87 108/2732/116
f 104/2703/87 109/2729/113 108/2732/116
f 113/2733/117 104/2703/87 110/2734/118
f 104/2703/87 111/2731/115 110/2734/118
f 102/2726/110 104/2703/87 112/2735/119
f 104/2703/87 113/2733/117 112/2735/119
f 53/2691/75 51/2689/73 114/2667/51
f 51/2689/73 115/2665/49 114/2667/51
f 52/2690/74 77/2692/76 50/2632/16
f 77/2692/76 6/2634/18 50/2632/16
f 8/2638/22 76/2636/20 9/2640/24
f 76/2636/20 75/2707/91 9/2640/24
f 116/2717/101 117/2697/81 86/2695/79
f 51/2689/73 118/2663/47 115/2665/49
f 6/2634/18 119/2708/92 76/2636/20
