mtllib Hair.mtl
o Mesh_0005.rip.042_Mesh_0005.rip_mesh0000.052
v -0.282383 0.479102 0.133555
v -0.245859 0.553750 0.161680
v -0.048672 0.610625 0.187617
v -0.140000 0.490000 0.250000
v 0.028672 0.529570 0.254414
v 0.020000 0.430000 0.290000
v 0.266836 0.254414 0.197852
v 0.314219 0.130000 0.103828
v 0.330000 0.130000 0.000000
v 0.314219 0.130000 -0.103828
v 0.256328 0.130000 -0.187422
v 0.025781 0.068828 -0.253359
v 0.331563 0.455039 -0.106016
v 0.270274 0.561172 -0.106016
v 0.286094 0.573359 0.000000
v 0.060039 0.674883 0.106016
v -0.182226 0.650000 0.000000
v -0.180000 0.630000 -0.106016
v -0.236015 0.613945 0.000000
v 0.085781 0.008828 -0.208125
v 0.140000 -0.025117 -0.154023
v 0.186992 0.000000 -0.170117
v 0.190000 -0.049297 -0.100000
v 0.240000 0.000000 -0.100000
v 0.280000 0.000000 0.000000
v 0.160000 0.220000 0.260000
v 0.160000 0.334375 0.261289
v -0.280976 0.413438 0.164297
v 0.140000 0.100000 -0.242266
v 0.266836 0.254414 -0.197852
v 0.263945 0.437031 -0.197852
v -0.140000 0.490000 -0.250000
v -0.164570 0.570000 -0.187617
v -0.305391 0.479102 0.030625
v -0.303984 0.413438 -0.030469
v -0.288789 0.444648 -0.159805
v -0.250703 0.391523 -0.215078
v 0.020000 0.430000 -0.290000
v 0.160000 0.334375 -0.261289
v -0.305117 0.500625 -0.094258
v -0.048672 0.610625 -0.187617
v -0.058203 0.664453 -0.106016
v 0.060039 0.674883 -0.106016
v 0.063125 0.692422 0.000000
v -0.014219 0.138828 -0.280000
v 0.160000 0.220000 -0.260000
v -0.037812 0.218828 -0.290000
v 0.020000 0.330000 -0.300000
v -0.050742 0.277109 -0.287461
v -0.113867 0.279297 -0.260430
v 0.129024 0.442617 0.254414
v 0.158399 0.581836 0.187617
v 0.270274 0.561172 0.106016
v 0.348633 0.461250 0.000000
v -0.254023 0.355547 0.198828
v -0.201719 0.391523 0.257422
v -0.211719 0.312227 0.232148
v -0.151953 0.286992 0.261094
v -0.097851 0.279297 0.280156
v -0.050742 0.277109 0.287461
v 0.020000 0.330000 0.300000
v -0.037812 0.218828 0.290000
v -0.014219 0.138828 0.280000
v 0.140000 0.100000 0.242266
v 0.025781 0.068828 0.253359
v 0.263945 0.437031 0.197852
v 0.331563 0.455039 0.106016
v 0.335508 0.288398 0.109805
v 0.350664 0.288398 0.000000
v 0.335508 0.288398 -0.109805
v 0.179219 0.639922 0.108281
v 0.179219 0.639922 -0.108281
v 0.158399 0.581836 -0.187617
v -0.080000 0.400000 -0.283086
v -0.119648 0.320000 -0.283203
v -0.182969 0.286992 -0.222383
v -0.058203 0.664453 0.106016
v -0.061211 0.681445 0.000000
v 0.256328 0.130000 0.187422
v 0.186992 -0.000000 0.170117
v 0.085781 0.008828 0.208125
v -0.211719 0.312227 0.232148
v -0.151953 0.286992 0.261094
v -0.097851 0.279297 0.280156
v 0.230000 -0.060000 -0.000000
v 0.190000 -0.049297 -0.100000
v 0.140000 -0.025117 -0.154023
v 0.085781 0.008828 -0.208125
v 0.025781 0.068828 -0.253359
v -0.014219 0.138828 -0.280000
v 0.140000 -0.025117 0.154023
v 0.129024 0.442617 -0.254414
v 0.028672 0.529570 -0.254414
v -0.280976 0.413438 0.164297
v -0.254023 0.355547 0.198828
v 0.188242 0.655508 0.000000
v -0.164570 0.570000 0.187617
v -0.282383 0.479102 0.133555
v -0.025391 0.593594 0.100664
v -0.248984 0.575703 0.099570
v -0.305391 0.479102 0.030625
v -0.303984 0.413438 -0.030469
v -0.080000 0.400000 0.283086
v -0.141562 0.345820 0.277422
v -0.105664 0.320000 0.291562
v -0.182969 0.286992 -0.222383
v -0.113867 0.279297 -0.260430
v -0.285039 0.355547 -0.098203
v -0.242734 0.312227 -0.164687
v -0.248984 0.575703 0.099570
v -0.180000 0.630000 0.106016
v -0.287851 0.553750 -0.025195
v -0.258125 0.500625 0.196875
v -0.238789 0.444648 0.229688
v -0.190586 0.345820 -0.255000
v 0.190000 -0.049297 0.100000
v 0.140000 -0.025117 0.154023
v 0.085781 0.008828 0.208125
v 0.067734 0.324844 0.000000
v 0.025781 0.068828 0.253359
v -0.014219 0.138828 0.280000
v -0.037812 0.218828 0.290000
v -0.050742 0.277109 0.287461
v -0.037812 0.218828 -0.290000
v -0.050742 0.277109 -0.287461
v 0.240000 -0.000000 0.100000
v 0.230000 -0.060000 -0.000000
v 0.190000 -0.049297 0.100000
v -0.285039 0.355547 -0.098203
v -0.242734 0.312227 -0.164687
vn 0.9319 -0.2503 -0.2627
vn 0.7438 -0.6287 -0.2269
vn 0.6606 -0.5856 -0.4697
vn 0.4015 -0.8398 -0.3656
vn 0.2822 -0.6434 -0.7116
vn 0.1034 -0.7077 -0.6989
vn 0.2268 -0.3958 -0.8899
vn -0.0792 -0.4812 -0.8730
vn -0.0757 -0.2172 -0.9732
vn -0.3298 -0.2494 -0.9105
vn -0.3824 -0.0536 -0.9225
vn -0.6155 -0.2167 -0.7578
vn -0.6735 0.0593 -0.7368
vn -0.9234 0.0478 -0.3809
vn -0.8875 0.2778 -0.3677
vn -0.9692 0.2461 0.0000
vn -0.8450 0.5348 0.0000
vn -0.8875 0.2778 0.3677
vn -0.7233 0.5518 0.4151
vn -0.6625 0.2682 0.6994
vn -0.4504 0.5931 0.6674
vn -0.3174 0.3112 0.8958
vn -0.2319 0.5167 0.8242
vn -0.1813 0.3354 0.9245
vn -0.6735 0.0593 0.7368
vn -0.9234 0.0478 0.3809
vn -0.6155 -0.2167 0.7578
vn -0.8899 -0.2493 0.3820
vn -0.7078 -0.5769 0.4076
vn -0.9647 -0.2633 0.0000
vn -0.7742 -0.6329 -0.0000
vn -0.7078 -0.5769 -0.4076
vn -0.4337 -0.8114 -0.3919
vn -0.3462 -0.5748 -0.7415
vn -0.0941 -0.9084 -0.4073
vn 0.1685 -0.9165 -0.3628
vn 0.1761 -0.9844 0.0000
vn 0.4045 -0.9145 0.0000
vn 0.4597 -0.7954 0.3951
vn 0.6667 -0.7453 0.0099
vn 0.8517 -0.5217 0.0493
vn 0.9709 -0.2181 -0.0991
vn -0.2002 0.7660 0.6109
vn -0.5662 0.6954 0.4424
vn -0.7453 0.6668 0.0000
vn -0.7233 0.5518 -0.4151
vn -0.6625 0.2682 -0.6994
vn -0.3593 0.1059 -0.9272
vn -0.0863 -0.0009 -0.9963
vn 0.1522 -0.1820 -0.9714
vn 0.4671 -0.0134 -0.8841
vn 0.6117 -0.1396 -0.7787
vn 0.7467 0.1044 -0.6569
vn 0.8727 -0.0191 -0.4878
vn -0.3593 0.1059 0.9272
vn -0.3824 -0.0536 0.9225
vn -0.3298 -0.2494 0.9105
vn -0.3462 -0.5748 0.7415
vn -0.0792 -0.4812 0.8730
vn 0.1034 -0.7077 0.6989
vn 0.3354 -0.3535 0.8733
vn 0.4273 -0.5884 0.6865
vn 0.8581 -0.1243 0.4983
vn 0.9079 -0.3041 0.2885
vn 0.9933 0.0804 0.0828
vn 0.9397 0.2258 0.2567
vn 0.7199 0.0439 0.6927
vn 0.2035 -0.1572 0.9664
vn -0.0757 -0.2172 0.9732
vn -0.0759 -0.0005 0.9971
vn 0.1685 -0.9165 0.3628
vn -0.0941 -0.9084 0.4073
vn -0.1007 -0.9949 0.0000
vn -0.4725 -0.8813 -0.0000
vn -0.1646 0.1526 0.9745
vn -0.0755 0.0920 0.9929
vn 0.1773 0.1030 0.9788
vn 0.3316 0.1860 0.9249
vn 0.4122 0.4887 0.7689
vn 0.6014 0.4468 0.6624
vn -0.8899 -0.2493 -0.3820
vn -0.9985 0.0538 0.0000
vn 0.5669 0.1695 -0.8061
vn 0.3553 0.0120 -0.9347
vn 0.4477 0.1954 -0.8726
vn 0.2459 0.0814 -0.9659
vn 0.2463 0.3051 -0.9199
vn 0.1249 0.1087 -0.9862
vn -0.0755 0.0920 -0.9929
vn -0.1646 0.1526 -0.9745
vn -0.3174 0.3112 -0.8958
vn -0.1813 0.3354 -0.9245
vn -0.2319 0.5167 -0.8242
vn -0.4337 -0.8114 0.3919
vn 0.5362 0.1275 0.8344
vn 0.8035 0.3710 0.4655
vn -0.4504 0.5931 -0.6674
vn -0.2002 0.7660 -0.6109
vn -0.1741 0.5092 0.8429
vn -0.2027 0.5184 0.8308
vn 0.4158 0.8950 0.1613
vn -0.1626 0.5173 0.8402
vn 0.6266 0.3765 0.6824
vn 0.8286 0.3805 0.4106
vn 0.9214 0.3885 0.0000
vn 0.9315 0.3610 -0.0450
vn 0.8286 0.3805 -0.4106
vn 0.7587 0.3872 -0.5239
vn 0.7647 0.3843 -0.5173
vn 0.8006 0.3500 -0.4863
vn 0.8621 0.2678 -0.4303
vn -0.5662 0.6954 -0.4424
vn -0.0604 0.3985 0.9152
vn -0.0991 0.4534 0.8858
vn -0.1397 0.4892 0.8609
vn 0.7086 -0.3581 -0.6080
vn -0.0799 0.9927 0.0900
vn -0.0815 0.6576 -0.7490
vn -0.1378 0.7133 -0.6872
vn -0.1939 0.7448 -0.6384
vn -0.2501 0.7603 -0.5996
vn -0.2387 0.7607 -0.6036
vn 0.5839 0.5569 -0.5907
vn -0.2395 0.7576 -0.6072
vn 0.7587 0.3872 0.5239
vn 0.7646 0.3843 0.5173
vn 0.8006 0.3500 0.4863
vn 0.8621 0.2678 0.4303
vn 0.8903 0.2135 0.4021
vn 0.8903 0.2135 -0.4021
usemtl Material.013
s 1
f 1/3699/1 110/3700/2 2/3701/3
f 110/3700/2 111/3702/4 2/3701/3
f 2/3701/3 111/3702/4 97/3703/5
f 111/3702/4 3/3704/6 97/3703/5
f 97/3703/5 3/3704/6 4/3705/7
f 3/3704/6 5/3706/8 4/3705/7
f 4/3705/7 5/3706/8 6/3707/9
f 5/3706/8 51/3708/10 6/3707/9
f 6/3707/9 51/3708/10 27/3709/11
f 51/3708/10 66/3710/12 27/3709/11
f 27/3709/11 66/3710/12 7/3711/13
f 66/3710/12 68/3712/14 7/3711/13
f 7/3711/13 68/3712/14 8/3713/15
f 68/3712/14 9/3714/16 8/3713/15
f 8/3713/15 9/3714/16 25/3715/17
f 9/3714/16 10/3716/18 25/3715/17
f 25/3715/17 10/3716/18 24/3717/19
f 10/3716/18 11/3718/20 24/3717/19
f 24/3717/19 11/3718/20 22/3719/21
f 11/3718/20 29/3720/22 22/3719/21
f 22/3719/21 29/3720/22 20/3721/23
f 29/3720/22 12/3722/24 20/3721/23
f 11/3718/20 10/3716/18 30/3723/25
f 10/3716/18 70/3724/26 30/3723/25
f 30/3723/25 70/3724/26 31/3725/27
f 70/3724/26 13/3726/28 31/3725/27
f 31/3725/27 13/3726/28 14/3727/29
f 13/3726/28 54/3728/30 14/3727/29
f 14/3727/29 54/3728/30 15/3729/31
f 54/3728/30 53/3730/32 15/3729/31
f 15/3729/31 53/3730/32 71/3731/33
f 53/3730/32 52/3732/34 71/3731/33
f 71/3731/33 52/3732/34 16/3733/35
f 52/3732/34 3/3704/6 16/3733/35
f 16/3733/35 3/3704/6 77/3734/36
f 3/3704/6 111/3702/4 77/3734/36
f 77/3734/36 111/3702/4 78/3735/37
f 111/3702/4 17/3736/38 78/3735/37
f 78/3735/37 17/3736/38 18/3737/39
f 17/3736/38 19/3738/40 18/3737/39
f 18/3737/39 19/3738/40 112/3739/41
f 19/3738/40 110/3700/2 112/3739/41
f 112/3739/41 110/3700/2 34/3740/42
f 20/3721/23 21/3741/43 22/3719/21
f 21/3741/43 23/3742/44 22/3719/21
f 22/3719/21 23/3742/44 24/3717/19
f 23/3742/44 127/3743/45 24/3717/19
f 24/3717/19 127/3743/45 25/3715/17
f 127/3743/45 126/3744/46 25/3715/17
f 25/3715/17 126/3744/46 8/3713/15
f 126/3744/46 79/3745/47 8/3713/15
f 8/3713/15 79/3745/47 7/3711/13
f 79/3745/47 26/3746/48 7/3711/13
f 7/3711/13 26/3746/48 27/3709/11
f 26/3746/48 61/3747/49 27/3709/11
f 27/3709/11 61/3747/49 6/3707/9
f 61/3747/49 103/3748/50 6/3707/9
f 6/3707/9 103/3748/50 4/3705/7
f 103/3748/50 56/3749/51 4/3705/7
f 4/3705/7 56/3749/51 114/3750/52
f 56/3749/51 55/3751/53 114/3750/52
f 114/3750/52 55/3751/53 28/3752/54
f 29/3720/22 11/3718/20 46/3753/55
f 11/3718/20 30/3723/25 46/3753/55
f 46/3753/55 30/3723/25 39/3754/56
f 30/3723/25 31/3725/27 39/3754/56
f 39/3754/56 31/3725/27 92/3755/57
f 31/3725/27 73/3756/58 92/3755/57
f 92/3755/57 73/3756/58 93/3757/59
f 73/3756/58 41/3758/60 93/3757/59
f 93/3757/59 41/3758/60 32/3759/61
f 41/3758/60 33/3760/62 32/3759/61
f 32/3759/61 33/3760/62 36/3761/63
f 33/3760/62 40/3762/64 36/3761/63
f 36/3761/63 40/3762/64 35/3763/65
f 40/3762/64 34/3740/42 35/3763/65
f 35/3763/65 129/3764/66 36/3761/63
f 129/3764/66 37/3765/67 36/3761/63
f 36/3761/63 37/3765/67 32/3759/61
f 37/3765/67 74/3766/68 32/3759/61
f 32/3759/61 74/3766/68 38/3767/69
f 74/3766/68 48/3768/70 38/3767/69
f 38/3767/69 48/3768/70 39/3754/56
f 48/3768/70 46/3753/55 39/3754/56
f 40/3762/64 33/3760/62 18/3737/39
f 33/3760/62 41/3758/60 18/3737/39
f 18/3737/39 41/3758/60 42/3769/71
f 41/3758/60 43/3770/72 42/3769/71
f 42/3769/71 43/3770/72 44/3771/73
f 43/3770/72 96/3772/74 44/3771/73
f 44/3771/73 96/3772/74 16/3733/35
f 96/3772/74 71/3731/33 16/3733/35
f 12/3722/24 29/3720/22 45/3773/75
f 29/3720/22 46/3753/55 45/3773/75
f 45/3773/75 46/3753/55 47/3774/76
f 46/3753/55 48/3768/70 47/3774/76
f 47/3774/76 48/3768/70 49/3775/77
f 48/3768/70 75/3776/78 49/3775/77
f 49/3775/77 75/3776/78 50/3777/79
f 75/3776/78 76/3778/80 50/3777/79
f 51/3708/10 52/3732/34 66/3710/12
f 52/3732/34 53/3730/32 66/3710/12
f 66/3710/12 53/3730/32 67/3779/81
f 53/3730/32 54/3728/30 67/3779/81
f 67/3779/81 54/3728/30 69/3780/82
f 54/3728/30 13/3726/28 69/3780/82
f 69/3780/82 13/3726/28 70/3724/26
f 55/3751/53 56/3749/51 57/3781/83
f 56/3749/51 104/3782/84 57/3781/83
f 57/3781/83 104/3782/84 58/3783/85
f 104/3782/84 105/3784/86 58/3783/85
f 58/3783/85 105/3784/86 59/3785/87
f 105/3784/86 60/3786/88 59/3785/87
f 60/3786/88 61/3747/49 62/3787/89
f 61/3747/49 26/3746/48 62/3787/89
f 62/3787/89 26/3746/48 63/3788/90
f 26/3746/48 64/3789/91 63/3788/90
f 63/3788/90 64/3789/91 65/3790/92
f 64/3789/91 81/3791/93 65/3790/92
f 66/3710/12 67/3779/81 68/3712/14
f 67/3779/81 69/3780/82 68/3712/14
f 68/3712/14 69/3780/82 9/3714/16
f 69/3780/82 70/3724/26 9/3714/16
f 9/3714/16 70/3724/26 10/3716/18
f 71/3731/33 96/3772/74 15/3729/31
f 96/3772/74 72/3792/94 15/3729/31
f 15/3729/31 72/3792/94 14/3727/29
f 72/3792/94 73/3756/58 14/3727/29
f 14/3727/29 73/3756/58 31/3725/27
f 48/3768/70 74/3766/68 75/3776/78
f 74/3766/68 115/3793/95 75/3776/78
f 75/3776/78 115/3793/95 76/3778/80
f 115/3793/95 130/3794/96 76/3778/80
f 16/3733/35 77/3734/36 44/3771/73
f 77/3734/36 78/3735/37 44/3771/73
f 44/3771/73 78/3735/37 42/3769/71
f 78/3735/37 18/3737/39 42/3769/71
f 26/3746/48 79/3745/47 64/3789/91
f 79/3745/47 80/3795/97 64/3789/91
f 64/3789/91 80/3795/97 81/3791/93
f 80/3795/97 91/3796/98 81/3791/93
f 82/3797/99 83/3798/100 99/3799/101
f 83/3798/100 84/3800/102 99/3799/101
f 99/3799/101 84/3800/102 123/3801/103
f 116/3802/104 85/3803/105 119/3804/106
f 85/3803/105 86/3805/107 119/3804/106
f 119/3804/106 86/3805/107 87/3806/108
f 87/3806/108 88/3807/109 119/3804/106
f 88/3807/109 89/3808/110 119/3804/106
f 119/3804/106 89/3808/110 90/3809/111
f 79/3745/47 126/3744/46 80/3795/97
f 126/3744/46 128/3810/112 80/3795/97
f 80/3795/97 128/3810/112 91/3796/98
f 39/3754/56 92/3755/57 38/3767/69
f 92/3755/57 93/3757/59 38/3767/69
f 38/3767/69 93/3757/59 32/3759/61
f 98/3811/113 94/3812/114 99/3799/101
f 94/3812/114 95/3813/115 99/3799/101
f 99/3799/101 95/3813/115 82/3797/99
f 41/3758/60 73/3756/58 43/3770/72
f 73/3756/58 72/3792/94 43/3770/72
f 43/3770/72 72/3792/94 96/3772/74
f 1/3699/1 2/3701/3 113/3814/116
f 2/3701/3 97/3703/5 113/3814/116
f 113/3814/116 97/3703/5 4/3705/7
f 98/3811/113 99/3799/101 100/3815/117
f 99/3799/101 101/3816/118 100/3815/117
f 101/3816/118 99/3799/101 102/3817/119
f 99/3799/101 108/3818/120 102/3817/119
f 3/3704/6 52/3732/34 5/3706/8
f 52/3732/34 51/3708/10 5/3706/8
f 56/3749/51 103/3748/50 104/3782/84
f 103/3748/50 105/3784/86 104/3782/84
f 106/3819/121 99/3799/101 107/3820/122
f 99/3799/101 125/3821/123 107/3820/122
f 108/3818/120 99/3799/101 109/3822/124
f 99/3799/101 106/3819/121 109/3822/124
f 110/3700/2 19/3738/40 111/3702/4
f 19/3738/40 17/3736/38 111/3702/4
f 34/3740/42 40/3762/64 112/3739/41
f 40/3762/64 18/3737/39 112/3739/41
f 1/3699/1 113/3814/116 28/3752/54
f 113/3814/116 114/3750/52 28/3752/54
f 74/3766/68 37/3765/67 115/3793/95
f 37/3765/67 130/3794/96 115/3793/95
f 116/3802/104 119/3804/106 117/3823/125
f 119/3804/106 118/3824/126 117/3823/125
f 118/3824/126 119/3804/106 120/3825/127
f 119/3804/106 121/3826/128 120/3825/127
f 121/3826/128 119/3804/106 122/3827/129
f 119/3804/106 123/3801/103 122/3827/129
f 123/3801/103 119/3804/106 99/3799/101
f 119/3804/106 125/3821/123 99/3799/101
f 103/3748/50 61/3747/49 105/3784/86
f 61/3747/49 60/3786/88 105/3784/86
f 90/3809/111 124/3828/130 119/3804/106
f 124/3828/130 125/3821/123 119/3804/106
f 126/3744/46 127/3743/45 128/3810/112
f 129/3764/66 130/3794/96 37/3765/67
f 114/3750/52 113/3814/116 4/3705/7
