mtllib Hair.mtl
o Mesh_0005.rip.072_Mesh_0005.rip_mesh0000.084
v 0.028281 0.153711 0.331211
v -0.018828 0.233164 0.295156
v -0.020000 0.320000 0.295977
v -0.147226 0.355508 0.257852
v -0.231211 0.407383 0.218359
v -0.271992 0.499688 0.154648
v 0.161406 0.245312 -0.333359
v 0.038086 0.400000 -0.302578
v -0.106797 0.399766 -0.315664
v -0.035547 0.469102 -0.306992
v -0.185273 0.480156 -0.291875
v -0.142656 0.613203 -0.229297
v -0.185000 0.661953 -0.139414
v 0.060039 0.674883 -0.106016
v 0.063125 0.692422 0.000000
v 0.185508 0.655664 0.000000
v 0.270274 0.561172 -0.106016
v 0.314219 0.486680 -0.106523
v 0.010547 0.564805 0.253984
v -0.091562 0.547773 0.281055
v -0.031484 0.631562 0.198242
v -0.185000 0.661953 0.139414
v -0.193086 0.665703 0.000000
v -0.233008 0.635273 0.123945
v -0.263476 0.594961 0.098281
v -0.020000 0.320000 0.295977
v 0.143555 0.402695 0.291797
v 0.036211 0.482461 0.287813
v 0.132578 0.497383 0.247266
v -0.055508 0.682070 0.115625
v -0.064180 0.695430 0.000000
v 0.143555 0.402695 -0.291797
v 0.010547 0.564805 -0.253984
v -0.091562 0.547773 -0.281055
v -0.031484 0.631562 -0.198242
v -0.055508 0.682070 -0.115625
v 0.267969 0.250820 0.216250
v 0.355586 0.415976 0.125391
v 0.314219 0.486680 0.106523
v 0.270274 0.561172 0.106016
v 0.251328 0.408477 -0.210938
v 0.345000 0.336172 -0.117500
v 0.355586 0.415976 -0.125391
v 0.036211 0.482461 -0.287813
v 0.236211 0.477070 0.197852
v 0.176406 0.639922 0.106016
v 0.176406 0.639922 -0.106016
v -0.035547 0.469102 0.306992
v -0.231367 0.567031 0.226641
v -0.142656 0.613203 0.229297
v 0.038086 0.400000 0.302578
v -0.106797 0.399766 0.315664
v -0.185273 0.480156 0.291875
v -0.231211 0.407383 0.218359
v -0.271992 0.499688 0.154648
v 0.378477 0.257031 -0.139531
v 0.331641 0.170781 -0.111797
v 0.338789 0.084883 0.124375
v 0.388516 0.172969 0.000000
v 0.303438 0.038320 -0.100664
v 0.338789 0.084883 -0.124375
v 0.243906 0.082695 -0.195625
v 0.118594 0.038320 -0.238203
v 0.148555 0.080078 -0.305625
v 0.005391 0.071719 -0.277461
v 0.028281 0.153711 -0.331211
v -0.018828 0.233164 -0.295156
v 0.371719 0.256680 0.000000
v 0.409414 0.340273 0.000000
v 0.161406 0.245312 0.333359
v 0.296289 0.333047 0.247187
v 0.148555 0.080078 0.305625
v 0.243906 0.082695 0.195625
v 0.134219 0.162227 0.270898
v -0.233008 0.635273 -0.123945
v -0.263476 0.594961 -0.098281
v -0.220195 0.560234 0.000000
v 0.287930 0.168945 0.249531
v 0.331641 0.170781 0.111797
v 0.378477 0.257031 0.139531
v 0.345000 0.336172 0.117500
v 0.005391 0.071719 0.277461
v 0.028281 0.153711 0.331211
v -0.018828 0.233164 0.295156
v 0.131289 0.323398 0.275937
v -0.020000 0.320000 -0.295977
v -0.147226 0.355508 -0.257852
v -0.231211 0.407383 -0.218359
v -0.271992 0.499688 -0.154648
v 0.296289 0.333047 -0.247188
v 0.131289 0.323398 -0.275937
v 0.267969 0.250820 -0.216250
v 0.158399 0.581836 -0.187617
v 0.132578 0.497383 -0.247266
v 0.236211 0.477070 -0.197852
v -0.263476 0.594961 -0.098281
v -0.220195 0.560234 0.000000
v -0.263476 0.594961 0.098281
v -0.147226 0.355508 0.257852
v 0.333047 0.084766 0.000000
v -0.231367 0.567031 -0.226641
v -0.271992 0.499688 -0.154648
v 0.251328 0.408477 0.210937
v 0.303438 0.038320 0.100664
v 0.284219 0.572851 0.000000
v 0.158399 0.581836 0.187617
v 0.060039 0.674883 0.106016
v -0.020000 0.320000 -0.295977
v -0.147226 0.355508 -0.257852
v -0.231211 0.407383 -0.218359
v 0.359570 0.415469 0.000000
v 0.335664 0.490859 0.000000
v 0.134219 0.162227 -0.270898
v 0.287930 0.168945 -0.249531
v -0.018828 0.233164 -0.295156
v 0.028281 0.153711 -0.331211
v 0.005391 0.071719 -0.277461
v 0.118594 0.038320 -0.238203
v 0.243906 0.082695 -0.195625
v 0.303438 0.038320 -0.100664
v 0.333047 0.084766 0.000000
v 0.118594 0.038320 0.238203
v 0.303438 0.038320 0.100664
v 0.137891 0.481953 0.000000
v 0.243906 0.082695 0.195625
v 0.118594 0.038320 0.238203
v 0.005391 0.071719 0.277461
vn -0.3038 0.1492 0.9410
vn -0.3267 -0.0035 0.9451
vn -0.0882 -0.1459 0.9854
vn -0.2360 -0.1552 0.9593
vn -0.0490 0.1733 0.9837
vn -0.1224 0.0178 0.9923
vn 0.2587 0.2160 0.9415
vn -0.0870 -0.2328 0.9686
vn 0.5094 -0.0826 0.8565
vn 0.0269 -0.4808 0.8764
vn 0.6773 -0.3994 0.6179
vn 0.1713 -0.7040 0.6892
vn 0.6836 -0.6939 0.2263
vn 0.3409 -0.8754 0.3428
vn 0.5647 -0.8253 0.0000
vn 0.0168 -0.9547 0.2972
vn 0.0944 -0.9955 0.0000
vn -0.1839 -0.9142 0.3611
vn -0.1573 -0.9876 -0.0000
vn -0.4343 -0.8165 0.3803
vn -0.4755 -0.8797 -0.0000
vn -0.7031 -0.5887 0.3989
vn -0.7579 -0.6524 -0.0000
vn -0.7664 -0.5111 0.3890
vn -0.8873 -0.4611 -0.0000
vn -0.8835 -0.1543 0.4422
vn -0.9504 -0.3111 -0.0000
vn -0.8963 -0.1308 0.4238
vn -0.9969 -0.0787 0.0000
vn -0.9939 0.1099 -0.0000
vn -0.2178 -0.3417 -0.9142
vn -0.0870 -0.2328 -0.9686
vn -0.1986 -0.5691 -0.7979
vn 0.0269 -0.4808 -0.8764
vn -0.1117 -0.7765 -0.6201
vn 0.1713 -0.7040 -0.6892
vn 0.0168 -0.9547 -0.2972
vn 0.3409 -0.8754 -0.3428
vn 0.6836 -0.6939 -0.2263
vn 0.8966 -0.4421 -0.0240
vn 0.6773 -0.3994 -0.6179
vn 0.8990 -0.1018 -0.4259
vn 0.5094 -0.0826 -0.8565
vn -0.0882 -0.1459 -0.9854
vn -0.0490 0.1733 -0.9837
vn -0.2360 -0.1552 -0.9593
vn -0.1224 0.0178 -0.9923
vn -0.3804 -0.0568 -0.9231
vn -0.3695 -0.4409 -0.8180
vn -0.3937 -0.6057 -0.6915
vn -0.1839 -0.9142 -0.3611
vn -0.3803 -0.0568 0.9231
vn -0.2178 -0.3417 0.9142
vn -0.1986 -0.5691 0.7979
vn -0.1117 -0.7765 0.6201
vn -0.6440 0.0378 -0.7641
vn -0.6479 -0.0787 -0.7577
vn -0.8963 -0.1308 -0.4238
vn -0.5646 -0.3156 -0.7626
vn -0.8835 -0.1543 -0.4422
vn -0.5667 -0.3922 -0.7246
vn -0.7664 -0.5111 -0.3890
vn -0.7031 -0.5887 -0.3989
vn -0.8975 0.2200 0.3821
vn -0.8911 0.0350 0.4525
vn -0.6440 0.0378 0.7641
vn -0.6479 -0.0787 0.7577
vn -0.5646 -0.3157 0.7626
vn -0.5667 -0.3922 0.7246
vn -0.3695 -0.4409 0.8180
vn -0.4343 -0.8165 -0.3803
vn -0.3937 -0.6057 0.6915
vn 0.2587 0.2160 -0.9415
vn 0.7488 0.1801 -0.6378
vn -0.9870 0.1607 -0.0000
vn -0.9258 0.3780 0.0000
vn -0.6918 0.6666 -0.2776
vn -0.8632 0.2612 -0.4321
vn -0.8975 0.2200 -0.3821
vn -0.6918 0.6666 0.2776
vn -0.8632 0.2612 0.4321
vn -0.5896 0.4648 0.6605
vn -0.6338 0.0981 0.7673
vn -0.1695 0.8698 0.4634
vn -0.3288 0.2539 0.9096
vn -0.1358 0.4744 0.8698
vn -0.4928 -0.0288 0.8697
vn -0.8911 0.0350 -0.4525
vn -0.3038 0.1492 -0.9410
vn -0.3267 -0.0035 -0.9451
vn -0.1695 0.8698 -0.4634
vn -0.3288 0.2539 -0.9096
vn -0.5896 0.4648 -0.6605
vn -0.6338 0.0981 -0.7673
vn 0.8966 -0.4421 0.0240
vn 0.9685 -0.2489 -0.0000
vn -0.1358 0.4744 -0.8698
vn -0.4928 -0.0288 -0.8697
vn 0.6420 0.4746 -0.6022
vn 0.1528 0.8100 -0.5662
vn 0.6500 0.7600 0.0000
vn 0.2552 0.6975 -0.6696
vn 0.3160 0.5477 -0.7747
vn 0.3476 0.7733 -0.5302
vn 0.2136 0.9769 0.0000
vn 0.3476 0.7733 0.5302
vn 0.5146 0.4682 -0.7183
vn 0.8990 -0.1018 0.4259
vn 0.7488 0.1801 0.6378
vn 0.5146 0.4682 0.7183
vn 0.5997 0.4259 -0.6774
vn 0.9571 -0.0287 -0.2883
vn 0.8121 0.1235 -0.5704
vn 0.2942 0.4422 -0.8473
vn 0.5373 0.4818 -0.6922
vn 0.8333 0.3980 -0.3837
vn 0.8975 0.4410 0.0000
vn 0.8333 0.3980 0.3837
vn 0.5373 0.4818 0.6922
vn 0.2942 0.4422 0.8473
vn 0.8121 0.1235 0.5704
vn 0.9571 -0.0287 0.2883
vn 0.5997 0.4259 0.6774
vn 0.6420 0.4746 0.6022
vn 0.1528 0.8100 0.5662
vn 0.2552 0.6975 0.6696
vn 0.3160 0.5477 0.7747
usemtl Material.013
s 1
f 113/8071/1 7/8072/2 67/8073/3
f 7/8072/2 91/8074/4 67/8073/3
f 67/8073/3 91/8074/4 108/8075/5
f 91/8074/4 8/8076/6 108/8075/5
f 108/8075/5 8/8076/6 9/8077/7
f 8/8076/6 10/8078/8 9/8077/7
f 9/8077/7 10/8078/8 11/8079/9
f 10/8078/8 34/8080/10 11/8079/9
f 11/8079/9 34/8080/10 101/8081/11
f 34/8080/10 12/8082/12 101/8081/11
f 101/8081/11 12/8082/12 75/8083/13
f 12/8082/12 13/8084/14 75/8083/13
f 75/8083/13 13/8084/14 23/8085/15
f 13/8084/14 36/8086/16 23/8085/15
f 23/8085/15 36/8086/16 31/8087/17
f 36/8086/16 14/8088/18 31/8087/17
f 31/8087/17 14/8088/18 15/8089/19
f 14/8088/18 47/8090/20 15/8089/19
f 15/8089/19 47/8090/20 16/8091/21
f 47/8090/20 17/8092/22 16/8091/21
f 16/8091/21 17/8092/22 105/8093/23
f 17/8092/22 18/8094/24 105/8093/23
f 105/8093/23 18/8094/24 112/8095/25
f 18/8094/24 43/8096/26 112/8095/25
f 112/8095/25 43/8096/26 111/8097/27
f 43/8096/26 42/8098/28 111/8097/27
f 111/8097/27 42/8098/28 69/8099/29
f 42/8098/28 68/8100/30 69/8099/29
f 28/8101/31 48/8102/32 19/8103/33
f 48/8102/32 20/8104/34 19/8103/33
f 19/8103/33 20/8104/34 21/8105/35
f 20/8104/34 50/8106/36 21/8105/35
f 21/8105/35 50/8106/36 30/8107/37
f 50/8106/36 22/8108/38 30/8107/37
f 30/8107/37 22/8108/38 23/8085/15
f 22/8108/38 24/8109/39 23/8085/15
f 23/8085/15 24/8109/39 25/8110/40
f 24/8109/39 49/8111/41 25/8110/40
f 25/8110/40 49/8111/41 55/8112/42
f 49/8111/41 53/8113/43 55/8112/42
f 84/8114/44 26/8115/45 85/8116/46
f 26/8115/45 51/8117/47 85/8116/46
f 85/8116/46 51/8117/47 27/8118/48
f 51/8117/47 28/8101/31 27/8118/48
f 27/8118/48 28/8101/31 29/8119/49
f 28/8101/31 19/8103/33 29/8119/49
f 29/8119/49 19/8103/33 106/8120/50
f 19/8103/33 21/8105/35 106/8120/50
f 106/8120/50 21/8105/35 107/8121/51
f 21/8105/35 30/8107/37 107/8121/51
f 107/8121/51 30/8107/37 31/8087/17
f 30/8107/37 23/8085/15 31/8087/17
f 91/8074/4 32/8122/52 8/8076/6
f 32/8122/52 44/8123/53 8/8076/6
f 8/8076/6 44/8123/53 10/8078/8
f 44/8123/53 33/8124/54 10/8078/8
f 10/8078/8 33/8124/54 34/8080/10
f 33/8124/54 35/8125/55 34/8080/10
f 34/8080/10 35/8125/55 12/8082/12
f 35/8125/55 36/8086/16 12/8082/12
f 12/8082/12 36/8086/16 13/8084/14
f 37/8126/56 71/8127/57 81/8128/58
f 71/8127/57 103/8129/59 81/8128/58
f 81/8128/58 103/8129/59 38/8130/60
f 103/8129/59 45/8131/61 38/8130/60
f 38/8130/60 45/8131/61 39/8132/62
f 45/8131/61 40/8133/63 39/8132/62
f 39/8132/62 40/8133/63 105/8093/23
f 40/8133/63 16/8091/21 105/8093/23
f 57/8134/64 56/8135/65 92/8136/66
f 56/8135/65 42/8098/28 92/8136/66
f 92/8136/66 42/8098/28 90/8137/67
f 42/8098/28 41/8138/68 90/8137/67
f 90/8137/67 41/8138/68 91/8074/4
f 41/8138/68 32/8122/52 91/8074/4
f 42/8098/28 43/8096/26 41/8138/68
f 43/8096/26 95/8139/69 41/8138/68
f 41/8138/68 95/8139/69 32/8122/52
f 95/8139/69 94/8140/70 32/8122/52
f 32/8122/52 94/8140/70 44/8123/53
f 94/8140/70 33/8124/54 44/8123/53
f 27/8118/48 29/8119/49 45/8131/61
f 29/8119/49 106/8120/50 45/8131/61
f 45/8131/61 106/8120/50 40/8133/63
f 106/8120/50 46/8141/71 40/8133/63
f 40/8133/63 46/8141/71 16/8091/21
f 46/8141/71 15/8089/19 16/8091/21
f 43/8096/26 18/8094/24 95/8139/69
f 18/8094/24 17/8092/22 95/8139/69
f 95/8139/69 17/8092/22 93/8142/72
f 17/8092/22 47/8090/20 93/8142/72
f 93/8142/72 47/8090/20 14/8088/18
f 48/8102/32 53/8113/43 20/8104/34
f 53/8113/43 49/8111/41 20/8104/34
f 20/8104/34 49/8111/41 50/8106/36
f 49/8111/41 24/8109/39 50/8106/36
f 50/8106/36 24/8109/39 22/8108/38
f 28/8101/31 51/8117/47 48/8102/32
f 51/8117/47 52/8143/73 48/8102/32
f 48/8102/32 52/8143/73 53/8113/43
f 52/8143/73 54/8144/74 53/8113/43
f 53/8113/43 54/8144/74 55/8112/42
f 42/8098/28 56/8135/65 68/8100/30
f 56/8135/65 57/8134/64 68/8100/30
f 68/8100/30 57/8134/64 59/8145/75
f 57/8134/64 100/8146/76 59/8145/75
f 104/8147/77 58/8148/78 100/8146/76
f 58/8148/78 79/8149/79 100/8146/76
f 100/8146/76 79/8149/79 59/8145/75
f 79/8149/79 68/8100/30 59/8145/75
f 60/8150/80 61/8151/81 62/8152/82
f 61/8151/81 57/8134/64 62/8152/82
f 62/8152/82 57/8134/64 114/8153/83
f 57/8134/64 92/8136/66 114/8153/83
f 63/8154/84 64/8155/85 65/8156/86
f 64/8155/85 113/8071/1 65/8156/86
f 65/8156/86 113/8071/1 66/8157/87
f 113/8071/1 67/8073/3 66/8157/87
f 79/8149/79 80/8158/88 68/8100/30
f 80/8158/88 81/8128/58 68/8100/30
f 68/8100/30 81/8128/58 69/8099/29
f 81/8128/58 111/8097/27 69/8099/29
f 74/8159/89 70/8160/90 37/8126/56
f 70/8160/90 85/8116/46 37/8126/56
f 37/8126/56 85/8116/46 71/8127/57
f 85/8116/46 103/8129/59 71/8127/57
f 122/8161/91 72/8162/92 73/8163/93
f 72/8162/92 74/8159/89 73/8163/93
f 73/8163/93 74/8159/89 78/8164/94
f 74/8159/89 37/8126/56 78/8164/94
f 101/8081/11 75/8083/13 76/8165/95
f 75/8083/13 23/8085/15 76/8165/95
f 76/8165/95 23/8085/15 77/8166/96
f 23/8085/15 25/8110/40 77/8166/96
f 73/8163/93 78/8164/94 79/8149/79
f 78/8164/94 37/8126/56 79/8149/79
f 79/8149/79 37/8126/56 80/8158/88
f 37/8126/56 81/8128/58 80/8158/88
f 82/8167/97 83/8168/98 74/8159/89
f 83/8168/98 84/8114/44 74/8159/89
f 74/8159/89 84/8114/44 70/8160/90
f 84/8114/44 85/8116/46 70/8160/90
f 86/8169/99 87/8170/100 124/8171/101
f 87/8170/100 88/8172/102 124/8171/101
f 124/8171/101 88/8172/102 89/8173/103
f 90/8137/67 91/8074/4 92/8136/66
f 91/8074/4 7/8072/2 92/8136/66
f 92/8136/66 7/8072/2 113/8071/1
f 35/8125/55 33/8124/54 93/8142/72
f 33/8124/54 94/8140/70 93/8142/72
f 93/8142/72 94/8140/70 95/8139/69
f 89/8173/103 96/8174/104 124/8171/101
f 96/8174/104 97/8175/105 124/8171/101
f 124/8171/101 97/8175/105 98/8176/106
f 51/8117/47 26/8115/45 52/8143/73
f 26/8115/45 99/8177/107 52/8143/73
f 52/8143/73 99/8177/107 54/8144/74
f 57/8134/64 61/8151/81 100/8146/76
f 61/8151/81 60/8150/80 100/8146/76
f 11/8079/9 101/8081/11 102/8178/108
f 101/8081/11 76/8165/95 102/8178/108
f 9/8077/7 11/8079/9 110/8179/109
f 11/8079/9 102/8178/108 110/8179/109
f 85/8116/46 27/8118/48 103/8129/59
f 27/8118/48 45/8131/61 103/8129/59
f 104/8147/77 73/8163/93 58/8148/78
f 73/8163/93 79/8149/79 58/8148/78
f 38/8130/60 39/8132/62 112/8095/25
f 39/8132/62 105/8093/23 112/8095/25
f 106/8120/50 107/8121/51 46/8141/71
f 107/8121/51 15/8089/19 46/8141/71
f 108/8075/5 9/8077/7 109/8180/110
f 9/8077/7 110/8179/109 109/8180/110
f 113/8071/1 64/8155/85 62/8152/82
f 64/8155/85 63/8154/84 62/8152/82
f 81/8128/58 38/8130/60 111/8097/27
f 38/8130/60 112/8095/25 111/8097/27
f 92/8136/66 113/8071/1 114/8153/83
f 113/8071/1 62/8152/82 114/8153/83
f 36/8086/16 35/8125/55 14/8088/18
f 35/8125/55 93/8142/72 14/8088/18
f 86/8169/99 124/8171/101 115/8181/111
f 124/8171/101 116/8182/112 115/8181/111
f 116/8182/112 124/8171/101 117/8183/113
f 124/8171/101 118/8184/114 117/8183/113
f 118/8184/114 124/8171/101 119/8185/115
f 124/8171/101 120/8186/116 119/8185/115
f 120/8186/116 124/8171/101 121/8187/117
f 124/8171/101 123/8188/118 121/8187/117
f 122/8161/91 82/8167/97 72/8162/92
f 82/8167/97 74/8159/89 72/8162/92
f 123/8188/118 124/8171/101 125/8189/119
f 124/8171/101 126/8190/120 125/8189/119
f 126/8190/120 124/8171/101 127/8191/121
f 124/8171/101 1/8192/122 127/8191/121
f 1/8192/122 124/8171/101 2/8193/123
f 124/8171/101 3/8194/124 2/8193/123
f 3/8194/124 124/8171/101 4/8195/125
f 124/8171/101 5/8196/126 4/8195/125
f 5/8196/126 124/8171/101 6/8197/127
f 124/8171/101 98/8176/106 6/8197/127
f 107/8121/51 31/8087/17 15/8089/19
