mtllib Hair.mtl
o Mesh_0005.rip.066_Mesh_0005.rip_mesh0000.078
v 0.004922 0.236250 0.289297
v 0.129024 0.442617 0.254414
v 0.028672 0.529570 0.254414
v -0.276875 0.568008 0.036836
v -0.276875 0.568008 -0.036797
v -0.292656 0.520430 -0.064609
v -0.297969 0.460859 -0.061562
v 0.347578 0.236250 0.000000
v 0.336641 0.336914 -0.118203
v 0.176406 0.639922 -0.106016
v 0.060039 0.674883 -0.106016
v 0.060039 0.674883 0.106016
v -0.058203 0.668828 0.106016
v -0.048672 0.615000 0.187617
v -0.152109 0.645664 0.106016
v 0.017617 0.140000 -0.278086
v 0.004922 0.236250 -0.289297
v 0.006992 0.340234 -0.294727
v -0.100898 0.282578 -0.275977
v -0.100000 0.400000 -0.279414
v -0.188789 0.345039 -0.232500
v -0.170000 0.466094 -0.240977
v -0.244805 0.427383 -0.176836
v -0.261250 0.531055 -0.103359
v -0.230000 0.624922 0.000000
v 0.020313 0.140000 0.278125
v 0.137344 0.236250 0.271133
v 0.248242 0.236250 0.205586
v 0.230938 0.138633 0.191992
v 0.267461 0.043594 0.092734
v 0.243984 -0.047813 -0.000000
v 0.205820 0.043594 -0.172266
v 0.155547 -0.086250 -0.132734
v 0.097734 -0.030195 -0.199883
v 0.187109 -0.113438 -0.066211
v 0.225625 -0.047813 -0.078906
v 0.197070 -0.122031 -0.000000
v 0.225625 -0.047813 0.078906
v 0.205820 0.043594 0.172266
v 0.127383 0.138633 0.253203
v 0.053945 0.043594 0.251758
v 0.137344 0.236250 -0.271133
v -0.096875 0.518398 -0.243008
v 0.348633 0.461250 0.000000
v 0.270274 0.561172 -0.106016
v 0.185508 0.655664 0.000000
v 0.063125 0.692422 0.000000
v -0.261250 0.531055 0.103398
v -0.244805 0.427383 0.176836
v -0.188789 0.345039 0.232500
v -0.100000 0.400000 0.279414
v -0.100898 0.282617 0.275977
v 0.006992 0.340234 0.294727
v 0.053945 0.043594 -0.251797
v 0.127383 0.138633 -0.253203
v 0.248242 0.236250 -0.205586
v 0.323711 0.138633 0.000000
v 0.321836 0.236250 0.110703
v 0.112891 0.043594 -0.224141
v 0.230938 0.138633 -0.191992
v 0.267461 0.043594 -0.092734
v 0.299648 0.138633 -0.103359
v 0.289062 0.043594 0.000000
v 0.331563 0.455039 -0.106016
v 0.353750 0.336914 0.000000
v 0.263945 0.437031 0.197852
v 0.158399 0.581836 0.187617
v 0.129024 0.442617 -0.254414
v -0.210000 0.540000 -0.180312
v 0.112891 0.043594 0.227187
v 0.097734 -0.030195 0.199883
v 0.155547 -0.086250 0.132734
v 0.187109 -0.113438 0.066211
v 0.158399 0.581836 -0.187617
v -0.048672 0.615000 -0.187617
v -0.152109 0.645664 -0.106016
v -0.153672 0.664297 0.000000
v -0.170000 0.466094 0.240977
v -0.210000 0.540000 0.180313
v -0.146680 0.586680 0.187617
v -0.224805 0.601563 0.102500
v -0.265703 0.430859 -0.131094
v -0.297969 0.460859 -0.061562
v -0.301797 0.506680 -0.009180
v 0.263945 0.437031 -0.197852
v 0.321836 0.236250 -0.110703
v -0.224805 0.601563 -0.102500
v -0.146680 0.586680 -0.187617
v -0.244805 0.427383 0.176836
v -0.188789 0.345039 0.232500
v -0.100898 0.282617 0.275977
v 0.004922 0.236250 0.289297
v 0.020313 0.140000 0.278125
v 0.053945 0.043594 0.251758
v 0.097734 -0.030195 0.199883
v 0.155547 -0.086250 0.132734
v 0.336641 0.336914 0.118203
v 0.331563 0.455039 0.106016
v 0.284219 0.572851 0.000000
v 0.176406 0.639922 0.106016
v -0.294492 0.474844 -0.097070
v -0.061211 0.685820 0.000000
v -0.058203 0.668828 -0.106016
v -0.286875 0.506367 0.071484
v -0.261250 0.531055 0.103398
v -0.261250 0.531055 -0.103359
v -0.244805 0.427383 -0.176836
v -0.188789 0.345039 -0.232500
v -0.100898 0.282578 -0.275977
v 0.004922 0.236250 -0.289297
v 0.017617 0.140000 -0.278086
v 0.053945 0.043594 -0.251797
v 0.036836 0.517578 0.000000
v 0.097734 -0.030195 -0.199883
v 0.155547 -0.086250 -0.132734
v 0.187109 -0.113438 -0.066211
v 0.197070 -0.122031 -0.000000
v 0.014297 0.429258 0.284375
v -0.096875 0.518398 0.243008
v 0.299648 0.138633 0.103359
v 0.014297 0.429258 -0.284375
v 0.028672 0.529570 -0.254414
v -0.033164 0.542969 0.000000
v -0.286875 0.506367 0.071484
v -0.298594 0.477695 0.031250
v -0.290469 0.451133 -0.027461
v -0.301797 0.506680 -0.009180
v -0.298594 0.477695 0.031250
v 0.187109 -0.113438 0.066211
v 0.270274 0.561172 0.106016
vn 0.2076 -0.4185 -0.8841
vn 0.0781 -0.7090 -0.7008
vn 0.3420 -0.6123 -0.7128
vn 0.3540 -0.8564 -0.3758
vn 0.6433 -0.6527 -0.4002
vn 0.6076 -0.7943 0.0000
vn 0.8514 -0.4892 -0.1889
vn 0.8334 -0.5242 0.1749
vn 0.9410 -0.2301 0.2481
vn 0.8992 -0.3296 0.2878
vn 0.9882 0.0537 0.1434
vn 0.8846 -0.0336 0.4652
vn 0.1093 0.7318 0.6727
vn 0.5868 -0.4032 0.7022
vn -0.8668 0.2808 -0.4121
vn -0.6427 0.1308 -0.7549
vn -0.8863 0.1961 -0.4194
vn -0.9030 0.0308 -0.4285
vn -0.9853 0.1706 0.0000
vn -1.0000 0.0056 -0.0000
vn -0.9030 0.0308 0.4285
vn -0.8855 -0.2715 0.3770
vn -0.6018 -0.2116 0.7701
vn -0.7041 -0.5865 0.4003
vn -0.3521 -0.5784 0.7358
vn -0.4343 -0.8165 0.3803
vn -0.1150 -0.9074 0.4042
vn -0.1201 -0.9928 0.0000
vn 0.1402 -0.9901 -0.0000
vn -0.1150 -0.9074 -0.4042
vn 0.1346 -0.9216 -0.3640
vn -0.3372 0.2864 0.8968
vn -0.3738 0.2424 0.8953
vn -0.1868 0.1552 0.9701
vn -0.3428 0.0756 0.9363
vn -0.0559 0.0679 0.9961
vn -0.0410 -0.0327 0.9986
vn 0.2588 0.0326 0.9654
vn 0.2659 -0.1113 0.9576
vn 0.5318 -0.0117 0.8468
vn 0.4835 -0.2351 0.8432
vn 0.7230 -0.1487 0.6747
vn 0.6316 -0.4058 0.6606
vn 0.6434 -0.6526 0.4002
vn -0.3737 0.2346 -0.8974
vn -0.6383 0.2640 -0.7231
vn -0.8350 0.3806 -0.3974
vn -0.9207 0.3902 0.0000
vn -0.8741 0.4857 0.0000
vn -0.8350 0.3806 0.3974
vn -0.7912 0.4746 0.3858
vn -0.6091 0.3629 0.7052
vn -0.6200 0.4570 0.6378
vn -0.4539 0.3876 0.8023
vn -0.7794 0.5239 0.3435
vn -0.8453 0.5342 0.0000
vn -0.7912 0.4746 -0.3858
vn -0.6150 0.3661 -0.6984
vn -0.4206 0.3438 -0.8396
vn -0.3145 0.2889 -0.9042
vn -0.6427 0.1308 0.7549
vn -0.3172 -0.2116 0.9244
vn -0.0802 -0.4526 0.8881
vn 0.0781 -0.7090 0.7008
vn 0.2076 -0.4185 0.8841
vn 0.3420 -0.6123 0.7128
vn -0.9599 -0.2802 0.0000
vn -0.7661 -0.6428 -0.0000
vn -0.4755 -0.8797 -0.0000
vn -0.4343 -0.8165 -0.3803
vn -0.3521 -0.5784 -0.7358
vn 0.8141 -0.3621 -0.4540
vn 0.6316 -0.4058 -0.6606
vn 0.7229 -0.1486 -0.6747
vn 0.4835 -0.2350 -0.8432
vn 0.5318 -0.0117 -0.8468
vn 0.2659 -0.1113 -0.9576
vn 0.2589 0.0326 -0.9654
vn -0.4327 0.3388 0.8355
vn -0.6358 0.2666 0.7244
vn -0.8668 0.2808 0.4121
vn -0.8863 0.1961 0.4194
vn -0.9575 0.2883 0.0000
vn -0.8855 -0.2715 -0.3770
vn -0.7041 -0.5865 -0.4003
vn -0.6018 -0.2116 -0.7701
vn -0.0640 -0.1972 0.9783
vn -0.4491 0.4038 -0.7971
vn -0.6200 0.4570 -0.6378
vn -0.7794 0.5239 -0.3435
vn 0.1346 -0.9216 0.3640
vn 0.3540 -0.8564 0.3758
vn 0.3448 -0.9387 -0.0000
vn 0.2121 0.9772 -0.0091
vn -0.1267 0.8234 -0.5531
vn -0.0784 0.7475 -0.6596
vn 0.0158 0.9834 0.1806
vn 0.2627 0.6235 0.7364
vn 0.6631 0.7486 -0.0003
vn 0.1986 0.6849 0.7010
vn 0.1924 0.6977 0.6900
vn 0.7973 0.3864 0.4637
vn 0.9260 0.1967 0.3221
vn 0.8913 0.2373 0.3863
vn 0.8491 0.2618 0.4588
vn 0.8836 0.2594 0.3899
vn 0.9465 0.2472 0.2073
vn 0.9176 -0.2828 -0.2793
vn 0.2120 0.9772 -0.0091
vn 0.2874 0.5938 -0.7515
vn 0.2626 0.6236 -0.7363
vn 0.1987 0.6849 -0.7011
vn 0.1923 0.6977 -0.6901
vn 0.8109 0.3723 -0.4515
vn 0.9200 0.2010 -0.3365
vn 0.8872 0.2410 -0.3934
vn 0.8491 0.2618 -0.4588
vn 0.8836 0.2594 -0.3899
vn 0.9465 0.2472 -0.2073
vn 0.9700 0.2430 0.0000
vn -0.2577 0.8341 -0.4877
vn -0.2626 0.8447 -0.4664
vn 0.3316 0.7462 0.5772
vn 0.9947 -0.0278 -0.0988
vn -0.1904 0.1556 -0.9693
vn -0.0554 0.0663 -0.9963
vn -0.3434 0.0749 -0.9362
vn -0.0410 -0.0327 -0.9986
vn -0.3172 -0.2116 -0.9244
vn -0.0640 -0.1972 -0.9783
vn -0.0802 -0.4526 -0.8881
usemtl Material.013
s 1
f 26/7172/125 1/7173/126 27/7174/127
f 1/7173/126 53/7175/128 27/7174/127
f 27/7174/127 53/7175/128 2/7176/129
f 53/7175/128 118/7177/130 2/7176/129
f 2/7176/129 118/7177/130 3/7178/131
f 118/7177/130 119/7179/1 3/7178/131
f 3/7178/131 119/7179/1 14/7180/2
f 119/7179/1 80/7181/3 14/7180/2
f 14/7180/2 80/7181/3 15/7182/4
f 80/7181/3 81/7183/5 15/7182/4
f 15/7182/4 81/7183/5 25/7184/6
f 81/7183/5 4/7185/7 25/7184/6
f 25/7184/6 4/7185/7 5/7186/8
f 4/7185/7 127/7187/9 5/7186/8
f 5/7186/8 127/7187/9 6/7188/10
f 127/7187/9 7/7189/11 6/7188/10
f 6/7188/10 7/7189/11 101/7190/12
f 7/7189/11 82/7191/13 101/7190/12
f 101/7190/12 82/7191/13 24/7192/14
f 120/7193/15 28/7194/16 58/7195/17
f 28/7194/16 97/7196/18 58/7195/17
f 58/7195/17 97/7196/18 8/7197/19
f 97/7196/18 65/7198/20 8/7197/19
f 8/7197/19 65/7198/20 9/7199/21
f 65/7198/20 64/7200/22 9/7199/21
f 9/7199/21 64/7200/22 85/7201/23
f 64/7200/22 45/7202/24 85/7201/23
f 85/7201/23 45/7202/24 74/7203/25
f 45/7202/24 10/7204/26 74/7203/25
f 74/7203/25 10/7204/26 11/7205/27
f 10/7204/26 47/7206/28 11/7205/27
f 11/7205/27 47/7206/28 102/7207/29
f 47/7206/28 12/7208/30 102/7207/29
f 102/7207/29 12/7208/30 13/7209/31
f 12/7208/30 14/7180/2 13/7209/31
f 13/7209/31 14/7180/2 15/7182/4
f 54/7210/32 55/7211/33 16/7212/34
f 55/7211/33 42/7213/35 16/7212/34
f 16/7212/34 42/7213/35 17/7214/36
f 42/7213/35 18/7215/37 17/7214/36
f 17/7214/36 18/7215/37 19/7216/38
f 18/7215/37 20/7217/39 19/7216/38
f 19/7216/38 20/7217/39 21/7218/40
f 20/7217/39 22/7219/41 21/7218/40
f 21/7218/40 22/7219/41 23/7220/42
f 22/7219/41 69/7221/43 23/7220/42
f 23/7220/42 69/7221/43 24/7192/14
f 69/7221/43 87/7222/44 24/7192/14
f 24/7192/14 87/7222/44 5/7186/8
f 87/7222/44 25/7184/6 5/7186/8
f 26/7172/125 27/7174/127 40/7223/45
f 27/7174/127 28/7194/16 40/7223/45
f 40/7223/45 28/7194/16 29/7224/46
f 28/7194/16 120/7193/15 29/7224/46
f 29/7224/46 120/7193/15 30/7225/47
f 120/7193/15 63/7226/48 30/7225/47
f 30/7225/47 63/7226/48 31/7227/49
f 63/7226/48 61/7228/50 31/7227/49
f 31/7227/49 61/7228/50 36/7229/51
f 61/7228/50 32/7230/52 36/7229/51
f 36/7229/51 32/7230/52 33/7231/53
f 32/7230/52 34/7232/54 33/7231/53
f 33/7231/53 35/7233/55 36/7229/51
f 35/7233/55 37/7234/56 36/7229/51
f 36/7229/51 37/7234/56 31/7227/49
f 37/7234/56 38/7235/57 31/7227/49
f 31/7227/49 38/7235/57 30/7225/47
f 38/7235/57 39/7236/58 30/7225/47
f 30/7225/47 39/7236/58 29/7224/46
f 39/7236/58 70/7237/59 29/7224/46
f 29/7224/46 70/7237/59 40/7223/45
f 70/7237/59 41/7238/60 40/7223/45
f 40/7223/45 41/7238/60 26/7172/125
f 55/7211/33 56/7239/61 42/7213/35
f 56/7239/61 85/7201/23 42/7213/35
f 42/7213/35 85/7201/23 68/7240/62
f 85/7201/23 74/7203/25 68/7240/62
f 68/7240/62 74/7203/25 122/7241/63
f 74/7203/25 75/7242/64 122/7241/63
f 122/7241/63 75/7242/64 43/7243/65
f 75/7242/64 88/7244/66 43/7243/65
f 43/7243/65 88/7244/66 69/7221/43
f 88/7244/66 87/7222/44 69/7221/43
f 64/7200/22 44/7245/67 45/7202/24
f 44/7245/67 99/7246/68 45/7202/24
f 45/7202/24 99/7246/68 10/7204/26
f 99/7246/68 46/7247/69 10/7204/26
f 10/7204/26 46/7247/69 47/7206/28
f 46/7247/69 100/7248/70 47/7206/28
f 47/7206/28 100/7248/70 12/7208/30
f 100/7248/70 67/7249/71 12/7208/30
f 12/7208/30 67/7249/71 14/7180/2
f 67/7249/71 3/7178/131 14/7180/2
f 4/7185/7 81/7183/5 48/7250/72
f 81/7183/5 79/7251/73 48/7250/72
f 48/7250/72 79/7251/73 49/7252/74
f 79/7251/73 78/7253/75 49/7252/74
f 49/7252/74 78/7253/75 50/7254/76
f 78/7253/75 51/7255/77 50/7254/76
f 50/7254/76 51/7255/77 52/7256/78
f 51/7255/77 53/7175/128 52/7256/78
f 52/7256/78 53/7175/128 1/7173/126
f 54/7210/32 59/7257/79 55/7211/33
f 59/7257/79 60/7258/80 55/7211/33
f 55/7211/33 60/7258/80 56/7239/61
f 60/7258/80 62/7259/81 56/7239/61
f 56/7239/61 62/7259/81 86/7260/82
f 62/7259/81 57/7261/83 86/7260/82
f 86/7260/82 57/7261/83 8/7197/19
f 57/7261/83 58/7195/17 8/7197/19
f 54/7210/32 34/7232/54 59/7257/79
f 34/7232/54 32/7230/52 59/7257/79
f 59/7257/79 32/7230/52 60/7258/80
f 32/7230/52 61/7228/50 60/7258/80
f 60/7258/80 61/7228/50 62/7259/81
f 61/7228/50 63/7226/48 62/7259/81
f 62/7259/81 63/7226/48 57/7261/83
f 64/7200/22 65/7198/20 44/7245/67
f 65/7198/20 98/7262/84 44/7245/67
f 44/7245/67 98/7262/84 130/7263/85
f 98/7262/84 66/7264/86 130/7263/85
f 130/7263/85 66/7264/86 67/7249/71
f 66/7264/86 2/7176/129 67/7249/71
f 67/7249/71 2/7176/129 3/7178/131
f 42/7213/35 68/7240/62 18/7215/37
f 68/7240/62 121/7265/87 18/7215/37
f 18/7215/37 121/7265/87 20/7217/39
f 121/7265/87 43/7243/65 20/7217/39
f 20/7217/39 43/7243/65 22/7219/41
f 43/7243/65 69/7221/43 22/7219/41
f 41/7238/60 70/7237/59 71/7266/88
f 70/7237/59 39/7236/58 71/7266/88
f 71/7266/88 39/7236/58 72/7267/89
f 39/7236/58 38/7235/57 72/7267/89
f 72/7267/89 38/7235/57 73/7268/90
f 38/7235/57 37/7234/56 73/7268/90
f 74/7203/25 11/7205/27 75/7242/64
f 11/7205/27 103/7269/91 75/7242/64
f 75/7242/64 103/7269/91 76/7270/92
f 103/7269/91 77/7271/93 76/7270/92
f 76/7270/92 77/7271/93 25/7184/6
f 77/7271/93 15/7182/4 25/7184/6
f 51/7255/77 78/7253/75 119/7179/1
f 78/7253/75 79/7251/73 119/7179/1
f 119/7179/1 79/7251/73 80/7181/3
f 79/7251/73 81/7183/5 80/7181/3
f 24/7192/14 82/7191/13 123/7272/94
f 82/7191/13 83/7273/95 123/7272/94
f 123/7272/94 83/7273/95 84/7274/96
f 85/7201/23 56/7239/61 9/7199/21
f 56/7239/61 86/7260/82 9/7199/21
f 9/7199/21 86/7260/82 8/7197/19
f 25/7184/6 87/7222/44 76/7270/92
f 87/7222/44 88/7244/66 76/7270/92
f 76/7270/92 88/7244/66 75/7242/64
f 105/7275/97 89/7276/98 113/7277/99
f 89/7276/98 90/7278/100 113/7277/99
f 113/7277/99 90/7278/100 91/7279/101
f 91/7279/101 92/7280/102 113/7277/99
f 92/7280/102 93/7281/103 113/7277/99
f 113/7277/99 93/7281/103 94/7282/104
f 94/7282/104 95/7283/105 113/7277/99
f 95/7283/105 96/7284/106 113/7277/99
f 113/7277/99 96/7284/106 129/7285/107
f 28/7194/16 66/7264/86 97/7196/18
f 66/7264/86 98/7262/84 97/7196/18
f 97/7196/18 98/7262/84 65/7198/20
f 44/7245/67 130/7263/85 99/7246/68
f 130/7263/85 100/7248/70 99/7246/68
f 99/7246/68 100/7248/70 46/7247/69
f 101/7190/12 24/7192/14 6/7188/10
f 24/7192/14 5/7186/8 6/7188/10
f 11/7205/27 102/7207/29 103/7269/91
f 102/7207/29 77/7271/93 103/7269/91
f 102/7207/29 13/7209/31 77/7271/93
f 13/7209/31 15/7182/4 77/7271/93
f 127/7187/9 4/7185/7 104/7286/108
f 4/7185/7 48/7250/72 104/7286/108
f 105/7275/97 113/7277/99 123/7272/109
f 113/7277/99 106/7287/110 123/7272/109
f 106/7287/110 113/7277/99 107/7288/111
f 113/7277/99 108/7289/112 107/7288/111
f 108/7289/112 113/7277/99 109/7290/113
f 113/7277/99 110/7291/114 109/7290/113
f 110/7291/114 113/7277/99 111/7292/115
f 113/7277/99 112/7293/116 111/7292/115
f 112/7293/116 113/7277/99 114/7294/117
f 113/7277/99 115/7295/118 114/7294/117
f 115/7295/118 113/7277/99 116/7296/119
f 113/7277/99 117/7297/120 116/7296/119
f 53/7175/128 51/7255/77 118/7177/130
f 51/7255/77 119/7179/1 118/7177/130
f 58/7195/17 57/7261/83 120/7193/15
f 57/7261/83 63/7226/48 120/7193/15
f 43/7243/65 121/7265/87 122/7241/63
f 121/7265/87 68/7240/62 122/7241/63
f 105/7275/97 123/7272/109 124/7298/121
f 123/7272/109 125/7299/122 124/7298/121
f 2/7176/129 66/7264/86 27/7174/127
f 66/7264/86 28/7194/16 27/7174/127
f 125/7299/122 123/7272/109 126/7300/123
f 123/7272/109 127/7187/9 126/7300/123
f 126/7300/123 127/7187/9 128/7301/124
f 127/7187/9 104/7286/108 128/7301/124
f 129/7285/107 117/7297/120 113/7277/99
f 67/7249/71 100/7248/70 130/7263/85
