mtllib Hair.mtl
o Mesh_0005.rip.032_Mesh_0005.rip_mesh0000.041
v -0.080000 0.220000 0.265000
v -0.100000 0.360000 0.259258
v 0.010000 0.310000 0.276406
v 0.013516 0.423906 0.263008
v 0.121719 0.436484 0.240000
v 0.268125 0.559336 0.000000
v 0.166445 0.622617 -0.100000
v 0.149414 0.567813 -0.176992
v 0.027031 0.518516 -0.240000
v -0.148086 0.586328 -0.185977
v -0.220430 0.744024 0.040391
v -0.210000 0.630000 0.000000
v -0.200000 0.620000 -0.090508
v -0.182383 0.562422 -0.100000
v -0.150742 0.532891 -0.176992
v -0.120000 0.480000 -0.239922
v -0.100000 0.360000 -0.259258
v 0.208711 0.020000 0.000000
v 0.252500 0.090000 0.000000
v 0.298828 0.231914 0.106680
v 0.313320 0.226641 0.000000
v 0.332500 0.334375 0.000000
v 0.328906 0.454062 0.000000
v 0.316211 0.334375 -0.106680
v 0.255000 0.548320 -0.100000
v 0.121719 0.436484 -0.240000
v 0.051641 0.236094 0.266836
v 0.101875 0.140000 0.220859
v 0.175703 0.116641 0.162070
v 0.153047 0.040000 0.123477
v 0.230000 0.100000 0.093984
v -0.120000 0.480000 0.239922
v -0.148086 0.586328 0.185977
v 0.027031 0.518516 0.240000
v 0.056641 0.655625 0.100000
v 0.166445 0.622617 0.100000
v -0.203476 0.713633 0.116133
v -0.048672 0.610625 0.187617
v 0.059570 0.672148 0.000000
v 0.175000 0.637461 0.000000
v 0.056641 0.655625 -0.100000
v 0.010000 0.310000 -0.276406
v 0.051641 0.236094 -0.266836
v 0.139844 0.334375 -0.246484
v 0.240117 0.247187 -0.186680
v 0.230000 0.100000 -0.093984
v -0.182383 0.562422 0.100000
v -0.148086 0.586328 0.185977
v -0.150742 0.532891 0.176992
v -0.120000 0.480000 0.239922
v -0.100000 0.360000 0.259258
v -0.200000 0.620000 0.090508
v -0.220430 0.744024 0.040391
v -0.070000 0.700000 0.000000
v -0.210000 0.630000 0.000000
v 0.051641 0.236094 0.266836
v 0.101875 0.140000 0.220859
v 0.153047 0.040000 0.123477
v 0.230000 0.100000 0.093984
v 0.255000 0.548320 0.100000
v 0.312813 0.448203 0.100000
v 0.316211 0.334375 0.106680
v 0.240117 0.247187 0.186680
v 0.149414 0.567813 0.176992
v -0.070000 0.680000 0.106016
v -0.080000 0.220000 -0.265000
v 0.010000 0.310000 -0.276406
v 0.010000 0.310000 0.000000
v 0.051641 0.236094 -0.266836
v 0.101875 0.140000 -0.220859
v 0.208711 0.020000 0.000000
v 0.159453 0.080312 0.088633
v 0.159453 0.080312 -0.088633
v -0.080000 0.220000 -0.265000
v -0.100000 0.360000 -0.259258
v -0.120000 0.480000 -0.239922
v -0.048672 0.610625 -0.187617
v -0.203476 0.713633 -0.116133
v -0.070000 0.680000 -0.106016
v -0.200000 0.620000 -0.090508
v -0.220430 0.744024 -0.040391
v -0.203476 0.713633 0.116133
v -0.200000 0.620000 0.090508
v -0.192617 0.573320 0.000000
v 0.230000 0.100000 -0.093984
v 0.153047 0.040000 -0.123477
v 0.154961 0.243437 0.235312
v 0.139844 0.334375 0.246484
v -0.080000 0.220000 0.265000
v 0.010000 0.310000 0.276406
v -0.080000 0.220000 0.000000
v 0.298828 0.231914 -0.106680
v 0.312813 0.448203 -0.100000
v 0.154961 0.243437 -0.235312
v 0.175703 0.116641 -0.162070
v 0.013516 0.423906 -0.263008
v -0.148086 0.586328 -0.185977
v -0.203476 0.713633 -0.116133
v -0.220430 0.744024 -0.040391
v 0.249024 0.431211 0.186680
v 0.249024 0.431211 -0.186680
v 0.101875 0.140000 -0.220859
v 0.153047 0.040000 -0.123477
vn 0.1452 -0.0198 -0.9892
vn 0.1188 -0.0961 -0.9883
vn -0.0529 -0.0634 -0.9966
vn -0.0470 -0.1637 -0.9854
vn -0.3485 -0.0297 -0.9369
vn -0.2967 -0.2159 -0.9303
vn -0.6093 -0.2029 -0.7665
vn -0.3687 -0.5721 -0.7327
vn -0.7041 -0.5866 -0.4002
vn -0.4344 -0.8165 -0.3803
vn -0.7660 -0.6428 -0.0000
vn -0.4755 -0.8797 -0.0000
vn -0.4344 -0.8165 0.3803
vn -0.2266 -0.8897 0.3963
vn -0.3687 -0.5721 0.7327
vn -0.0525 -0.6073 0.7928
vn -0.1008 -0.3951 0.9131
vn 0.1179 -0.4296 0.8953
vn 0.1029 -0.3033 0.9473
vn 0.9877 0.1241 -0.0954
vn 0.9474 0.2038 -0.2467
vn 0.9772 0.2123 0.0000
vn 0.9572 0.2893 0.0000
vn 0.9474 0.2038 0.2467
vn 0.9373 0.2044 0.2823
vn 0.9104 0.0829 0.4054
vn 0.9318 0.1057 0.3473
vn 0.9583 0.2308 0.1683
vn -0.0486 0.9988 0.0000
vn 0.9879 0.1548 0.0074
vn 0.2382 0.9712 0.0000
vn -0.8478 0.5303 0.0000
vn -0.7554 0.4765 -0.4497
vn -0.8711 0.4910 0.0000
vn -0.8716 0.2955 -0.3911
vn -0.9565 0.2918 0.0000
vn -0.9132 0.0538 -0.4040
vn -0.9975 0.0700 0.0000
vn -0.8875 -0.2595 -0.3807
vn -0.9614 -0.2751 -0.0000
vn -0.7554 0.4765 0.4497
vn -0.8716 0.2955 0.3911
vn -0.6307 0.2209 0.7439
vn -0.9132 0.0538 0.4040
vn -0.6093 -0.2029 0.7665
vn -0.8875 -0.2595 0.3807
vn -0.7041 -0.5866 0.4002
vn -0.2967 -0.2159 0.9303
vn -0.3485 -0.0297 0.9369
vn -0.0470 -0.1637 0.9854
vn -0.0529 -0.0634 0.9966
vn -0.2700 0.1153 -0.9559
vn -0.4185 0.1934 -0.8874
vn -0.4309 0.3715 -0.8224
vn -0.5436 0.4554 -0.7050
vn -0.5455 0.5000 -0.6726
vn 0.1029 -0.3033 -0.9473
vn 0.1179 -0.4296 -0.8953
vn -0.1008 -0.3951 -0.9131
vn -0.0525 -0.6073 -0.7928
vn -0.2266 -0.8897 -0.3963
vn -0.0543 -0.9161 0.3972
vn -0.1848 -0.8957 -0.4045
vn -0.2451 -0.9695 0.0000
vn -0.2700 0.1153 0.9559
vn -0.4185 0.1934 0.8874
vn -0.5436 0.4554 0.7050
vn -0.5455 0.5000 0.6726
vn 0.9373 0.2044 -0.2823
vn 0.9104 0.0829 -0.4054
vn 0.9318 0.1057 -0.3473
vn 0.9583 0.2308 -0.1683
vn 0.9879 0.1548 -0.0074
vn 0.4288 -0.8921 -0.1426
vn 0.1667 -0.9824 0.0846
vn -0.2062 -0.9785 -0.0000
vn 0.4472 -0.8944 0.0000
vn 0.1667 -0.9824 -0.0846
vn 0.1255 0.9921 0.0000
vn 0.8782 0.4783 -0.0046
vn 0.1164 0.9932 0.0000
vn 0.8734 0.4800 0.0823
vn 0.5833 0.7899 0.1891
vn 0.6929 0.4053 0.5963
vn -0.2418 0.9360 -0.2557
vn -0.6307 0.2209 -0.7439
vn -0.1848 -0.8957 0.4045
vn 0.8782 0.4783 0.0046
vn 0.8734 0.4800 -0.0823
vn 0.4831 0.8756 0.0000
vn 0.5833 0.7899 -0.1891
vn 0.1452 -0.0198 0.9892
vn 0.1188 -0.0961 0.9883
vn -0.0543 -0.9161 -0.3972
vn 0.4288 -0.8921 0.1426
vn 0.8898 0.1509 -0.4306
vn -0.2418 0.9360 0.2557
vn 0.6929 0.4053 -0.5963
vn -0.4309 0.3715 0.8224
vn 0.8898 0.1509 0.4306
vn 0.9877 0.1241 0.0954
usemtl Material.013
s 1
f 1/2840/1 2/2841/2 3/2842/3
f 2/2841/2 4/2843/4 3/2842/3
f 3/2842/3 4/2843/4 88/2844/5
f 4/2843/4 5/2845/6 88/2844/5
f 88/2844/5 5/2845/6 100/2846/7
f 5/2845/6 64/2847/8 100/2846/7
f 100/2846/7 64/2847/8 60/2848/9
f 64/2847/8 36/2849/10 60/2848/9
f 60/2848/9 36/2849/10 6/2850/11
f 36/2849/10 40/2851/12 6/2850/11
f 6/2850/11 40/2851/12 7/2852/13
f 40/2851/12 41/2853/14 7/2852/13
f 7/2852/13 41/2853/14 8/2854/15
f 41/2853/14 77/2855/16 8/2854/15
f 8/2854/15 77/2855/16 9/2856/17
f 77/2855/16 10/2857/18 9/2856/17
f 9/2856/17 10/2857/18 76/2858/19
f 11/2859/20 83/2860/21 12/2861/22
f 83/2860/21 84/2862/23 12/2861/22
f 12/2861/22 84/2862/23 13/2863/24
f 84/2862/23 14/2864/25 13/2863/24
f 13/2863/24 14/2864/25 97/2865/26
f 14/2864/25 15/2866/27 97/2865/26
f 97/2865/26 15/2866/27 16/2867/28
f 15/2866/27 91/2868/29 16/2867/28
f 16/2867/28 91/2868/29 17/2869/30
f 91/2868/29 66/2870/31 17/2869/30
f 18/2871/32 31/2872/33 19/2873/34
f 31/2872/33 20/2874/35 19/2873/34
f 19/2873/34 20/2874/35 21/2875/36
f 20/2874/35 62/2876/37 21/2875/36
f 21/2875/36 62/2876/37 22/2877/38
f 62/2876/37 61/2878/39 22/2877/38
f 22/2877/38 61/2878/39 23/2879/40
f 61/2878/39 60/2848/9 23/2879/40
f 23/2879/40 60/2848/9 6/2850/11
f 18/2871/32 19/2873/34 46/2880/41
f 19/2873/34 92/2881/42 46/2880/41
f 46/2880/41 92/2881/42 45/2882/43
f 92/2881/42 24/2883/44 45/2882/43
f 45/2882/43 24/2883/44 101/2884/45
f 24/2883/44 93/2885/46 101/2884/45
f 101/2884/45 93/2885/46 25/2886/47
f 93/2885/46 23/2879/40 25/2886/47
f 25/2886/47 23/2879/40 6/2850/11
f 6/2850/11 7/2852/13 25/2886/47
f 7/2852/13 8/2854/15 25/2886/47
f 25/2886/47 8/2854/15 101/2884/45
f 8/2854/15 26/2887/48 101/2884/45
f 101/2884/45 26/2887/48 44/2888/49
f 26/2887/48 96/2889/50 44/2888/49
f 44/2888/49 96/2889/50 42/2890/51
f 3/2842/3 88/2844/5 27/2891/52
f 88/2844/5 87/2892/53 27/2891/52
f 27/2891/52 87/2892/53 28/2893/54
f 87/2892/53 29/2894/55 28/2893/54
f 28/2893/54 29/2894/55 30/2895/56
f 29/2894/55 31/2872/33 30/2895/56
f 32/2896/57 33/2897/58 34/2898/59
f 33/2897/58 38/2899/60 34/2898/59
f 34/2898/59 38/2899/60 64/2847/8
f 38/2899/60 35/2900/61 64/2847/8
f 64/2847/8 35/2900/61 36/2849/10
f 35/2900/61 40/2851/12 36/2849/10
f 33/2897/58 37/2901/62 38/2899/60
f 37/2901/62 65/2902/63 38/2899/60
f 38/2899/60 65/2902/63 35/2900/61
f 65/2902/63 39/2903/64 35/2900/61
f 35/2900/61 39/2903/64 40/2851/12
f 39/2903/64 41/2853/14 40/2851/12
f 42/2890/51 43/2904/65 44/2888/49
f 43/2904/65 94/2905/66 44/2888/49
f 44/2888/49 94/2905/66 45/2882/43
f 94/2905/66 95/2906/67 45/2882/43
f 45/2882/43 95/2906/67 46/2880/41
f 95/2906/67 103/2907/68 46/2880/41
f 47/2908/69 48/2909/70 49/2910/71
f 48/2909/70 50/2911/72 49/2910/71
f 49/2910/71 50/2911/72 91/2868/29
f 50/2911/72 51/2912/73 91/2868/29
f 91/2868/29 51/2912/73 89/2913/31
f 37/2901/62 52/2914/74 65/2902/63
f 52/2914/74 53/2915/75 65/2902/63
f 65/2902/63 53/2915/75 54/2916/76
f 53/2915/75 55/2917/77 54/2916/76
f 54/2916/76 55/2917/77 81/2918/78
f 90/2919/79 56/2920/80 68/2921/81
f 56/2920/80 57/2922/82 68/2921/81
f 68/2921/81 57/2922/82 72/2923/83
f 57/2922/82 58/2924/84 72/2923/83
f 72/2923/83 58/2924/84 59/2925/85
f 60/2848/9 61/2878/39 100/2846/7
f 61/2878/39 62/2876/37 100/2846/7
f 100/2846/7 62/2876/37 63/2926/86
f 62/2876/37 20/2874/35 63/2926/86
f 63/2926/86 20/2874/35 31/2872/33
f 2/2841/2 32/2896/57 4/2843/4
f 32/2896/57 34/2898/59 4/2843/4
f 4/2843/4 34/2898/59 5/2845/6
f 34/2898/59 64/2847/8 5/2845/6
f 65/2902/63 54/2916/76 39/2903/64
f 54/2916/76 79/2927/87 39/2903/64
f 39/2903/64 79/2927/87 41/2853/14
f 79/2927/87 77/2855/16 41/2853/14
f 66/2870/31 91/2868/29 67/2928/79
f 91/2868/29 68/2921/81 67/2928/79
f 67/2928/79 68/2921/81 69/2929/88
f 68/2921/81 70/2930/89 69/2929/88
f 59/2925/85 71/2931/90 72/2923/83
f 71/2931/90 73/2932/91 72/2923/83
f 72/2923/83 73/2932/91 68/2921/81
f 73/2932/91 70/2930/89 68/2921/81
f 74/2933/92 42/2890/51 75/2934/93
f 42/2890/51 96/2889/50 75/2934/93
f 75/2934/93 96/2889/50 76/2858/19
f 96/2889/50 9/2856/17 76/2858/19
f 10/2857/18 77/2855/16 78/2935/94
f 77/2855/16 79/2927/87 78/2935/94
f 78/2935/94 79/2927/87 80/2936/95
f 79/2927/87 81/2918/78 80/2936/95
f 82/2937/96 48/2909/70 83/2860/21
f 48/2909/70 47/2908/69 83/2860/21
f 83/2860/21 47/2908/69 84/2862/23
f 71/2931/90 85/2938/97 73/2932/91
f 85/2938/97 86/2939/98 73/2932/91
f 73/2932/91 86/2939/98 70/2930/89
f 31/2872/33 29/2894/55 63/2926/86
f 29/2894/55 87/2892/53 63/2926/86
f 63/2926/86 87/2892/53 88/2844/5
f 89/2913/31 90/2919/79 91/2868/29
f 90/2919/79 68/2921/81 91/2868/29
f 19/2873/34 21/2875/36 92/2881/42
f 21/2875/36 24/2883/44 92/2881/42
f 21/2875/36 22/2877/38 24/2883/44
f 22/2877/38 93/2885/46 24/2883/44
f 43/2904/65 102/2940/99 94/2905/66
f 102/2940/99 95/2906/67 94/2905/66
f 96/2889/50 26/2887/48 9/2856/17
f 26/2887/48 8/2854/15 9/2856/17
f 13/2863/24 97/2865/26 98/2941/100
f 81/2918/78 79/2927/87 54/2916/76
f 99/2942/101 12/2861/22 13/2863/24
f 63/2926/86 88/2844/5 100/2846/7
f 44/2888/49 45/2882/43 101/2884/45
f 102/2940/99 103/2907/68 95/2906/67
f 93/2885/46 22/2877/38 23/2879/40
