mtllib Hair.mtl
o Mesh_0005.rip.053_Mesh_0005.rip_mesh0000.065
v -0.125391 0.196836 -0.268516
v -0.106836 0.259766 -0.280625
v 0.023164 0.240000 -0.296172
v -0.066094 0.532227 -0.251914
v 0.043242 0.534297 -0.248008
v 0.060039 0.674883 -0.106016
v 0.176406 0.639922 -0.106016
v 0.284219 0.572851 0.000000
v 0.270274 0.561172 0.106016
v 0.158399 0.581836 0.187617
v 0.159727 0.438945 0.254414
v 0.256445 0.240000 0.196914
v 0.156953 0.240000 0.260586
v 0.186250 -0.037773 0.240352
v 0.156133 -0.140742 0.221562
v -0.057656 0.169414 -0.280156
v 0.219844 0.150000 -0.190078
v 0.331250 0.240000 -0.112773
v 0.332734 0.240000 0.114258
v 0.268750 0.334414 0.197422
v -0.098203 0.316094 -0.283398
v -0.082734 0.448711 -0.280273
v -0.155664 0.449453 -0.266406
v -0.187695 0.620977 -0.138711
v -0.070000 0.670000 -0.106016
v -0.180000 0.660000 -0.054258
v -0.080000 0.690000 0.000000
v -0.070000 0.670000 0.106016
v 0.232539 -0.169102 0.145000
v 0.298438 -0.050742 -0.000000
v 0.241563 0.060820 -0.120703
v -0.210859 0.604648 0.083125
v -0.180000 0.660000 0.054219
v -0.294687 0.531094 -0.123984
v -0.185859 0.550000 -0.212461
v 0.256445 0.240000 -0.196914
v 0.168750 0.334414 -0.261289
v 0.268750 0.334414 -0.197422
v 0.263945 0.437031 -0.197852
v 0.158399 0.581836 -0.187617
v 0.343945 0.334414 -0.113086
v 0.331563 0.455039 -0.106016
v 0.270274 0.561172 -0.106016
v 0.348633 0.461250 0.000000
v -0.048672 0.610625 0.187617
v -0.155703 0.449453 0.266406
v 0.176406 0.639922 0.106016
v 0.043242 0.534297 0.248008
v -0.066094 0.532227 0.251914
v -0.082734 0.448711 0.280273
v 0.025508 0.334414 0.301914
v 0.267969 -0.047227 0.138789
v 0.289453 0.150000 -0.108867
v 0.262031 -0.174922 -0.000000
v 0.267969 -0.047227 -0.138789
v 0.232539 -0.169102 -0.145000
v 0.186250 -0.037773 -0.240352
v 0.156133 -0.140742 -0.221562
v 0.078672 -0.025039 -0.276875
v 0.061719 -0.085273 -0.266953
v 0.008164 -0.016875 -0.289805
v -0.240039 0.425078 -0.233281
v -0.279297 0.479063 -0.185625
v -0.298242 0.428516 -0.066836
v 0.156953 0.240000 -0.260586
v 0.025508 0.334414 -0.301914
v 0.040899 0.443477 -0.286016
v 0.159727 0.438945 -0.254414
v -0.125391 0.196836 0.268516
v -0.106836 0.259766 0.280625
v -0.057656 0.169414 0.280156
v 0.072773 0.067070 0.241406
v 0.164258 0.060273 0.209023
v 0.219844 0.150000 0.190078
v 0.241563 0.060820 0.120703
v 0.270391 0.064570 0.000000
v -0.098203 0.316094 0.283398
v -0.220195 0.420469 0.240000
v -0.258398 0.380039 0.188164
v -0.025312 0.564570 0.056914
v -0.252109 0.535703 0.059766
v -0.025312 0.470781 0.117188
v -0.280625 0.482734 0.096758
v -0.000547 0.156523 0.272148
v -0.011836 0.071523 0.262891
v 0.078672 -0.025039 0.276875
v 0.008164 -0.016875 0.289805
v 0.061719 -0.085273 0.266953
v 0.168750 0.334414 0.261289
v -0.011836 0.071523 -0.262891
v -0.000547 0.156523 -0.272148
v -0.280625 0.482734 0.096758
v 0.348438 0.240000 0.000000
v 0.345391 0.334414 0.114570
v 0.361172 0.334414 0.000000
v -0.048672 0.610625 -0.187617
v -0.183867 0.634102 0.093633
v -0.187695 0.620977 0.138711
v -0.244961 0.570977 0.135195
v 0.185508 0.655664 0.000000
v 0.063125 0.692422 0.000000
v 0.060039 0.674883 0.106016
v -0.171289 0.322188 -0.250977
v -0.098203 0.316094 -0.283398
v -0.106836 0.259766 -0.280625
v -0.125391 0.196836 -0.268516
v 0.290820 0.150000 0.110312
v 0.305430 0.150000 0.000000
v -0.274883 0.428516 0.141797
v -0.251523 0.526484 0.175898
v -0.241758 0.474453 0.212070
v -0.185781 0.550000 0.212500
v -0.171289 0.322188 -0.250977
v -0.183437 0.374414 -0.263477
v -0.235742 0.343438 -0.201406
v -0.280859 0.380039 -0.137734
v -0.274883 0.428516 0.141797
v -0.258398 0.380039 0.188164
v -0.215703 0.343438 0.229805
v -0.154609 0.322188 0.262187
v -0.098203 0.316094 0.283398
v -0.106836 0.259766 0.280625
v -0.125391 0.196836 0.268516
v -0.057656 0.169414 0.280156
v -0.000547 0.156523 0.272148
v -0.011836 0.071523 0.262891
v 0.008164 -0.016875 0.289805
v 0.061719 -0.085273 0.266953
v 0.156133 -0.140742 0.221562
v 0.072773 0.067070 -0.241406
v 0.040899 0.443477 0.286016
v -0.246719 0.608086 0.014766
v -0.283320 0.575625 -0.054609
v -0.252109 0.535703 0.059766
v -0.284375 0.482734 0.002031
v 0.331563 0.455039 0.106016
v 0.263945 0.437031 0.197852
v -0.154609 0.322188 0.262187
v -0.215703 0.343438 0.229805
v -0.284375 0.482734 0.002031
v -0.025312 0.470781 -0.080937
v -0.298242 0.428516 -0.066836
v -0.280859 0.380039 -0.137734
v -0.235742 0.343438 -0.201406
v -0.057656 0.169414 -0.280156
v -0.000547 0.156523 -0.272148
v -0.011836 0.071523 -0.262891
v 0.008164 -0.016875 -0.289805
v 0.071641 0.250000 0.000000
v 0.061719 -0.085273 -0.266953
v 0.156133 -0.140742 -0.221562
v 0.232539 -0.169102 -0.145000
v 0.164258 0.060273 -0.209023
v 0.118672 0.153203 -0.251563
v 0.118672 0.153203 0.251563
v 0.023164 0.240000 0.296172
v 0.232539 -0.169102 0.145000
v 0.262031 -0.174922 -0.000000
vn 0.2161 0.1227 0.9686
vn 0.0871 0.1586 0.9835
vn 0.1479 0.0655 0.9868
vn -0.0774 0.1456 0.9863
vn 0.1839 0.0291 0.9825
vn -0.0690 -0.0241 0.9973
vn 0.1252 -0.2064 0.9704
vn -0.1267 -0.2434 0.9616
vn 0.0890 -0.4979 0.8626
vn -0.1292 -0.5150 0.8474
vn 0.0495 -0.7199 0.6923
vn -0.3494 -0.5933 0.7252
vn -0.1161 -0.9034 0.4127
vn -0.4343 -0.8165 0.3803
vn -0.4755 -0.8797 0.0000
vn -0.7661 -0.6428 0.0000
vn -0.4343 -0.8165 -0.3803
vn -0.7041 -0.5865 -0.4003
vn -0.3494 -0.5933 -0.7252
vn -0.6168 -0.2250 -0.7542
vn -0.3726 -0.2318 -0.8986
vn -0.6384 0.0220 -0.7694
vn -0.4152 -0.0194 -0.9095
vn -0.6349 0.2001 -0.7463
vn -0.4045 0.1601 -0.9004
vn -0.6253 0.2845 -0.7267
vn -0.3251 0.2393 -0.9149
vn -0.5643 -0.0643 -0.8230
vn -0.2755 -0.0762 -0.9583
vn -0.5690 -0.0497 -0.8208
vn -0.2692 -0.0648 -0.9609
vn -0.4849 0.2896 -0.8252
vn -0.2551 0.2266 -0.9400
vn -0.1406 0.2557 0.9565
vn -0.3251 0.2393 0.9149
vn -0.4045 0.1601 0.9004
vn -0.6304 0.2837 0.7226
vn -0.6418 0.2015 0.7400
vn -0.8361 0.3897 0.3862
vn -0.8764 0.2600 0.4054
vn -0.9142 0.4052 0.0065
vn -0.9594 0.2820 0.0069
vn -0.8757 0.2599 -0.4070
vn -0.9105 0.0069 -0.4135
vn 0.2931 -0.2288 0.9283
vn 0.3801 -0.5356 0.7541
vn 0.4136 -0.7565 0.5067
vn 0.1130 -0.9083 0.4028
vn 0.4302 -0.8849 0.1788
vn 0.1215 -0.9926 -0.0000
vn 0.4741 -0.8450 -0.2475
vn 0.1198 -0.9075 -0.4026
vn 0.5684 -0.7655 -0.3014
vn -0.8487 0.2633 -0.4587
vn -0.9035 -0.0253 -0.4279
vn -0.9612 0.2758 0.0000
vn -0.9998 0.0188 0.0000
vn -0.9035 -0.0253 0.4279
vn -0.8797 0.0531 0.4725
vn -0.5643 -0.0643 0.8230
vn 0.7752 -0.5991 -0.2001
vn 0.7846 -0.5765 -0.2282
vn 0.8714 -0.4905 0.0039
vn 0.8919 -0.3505 0.2856
vn 0.8109 -0.1713 0.5596
vn -0.4152 -0.0194 0.9095
vn -0.6457 0.0223 0.7633
vn -0.3726 -0.2318 0.8986
vn -0.6194 -0.2228 0.7528
vn -0.7041 -0.5865 0.4003
vn -0.9106 0.0126 0.4132
vn -0.8773 -0.2907 0.3819
vn -0.9518 -0.3069 0.0000
vn 0.4549 -0.7836 -0.4232
vn 0.0495 -0.7199 -0.6923
vn 0.3704 -0.5394 -0.7562
vn 0.0890 -0.4979 -0.8627
vn 0.3096 -0.1942 -0.9308
vn 0.1251 -0.2064 -0.9704
vn 0.1930 0.0069 -0.9812
vn -0.0690 -0.0241 -0.9973
vn -0.1161 -0.9034 -0.4127
vn -0.1292 -0.5150 -0.8474
vn -0.1267 -0.2434 -0.9616
vn -0.8783 0.0588 -0.4745
vn -0.9942 0.1076 0.0022
vn -0.8487 0.2633 0.4587
vn -0.5690 -0.0497 0.8208
vn -0.4849 0.2896 0.8252
vn -0.2692 -0.0648 0.9609
vn -0.2551 0.2266 0.9400
vn -0.1972 -0.1754 0.9645
vn 0.5120 0.3108 0.8008
vn 0.4510 0.1296 0.8830
vn 0.6568 -0.0271 0.7536
vn 0.9264 0.1554 0.3429
vn 0.9989 -0.0069 0.0469
vn 0.2161 0.1227 -0.9686
vn 0.1479 0.0655 -0.9868
vn 0.0872 0.1586 -0.9835
vn -0.0774 0.1456 -0.9863
vn -0.1406 0.2557 -0.9565
vn -0.8322 0.3949 -0.3893
vn 0.3918 0.0588 -0.9182
vn 0.5957 -0.0266 -0.8028
vn 0.7251 -0.2015 -0.6585
vn 0.8349 0.0296 -0.5496
vn 0.9325 -0.0921 -0.3492
vn 0.2194 0.7345 -0.6421
vn -0.1368 0.7892 -0.5988
vn -0.1395 0.9747 0.1744
vn -0.1077 0.9834 0.1464
vn 0.2920 0.5324 0.7946
vn -0.0345 0.6130 0.7893
vn -0.0379 0.6605 0.7499
vn -0.2416 -0.0979 -0.9654
vn -0.1972 -0.1754 -0.9645
vn -0.2416 -0.0979 0.9654
vn -0.2755 -0.0762 0.9583
vn 0.7898 -0.5741 -0.2159
vn 0.7917 -0.3723 -0.4843
vn 0.9551 -0.2630 -0.1362
vn -0.9999 0.0126 0.0054
vn -0.8765 -0.2961 -0.3796
vn -0.1320 -0.9912 -0.0000
vn 0.9147 -0.3772 -0.1454
vn -0.1726 0.8104 -0.5599
vn 0.5836 0.4100 -0.7009
vn 0.9351 0.3544 -0.0069
vn 0.8146 -0.2433 -0.5265
vn 0.7391 0.3020 -0.6021
vn 0.7505 0.2761 0.6005
vn -0.0551 0.6991 0.7129
vn -0.0808 0.7254 0.6836
vn -0.1252 0.7466 0.6534
vn 0.5778 0.3569 0.7340
vn 0.8146 -0.2433 0.5265
vn 0.7391 0.3020 0.6021
vn 0.2751 0.8828 0.3809
vn 0.7861 0.4900 0.3768
vn 0.8932 0.1856 0.4096
vn 0.7620 0.3845 0.5210
vn 0.6575 0.4573 0.5988
vn 0.6611 0.4731 0.5823
vn 0.8243 0.4398 0.3565
vn 0.9664 -0.1457 -0.2118
vn 0.5988 0.1393 -0.7887
vn -0.1534 0.7945 -0.5875
vn -0.1557 0.8007 -0.5785
vn -0.1622 0.8062 -0.5689
vn 0.2751 0.8828 -0.3809
vn 0.7861 0.4900 -0.3768
vn 0.8932 0.1856 -0.4096
vn 0.7620 0.3845 -0.5210
vn 0.6575 0.4573 -0.5988
vn 0.6611 0.4731 -0.5823
vn 0.8243 0.4398 -0.3565
vn 0.9126 0.4089 0.0000
usemtl Material.013
s 1
f 1/5312/1 16/5313/2 2/5314/3
f 16/5313/2 3/5315/4 2/5314/3
f 2/5314/3 3/5315/4 21/5316/5
f 3/5315/4 66/5317/6 21/5316/5
f 21/5316/5 66/5317/6 22/5318/7
f 66/5317/6 67/5319/8 22/5318/7
f 22/5318/7 67/5319/8 4/5320/9
f 67/5319/8 5/5321/10 4/5320/9
f 4/5320/9 5/5321/10 96/5322/11
f 5/5321/10 40/5323/12 96/5322/11
f 96/5322/11 40/5323/12 6/5324/13
f 40/5323/12 7/5325/14 6/5324/13
f 6/5324/13 7/5325/14 100/5326/15
f 7/5325/14 8/5327/16 100/5326/15
f 100/5326/15 8/5327/16 47/5328/17
f 8/5327/16 9/5329/18 47/5328/17
f 47/5328/17 9/5329/18 10/5330/19
f 9/5329/18 137/5331/20 10/5330/19
f 10/5330/19 137/5331/20 11/5332/21
f 137/5331/20 20/5333/22 11/5332/21
f 11/5332/21 20/5333/22 89/5334/23
f 20/5333/22 12/5335/24 89/5334/23
f 89/5334/23 12/5335/24 13/5336/25
f 12/5335/24 74/5337/26 13/5336/25
f 13/5336/25 74/5337/26 155/5338/27
f 74/5337/26 73/5339/28 155/5338/27
f 155/5338/27 73/5339/28 72/5340/29
f 73/5339/28 14/5341/30 72/5340/29
f 72/5340/29 14/5341/30 86/5342/31
f 14/5341/30 15/5343/32 86/5342/31
f 86/5342/31 15/5343/32 88/5344/33
f 16/5313/2 91/5345/34 3/5315/4
f 91/5345/34 154/5346/35 3/5315/4
f 3/5315/4 154/5346/35 65/5347/36
f 154/5346/35 17/5348/37 65/5347/36
f 65/5347/36 17/5348/37 36/5349/38
f 17/5348/37 53/5350/39 36/5349/38
f 36/5349/38 53/5350/39 18/5351/40
f 53/5350/39 108/5352/41 18/5351/40
f 18/5351/40 108/5352/41 93/5353/42
f 108/5352/41 19/5354/43 93/5353/42
f 93/5353/42 19/5354/43 94/5355/44
f 19/5354/43 20/5333/22 94/5355/44
f 94/5355/44 20/5333/22 137/5331/20
f 21/5316/5 22/5318/7 23/5356/45
f 22/5318/7 4/5320/9 23/5356/45
f 23/5356/45 4/5320/9 35/5357/46
f 4/5320/9 96/5322/11 35/5357/46
f 35/5357/46 96/5322/11 24/5358/47
f 96/5322/11 25/5359/48 24/5358/47
f 24/5358/47 25/5359/48 26/5360/49
f 25/5359/48 27/5361/50 26/5360/49
f 26/5360/49 27/5361/50 33/5362/51
f 27/5361/50 28/5363/52 33/5362/51
f 33/5362/51 28/5363/52 97/5364/53
f 15/5343/32 14/5341/30 29/5365/54
f 14/5341/30 52/5366/55 29/5365/54
f 29/5365/54 52/5366/55 54/5367/56
f 52/5366/55 30/5368/57 54/5367/56
f 54/5367/56 30/5368/57 55/5369/58
f 30/5368/57 31/5370/59 55/5369/58
f 55/5369/58 31/5370/59 153/5371/60
f 31/5370/59 17/5348/37 153/5371/60
f 153/5371/60 17/5348/37 154/5346/35
f 97/5364/53 32/5372/61 33/5362/51
f 32/5372/61 132/5373/62 33/5362/51
f 33/5362/51 132/5373/62 26/5360/49
f 132/5373/62 133/5374/63 26/5360/49
f 26/5360/49 133/5374/63 24/5358/47
f 133/5374/63 34/5375/64 24/5358/47
f 24/5358/47 34/5375/64 35/5357/46
f 34/5375/64 63/5376/65 35/5357/46
f 35/5357/46 63/5376/65 23/5356/45
f 65/5347/36 36/5349/38 37/5377/66
f 36/5349/38 38/5378/67 37/5377/66
f 37/5377/66 38/5378/67 68/5379/68
f 38/5378/67 39/5380/69 68/5379/68
f 68/5379/68 39/5380/69 40/5323/12
f 39/5380/69 43/5381/70 40/5323/12
f 40/5323/12 43/5381/70 7/5325/14
f 43/5381/70 8/5327/16 7/5325/14
f 36/5349/38 18/5351/40 38/5378/67
f 18/5351/40 41/5382/71 38/5378/67
f 38/5378/67 41/5382/71 39/5380/69
f 41/5382/71 42/5383/72 39/5380/69
f 39/5380/69 42/5383/72 43/5381/70
f 42/5383/72 44/5384/73 43/5381/70
f 43/5381/70 44/5384/73 8/5327/16
f 44/5384/73 9/5329/18 8/5327/16
f 97/5364/53 28/5363/52 98/5385/74
f 28/5363/52 45/5386/75 98/5385/74
f 98/5385/74 45/5386/75 112/5387/76
f 45/5386/75 49/5388/77 112/5387/76
f 112/5387/76 49/5388/77 46/5389/78
f 49/5388/77 50/5390/79 46/5389/78
f 46/5389/78 50/5390/79 77/5391/80
f 50/5390/79 51/5392/81 77/5391/80
f 100/5326/15 47/5328/17 102/5393/82
f 47/5328/17 10/5330/19 102/5393/82
f 102/5393/82 10/5330/19 45/5386/75
f 10/5330/19 48/5394/83 45/5386/75
f 45/5386/75 48/5394/83 49/5388/77
f 48/5394/83 131/5395/84 49/5388/77
f 49/5388/77 131/5395/84 50/5390/79
f 131/5395/84 51/5392/81 50/5390/79
f 14/5341/30 73/5339/28 52/5366/55
f 73/5339/28 75/5396/85 52/5366/55
f 52/5366/55 75/5396/85 30/5368/57
f 75/5396/85 76/5397/86 30/5368/57
f 30/5368/57 76/5397/86 31/5370/59
f 76/5397/86 53/5350/39 31/5370/59
f 31/5370/59 53/5350/39 17/5348/37
f 54/5367/56 55/5369/58 56/5398/87
f 55/5369/58 57/5399/88 56/5398/87
f 56/5398/87 57/5399/88 58/5400/89
f 57/5399/88 59/5401/90 58/5400/89
f 58/5400/89 59/5401/90 60/5402/91
f 59/5401/90 61/5403/92 60/5402/91
f 113/5404/93 21/5316/5 114/5405/94
f 21/5316/5 23/5356/45 114/5405/94
f 114/5405/94 23/5356/45 62/5406/95
f 23/5356/45 63/5376/65 62/5406/95
f 62/5406/95 63/5376/65 116/5407/96
f 63/5376/65 64/5408/97 116/5407/96
f 3/5315/4 65/5347/36 66/5317/6
f 65/5347/36 37/5377/66 66/5317/6
f 66/5317/6 37/5377/66 67/5319/8
f 37/5377/66 68/5379/68 67/5319/8
f 67/5319/8 68/5379/68 5/5321/10
f 68/5379/68 40/5323/12 5/5321/10
f 69/5409/98 70/5410/99 71/5411/100
f 70/5410/99 156/5412/101 71/5411/100
f 71/5411/100 156/5412/101 84/5413/102
f 156/5412/101 155/5338/27 84/5413/102
f 84/5413/102 155/5338/27 72/5340/29
f 73/5339/28 74/5337/26 75/5396/85
f 74/5337/26 107/5414/103 75/5396/85
f 75/5396/85 107/5414/103 76/5397/86
f 107/5414/103 108/5352/41 76/5397/86
f 76/5397/86 108/5352/41 53/5350/39
f 77/5391/80 138/5415/104 46/5389/78
f 138/5415/104 78/5416/105 46/5389/78
f 46/5389/78 78/5416/105 111/5417/106
f 78/5416/105 79/5418/107 111/5417/106
f 111/5417/106 79/5418/107 109/5419/108
f 141/5420/109 140/5421/110 80/5422/111
f 140/5421/110 81/5423/112 80/5422/111
f 80/5422/111 81/5423/112 82/5424/113
f 81/5423/112 83/5425/114 82/5424/113
f 82/5424/113 83/5425/114 117/5426/115
f 84/5413/102 72/5340/29 85/5427/116
f 72/5340/29 86/5342/31 85/5427/116
f 85/5427/116 86/5342/31 87/5428/117
f 86/5342/31 88/5344/33 87/5428/117
f 70/5410/99 77/5391/80 156/5412/101
f 77/5391/80 51/5392/81 156/5412/101
f 156/5412/101 51/5392/81 13/5336/25
f 51/5392/81 89/5334/23 13/5336/25
f 61/5403/92 59/5401/90 90/5429/118
f 59/5401/90 130/5430/119 90/5429/118
f 90/5429/118 130/5430/119 91/5345/34
f 130/5430/119 154/5346/35 91/5345/34
f 98/5385/74 112/5387/76 99/5431/120
f 112/5387/76 110/5432/121 99/5431/120
f 99/5431/120 110/5432/121 92/5433/122
f 110/5432/121 109/5419/108 92/5433/122
f 18/5351/40 93/5353/42 41/5382/71
f 93/5353/42 95/5434/123 41/5382/71
f 41/5382/71 95/5434/123 42/5383/72
f 95/5434/123 44/5384/73 42/5383/72
f 93/5353/42 94/5355/44 95/5434/123
f 94/5355/44 136/5435/124 95/5434/123
f 95/5434/123 136/5435/124 44/5384/73
f 136/5435/124 9/5329/18 44/5384/73
f 96/5322/11 6/5324/13 25/5359/48
f 6/5324/13 101/5436/125 25/5359/48
f 25/5359/48 101/5436/125 27/5361/50
f 101/5436/125 28/5363/52 27/5361/50
f 97/5364/53 98/5385/74 32/5372/61
f 98/5385/74 99/5431/120 32/5372/61
f 32/5372/61 99/5431/120 134/5437/126
f 99/5431/120 92/5433/122 134/5437/126
f 6/5324/13 100/5326/15 101/5436/125
f 100/5326/15 102/5393/82 101/5436/125
f 101/5436/125 102/5393/82 28/5363/52
f 102/5393/82 45/5386/75 28/5363/52
f 103/5438/127 141/5420/109 104/5439/128
f 141/5420/109 149/5440/129 104/5439/128
f 104/5439/128 149/5440/129 105/5441/130
f 149/5440/129 106/5442/131 105/5441/130
f 74/5337/26 12/5335/24 107/5414/103
f 12/5335/24 19/5354/43 107/5414/103
f 107/5414/103 19/5354/43 108/5352/41
f 109/5419/108 110/5432/121 111/5417/106
f 110/5432/121 112/5387/76 111/5417/106
f 111/5417/106 112/5387/76 46/5389/78
f 113/5404/93 114/5405/94 115/5443/132
f 114/5405/94 62/5406/95 115/5443/132
f 115/5443/132 62/5406/95 116/5407/96
f 117/5426/115 118/5444/133 82/5424/113
f 118/5444/133 119/5445/134 82/5424/113
f 82/5424/113 119/5445/134 120/5446/135
f 121/5447/136 122/5448/137 149/5440/129
f 122/5448/137 123/5449/138 149/5440/129
f 149/5440/129 123/5449/138 124/5450/139
f 124/5450/139 125/5451/140 149/5440/129
f 125/5451/140 126/5452/141 149/5440/129
f 149/5440/129 126/5452/141 127/5453/142
f 127/5453/142 128/5454/143 149/5440/129
f 128/5454/143 129/5455/144 149/5440/129
f 149/5440/129 129/5455/144 157/5456/145
f 55/5369/58 153/5371/60 57/5399/88
f 153/5371/60 130/5430/119 57/5399/88
f 57/5399/88 130/5430/119 59/5401/90
f 131/5395/84 48/5394/83 11/5332/21
f 48/5394/83 10/5330/19 11/5332/21
f 32/5372/61 134/5437/126 132/5373/62
f 134/5437/126 133/5374/63 132/5373/62
f 134/5437/126 135/5457/146 133/5374/63
f 135/5457/146 34/5375/64 133/5374/63
f 120/5446/135 121/5447/136 82/5424/113
f 121/5447/136 149/5440/129 82/5424/113
f 135/5457/146 64/5408/97 34/5375/64
f 64/5408/97 63/5376/65 34/5375/64
f 9/5329/18 136/5435/124 137/5331/20
f 136/5435/124 94/5355/44 137/5331/20
f 138/5415/104 139/5458/147 78/5416/105
f 139/5458/147 79/5418/107 78/5416/105
f 140/5421/110 141/5420/109 142/5459/148
f 141/5420/109 143/5460/149 142/5459/148
f 143/5460/149 141/5420/109 144/5461/150
f 141/5420/109 103/5438/127 144/5461/150
f 51/5392/81 131/5395/84 89/5334/23
f 131/5395/84 11/5332/21 89/5334/23
f 106/5442/131 149/5440/129 145/5462/151
f 149/5440/129 146/5463/152 145/5462/151
f 146/5463/152 149/5440/129 147/5464/153
f 149/5440/129 148/5465/154 147/5464/153
f 148/5465/154 149/5440/129 150/5466/155
f 149/5440/129 151/5467/156 150/5466/155
f 151/5467/156 149/5440/129 152/5468/157
f 149/5440/129 158/5469/158 152/5468/157
f 153/5371/60 154/5346/35 130/5430/119
f 155/5338/27 156/5412/101 13/5336/25
f 20/5333/22 19/5354/43 12/5335/24
f 149/5440/129 157/5456/145 158/5469/158
