mtllib Hair.mtl
o Mesh_0005.rip.074_Mesh_0005.rip_mesh0000.086
v 0.038008 0.180000 0.000000
v -0.227773 0.575625 -0.098047
v -0.207969 0.646367 -0.100977
v -0.100000 0.690000 -0.086289
v 0.007852 0.704414 0.000000
v -0.007265 0.596992 0.213086
v 0.028672 0.529570 0.254414
v 0.129024 0.442617 0.254414
v 0.000000 0.440000 0.278789
v -0.080000 0.330391 0.283164
v -0.100000 0.240000 0.307734
v -0.060000 0.140000 0.328555
v -0.080000 0.060000 0.302656
v -0.080000 0.060000 -0.302656
v -0.060000 0.140000 -0.328555
v -0.100000 0.240000 -0.307734
v -0.080000 0.330391 -0.283164
v 0.083008 0.330352 -0.288906
v 0.000000 0.440000 -0.278789
v -0.007266 0.596992 -0.213086
v 0.070000 0.650000 -0.125586
v 0.028008 0.684805 -0.067617
v 0.016172 0.250352 -0.322383
v 0.230039 0.330352 -0.221094
v 0.129024 0.442617 -0.254414
v 0.263945 0.437031 -0.197852
v 0.158399 0.581836 -0.187617
v 0.270274 0.561172 -0.106016
v 0.070000 0.650000 0.125586
v 0.270274 0.561172 0.106016
v 0.331563 0.455039 0.106016
v 0.358633 0.222344 0.063633
v 0.391016 0.158359 0.000000
v 0.417656 0.130351 0.072227
v 0.397773 0.116367 0.022969
v 0.284219 0.572851 0.000000
v 0.331563 0.455039 -0.106016
v 0.328281 0.330352 -0.119648
v 0.345938 0.278359 -0.061484
v 0.369219 0.250351 -0.137852
v 0.358633 0.222344 -0.063633
v 0.345859 0.158359 -0.130664
v 0.264180 0.278359 -0.175234
v 0.274023 0.222344 -0.181367
v 0.319727 0.130351 -0.228633
v -0.147617 0.605859 0.183047
v -0.100000 0.690000 0.086289
v -0.117265 0.703320 0.000000
v -0.229844 0.660899 0.000000
v 0.022305 -0.069648 -0.297266
v -0.100000 0.240000 -0.307734
v -0.060000 0.140000 -0.328555
v 0.158399 0.581836 0.187617
v 0.263945 0.437031 0.197852
v 0.083008 0.330352 0.288906
v 0.105625 0.278359 0.262227
v 0.016172 0.250352 0.322383
v 0.425938 0.250351 0.000000
v 0.417656 0.130351 -0.072227
v 0.367188 0.038359 -0.065117
v -0.080000 0.060000 -0.302656
v -0.161562 0.560352 0.178828
v -0.227773 0.575625 0.098047
v -0.110000 0.550000 0.226406
v -0.060000 0.650000 0.160000
v 0.217227 0.158359 0.241484
v 0.150039 0.130352 0.308008
v 0.280664 0.038359 -0.185508
v 0.203711 -0.069648 -0.227539
v -0.251601 0.581289 0.000000
v 0.358008 -0.017656 -0.063555
v 0.328281 0.330352 0.119648
v 0.264180 0.278359 0.175234
v 0.369219 0.250351 0.137852
v 0.274023 0.222344 0.181367
v 0.345859 0.158359 0.130664
v 0.438555 0.010351 0.000000
v 0.367188 0.038359 0.065117
v 0.358008 -0.017656 0.063555
v 0.024688 0.158359 0.315508
v 0.024961 0.102344 0.317773
v -0.100000 0.440000 0.249961
v 0.348477 0.102344 0.131641
v 0.380234 0.010351 0.141797
v 0.203711 -0.069648 0.227539
v 0.273555 -0.017656 0.181055
v -0.080000 -0.017656 0.319648
v -0.251601 0.581289 0.000000
v -0.227773 0.575625 0.098047
v 0.022305 -0.069648 0.297266
v 0.280664 0.038359 0.185508
v 0.213398 0.010352 0.262031
v -0.100000 0.440000 -0.249961
v -0.110000 0.550000 -0.226406
v -0.161562 0.560352 -0.178828
v 0.176406 0.639922 0.106016
v 0.348633 0.461250 0.000000
v 0.362813 0.330352 0.000000
v 0.150039 0.130352 -0.308008
v 0.217227 0.158359 -0.241484
v 0.105625 0.278359 -0.262227
v 0.109688 -0.017656 0.270977
v 0.273555 -0.017656 0.181055
v 0.358008 -0.017656 0.063555
v 0.358008 -0.017656 -0.063555
v 0.397773 0.116367 -0.022969
v 0.112773 0.038359 0.277578
v 0.109688 -0.017656 0.270977
v 0.004492 0.010352 0.342344
v 0.022305 -0.069648 0.297266
v -0.080000 -0.017656 0.319648
v 0.219258 0.250352 -0.254727
v 0.112773 0.038359 -0.277578
v 0.004492 0.010352 -0.342344
v 0.024961 0.102344 -0.317773
v 0.324922 -0.069648 0.123125
v -0.060000 0.650000 -0.160000
v -0.147617 0.605859 -0.183047
v 0.176406 0.639922 -0.106016
v 0.213398 0.010352 -0.262031
v 0.380234 0.010351 -0.141797
v 0.273555 -0.017656 -0.181055
v 0.109687 -0.017656 -0.270977
v 0.022305 -0.069648 -0.297266
v 0.024688 0.158359 -0.315508
v 0.109883 0.222344 -0.271406
v 0.273555 -0.017656 -0.181055
v 0.109687 -0.017656 -0.270977
v -0.100000 0.440000 0.249961
v -0.227773 0.575625 -0.098047
v -0.161562 0.560352 -0.178828
v -0.100000 0.440000 -0.249961
v 0.230039 0.330352 0.221094
v 0.219258 0.250352 0.254727
v 0.109883 0.222344 0.271406
v 0.319727 0.130351 0.228633
v 0.218906 0.102344 0.243203
v 0.345938 0.278359 0.061484
v -0.207969 0.646367 0.100977
v -0.161562 0.560352 0.178828
v -0.080000 0.330391 -0.283164
v 0.324922 -0.069648 -0.123125
v 0.028672 0.529570 -0.254414
v 0.185508 0.655664 0.000000
v 0.028008 0.684805 0.067617
v 0.348477 0.102344 -0.131641
v 0.218906 0.102344 -0.243203
v 0.367500 -0.069649 -0.000000
v -0.080000 -0.017656 -0.319648
v -0.080000 -0.017656 -0.319648
v -0.080000 0.060000 0.302656
v -0.060000 0.140000 0.328555
v -0.100000 0.240000 0.307734
v -0.080000 0.330391 0.283164
vn 0.6991 -0.1420 0.7008
vn 0.4660 -0.4877 0.7383
vn 0.8670 -0.2225 0.4458
vn 0.6564 -0.6047 0.4511
vn 0.1344 -0.9235 0.3592
vn 0.1999 -0.9798 -0.0000
vn -0.1346 -0.9909 -0.0000
vn 0.1344 -0.9235 -0.3592
vn -0.1601 -0.9363 -0.3125
vn 0.0366 -0.7956 -0.6048
vn -0.1579 -0.8402 -0.5188
vn -0.0340 -0.6395 -0.7681
vn -0.3597 -0.5823 -0.7291
vn -0.0848 -0.3965 -0.9141
vn -0.3171 -0.2291 -0.9203
vn 0.0456 -0.2008 -0.9786
vn -0.2952 -0.0503 -0.9541
vn 0.1235 -0.2445 -0.9618
vn -0.1445 -0.1186 -0.9824
vn 0.0816 -0.1845 -0.9794
vn -0.1462 -0.0934 -0.9848
vn -0.0657 -0.0045 -0.9978
vn -0.1202 -0.0000 -0.9928
vn 0.2065 -0.0716 -0.9758
vn 0.2065 -0.0716 0.9758
vn -0.1202 -0.0000 0.9928
vn -0.0657 -0.0045 0.9978
vn -0.1462 -0.0934 0.9848
vn 0.0816 -0.1845 0.9794
vn -0.1445 -0.1186 0.9824
vn 0.1235 -0.2445 0.9618
vn -0.2952 -0.0503 0.9541
vn 0.0456 -0.2008 0.9786
vn -0.3171 -0.2291 0.9203
vn -0.0848 -0.3965 0.9141
vn -0.3597 -0.5823 0.7291
vn -0.0340 -0.6395 0.7681
vn -0.1579 -0.8402 0.5188
vn 0.0366 -0.7956 0.6048
vn -0.1601 -0.9363 0.3125
vn -0.3208 -0.2080 0.9240
vn -0.3920 -0.0044 0.9199
vn -0.5756 -0.0575 0.8157
vn -0.6106 -0.1969 0.7670
vn -0.7041 -0.5865 0.4003
vn -0.4099 -0.8278 0.3832
vn -0.7661 -0.6428 0.0000
vn -0.4605 -0.8877 0.0000
vn -0.4099 -0.8278 -0.3832
vn -0.7041 -0.5865 -0.4003
vn -0.6106 -0.1969 -0.7670
vn -0.8816 -0.2623 -0.3923
vn -0.8555 -0.1427 -0.4978
vn -0.9735 -0.2288 -0.0000
vn -0.9198 -0.2682 -0.2863
vn -0.9903 -0.1388 -0.0000
vn -0.9319 -0.1463 -0.3318
vn -0.9885 -0.1514 -0.0000
vn -0.9696 -0.0164 -0.2440
vn -0.9988 -0.0003 0.0485
vn -0.9249 0.0912 -0.3691
vn -0.9503 -0.3112 -0.0000
vn -0.8816 -0.2623 0.3923
vn -0.8555 -0.1427 0.4978
vn -0.9198 -0.2682 0.2863
vn -0.8766 -0.1303 0.4633
vn -0.9319 -0.1463 0.3318
vn -0.8235 -0.1482 0.5476
vn -0.6791 -0.1091 0.7259
vn -0.6170 -0.2198 0.7556
vn -0.6570 -0.0262 0.7535
vn -0.8293 0.0562 0.5559
vn -0.6000 0.1754 0.7806
vn 0.4660 -0.4876 -0.7383
vn 0.6564 -0.6047 -0.4511
vn 0.7461 -0.6658 0.0000
vn 0.9650 -0.2622 0.0000
vn -0.5756 -0.0575 -0.8157
vn -0.3920 -0.0044 -0.9199
vn -0.3208 -0.2080 -0.9240
vn -0.9696 -0.0164 0.2440
vn -0.9988 -0.0003 -0.0485
vn -0.9249 0.0912 0.3691
vn -0.8788 0.1244 0.4608
vn -0.7589 0.5918 0.2719
vn 0.1257 0.9900 -0.0643
vn 0.3258 -0.1910 -0.9259
vn 0.6991 -0.1420 -0.7008
vn 0.3902 -0.3077 -0.8678
vn -0.4526 -0.1497 -0.8790
vn -0.4555 0.0922 -0.8855
vn -0.4112 -0.0288 -0.9111
vn -0.3365 0.1513 -0.9295
vn -0.1003 0.0818 -0.9916
vn 0.2310 0.0882 -0.9689
vn -0.4526 -0.1497 0.8790
vn -0.4555 0.0922 0.8855
vn -0.4674 0.1238 0.8753
vn -0.5314 0.3916 0.7512
vn -0.0111 0.9953 -0.0964
vn -0.3150 0.2739 0.9087
vn -0.7589 0.5918 -0.2719
vn 0.1638 0.9865 0.0000
vn -0.6791 -0.1091 -0.7259
vn -0.4958 -0.0978 -0.8629
vn -0.6170 -0.2198 -0.7556
vn -0.8766 -0.1303 -0.4633
vn -0.8235 -0.1482 -0.5476
vn -0.6570 -0.0262 -0.7535
vn -0.8293 0.0562 -0.5559
vn -0.6000 0.1754 -0.7806
vn -0.9794 0.2017 -0.0000
vn -0.8788 0.1244 -0.4608
vn -0.5314 0.3916 -0.7512
vn -0.0111 0.9953 0.0964
vn -0.3150 0.2739 -0.9087
vn 0.8670 -0.2225 -0.4458
vn -0.4674 0.1238 -0.8753
vn 0.3258 -0.1910 0.9259
vn 0.3902 -0.3077 0.8678
vn -0.4112 -0.0288 0.9111
vn -0.4958 -0.0978 0.8629
vn -0.2677 0.4271 -0.8637
vn -0.3365 0.1513 0.9295
vn -0.1003 0.0818 0.9916
vn 0.1257 0.9900 0.0643
vn -0.2677 0.4271 0.8637
vn 0.2310 0.0882 0.9689
vn 0.9363 0.1024 -0.3358
vn 0.9148 0.3919 -0.0975
vn 0.7837 0.6211 0.0000
vn 0.7785 0.5503 0.3017
vn 0.7575 0.5821 0.2955
vn 0.8109 0.5852 -0.0000
vn 0.9363 0.1024 0.3358
vn 0.9148 0.3919 0.0975
vn 0.7785 0.5503 -0.3017
vn -0.0323 0.8034 -0.5946
vn 0.3789 0.8288 -0.4118
vn 0.4974 0.8541 -0.1517
vn 0.4974 0.8541 0.1517
vn 0.3789 0.8288 0.4118
vn -0.0323 0.8034 0.5946
vn 0.1846 0.7478 0.6378
vn 0.6855 0.4784 0.5489
vn 0.7575 0.5821 -0.2955
vn 0.9387 -0.0743 -0.3366
vn 0.9558 0.0443 -0.2905
vn 0.9113 0.1680 -0.3759
vn 0.1846 0.7478 -0.6378
vn 0.6855 0.4784 -0.5489
vn 0.9387 -0.0743 0.3366
vn 0.9558 0.0443 0.2905
vn 0.9113 0.1680 0.3759
usemtl Material.013
s 1
f 95/8335/1 118/8336/2 2/8337/3
f 2/8337/3 118/8336/2 3/8338/4
f 118/8336/2 4/8339/5 3/8338/4
f 3/8338/4 4/8339/5 48/8340/6
f 4/8339/5 5/8341/7 48/8340/6
f 48/8340/6 5/8341/7 47/8342/8
f 5/8341/7 145/8343/9 47/8342/8
f 47/8342/8 145/8343/9 65/8344/10
f 145/8343/9 29/8345/11 65/8344/10
f 65/8344/10 29/8345/11 6/8346/12
f 29/8345/11 53/8347/13 6/8346/12
f 6/8346/12 53/8347/13 7/8348/14
f 53/8347/13 8/8349/15 7/8348/14
f 7/8348/14 8/8349/15 9/8350/16
f 8/8349/15 55/8351/17 9/8350/16
f 9/8350/16 55/8351/17 10/8352/18
f 55/8351/17 57/8353/19 10/8352/18
f 10/8352/18 57/8353/19 11/8354/20
f 57/8353/19 80/8355/21 11/8354/20
f 11/8354/20 80/8355/21 12/8356/22
f 80/8355/21 81/8357/23 12/8356/22
f 12/8356/22 81/8357/23 13/8358/24
f 14/8359/25 115/8360/26 15/8361/27
f 115/8360/26 125/8362/28 15/8361/27
f 15/8361/27 125/8362/28 16/8363/29
f 125/8362/28 23/8364/30 16/8363/29
f 16/8363/29 23/8364/30 17/8365/31
f 23/8364/30 18/8366/32 17/8365/31
f 17/8365/31 18/8366/32 19/8367/33
f 18/8366/32 25/8368/34 19/8367/33
f 19/8367/33 25/8368/34 143/8369/35
f 25/8368/34 27/8370/36 143/8369/35
f 143/8369/35 27/8370/36 20/8371/37
f 27/8370/36 21/8372/38 20/8371/37
f 20/8371/37 21/8372/38 117/8373/39
f 21/8372/38 22/8374/40 117/8373/39
f 117/8373/39 22/8374/40 4/8339/5
f 22/8374/40 5/8341/7 4/8339/5
f 125/8362/28 126/8375/41 23/8364/30
f 126/8375/41 101/8376/42 23/8364/30
f 23/8364/30 101/8376/42 18/8366/32
f 101/8376/42 24/8377/43 18/8366/32
f 18/8366/32 24/8377/43 25/8368/34
f 24/8377/43 26/8378/44 25/8368/34
f 25/8368/34 26/8378/44 27/8370/36
f 26/8378/44 28/8379/45 27/8370/36
f 27/8370/36 28/8379/45 119/8380/46
f 28/8379/45 36/8381/47 119/8380/46
f 119/8380/46 36/8381/47 144/8382/48
f 36/8381/47 96/8383/49 144/8382/48
f 144/8382/48 96/8383/49 145/8343/9
f 96/8383/49 29/8345/11 145/8343/9
f 29/8345/11 96/8383/49 53/8347/13
f 96/8383/49 30/8384/50 53/8347/13
f 53/8347/13 30/8384/50 54/8385/51
f 30/8384/50 31/8386/52 54/8385/51
f 54/8385/51 31/8386/52 72/8387/53
f 31/8386/52 98/8388/54 72/8387/53
f 72/8387/53 98/8388/54 138/8389/55
f 98/8388/54 58/8390/56 138/8389/55
f 138/8389/55 58/8390/56 32/8391/57
f 58/8390/56 33/8392/58 32/8391/57
f 32/8391/57 33/8392/58 34/8393/59
f 33/8392/58 35/8394/60 34/8393/59
f 34/8393/59 35/8394/60 78/8395/61
f 36/8381/47 28/8379/45 97/8396/62
f 28/8379/45 37/8397/63 97/8396/62
f 97/8396/62 37/8397/63 98/8388/54
f 37/8397/63 38/8398/64 98/8388/54
f 98/8388/54 38/8398/64 39/8399/65
f 38/8398/64 40/8400/66 39/8399/65
f 39/8399/65 40/8400/66 41/8401/67
f 40/8400/66 42/8402/68 41/8401/67
f 26/8378/44 24/8377/43 38/8398/64
f 24/8377/43 43/8403/69 38/8398/64
f 38/8398/64 43/8403/69 40/8400/66
f 43/8403/69 44/8404/70 40/8400/66
f 40/8400/66 44/8404/70 42/8402/68
f 44/8404/70 45/8405/71 42/8402/68
f 42/8402/68 45/8405/71 146/8406/72
f 45/8405/71 68/8407/73 146/8406/72
f 65/8344/10 46/8408/74 47/8342/8
f 46/8408/74 139/8409/75 47/8342/8
f 47/8342/8 139/8409/75 48/8340/6
f 139/8409/75 49/8410/76 48/8340/6
f 48/8340/6 49/8410/76 3/8338/4
f 49/8410/76 88/8411/77 3/8338/4
f 3/8338/4 88/8411/77 2/8337/3
f 53/8347/13 54/8385/51 8/8349/15
f 54/8385/51 133/8412/78 8/8349/15
f 8/8349/15 133/8412/78 55/8351/17
f 133/8412/78 56/8413/79 55/8351/17
f 55/8351/17 56/8413/79 57/8353/19
f 56/8413/79 135/8414/80 57/8353/19
f 57/8353/19 135/8414/80 80/8355/21
f 98/8388/54 39/8399/65 58/8390/56
f 39/8399/65 41/8401/67 58/8390/56
f 58/8390/56 41/8401/67 33/8392/58
f 41/8401/67 59/8415/81 33/8392/58
f 33/8392/58 59/8415/81 106/8416/82
f 59/8415/81 60/8417/83 106/8416/82
f 41/8401/67 42/8402/68 59/8415/81
f 42/8402/68 146/8406/72 59/8415/81
f 59/8415/81 146/8406/72 60/8417/83
f 146/8406/72 121/8418/84 60/8417/83
f 60/8417/83 121/8418/84 71/8419/85
f 121/8418/84 142/8420/86 71/8419/85
f 82/8421/87 140/8422/88 64/8423/89
f 140/8422/88 46/8408/74 64/8423/89
f 64/8423/89 46/8408/74 6/8346/12
f 46/8408/74 65/8344/10 6/8346/12
f 66/8424/90 137/8425/91 67/8426/92
f 137/8425/91 107/8427/93 67/8426/92
f 67/8426/92 107/8427/93 81/8357/23
f 107/8427/93 109/8428/94 81/8357/23
f 81/8357/23 109/8428/94 13/8358/24
f 109/8428/94 111/8429/95 13/8358/24
f 44/8404/70 100/8430/96 45/8405/71
f 100/8430/96 147/8431/97 45/8405/71
f 45/8405/71 147/8431/97 68/8407/73
f 147/8431/97 120/8432/98 68/8407/73
f 68/8407/73 120/8432/98 122/8433/99
f 120/8432/98 69/8434/100 122/8433/99
f 69/8434/100 123/8435/101 122/8433/99
f 71/8419/85 79/8436/102 148/8437/103
f 54/8385/51 72/8387/53 133/8412/78
f 72/8387/53 73/8438/104 133/8412/78
f 133/8412/78 73/8438/104 134/8439/105
f 73/8438/104 75/8440/106 134/8439/105
f 134/8439/105 75/8440/106 66/8424/90
f 73/8438/104 74/8441/107 75/8440/106
f 74/8441/107 76/8442/108 75/8440/106
f 75/8440/106 76/8442/108 136/8443/109
f 76/8442/108 83/8444/110 136/8443/109
f 136/8443/109 83/8444/110 91/8445/111
f 33/8392/58 106/8416/82 35/8394/60
f 106/8416/82 77/8446/112 35/8394/60
f 35/8394/60 77/8446/112 78/8395/61
f 77/8446/112 79/8436/102 78/8395/61
f 134/8439/105 66/8424/90 135/8414/80
f 66/8424/90 67/8426/92 135/8414/80
f 135/8414/80 67/8426/92 80/8355/21
f 67/8426/92 81/8357/23 80/8355/21
f 10/8352/18 82/8421/87 9/8350/16
f 82/8421/87 64/8423/89 9/8350/16
f 9/8350/16 64/8423/89 7/8348/14
f 64/8423/89 6/8346/12 7/8348/14
f 34/8393/59 78/8395/61 83/8444/110
f 78/8395/61 84/8447/113 83/8444/110
f 83/8444/110 84/8447/113 91/8445/111
f 84/8447/113 86/8448/114 91/8445/111
f 85/8449/115 86/8448/114 108/8450/116
f 49/8410/76 139/8409/75 88/8411/77
f 139/8409/75 89/8451/117 88/8411/77
f 136/8443/109 91/8445/111 137/8425/91
f 91/8445/111 92/8452/118 137/8425/91
f 137/8425/91 92/8452/118 107/8427/93
f 92/8452/118 108/8450/116 107/8427/93
f 17/8365/31 19/8367/33 93/8453/119
f 19/8367/33 94/8454/120 93/8453/119
f 93/8453/119 94/8454/120 95/8335/1
f 94/8454/120 118/8336/2 95/8335/1
f 96/8383/49 36/8381/47 30/8384/50
f 36/8381/47 97/8396/62 30/8384/50
f 30/8384/50 97/8396/62 31/8386/52
f 97/8396/62 98/8388/54 31/8386/52
f 99/8455/121 100/8430/96 126/8375/41
f 100/8430/96 112/8456/122 126/8375/41
f 126/8375/41 112/8456/122 101/8376/42
f 112/8456/122 24/8377/43 101/8376/42
f 106/8416/82 60/8417/83 77/8446/112
f 60/8417/83 71/8419/85 77/8446/112
f 77/8446/112 71/8419/85 148/8437/103
f 107/8427/93 108/8450/116 109/8428/94
f 108/8450/116 110/8457/123 109/8428/94
f 109/8428/94 110/8457/123 111/8429/95
f 115/8360/26 113/8458/124 99/8455/121
f 113/8458/124 147/8431/97 99/8455/121
f 99/8455/121 147/8431/97 100/8430/96
f 100/8430/96 44/8404/70 112/8456/122
f 44/8404/70 43/8403/69 112/8456/122
f 112/8456/122 43/8403/69 24/8377/43
f 123/8435/101 113/8458/124 114/8459/125
f 113/8458/124 115/8360/26 114/8459/125
f 114/8459/125 115/8360/26 14/8359/25
f 91/8445/111 86/8448/114 92/8452/118
f 86/8448/114 85/8449/115 92/8452/118
f 92/8452/118 85/8449/115 108/8450/116
f 78/8395/61 79/8436/102 84/8447/113
f 79/8436/102 116/8460/126 84/8447/113
f 84/8447/113 116/8460/126 86/8448/114
f 4/8339/5 118/8336/2 117/8373/39
f 118/8336/2 20/8371/37 117/8373/39
f 118/8336/2 94/8454/120 20/8371/37
f 94/8454/120 143/8369/35 20/8371/37
f 27/8370/36 119/8380/46 21/8372/38
f 119/8380/46 22/8374/40 21/8372/38
f 119/8380/46 144/8382/48 22/8374/40
f 144/8382/48 5/8341/7 22/8374/40
f 28/8379/45 26/8378/44 37/8397/63
f 26/8378/44 38/8398/64 37/8397/63
f 69/8434/100 120/8432/98 123/8435/101
f 120/8432/98 113/8458/124 123/8435/101
f 142/8420/86 121/8418/84 122/8433/99
f 121/8418/84 68/8407/73 122/8433/99
f 123/8435/101 114/8459/125 124/8461/127
f 114/8459/125 149/8462/128 124/8461/127
f 32/8391/57 34/8393/59 76/8442/108
f 34/8393/59 83/8444/110 76/8442/108
f 115/8360/26 99/8455/121 125/8362/28
f 99/8455/121 126/8375/41 125/8362/28
f 86/8448/114 116/8460/126 79/8436/102
f 133/8412/78 134/8439/105 56/8413/79
f 134/8439/105 135/8414/80 56/8413/79
f 76/8442/108 74/8441/107 32/8391/57
f 74/8441/107 138/8389/55 32/8391/57
f 75/8440/106 136/8443/109 66/8424/90
f 136/8443/109 137/8425/91 66/8424/90
f 138/8389/55 74/8441/107 72/8387/53
f 74/8441/107 73/8438/104 72/8387/53
f 139/8409/75 46/8408/74 89/8451/117
f 46/8408/74 140/8422/88 89/8451/117
f 122/8433/99 71/8419/85 142/8420/86
f 143/8369/35 94/8454/120 19/8367/33
f 144/8382/48 145/8343/9 5/8341/7
f 68/8407/73 121/8418/84 146/8406/72
f 113/8458/124 120/8432/98 147/8431/97
f 79/8436/102 77/8446/112 148/8437/103
f 149/8462/128 114/8459/125 14/8359/25
f 141/8463/129 132/8464/130 1/8465/131
f 132/8464/130 131/8466/132 1/8465/131
f 1/8465/131 131/8466/132 130/8467/133
f 70/8468/134 1/8465/131 130/8467/133
f 154/8469/135 1/8465/131 129/8470/136
f 1/8465/131 62/8471/137 129/8470/136
f 128/8472/138 1/8465/131 127/8473/139
f 127/8473/139 1/8465/131 105/8474/140
f 1/8465/131 104/8475/141 105/8474/140
f 103/8476/142 1/8465/131 102/8477/143
f 102/8477/143 1/8465/131 90/8478/144
f 1/8465/131 87/8479/145 90/8478/144
f 70/8468/134 63/8480/146 1/8465/131
f 63/8480/146 62/8471/137 1/8465/131
f 61/8481/147 52/8482/148 1/8465/131
f 52/8482/148 51/8483/149 1/8465/131
f 1/8465/131 51/8483/149 141/8463/129
f 128/8472/138 50/8484/150 1/8465/131
f 50/8484/150 150/8485/151 1/8465/131
f 1/8465/131 150/8485/151 61/8481/147
f 1/8465/131 103/8476/142 104/8475/141
f 87/8479/145 1/8465/131 151/8486/152
f 1/8465/131 152/8487/153 151/8486/152
f 152/8487/153 1/8465/131 153/8488/154
f 1/8465/131 154/8469/135 153/8488/154
