mtllib Hair.mtl
o Mesh_0005.rip.076_Mesh_0005.rip_mesh0000.089
v -0.288672 0.530039 -0.041445
v -0.237539 0.594102 -0.011758
v 0.060039 0.674883 0.106016
v -0.251523 0.397188 0.255273
v -0.193945 0.337383 0.278242
v -0.260859 0.343125 0.194922
v -0.197891 0.306406 0.247070
v 0.027461 -0.107148 -0.215352
v 0.033008 -0.180000 -0.233164
v 0.073828 -0.101797 -0.198047
v -0.122578 0.287383 -0.290586
v 0.070000 0.250000 -0.280430
v 0.192656 0.280000 -0.250000
v 0.033008 -0.180000 0.233164
v 0.073828 -0.101797 0.198047
v 0.300000 0.540000 -0.171836
v 0.370000 0.510000 -0.150000
v 0.317500 0.654375 -0.119844
v 0.230000 0.500000 0.191250
v 0.350000 0.570000 0.141094
v 0.390000 0.580000 0.080000
v 0.370000 0.510000 0.150000
v 0.420000 0.490000 0.080000
v -0.229531 0.634023 0.082422
v -0.159414 0.654805 0.094141
v -0.140000 0.670000 0.000000
v 0.070000 0.250000 0.280430
v 0.019258 0.149844 0.288047
v 0.018594 0.072891 0.284648
v -0.122578 0.287383 0.290586
v -0.120000 0.400000 0.300000
v 0.010000 0.410000 0.290000
v 0.138906 0.155547 -0.186680
v 0.183789 0.108906 -0.106680
v 0.191055 0.096289 0.000000
v 0.192656 0.280000 0.250000
v 0.129024 0.442617 0.254414
v 0.028672 0.529570 0.254414
v -0.060000 0.670000 -0.106016
v -0.159414 0.654805 -0.094141
v 0.352461 0.334375 0.000000
v 0.340000 0.416953 0.151094
v 0.263945 0.437031 0.197852
v 0.207969 0.573633 -0.164766
v 0.250000 0.720000 -0.089844
v 0.188008 0.639922 -0.089258
v 0.046445 -0.049531 -0.260430
v 0.093555 0.014180 -0.232695
v -0.060000 0.690000 0.000000
v 0.063125 0.692422 0.000000
v -0.043359 0.214883 -0.287148
v 0.019258 0.149844 -0.288047
v 0.027461 -0.107148 0.215352
v 0.046445 -0.049531 0.260430
v -0.005703 -0.047695 0.240508
v 0.071406 0.073750 -0.264219
v -0.033750 0.077148 -0.246797
v 0.020391 0.013594 0.234961
v 0.093555 0.014180 0.232695
v 0.071406 0.073750 0.264219
v -0.170000 0.500000 0.270000
v 0.335195 0.354609 0.113086
v 0.253828 0.241953 0.197852
v 0.185508 0.655664 0.000000
v 0.188008 0.639922 0.089258
v -0.030000 0.270000 0.285313
v -0.043359 0.214883 0.287148
v 0.104648 0.149023 -0.250977
v -0.311094 0.461367 -0.085547
v -0.301094 0.396445 -0.138945
v -0.287383 0.462617 -0.221406
v -0.251523 0.397188 -0.255273
v -0.005703 -0.047695 -0.240508
v -0.030000 0.270000 -0.285313
v -0.120000 0.400000 -0.300000
v 0.010000 0.410000 -0.290000
v 0.400000 0.400000 -0.080000
v 0.440000 0.480000 0.000000
v 0.420000 0.490000 -0.080000
v 0.317227 0.661992 -0.053867
v 0.261445 0.744258 0.000000
v 0.317227 0.661992 0.053867
v -0.193945 0.337383 -0.278242
v -0.260859 0.343125 -0.194922
v -0.197891 0.306406 -0.247070
v -0.301094 0.396445 0.138945
v 0.158399 0.581836 0.187617
v -0.033750 0.077148 0.246797
v 0.350000 0.570000 -0.141094
v 0.300000 0.540000 0.171836
v 0.360000 0.680000 0.000000
v 0.018594 0.072891 -0.284648
v 0.020391 0.013594 -0.234961
v 0.071406 0.073750 -0.264219
v 0.047422 0.081406 -0.208828
v 0.020078 0.013828 -0.180039
v -0.005703 -0.047695 -0.240508
v 0.025625 -0.096445 -0.176406
v 0.027461 -0.107148 -0.215352
v 0.104648 0.149023 -0.250977
v 0.138906 0.155547 -0.186680
v 0.043867 -0.046133 0.205547
v 0.027461 -0.107148 0.215352
v 0.033008 -0.180000 0.233164
v -0.033750 0.077148 -0.246797
v 0.019258 0.149844 -0.288047
v -0.043359 0.214883 -0.287148
v -0.030000 0.270000 -0.285313
v -0.122578 0.287383 -0.290586
v 0.020391 0.013594 -0.234961
v 0.020078 0.013828 0.180039
v 0.047422 0.081406 0.208828
v 0.019258 0.149844 0.288047
v -0.043359 0.214883 0.287148
v 0.093555 0.014180 -0.232695
v 0.046445 -0.049531 -0.260430
v 0.043867 -0.046133 -0.205547
v 0.073828 -0.101797 -0.198047
v 0.033008 -0.180000 -0.233164
v -0.311094 0.461367 0.085547
v -0.301094 0.396445 0.138945
v -0.260859 0.343125 0.194922
v -0.197891 0.306406 0.247070
v -0.237539 0.594102 0.011758
v -0.288672 0.530039 0.041445
v -0.288672 0.530039 -0.041445
v -0.237539 0.594102 -0.011758
v -0.200000 0.633867 0.000000
v -0.197891 0.306406 -0.247070
v -0.260859 0.343125 -0.194922
v -0.301094 0.396445 -0.138945
v -0.311094 0.461367 -0.085547
v 0.070000 0.556758 0.000000
v -0.030000 0.270000 0.285313
v 0.138906 0.155547 0.186680
v 0.104648 0.149023 0.250977
v 0.071406 0.073750 0.264219
v 0.025625 -0.096445 0.176406
v 0.073828 -0.101797 0.198047
v -0.005703 -0.047695 0.240508
v 0.020391 0.013594 0.234961
v -0.033750 0.077148 0.246797
v 0.093555 0.014180 0.232695
v 0.046445 -0.049531 0.260430
v 0.049844 0.294062 0.000000
v -0.122578 0.287383 0.290586
v 0.230000 0.500000 -0.191250
v 0.060039 0.674883 -0.106016
v -0.060000 0.670000 0.106016
v -0.048672 0.610625 0.187617
v -0.180000 0.600000 0.190000
v -0.287383 0.462617 0.221406
v -0.311094 0.461367 0.085547
v 0.253828 0.241953 -0.197852
v 0.298398 0.225742 -0.113086
v 0.313750 0.220156 0.000000
v 0.298398 0.225742 0.113086
v 0.183789 0.108906 0.106680
v 0.138906 0.155547 0.186680
v 0.104648 0.149023 0.250977
v 0.158399 0.581836 -0.187617
v -0.048672 0.610625 -0.187617
v -0.180000 0.600000 -0.190000
v -0.229531 0.634023 -0.082422
v -0.200000 0.633867 0.000000
v -0.237539 0.594102 0.011758
v -0.275859 0.586797 0.130781
v -0.288672 0.530039 0.041445
v -0.296055 0.527891 0.178633
v 0.207969 0.573633 0.164766
v 0.250000 0.720000 0.089844
v 0.317500 0.654375 0.119844
v 0.410000 0.590000 0.000000
v 0.390000 0.580000 -0.080000
v 0.340000 0.416953 -0.151094
v 0.335195 0.354609 -0.113086
v 0.400000 0.400000 0.080000
v 0.420000 0.390000 0.000000
v 0.263945 0.437031 -0.197852
v 0.129024 0.442617 -0.254414
v 0.028672 0.529570 -0.254414
v -0.170000 0.500000 -0.270000
v -0.296055 0.527891 -0.178633
v -0.275859 0.586797 -0.130781
vn -0.9065 -0.0266 -0.4213
vn -0.7883 0.4387 -0.4314
vn -1.0000 -0.0055 -0.0000
vn -0.8547 0.5191 0.0000
vn -0.7883 0.4387 0.4314
vn -0.8319 0.5549 0.0000
vn -0.1255 -0.4717 0.8728
vn 0.2237 -0.4034 0.8873
vn 0.8229 -0.3796 0.4227
vn 0.7456 -0.6328 0.2088
vn 0.9021 -0.4105 -0.1331
vn 0.7775 -0.5797 -0.2439
vn 0.1735 -0.8877 -0.4266
vn -0.2999 -0.5981 -0.7432
vn -0.1255 -0.4717 -0.8728
vn 0.0942 -0.0920 -0.9913
vn 0.6560 0.1316 -0.7432
vn 0.4925 0.2846 -0.8225
vn 0.8156 0.3605 -0.4525
vn 0.6316 0.5085 -0.5852
vn -0.2260 0.2731 0.9351
vn -0.3135 -0.2480 0.9166
vn -0.3639 0.2655 0.8928
vn 0.9885 -0.1369 0.0635
vn 0.7922 -0.1046 0.6013
vn 0.6560 0.1316 0.7432
vn 0.0942 -0.0920 0.9913
vn 0.4925 0.2846 0.8225
vn 0.1324 0.1655 0.9773
vn 0.6316 0.5085 0.5852
vn -0.1397 -0.1212 0.9828
vn -0.2016 0.0427 0.9785
vn -0.5109 0.2342 0.8271
vn -0.5695 0.5993 0.5626
vn -0.2260 0.2731 -0.9351
vn -0.3639 0.2655 -0.8928
vn -0.3135 -0.2480 -0.9166
vn -0.2304 -0.2762 0.9331
vn -0.5684 -0.3551 0.7422
vn -0.4993 -0.6243 0.6008
vn -0.5085 -0.7795 0.3659
vn 0.1921 -0.9794 -0.0625
vn -0.5684 -0.3551 -0.7422
vn -0.3081 -0.2098 -0.9280
vn 0.2534 -0.9247 -0.2842
vn 0.1125 -0.9937 -0.0000
vn -0.1553 0.0329 -0.9873
vn -0.2891 0.3004 -0.9090
vn 0.1237 0.3380 -0.9330
vn 0.1122 0.1722 -0.9786
vn 0.5704 0.3314 -0.7516
vn 0.1324 0.1655 -0.9773
vn -0.0521 0.0313 -0.9982
vn -0.1397 -0.1212 -0.9828
vn -0.6277 0.6962 0.3483
vn -0.7709 0.3891 -0.5044
vn 0.0483 -0.9988 -0.0000
vn 0.3574 0.1511 0.9216
vn 0.1539 0.1148 0.9814
vn 0.1122 0.1722 0.9786
vn -0.0316 0.1026 0.9942
vn -0.2891 0.3003 0.9090
vn -0.0521 0.0313 0.9982
vn -0.0474 -0.0380 0.9982
vn -0.1553 0.0329 0.9873
vn 0.1539 0.1148 -0.9814
vn 0.3574 0.1511 -0.9216
vn 0.1237 0.3380 0.9330
vn 0.5704 0.3314 0.7516
vn -0.0316 0.1026 -0.9942
vn -0.0474 -0.0380 -0.9982
vn 0.9524 0.1375 0.2722
vn 0.8156 0.3605 0.4525
vn -0.7398 0.6693 0.0693
vn -0.9181 -0.0085 -0.3963
vn -0.2295 -0.2017 -0.9522
vn -0.7914 0.0142 -0.6111
vn 0.3101 0.0498 -0.9494
vn -0.4419 -0.0622 -0.8949
vn 0.8404 -0.0170 -0.5417
vn 0.4009 0.1003 -0.9106
vn 0.9686 0.2476 -0.0224
vn 0.3413 0.5486 -0.7632
vn 0.3099 0.8000 -0.5137
vn -0.9181 -0.0085 0.3963
vn -0.2295 -0.2017 0.9522
vn -0.7914 0.0142 0.6111
vn 0.3101 0.0498 0.9494
vn -0.4419 -0.0622 0.8949
vn 0.8404 -0.0170 0.5417
vn 0.4009 0.1003 0.9106
vn 0.9686 0.2476 0.0224
vn 0.3413 0.5486 0.7632
vn 0.6323 -0.3556 -0.6883
vn 0.6469 -0.0237 -0.7622
vn 0.8176 0.3470 -0.4595
vn 0.9787 0.2051 0.0000
vn 0.7930 0.2172 -0.5692
vn 0.6630 0.7486 0.0000
vn -0.0129 0.7376 -0.6751
vn -0.1301 0.7635 -0.6325
vn 0.9871 0.1597 0.0049
vn 0.6323 -0.3556 0.6883
vn 0.3099 0.8000 0.5137
vn 0.6469 -0.0237 0.7622
vn 0.8176 0.3470 0.4595
vn -0.9777 0.2018 -0.0584
vn -0.5869 0.0136 -0.8095
vn 0.0299 0.5984 0.8006
vn -0.0186 0.6790 0.7339
vn -0.0735 0.7319 0.6774
vn -0.1301 0.7635 0.6325
vn 0.2746 0.9616 0.0000
vn 0.0753 0.3235 0.9432
vn 0.0654 0.4798 0.8749
vn 0.0299 0.5984 -0.8006
vn 0.0654 0.4798 -0.8749
vn 0.0753 0.3235 -0.9432
vn -0.0735 0.7319 -0.6774
vn -0.0186 0.6790 -0.7339
vn 0.7930 0.2172 0.5692
vn -0.0129 0.7376 0.6751
vn -0.7398 0.6693 -0.0693
vn -0.5869 0.0136 0.8095
vn 0.9871 0.1597 -0.0049
vn -0.9777 0.2018 0.0584
vn -0.2599 -0.3049 0.9162
vn -0.1929 -0.5313 0.8249
vn -0.2999 -0.5981 0.7432
vn 0.1735 -0.8877 0.4266
vn -0.1209 -0.9022 0.4140
vn 0.2909 -0.9567 0.0000
vn -0.1308 -0.9914 -0.0000
vn -0.1209 -0.9022 -0.4140
vn 0.0886 -0.9196 -0.3828
vn 0.0029 -0.7195 -0.6945
vn 0.2520 -0.7251 -0.6410
vn 0.2237 -0.4034 -0.8873
vn 0.8229 -0.3796 -0.4227
vn 0.7922 -0.1046 -0.6013
vn 0.9885 -0.1369 -0.0635
vn 0.9524 0.1375 -0.2722
vn -0.3081 -0.2098 0.9280
vn -0.4432 0.1516 0.8835
vn -0.4539 -0.0448 0.8899
vn -0.6297 0.3821 0.6764
vn -0.7709 0.3891 0.5044
vn -0.8205 0.4799 0.3105
vn -0.8595 0.5111 0.0000
vn -0.7103 0.7039 0.0000
vn -0.8205 0.4799 -0.3105
vn -0.6277 0.6962 -0.3483
vn -0.6297 0.3821 -0.6764
vn -0.5695 0.5993 -0.5626
vn -0.4432 0.1516 -0.8835
vn -0.5109 0.2342 -0.8271
vn -0.2016 0.0427 -0.9785
vn 0.0029 -0.7195 0.6945
vn 0.0886 -0.9196 0.3828
vn 0.2520 -0.7251 0.6410
vn 0.2534 -0.9247 0.2842
vn 0.5770 -0.8142 0.0636
vn 0.3180 -0.9481 -0.0000
vn 0.6175 -0.7865 -0.0000
vn 0.5770 -0.8142 -0.0636
vn 0.7775 -0.5797 0.2439
vn 0.7456 -0.6328 -0.2088
vn 0.9021 -0.4105 0.1331
vn -0.1929 -0.5313 -0.8249
vn 0.1921 -0.9794 0.0625
vn -0.4993 -0.6243 -0.6008
vn -0.5085 -0.7795 -0.3659
vn -0.8128 -0.4221 -0.4014
vn -0.6712 -0.7412 0.0000
vn -0.9200 -0.3919 0.0000
vn -0.8128 -0.4221 0.4014
vn -0.9065 -0.0266 0.4213
vn -0.6520 -0.0781 0.7542
vn -0.5492 0.3345 0.7658
vn -0.2599 -0.3049 -0.9162
vn -0.2304 -0.2762 -0.9331
vn -0.4539 -0.0448 -0.8899
vn -0.6520 -0.0781 -0.7542
vn -0.5492 0.3345 -0.7658
usemtl Material.013
s 1
f 147/8666/127 44/8667/128 161/8668/129
f 44/8667/128 46/8669/130 161/8668/129
f 161/8668/129 46/8669/130 148/8670/131
f 46/8669/130 64/8671/132 148/8670/131
f 148/8670/131 64/8671/132 50/8672/133
f 64/8671/132 3/8673/134 50/8672/133
f 50/8672/133 3/8673/134 149/8674/135
f 3/8673/134 150/8675/136 149/8674/135
f 149/8674/135 150/8675/136 151/8676/137
f 150/8675/136 61/8677/138 151/8676/137
f 151/8676/137 61/8677/138 169/8678/139
f 61/8677/138 152/8679/140 169/8678/139
f 169/8678/139 152/8679/140 153/8680/141
f 152/8679/140 86/8681/142 153/8680/141
f 180/8682/143 13/8683/144 179/8684/145
f 13/8683/144 154/8685/146 179/8684/145
f 179/8684/145 154/8685/146 176/8686/147
f 154/8685/146 155/8687/148 176/8686/147
f 176/8686/147 155/8687/148 156/8688/149
f 155/8687/148 35/8689/150 156/8688/149
f 156/8688/149 35/8689/150 157/8690/151
f 35/8689/150 158/8691/152 157/8690/151
f 157/8690/151 158/8691/152 63/8692/153
f 158/8691/152 159/8693/154 63/8692/153
f 63/8692/153 159/8693/154 36/8694/155
f 159/8693/154 160/8695/156 36/8694/155
f 36/8694/155 160/8695/156 27/8696/157
f 161/8668/129 148/8670/131 162/8697/158
f 148/8670/131 39/8698/159 162/8697/158
f 162/8697/158 39/8698/159 163/8699/160
f 39/8698/159 40/8700/161 163/8699/160
f 163/8699/160 40/8700/161 164/8701/162
f 40/8700/161 26/8702/163 164/8701/162
f 164/8701/162 26/8702/163 165/8703/164
f 26/8702/163 24/8704/165 165/8703/164
f 165/8703/164 24/8704/165 166/8705/166
f 24/8704/165 167/8706/167 166/8705/166
f 166/8705/166 167/8706/167 168/8707/168
f 167/8706/167 169/8678/139 168/8707/168
f 168/8707/168 169/8678/139 153/8680/141
f 170/8708/169 171/8709/170 172/8710/171
f 171/8709/170 82/8711/172 172/8710/171
f 172/8710/171 82/8711/172 21/8712/173
f 82/8711/172 91/8713/174 21/8712/173
f 21/8712/173 91/8713/174 173/8714/175
f 91/8713/174 174/8715/176 173/8714/175
f 173/8714/175 174/8715/176 79/8716/177
f 174/8715/176 17/8717/178 79/8716/177
f 79/8716/177 17/8717/178 175/8718/179
f 17/8717/178 179/8684/145 175/8718/179
f 175/8718/179 179/8684/145 176/8686/147
f 19/8719/180 90/8720/181 43/8721/182
f 90/8720/181 22/8722/183 43/8721/182
f 43/8721/182 22/8722/183 42/8723/184
f 22/8722/183 23/8724/1 42/8723/184
f 42/8723/184 23/8724/1 177/8725/2
f 23/8724/1 78/8726/3 177/8725/2
f 177/8725/2 78/8726/3 178/8727/4
f 78/8726/3 77/8728/5 178/8727/4
f 178/8727/4 77/8728/5 41/8729/6
f 77/8728/5 176/8686/147 41/8729/6
f 179/8684/145 147/8666/127 180/8682/143
f 147/8666/127 161/8668/129 180/8682/143
f 180/8682/143 161/8668/129 181/8730/7
f 161/8668/129 162/8697/158 181/8730/7
f 181/8730/7 162/8697/158 182/8731/8
f 162/8697/158 163/8699/160 182/8731/8
f 182/8731/8 163/8699/160 183/8732/9
f 163/8699/160 184/8733/10 183/8732/9
f 183/8732/9 184/8733/10 1/8734/11
f 184/8733/10 2/8735/12 1/8734/11
f 64/8671/132 65/8736/13 3/8673/134
f 65/8736/13 87/8737/14 3/8673/134
f 3/8673/134 87/8737/14 150/8675/136
f 87/8737/14 38/8738/15 150/8675/136
f 150/8675/136 38/8738/15 61/8677/138
f 38/8738/15 31/8739/16 61/8677/138
f 61/8677/138 31/8739/16 4/8740/17
f 31/8739/16 5/8741/18 4/8740/17
f 4/8740/17 5/8741/18 6/8742/19
f 5/8741/18 7/8743/20 6/8742/19
f 8/8744/21 9/8745/22 10/8746/23
f 1/8734/11 69/8747/24 183/8732/9
f 69/8747/24 71/8748/25 183/8732/9
f 183/8732/9 71/8748/25 182/8731/8
f 71/8748/25 72/8749/26 182/8731/8
f 182/8731/8 72/8749/26 75/8750/27
f 72/8749/26 83/8751/28 75/8750/27
f 75/8750/27 83/8751/28 11/8752/29
f 83/8751/28 85/8753/30 11/8752/29
f 182/8731/8 75/8750/27 181/8730/7
f 75/8750/27 76/8754/31 181/8730/7
f 181/8730/7 76/8754/31 180/8682/143
f 76/8754/31 12/8755/32 180/8682/143
f 180/8682/143 12/8755/32 13/8683/144
f 12/8755/32 68/8756/33 13/8683/144
f 13/8683/144 68/8756/33 33/8757/34
f 53/8758/35 15/8759/36 14/8760/37
f 147/8666/127 179/8684/145 16/8761/38
f 179/8684/145 17/8717/178 16/8761/38
f 16/8761/38 17/8717/178 89/8762/39
f 17/8717/178 174/8715/176 89/8762/39
f 89/8762/39 174/8715/176 18/8763/40
f 174/8715/176 80/8764/41 18/8763/40
f 18/8763/40 80/8764/41 45/8765/42
f 19/8719/180 170/8708/169 90/8720/181
f 170/8708/169 172/8710/171 90/8720/181
f 90/8720/181 172/8710/171 20/8766/43
f 172/8710/171 21/8712/173 20/8766/43
f 20/8766/43 21/8712/173 22/8722/183
f 21/8712/173 23/8724/1 22/8722/183
f 65/8736/13 170/8708/169 87/8737/14
f 170/8708/169 19/8719/180 87/8737/14
f 87/8737/14 19/8719/180 37/8767/44
f 19/8719/180 43/8721/182 37/8767/44
f 37/8767/44 43/8721/182 36/8694/155
f 43/8721/182 63/8692/153 36/8694/155
f 169/8678/139 167/8706/167 151/8676/137
f 167/8706/167 24/8704/165 151/8676/137
f 151/8676/137 24/8704/165 25/8768/45
f 24/8704/165 26/8702/163 25/8768/45
f 25/8768/45 26/8702/163 49/8769/46
f 27/8696/157 160/8695/156 28/8770/47
f 160/8695/156 60/8771/48 28/8770/47
f 28/8770/47 60/8771/48 29/8772/49
f 60/8771/48 58/8773/50 29/8772/49
f 29/8772/49 58/8773/50 88/8774/51
f 7/8743/20 5/8741/18 30/8775/52
f 5/8741/18 31/8739/16 30/8775/52
f 30/8775/52 31/8739/16 66/8776/53
f 31/8739/16 32/8777/54 66/8776/53
f 66/8776/53 32/8777/54 27/8696/157
f 13/8683/144 33/8757/34 154/8685/146
f 33/8757/34 34/8778/55 154/8685/146
f 154/8685/146 34/8778/55 155/8687/148
f 34/8778/55 35/8689/150 155/8687/148
f 36/8694/155 27/8696/157 37/8767/44
f 27/8696/157 32/8777/54 37/8767/44
f 37/8767/44 32/8777/54 38/8738/15
f 32/8777/54 31/8739/16 38/8738/15
f 148/8670/131 50/8672/133 39/8698/159
f 50/8672/133 49/8769/46 39/8698/159
f 39/8698/159 49/8769/46 40/8700/161
f 49/8769/46 26/8702/163 40/8700/161
f 178/8727/4 41/8729/6 177/8725/2
f 41/8729/6 62/8779/56 177/8725/2
f 177/8725/2 62/8779/56 42/8723/184
f 62/8779/56 43/8721/182 42/8723/184
f 44/8667/128 45/8765/42 46/8669/130
f 45/8765/42 80/8764/41 46/8669/130
f 46/8669/130 80/8764/41 81/8780/57
f 73/8781/58 47/8782/59 93/8783/60
f 47/8782/59 48/8784/61 93/8783/60
f 93/8783/60 48/8784/61 56/8785/62
f 165/8703/164 2/8735/12 164/8701/162
f 2/8735/12 184/8733/10 164/8701/162
f 164/8701/162 184/8733/10 163/8699/160
f 151/8676/137 25/8768/45 149/8674/135
f 25/8768/45 49/8769/46 149/8674/135
f 149/8674/135 49/8769/46 50/8672/133
f 76/8754/31 74/8786/63 12/8755/32
f 74/8786/63 51/8787/64 12/8755/32
f 12/8755/32 51/8787/64 52/8788/65
f 147/8666/127 16/8761/38 44/8667/128
f 16/8761/38 18/8763/40 44/8667/128
f 44/8667/128 18/8763/40 45/8765/42
f 15/8759/36 53/8758/35 54/8789/66
f 53/8758/35 55/8790/67 54/8789/66
f 54/8789/66 55/8790/67 58/8773/50
f 56/8785/62 52/8788/65 92/8791/68
f 52/8788/65 57/8792/69 92/8791/68
f 92/8791/68 57/8792/69 93/8783/60
f 54/8789/66 58/8773/50 59/8793/70
f 58/8773/50 60/8771/48 59/8793/70
f 61/8677/138 4/8740/17 152/8679/140
f 4/8740/17 86/8681/142 152/8679/140
f 43/8721/182 62/8779/56 63/8692/153
f 62/8779/56 157/8690/151 63/8692/153
f 46/8669/130 81/8780/57 64/8671/132
f 81/8780/57 65/8736/13 64/8671/132
f 66/8776/53 27/8696/157 67/8794/71
f 27/8696/157 28/8770/47 67/8794/71
f 170/8708/169 65/8736/13 171/8709/170
f 65/8736/13 82/8711/172 171/8709/170
f 12/8755/32 52/8788/65 68/8756/33
f 52/8788/65 56/8785/62 68/8756/33
f 69/8747/24 70/8795/72 71/8748/25
f 70/8795/72 72/8749/26 71/8748/25
f 70/8795/72 84/8796/73 72/8749/26
f 84/8796/73 83/8751/28 72/8749/26
f 10/8746/23 47/8782/59 8/8744/21
f 47/8782/59 73/8781/58 8/8744/21
f 11/8752/29 74/8786/63 75/8750/27
f 74/8786/63 76/8754/31 75/8750/27
f 176/8686/147 156/8688/149 41/8729/6
f 156/8688/149 62/8779/56 41/8729/6
f 176/8686/147 77/8728/5 175/8718/179
f 77/8728/5 79/8716/177 175/8718/179
f 77/8728/5 78/8726/3 79/8716/177
f 78/8726/3 173/8714/175 79/8716/177
f 174/8715/176 91/8713/174 80/8764/41
f 91/8713/174 81/8780/57 80/8764/41
f 78/8726/3 23/8724/1 173/8714/175
f 23/8724/1 21/8712/173 173/8714/175
f 65/8736/13 81/8780/57 82/8711/172
f 83/8751/28 84/8796/73 85/8753/30
f 6/8742/19 86/8681/142 4/8740/17
f 37/8767/44 38/8738/15 87/8737/14
f 62/8779/56 156/8688/149 157/8690/151
f 88/8774/51 28/8770/47 29/8772/49
f 89/8762/39 18/8763/40 16/8761/38
f 90/8720/181 20/8766/43 22/8722/183
f 81/8780/57 91/8713/174 82/8711/172
f 56/8785/62 92/8791/68 93/8783/60
f 100/8797/74 94/8798/75 95/8799/76
f 94/8798/75 115/8800/77 95/8799/76
f 95/8799/76 115/8800/77 96/8801/78
f 115/8800/77 117/8802/79 96/8801/78
f 96/8801/78 117/8802/79 97/8803/80
f 117/8802/79 98/8804/81 97/8803/80
f 97/8803/80 98/8804/81 99/8805/82
f 98/8804/81 119/8806/83 99/8805/82
f 100/8797/74 95/8799/76 101/8807/84
f 137/8808/85 112/8809/86 143/8810/87
f 112/8809/86 111/8811/88 143/8810/87
f 143/8810/87 111/8811/88 102/8812/89
f 111/8811/88 140/8813/90 102/8812/89
f 102/8812/89 140/8813/90 138/8814/91
f 140/8813/90 103/8815/92 138/8814/91
f 138/8814/91 103/8815/92 104/8816/93
f 105/8817/94 106/8818/95 101/8807/84
f 106/8818/95 107/8819/96 101/8807/84
f 101/8807/84 107/8819/96 145/8820/97
f 107/8819/96 108/8821/98 145/8820/97
f 145/8820/97 108/8821/98 133/8822/99
f 108/8821/98 109/8823/100 133/8822/99
f 133/8822/99 109/8823/100 129/8824/101
f 97/8803/80 110/8825/102 96/8801/78
f 110/8825/102 105/8817/94 96/8801/78
f 96/8801/78 105/8817/94 95/8799/76
f 105/8817/94 101/8807/84 95/8799/76
f 111/8811/88 112/8809/86 142/8826/103
f 112/8809/86 135/8827/104 142/8826/103
f 142/8826/103 135/8827/104 113/8828/105
f 135/8827/104 114/8829/106 113/8828/105
f 115/8800/77 116/8830/107 117/8802/79
f 116/8830/107 118/8831/108 117/8802/79
f 117/8802/79 118/8831/108 98/8804/81
f 118/8831/108 119/8806/83 98/8804/81
f 120/8832/109 121/8833/110 133/8822/99
f 121/8833/110 122/8834/111 133/8822/99
f 133/8822/99 122/8834/111 123/8835/112
f 128/8836/113 124/8837/114 133/8822/99
f 124/8837/114 125/8838/115 133/8822/99
f 133/8822/99 125/8838/115 120/8832/109
f 132/8839/116 126/8840/117 133/8822/99
f 126/8840/117 127/8841/118 133/8822/99
f 133/8822/99 127/8841/118 128/8836/113
f 129/8824/101 130/8842/119 133/8822/99
f 130/8842/119 131/8843/120 133/8822/99
f 133/8822/99 131/8843/120 132/8839/116
f 145/8820/97 133/8822/99 134/8844/121
f 133/8822/99 146/8845/122 134/8844/121
f 135/8827/104 112/8809/86 136/8846/123
f 112/8809/86 137/8808/85 136/8846/123
f 102/8812/89 138/8814/91 139/8847/124
f 138/8814/91 104/8816/93 139/8847/124
f 140/8813/90 111/8811/88 141/8848/125
f 111/8811/88 142/8826/103 141/8848/125
f 143/8810/87 102/8812/89 144/8849/126
f 102/8812/89 139/8847/124 144/8849/126
f 135/8827/104 145/8820/97 114/8829/106
f 145/8820/97 134/8844/121 114/8829/106
f 123/8835/112 146/8845/122 133/8822/99
