mtllib Hair.mtl
o Mesh_0005.rip.026_Mesh_0005.rip_mesh0000.035
v -0.110117 0.254492 0.245391
v 0.000000 0.300000 0.278594
v 0.014297 0.429258 0.278789
v 0.158399 0.581836 0.187617
v 0.185508 0.655664 0.000000
v 0.063125 0.692422 0.000000
v -0.223515 0.674570 0.000000
v -0.308320 0.583438 -0.097031
v 0.160000 0.334375 0.261289
v 0.069063 0.156367 0.250547
v 0.161758 0.172266 0.228281
v 0.138125 0.007070 0.182930
v 0.224102 0.046367 0.089336
v 0.249687 0.015898 0.000000
v 0.253828 0.241953 -0.197852
v 0.263945 0.437031 -0.197852
v 0.129024 0.442617 -0.254414
v -0.031289 0.487422 -0.266406
v 0.253828 0.241953 0.197852
v 0.331563 0.455039 0.106016
v 0.270274 0.561172 -0.106016
v 0.028672 0.529570 -0.254414
v -0.087773 0.697734 0.000000
v -0.277344 0.622500 0.000000
v -0.282461 0.572930 0.000000
v -0.309687 0.495625 0.044961
v 0.069063 0.156367 -0.250547
v 0.138125 0.007070 -0.182930
v 0.224102 0.046367 -0.089336
v 0.298398 0.225742 -0.113086
v -0.219414 0.662539 -0.103125
v -0.293867 0.523633 -0.169023
v -0.156758 0.536094 -0.265625
v -0.100625 0.393516 -0.286602
v -0.103594 0.360000 0.260000
v -0.100625 0.393516 0.286602
v -0.206133 0.373477 0.194961
v -0.212070 0.449648 0.243555
v -0.278398 0.424883 0.115273
v 0.179219 0.639922 0.108359
v 0.060039 0.674883 0.106016
v -0.074961 0.635742 0.196445
v -0.085000 0.687187 0.103984
v -0.219414 0.662539 0.103125
v -0.308320 0.583438 0.097031
v -0.204922 0.622422 0.187500
v -0.293867 0.523633 0.169023
v -0.070547 0.446875 0.296797
v -0.309687 0.495625 -0.044961
v -0.278398 0.424883 -0.115273
v -0.212070 0.449648 -0.243555
v -0.206133 0.373477 -0.194961
v -0.103594 0.360000 -0.260000
v -0.104258 0.462227 0.243867
v -0.110117 0.254492 0.245391
v 0.000000 0.300000 0.278594
v 0.183789 0.108906 0.106680
v 0.069063 0.156367 0.250547
v 0.138125 0.007070 0.182930
v 0.249687 0.015898 0.000000
v 0.224102 0.046367 -0.089336
v 0.138125 0.007070 -0.182930
v 0.039102 0.612422 -0.201016
v -0.204922 0.622422 -0.187500
v -0.104258 0.462227 0.243867
v 0.129024 0.442617 0.254414
v -0.031289 0.487422 0.266406
v 0.028672 0.529570 0.254414
v 0.039102 0.612422 0.201016
v 0.030313 0.361992 0.321445
v -0.156758 0.536094 0.265625
v -0.110117 0.254492 -0.245391
v 0.000000 0.300000 -0.278594
v -0.104258 0.462227 -0.243867
v 0.014297 0.429258 -0.278789
v 0.179219 0.639922 -0.108359
v 0.060039 0.674883 -0.106016
v 0.270274 0.561172 0.106016
v 0.224102 0.046367 0.089336
v 0.191055 0.096289 0.000000
v 0.069063 0.156367 -0.250547
v 0.000000 0.300000 -0.278594
v 0.183789 0.108906 -0.106680
v -0.104258 0.462227 -0.243867
v -0.050195 0.347930 0.000000
v -0.110117 0.254492 -0.245391
v -0.309687 0.495625 -0.044961
v -0.278398 0.424883 -0.115273
v -0.206133 0.373477 -0.194961
v -0.103594 0.360000 -0.260000
v 0.030313 0.361992 -0.321445
v 0.030313 0.361992 -0.321445
v 0.335195 0.334375 -0.113086
v 0.331563 0.455039 -0.106016
v 0.284219 0.572851 0.000000
v 0.158399 0.581836 -0.187617
v -0.060078 0.578828 0.243125
v -0.188125 0.566211 0.000000
v 0.030313 0.361992 0.321445
v -0.103594 0.360000 0.260000
v -0.206133 0.373477 0.194961
v -0.188125 0.566211 0.000000
v -0.278398 0.424883 0.115273
v -0.309687 0.495625 0.044961
v -0.282461 0.572930 0.000000
v 0.335195 0.334375 0.113086
v 0.298398 0.225742 0.113086
v 0.313750 0.220156 0.000000
v -0.074961 0.635742 -0.196445
v -0.085000 0.687187 -0.103984
v 0.263945 0.437031 0.197852
v 0.348633 0.461250 0.000000
v -0.070547 0.446875 -0.296797
v 0.352461 0.334375 0.000000
v -0.060078 0.578828 -0.243125
v 0.160000 0.334375 -0.261289
v 0.161758 0.172266 -0.228281
v -0.031289 0.487422 -0.266406
v -0.031289 0.487422 0.266406
v 0.030313 0.361992 0.321445
v 0.030313 0.361992 -0.321445
v -0.188125 0.566211 0.000000
vn 0.2944 -0.0153 -0.9555
vn 0.2853 -0.0091 -0.9584
vn 0.0612 0.0320 -0.9976
vn 0.0239 -0.0910 -0.9956
vn -0.3286 0.0211 -0.9442
vn -0.2924 -0.2294 -0.9284
vn -0.6136 -0.2080 -0.7617
vn -0.3865 -0.5526 -0.7384
vn -0.7087 -0.5799 -0.4018
vn -0.4437 -0.8107 -0.3819
vn -0.7691 -0.6391 0.0000
vn -0.4730 -0.8811 0.0000
vn -0.4437 -0.8107 0.3819
vn -0.1604 -0.9871 0.0000
vn -0.1707 -0.9191 0.3551
vn 0.0542 -0.9985 -0.0000
vn 0.0429 -0.9551 0.2932
vn 0.4525 -0.8918 -0.0000
vn 0.4295 -0.8587 0.2797
vn 0.8428 -0.5383 0.0000
vn 0.9078 -0.3871 0.1615
vn 0.9906 -0.1366 -0.0000
vn 0.9992 0.0401 -0.0002
vn -0.2279 0.2126 -0.9502
vn -0.3754 0.2485 -0.8929
vn -0.5904 0.3658 -0.7194
vn -0.6648 0.2239 -0.7127
vn -0.7994 0.3998 -0.4484
vn -0.8790 0.3341 -0.3402
vn -0.9247 0.3807 0.0000
vn -0.9507 0.3101 0.0000
vn -0.8790 0.3341 0.3402
vn -0.9146 0.1129 0.3884
vn -0.6648 0.2239 0.7127
vn -0.6136 -0.2080 0.7617
vn -0.3286 0.0211 0.9442
vn -0.2924 -0.2294 0.9284
vn 0.0239 -0.0910 0.9956
vn -0.1637 -0.3555 0.9202
vn -0.1178 -0.2892 0.9500
vn -0.3247 -0.5717 0.7535
vn -0.9146 0.1129 -0.3884
vn -0.8875 -0.2596 -0.3808
vn -0.9897 0.1430 0.0000
vn -0.9614 -0.2751 0.0000
vn -0.8875 -0.2596 0.3808
vn -0.7087 -0.5799 0.4018
vn -0.3865 -0.5526 0.7384
vn -0.1707 -0.9191 -0.3551
vn 0.0429 -0.9551 -0.2932
vn 0.4295 -0.8587 -0.2797
vn 0.9078 -0.3871 -0.1615
vn 0.9992 0.0401 0.0002
vn 0.0612 0.0320 0.9976
vn -0.2279 0.2126 0.9502
vn -0.3754 0.2485 0.8929
vn -0.5904 0.3658 0.7194
vn -0.7994 0.3998 0.4484
vn 0.3948 -0.6667 0.6322
vn 0.8483 -0.0572 0.5265
vn 0.2695 -0.3344 0.9031
vn 0.6146 0.1881 0.7661
vn 0.0792 -0.2368 0.9683
vn 0.3909 0.2963 0.8715
vn 0.1324 -0.0224 0.9909
vn 0.4421 0.5333 0.7212
vn 0.1324 -0.0224 -0.9909
vn 0.4421 0.5333 -0.7212
vn 0.3909 0.2963 -0.8715
vn 0.6714 0.4367 -0.5988
vn 0.6146 0.1881 -0.7661
vn 0.8737 0.3283 -0.3589
vn 0.8483 -0.0572 -0.5265
vn -0.1897 -0.6756 -0.7125
vn 0.0133 -0.7635 -0.6457
vn 0.3948 -0.6667 -0.6322
vn 0.2695 -0.3344 -0.9031
vn 0.0792 -0.2368 -0.9683
vn 0.8737 0.3283 0.3589
vn 0.6714 0.4367 0.5988
vn 0.9734 -0.0258 0.2279
vn 0.3520 0.8429 0.4069
vn 0.7703 0.6377 -0.0000
vn 0.3380 0.9111 0.2360
vn 0.8270 0.3992 0.3958
vn 0.7964 0.2310 0.5589
vn 0.7574 0.1381 0.6381
vn 0.8290 0.4772 0.2917
vn 0.8079 0.5893 0.0000
vn 0.8217 0.5699 0.0000
vn 0.8290 0.4772 -0.2917
vn 0.8270 0.3992 -0.3958
vn 0.7574 0.1381 -0.6381
vn 0.7964 0.2310 -0.5589
vn -0.1897 -0.6756 0.7125
vn 0.0133 -0.7635 0.6457
vn -0.1178 -0.2892 -0.9500
vn -0.1637 -0.3555 -0.9202
vn -0.3247 -0.5717 -0.7535
vn -0.1177 -0.2892 -0.9500
vn 0.2944 -0.0153 0.9555
vn 0.2853 -0.0091 0.9584
vn 0.3380 0.9111 -0.2360
vn 0.9734 -0.0258 -0.2279
vn 0.3520 0.8429 -0.4069
vn -0.0796 0.6295 -0.7729
vn -0.2333 0.9724 -0.0000
vn -0.2078 0.6945 -0.6888
vn -0.3002 0.6921 -0.6564
vn -0.3126 0.6921 -0.6506
vn -0.3089 0.6937 -0.6506
vn -0.9844 -0.1757 -0.0000
vn -0.3089 0.6937 0.6506
vn -0.3126 0.6921 0.6506
vn -0.3002 0.6921 0.6564
vn -0.2078 0.6945 0.6888
vn -0.0796 0.6295 0.7729
vn 0.0710 0.9975 -0.0000
vn -0.1177 -0.2892 0.9500
vn -0.8667 -0.2319 -0.4417
vn -0.9660 -0.2585 0.0000
vn -0.8667 -0.2319 0.4417
usemtl Material.013
s 1
f 1/2075/1 65/2076/2 2/2077/3
f 65/2076/2 3/2078/4 2/2077/3
f 2/2077/3 3/2078/4 9/2079/5
f 3/2078/4 66/2080/6 9/2079/5
f 9/2079/5 66/2080/6 111/2081/7
f 66/2080/6 4/2082/8 111/2081/7
f 111/2081/7 4/2082/8 78/2083/9
f 4/2082/8 40/2084/10 78/2083/9
f 78/2083/9 40/2084/10 95/2085/11
f 40/2084/10 5/2086/12 95/2085/11
f 95/2085/11 5/2086/12 76/2087/13
f 5/2086/12 6/2088/14 76/2087/13
f 76/2087/13 6/2088/14 77/2089/15
f 6/2088/14 23/2090/16 77/2089/15
f 77/2089/15 23/2090/16 110/2091/17
f 23/2090/16 7/2092/18 110/2091/17
f 110/2091/17 7/2092/18 31/2093/19
f 7/2092/18 24/2094/20 31/2093/19
f 31/2093/19 24/2094/20 8/2095/21
f 24/2094/20 25/2096/22 8/2095/21
f 8/2095/21 25/2096/22 49/2097/23
f 2/2077/3 9/2079/5 10/2098/24
f 9/2079/5 11/2099/25 10/2098/24
f 10/2098/24 11/2099/25 12/2100/26
f 11/2099/25 19/2101/27 12/2100/26
f 12/2100/26 19/2101/27 13/2102/28
f 19/2101/27 107/2103/29 13/2102/28
f 13/2102/28 107/2103/29 14/2104/30
f 107/2103/29 108/2105/31 14/2104/30
f 14/2104/30 108/2105/31 30/2106/32
f 108/2105/31 93/2107/33 30/2106/32
f 30/2106/32 93/2107/33 15/2108/34
f 93/2107/33 16/2109/35 15/2108/34
f 15/2108/34 16/2109/35 116/2110/36
f 16/2109/35 17/2111/37 116/2110/36
f 116/2110/36 17/2111/37 75/2112/38
f 17/2111/37 22/2113/39 75/2112/38
f 75/2112/38 22/2113/39 18/2114/40
f 22/2113/39 115/2115/41 18/2114/40
f 11/2099/25 9/2079/5 19/2101/27
f 9/2079/5 111/2081/7 19/2101/27
f 19/2101/27 111/2081/7 106/2116/42
f 111/2081/7 20/2117/43 106/2116/42
f 106/2116/42 20/2117/43 114/2118/44
f 20/2117/43 112/2119/45 114/2118/44
f 114/2118/44 112/2119/45 94/2120/46
f 112/2119/45 21/2121/47 94/2120/46
f 94/2120/46 21/2121/47 16/2109/35
f 21/2121/47 96/2122/48 16/2109/35
f 16/2109/35 96/2122/48 17/2111/37
f 96/2122/48 22/2113/39 17/2111/37
f 5/2086/12 40/2084/10 6/2088/14
f 40/2084/10 41/2123/49 6/2088/14
f 6/2088/14 41/2123/49 23/2090/16
f 41/2123/49 43/2124/50 23/2090/16
f 23/2090/16 43/2124/50 7/2092/18
f 43/2124/50 44/2125/51 7/2092/18
f 7/2092/18 44/2125/51 24/2094/20
f 44/2125/51 45/2126/52 24/2094/20
f 24/2094/20 45/2126/52 25/2096/22
f 45/2126/52 26/2127/53 25/2096/22
f 75/2112/38 73/2128/54 116/2110/36
f 73/2128/54 27/2129/55 116/2110/36
f 116/2110/36 27/2129/55 117/2130/56
f 27/2129/55 28/2131/57 117/2130/56
f 117/2130/56 28/2131/57 15/2108/34
f 28/2131/57 29/2132/58 15/2108/34
f 15/2108/34 29/2132/58 30/2106/32
f 29/2132/58 14/2104/30 30/2106/32
f 31/2093/19 8/2095/21 64/2133/59
f 8/2095/21 32/2134/60 64/2133/59
f 64/2133/59 32/2134/60 33/2135/61
f 32/2134/60 51/2136/62 33/2135/61
f 33/2135/61 51/2136/62 113/2137/63
f 51/2136/62 34/2138/64 113/2137/63
f 113/2137/63 34/2138/64 92/2139/65
f 34/2138/64 53/2140/66 92/2139/65
f 70/2141/67 35/2142/68 36/2143/69
f 35/2142/68 37/2144/70 36/2143/69
f 36/2143/69 37/2144/70 38/2145/71
f 37/2144/70 39/2146/72 38/2145/71
f 38/2145/71 39/2146/72 47/2147/73
f 39/2146/72 26/2127/53 47/2147/73
f 47/2147/73 26/2127/53 45/2126/52
f 40/2084/10 69/2148/74 41/2123/49
f 69/2148/74 42/2149/75 41/2123/49
f 41/2123/49 42/2149/75 43/2124/50
f 42/2149/75 46/2150/76 43/2124/50
f 43/2124/50 46/2150/76 44/2125/51
f 46/2150/76 45/2126/52 44/2125/51
f 45/2126/52 46/2150/76 47/2147/73
f 46/2150/76 71/2151/77 47/2147/73
f 47/2147/73 71/2151/77 38/2145/71
f 71/2151/77 48/2152/78 38/2145/71
f 38/2145/71 48/2152/78 36/2143/69
f 48/2152/78 70/2141/67 36/2143/69
f 8/2095/21 49/2097/23 32/2134/60
f 49/2097/23 50/2153/79 32/2134/60
f 32/2134/60 50/2153/79 51/2136/62
f 50/2153/79 52/2154/80 51/2136/62
f 51/2136/62 52/2154/80 34/2138/64
f 52/2154/80 53/2140/66 34/2138/64
f 54/2155/81 55/2156/82 85/2157/83
f 55/2156/82 56/2158/84 85/2157/83
f 85/2157/83 56/2158/84 57/2159/85
f 56/2158/84 58/2160/86 57/2159/85
f 57/2159/85 58/2160/86 59/2161/87
f 79/2162/88 60/2163/89 80/2164/90
f 60/2163/89 61/2165/91 80/2164/90
f 80/2164/90 61/2165/91 83/2166/92
f 61/2165/91 62/2167/93 83/2166/92
f 83/2166/92 62/2167/93 81/2168/94
f 22/2113/39 63/2169/95 115/2115/41
f 63/2169/95 109/2170/96 115/2115/41
f 115/2115/41 109/2170/96 64/2133/59
f 109/2170/96 110/2091/17 64/2133/59
f 64/2133/59 110/2091/17 31/2093/19
f 65/2076/2 67/2171/97 3/2078/4
f 67/2171/97 68/2172/98 3/2078/4
f 3/2078/4 68/2172/98 66/2080/6
f 68/2172/98 4/2082/8 66/2080/6
f 67/2171/97 97/2173/99 68/2172/98
f 97/2173/99 69/2148/74 68/2172/98
f 68/2172/98 69/2148/74 4/2082/8
f 69/2148/74 40/2084/10 4/2082/8
f 70/2141/67 48/2152/78 67/2171/100
f 48/2152/78 71/2151/77 67/2171/100
f 67/2171/100 71/2151/77 97/2173/99
f 71/2151/77 46/2150/76 97/2173/99
f 72/2174/101 73/2128/54 74/2175/102
f 73/2128/54 75/2112/38 74/2175/102
f 74/2175/102 75/2112/38 18/2114/40
f 22/2113/39 96/2122/48 63/2169/95
f 96/2122/48 76/2087/13 63/2169/95
f 63/2169/95 76/2087/13 77/2089/15
f 78/2083/9 95/2085/11 112/2119/45
f 95/2085/11 21/2121/47 112/2119/45
f 69/2148/74 97/2173/99 42/2149/75
f 97/2173/99 46/2150/76 42/2149/75
f 59/2161/87 79/2162/88 57/2159/85
f 79/2162/88 80/2164/90 57/2159/85
f 81/2168/94 82/2176/103 83/2166/92
f 82/2176/103 85/2157/83 83/2166/92
f 84/2177/104 85/2157/83 86/2178/105
f 85/2157/83 82/2176/103 86/2178/105
f 87/2179/106 102/2180/107 88/2181/108
f 102/2180/107 89/2182/109 88/2181/108
f 89/2182/109 102/2180/107 90/2183/110
f 102/2180/107 91/2184/111 90/2183/110
f 98/2185/112 115/2115/41 18/2114/40
f 16/2109/35 93/2107/33 94/2120/46
f 93/2107/33 114/2118/44 94/2120/46
f 95/2085/11 76/2087/13 21/2121/47
f 76/2087/13 96/2122/48 21/2121/47
f 97/2173/99 98/2185/112 67/2171/97
f 99/2186/113 102/2180/107 100/2187/114
f 102/2180/107 101/2188/115 100/2187/114
f 101/2188/115 102/2180/107 103/2189/116
f 102/2180/107 104/2190/117 103/2189/116
f 104/2190/117 102/2180/107 105/2191/118
f 102/2180/107 87/2179/106 105/2191/118
f 19/2101/27 106/2116/42 107/2103/29
f 106/2116/42 108/2105/31 107/2103/29
f 63/2169/95 77/2089/15 109/2170/96
f 77/2089/15 110/2091/17 109/2170/96
f 111/2081/7 78/2083/9 20/2117/43
f 78/2083/9 112/2119/45 20/2117/43
f 92/2139/65 18/2114/119 113/2137/63
f 18/2114/119 33/2135/61 113/2137/63
f 106/2116/42 114/2118/44 108/2105/31
f 114/2118/44 93/2107/33 108/2105/31
f 64/2133/59 33/2135/61 115/2115/41
f 33/2135/61 18/2114/119 115/2115/41
f 116/2110/36 117/2130/56 15/2108/34
f 121/2192/120 122/2193/121 118/2194/120
f 122/2193/121 120/2195/122 119/2196/122
