mtllib Hair.mtl
o Mesh_0005.rip.045_Mesh_0005.rip_mesh0000.055
v -0.093320 -0.100000 -0.313711
v -0.093320 0.050000 -0.313281
v -0.093320 0.200000 -0.306680
v -0.093320 0.336914 -0.293320
v -0.093320 0.507266 -0.255039
v 0.060039 0.674883 -0.106016
v 0.176406 0.639922 -0.106016
v 0.063125 0.692422 0.000000
v 0.161094 0.453320 0.265156
v 0.161094 0.336914 0.279062
v 0.040000 0.336914 0.307148
v 0.040000 0.050000 0.326523
v 0.161094 -0.100000 0.307031
v 0.040000 -0.100000 0.331719
v -0.093320 0.336914 0.293320
v -0.030820 0.613320 0.201055
v -0.053320 0.680000 -0.104023
v -0.030820 0.613320 -0.201055
v 0.040000 -0.100000 -0.331719
v 0.040000 0.050000 -0.326523
v 0.161094 0.050000 -0.297383
v 0.040000 0.200000 -0.318281
v 0.161094 0.200000 -0.287773
v 0.161094 -0.100000 -0.307031
v 0.278477 0.050000 -0.222930
v 0.345977 0.200000 -0.113984
v 0.369883 0.200000 0.000000
v 0.345977 0.200000 0.113984
v 0.161094 0.200000 0.287773
v 0.284102 -0.100000 -0.228594
v 0.366914 -0.100000 -0.122656
v 0.356445 0.050000 -0.118320
v 0.381094 0.050000 0.000000
v 0.356445 0.050000 0.118320
v 0.272813 0.200000 0.217266
v 0.161094 0.050000 0.297383
v 0.392305 -0.100000 -0.000000
v 0.366914 -0.100000 0.122656
v 0.284102 -0.100000 0.228594
v 0.278477 0.050000 0.222930
v 0.359063 0.336914 0.000000
v 0.349961 0.462734 0.000000
v 0.284219 0.572851 0.000000
v 0.270274 0.561172 -0.106016
v 0.185508 0.655664 0.000000
v 0.336406 0.336914 -0.110039
v 0.266875 0.336719 -0.211328
v 0.331563 0.455039 -0.106016
v -0.093320 0.426680 -0.277187
v -0.186680 0.533320 -0.201016
v -0.213320 0.426680 -0.201016
v -0.266680 0.426680 -0.103984
v -0.280000 0.426680 0.000000
v -0.266680 0.426680 0.103984
v -0.237969 0.552148 -0.103984
v -0.253320 0.560000 0.000000
v 0.272813 0.200000 -0.217266
v 0.161094 0.336914 -0.279062
v 0.261484 0.453320 -0.205938
v -0.146680 0.640000 -0.103984
v -0.173320 0.640000 0.000000
v -0.146680 0.640000 0.103984
v -0.237969 0.552148 0.103984
v -0.213320 0.426680 0.201016
v -0.053320 0.693320 0.000000
v -0.053320 0.680000 0.104023
v -0.186680 0.533320 0.201016
v -0.093320 0.507266 0.255039
v -0.093320 0.426680 0.277187
v 0.034336 0.439922 0.289727
v 0.270274 0.561172 0.106016
v 0.261484 0.453320 0.205937
v -0.093320 0.426680 0.277187
v -0.213320 0.426680 0.201016
v 0.284102 -0.100000 -0.228594
v 0.161094 -0.100000 -0.307031
v 0.040000 -0.100000 -0.331719
v -0.093320 -0.100000 -0.313711
v -0.093320 0.050000 -0.313281
v -0.093320 0.200000 -0.306680
v -0.093320 0.426680 -0.277187
v -0.213320 0.426680 -0.201016
v -0.266680 0.426680 -0.103984
v -0.280000 0.426680 0.000000
v 0.392305 -0.100000 -0.000000
v 0.053750 0.200547 -0.220781
v 0.366914 -0.100000 -0.122656
v 0.331563 0.455039 0.106016
v 0.336406 0.336914 0.110039
v 0.266875 0.336719 0.211328
v 0.284102 -0.100000 0.228594
v 0.161094 -0.100000 0.307031
v 0.040000 -0.100000 0.331719
v 0.053750 0.200547 0.220781
v -0.093320 -0.100000 0.313711
v -0.093320 0.050000 0.313281
v -0.093320 0.200000 0.306680
v -0.093320 0.336914 0.293320
v 0.028672 0.529570 0.254414
v 0.161328 0.582305 0.205742
v 0.060039 0.674883 0.106016
v 0.176406 0.639922 0.106016
v 0.040000 0.200000 0.318281
v -0.093320 0.050000 0.313281
v -0.093320 0.200000 0.306680
v -0.093320 -0.100000 0.313711
v 0.040000 0.336914 -0.307148
v 0.161094 0.453320 -0.265156
v 0.034336 0.439922 -0.289727
v -0.093320 0.336914 -0.293320
v 0.020000 0.426680 0.000000
v 0.366914 -0.100000 0.122656
v 0.028672 0.529570 -0.254414
v 0.161328 0.582305 -0.205742
v -0.266680 0.426680 0.103984
vn 0.1339 -0.0028 0.9910
vn -0.0414 -0.0260 0.9988
vn 0.1069 -0.0318 0.9938
vn -0.0659 -0.0472 0.9967
vn 0.0893 -0.0733 0.9933
vn -0.0764 -0.0710 0.9945
vn 0.0983 -0.1328 0.9863
vn -0.0579 -0.1167 0.9915
vn 0.2336 -0.2084 0.9497
vn -0.0288 -0.2580 0.9657
vn 0.2563 -0.3866 0.8859
vn -0.0364 -0.4548 0.8898
vn 0.1100 -0.6894 0.7160
vn -0.3543 -0.6119 0.7072
vn -0.1463 -0.9155 0.3747
vn -0.4420 -0.8323 0.3344
vn -0.1583 -0.9874 0.0000
vn -0.4755 -0.8797 0.0000
vn -0.4420 -0.8323 -0.3344
vn -0.7203 -0.5959 -0.3551
vn -0.3543 -0.6119 -0.7072
vn -0.6653 -0.2531 -0.7024
vn -0.3355 -0.2590 -0.9057
vn -0.3821 -0.0796 -0.9207
vn -0.0579 -0.1167 -0.9915
vn -0.3919 -0.0617 -0.9179
vn -0.0764 -0.0710 -0.9945
vn -0.3903 -0.0575 -0.9189
vn -0.0659 -0.0472 -0.9967
vn -0.3786 -0.0505 -0.9242
vn -0.0414 -0.0260 -0.9988
vn 0.0983 -0.1328 -0.9863
vn 0.2336 -0.2084 -0.9497
vn -0.0288 -0.2580 -0.9657
vn -0.0364 -0.4548 -0.8898
vn 0.1100 -0.6894 -0.7160
vn -0.1463 -0.9155 -0.3747
vn 0.1808 -0.9163 -0.3573
vn 0.1974 -0.9803 -0.0000
vn 0.1808 -0.9163 0.3573
vn 0.4922 -0.7944 0.3559
vn 0.5962 -0.4268 0.6800
vn -0.3786 -0.0505 0.9242
vn -0.3903 -0.0575 0.9189
vn -0.3919 -0.0617 0.9179
vn -0.3821 -0.0796 0.9207
vn -0.3355 -0.2590 0.9057
vn -0.6653 -0.2531 0.7024
vn -0.7203 -0.5959 0.3551
vn -0.6753 -0.0586 0.7352
vn -0.6811 -0.0564 0.7300
vn -0.9083 -0.0723 0.4120
vn -0.9131 -0.0728 0.4012
vn -0.9970 -0.0770 -0.0000
vn -0.9972 -0.0746 -0.0000
vn -0.9131 -0.0728 -0.4012
vn -0.9183 -0.0647 -0.3905
vn -0.6882 -0.0593 -0.7231
vn -0.6928 -0.0610 -0.7185
vn -0.9049 -0.0750 0.4190
vn -0.9972 -0.0748 -0.0000
vn -0.9083 -0.0723 -0.4120
vn -0.6811 -0.0564 -0.7300
vn -0.9972 -0.0745 -0.0000
vn -0.9049 -0.0750 -0.4190
vn -0.6753 -0.0586 -0.7352
vn -0.9183 -0.0647 0.3905
vn -0.9549 -0.2969 -0.0000
vn -0.8941 -0.2593 0.3652
vn -0.7639 -0.6454 -0.0000
vn -0.6882 -0.0593 0.7231
vn -0.6928 -0.0610 0.7185
vn 0.7311 -0.1770 0.6589
vn 0.8272 -0.4614 0.3208
vn 0.9308 -0.2044 0.3030
vn 0.8784 -0.4780 0.0000
vn 0.9806 -0.1962 -0.0000
vn 0.9308 -0.2044 -0.3030
vn 0.5805 -0.8143 0.0000
vn 0.8272 -0.4614 -0.3208
vn 0.7311 -0.1770 -0.6589
vn 0.4922 -0.7944 -0.3559
vn 0.5962 -0.4268 -0.6800
vn 0.2563 -0.3866 -0.8859
vn -0.8941 -0.2593 -0.3652
vn 0.5325 0.1293 0.8365
vn 0.6324 0.4269 0.6464
vn 0.5131 0.7750 0.3689
vn 0.4300 0.9028 0.0000
vn -0.0000 1.0000 0.0000
vn 0.6156 0.4879 -0.6189
vn 0.3667 0.3753 -0.8513
vn 0.6324 0.4269 -0.6464
vn 0.0262 0.3451 -0.9382
vn 0.0814 0.2578 -0.9628
vn 0.5236 0.0119 -0.8519
vn 0.5033 0.0604 -0.8620
vn 0.5325 0.1293 -0.8365
vn 0.5131 0.7750 -0.3689
vn 0.6998 0.7143 0.0000
vn 0.7093 0.6499 -0.2729
vn 0.6156 0.4879 0.6189
vn 0.3667 0.3753 0.8513
vn 0.0262 0.3451 0.9382
vn 0.0814 0.2578 0.9628
vn 0.5236 0.0119 0.8519
vn 0.5033 0.0604 0.8620
vn 0.0893 -0.0733 -0.9933
vn 0.1069 -0.0318 -0.9938
vn 0.1339 -0.0028 -0.9910
vn 0.7093 0.6499 0.2729
usemtl Material.013
s 1
f 1/4144/1 19/4145/2 2/4146/3
f 19/4145/2 20/4147/4 2/4146/3
f 2/4146/3 20/4147/4 3/4148/5
f 20/4147/4 22/4149/6 3/4148/5
f 3/4148/5 22/4149/6 4/4150/7
f 22/4149/6 107/4151/8 4/4150/7
f 4/4150/7 107/4151/8 49/4152/9
f 107/4151/8 109/4153/10 49/4152/9
f 49/4152/9 109/4153/10 5/4154/11
f 109/4153/10 113/4155/12 5/4154/11
f 5/4154/11 113/4155/12 18/4156/13
f 113/4155/12 114/4157/14 18/4156/13
f 18/4156/13 114/4157/14 6/4158/15
f 114/4157/14 7/4159/16 6/4158/15
f 6/4158/15 7/4159/16 8/4160/17
f 7/4159/16 45/4161/18 8/4160/17
f 8/4160/17 45/4161/18 102/4162/19
f 45/4161/18 71/4163/20 102/4162/19
f 102/4162/19 71/4163/20 100/4164/21
f 71/4163/20 72/4165/22 100/4164/21
f 100/4164/21 72/4165/22 9/4166/23
f 72/4165/22 10/4167/24 9/4166/23
f 9/4166/23 10/4167/24 11/4168/25
f 10/4167/24 29/4169/26 11/4168/25
f 11/4168/25 29/4169/26 103/4170/27
f 29/4169/26 36/4171/28 103/4170/27
f 103/4170/27 36/4171/28 12/4172/29
f 36/4171/28 13/4173/30 12/4172/29
f 12/4172/29 13/4173/30 14/4174/31
f 15/4175/32 69/4176/33 11/4168/25
f 69/4176/33 70/4177/34 11/4168/25
f 11/4168/25 70/4177/34 9/4166/23
f 70/4177/34 99/4178/35 9/4166/23
f 9/4166/23 99/4178/35 100/4164/21
f 99/4178/35 16/4179/36 100/4164/21
f 100/4164/21 16/4179/36 101/4180/37
f 16/4179/36 66/4181/38 101/4180/37
f 101/4180/37 66/4181/38 8/4160/17
f 66/4181/38 65/4182/39 8/4160/17
f 8/4160/17 65/4182/39 17/4183/40
f 65/4182/39 60/4184/41 17/4183/40
f 17/4183/40 60/4184/41 18/4156/13
f 60/4184/41 50/4185/42 18/4156/13
f 18/4156/13 50/4185/42 5/4154/11
f 50/4185/42 49/4152/9 5/4154/11
f 19/4145/2 24/4186/43 20/4147/4
f 24/4186/43 21/4187/44 20/4147/4
f 20/4147/4 21/4187/44 22/4149/6
f 21/4187/44 23/4188/45 22/4149/6
f 22/4149/6 23/4188/45 107/4151/8
f 23/4188/45 58/4189/46 107/4151/8
f 107/4151/8 58/4189/46 108/4190/47
f 58/4189/46 59/4191/48 108/4190/47
f 108/4190/47 59/4191/48 114/4157/14
f 59/4191/48 44/4192/49 114/4157/14
f 114/4157/14 44/4192/49 7/4159/16
f 44/4192/49 45/4161/18 7/4159/16
f 24/4186/43 30/4193/50 25/4194/51
f 30/4193/50 32/4195/52 25/4194/51
f 25/4194/51 32/4195/52 26/4196/53
f 32/4195/52 27/4197/54 26/4196/53
f 26/4196/53 27/4197/54 41/4198/55
f 27/4197/54 28/4199/56 41/4198/55
f 41/4198/55 28/4199/56 89/4200/57
f 28/4199/56 35/4201/58 89/4200/57
f 89/4200/57 35/4201/58 90/4202/59
f 35/4201/58 29/4169/26 90/4202/59
f 90/4202/59 29/4169/26 10/4167/24
f 30/4193/50 31/4203/60 32/4195/52
f 31/4203/60 33/4204/61 32/4195/52
f 32/4195/52 33/4204/61 27/4197/54
f 33/4204/61 34/4205/62 27/4197/54
f 27/4197/54 34/4205/62 28/4199/56
f 34/4205/62 40/4206/63 28/4199/56
f 28/4199/56 40/4206/63 35/4201/58
f 40/4206/63 36/4171/28 35/4201/58
f 35/4201/58 36/4171/28 29/4169/26
f 31/4203/60 37/4207/64 33/4204/61
f 37/4207/64 38/4208/65 33/4204/61
f 33/4204/61 38/4208/65 34/4205/62
f 38/4208/65 39/4209/66 34/4205/62
f 34/4205/62 39/4209/66 40/4206/63
f 39/4209/66 13/4173/30 40/4206/63
f 40/4206/63 13/4173/30 36/4171/28
f 26/4196/53 41/4198/55 46/4210/67
f 41/4198/55 42/4211/68 46/4210/67
f 46/4210/67 42/4211/68 48/4212/69
f 42/4211/68 43/4213/70 48/4212/69
f 48/4212/69 43/4213/70 44/4192/49
f 43/4213/70 45/4161/18 44/4192/49
f 25/4194/51 26/4196/53 57/4214/71
f 26/4196/53 46/4210/67 57/4214/71
f 57/4214/71 46/4210/67 47/4215/72
f 46/4210/67 48/4212/69 47/4215/72
f 47/4215/72 48/4212/69 59/4191/48
f 48/4212/69 44/4192/49 59/4191/48
f 49/4152/9 50/4185/42 51/4216/73
f 50/4185/42 55/4217/74 51/4216/73
f 51/4216/73 55/4217/74 52/4218/75
f 55/4217/74 56/4219/76 52/4218/75
f 52/4218/75 56/4219/76 53/4220/77
f 56/4219/76 54/4221/78 53/4220/77
f 50/4185/42 60/4184/41 55/4217/74
f 60/4184/41 61/4222/79 55/4217/74
f 55/4217/74 61/4222/79 56/4219/76
f 61/4222/79 63/4223/80 56/4219/76
f 56/4219/76 63/4223/80 54/4221/78
f 63/4223/80 64/4224/81 54/4221/78
f 24/4186/43 25/4194/51 21/4187/44
f 25/4194/51 57/4214/71 21/4187/44
f 21/4187/44 57/4214/71 23/4188/45
f 57/4214/71 47/4215/72 23/4188/45
f 23/4188/45 47/4215/72 58/4189/46
f 47/4215/72 59/4191/48 58/4189/46
f 60/4184/41 65/4182/39 61/4222/79
f 65/4182/39 62/4225/82 61/4222/79
f 61/4222/79 62/4225/82 63/4223/80
f 62/4225/82 67/4226/83 63/4223/80
f 63/4223/80 67/4226/83 64/4224/81
f 67/4226/83 69/4176/33 64/4224/81
f 65/4182/39 66/4181/38 62/4225/82
f 66/4181/38 16/4179/36 62/4225/82
f 62/4225/82 16/4179/36 67/4226/83
f 16/4179/36 68/4227/84 67/4226/83
f 67/4226/83 68/4227/84 69/4176/33
f 68/4227/84 70/4177/34 69/4176/33
f 45/4161/18 43/4213/70 71/4163/20
f 43/4213/70 88/4228/85 71/4163/20
f 71/4163/20 88/4228/85 72/4165/22
f 88/4228/85 90/4202/59 72/4165/22
f 72/4165/22 90/4202/59 10/4167/24
f 98/4229/86 94/4230/87 73/4231/88
f 94/4230/87 111/4232/89 73/4231/88
f 73/4231/88 111/4232/89 74/4233/90
f 111/4232/89 115/4234/90 74/4233/90
f 75/4235/91 76/4236/92 86/4237/93
f 76/4236/92 77/4238/94 86/4237/93
f 86/4237/93 77/4238/94 78/4239/95
f 78/4239/95 79/4240/96 86/4237/93
f 79/4240/96 80/4241/97 86/4237/93
f 86/4237/93 80/4241/97 110/4242/98
f 81/4243/99 82/4244/90 111/4232/89
f 82/4244/90 83/4245/90 111/4232/89
f 111/4232/89 83/4245/90 84/4246/90
f 94/4230/87 85/4247/100 86/4237/93
f 85/4247/100 87/4248/101 86/4237/93
f 86/4237/93 87/4248/101 75/4235/91
f 43/4213/70 42/4211/68 88/4228/85
f 42/4211/68 89/4200/57 88/4228/85
f 88/4228/85 89/4200/57 90/4202/59
f 91/4249/102 94/4230/87 92/4250/103
f 94/4230/87 93/4251/104 92/4250/103
f 93/4251/104 94/4230/87 95/4252/105
f 94/4230/87 96/4253/106 95/4252/105
f 96/4253/106 94/4230/87 97/4254/107
f 94/4230/87 98/4229/86 97/4254/107
f 16/4179/36 99/4178/35 68/4227/84
f 99/4178/35 70/4177/34 68/4227/84
f 100/4164/21 101/4180/37 102/4162/19
f 101/4180/37 8/4160/17 102/4162/19
f 18/4156/13 6/4158/15 17/4183/40
f 6/4158/15 8/4160/17 17/4183/40
f 105/4255/108 15/4175/32 103/4170/27
f 15/4175/32 11/4168/25 103/4170/27
f 104/4256/109 105/4255/108 12/4172/29
f 105/4255/108 103/4170/27 12/4172/29
f 106/4257/110 104/4256/109 14/4174/31
f 104/4256/109 12/4172/29 14/4174/31
f 107/4151/8 108/4190/47 109/4153/10
f 108/4190/47 113/4155/12 109/4153/10
f 110/4242/98 81/4243/99 86/4237/93
f 81/4243/99 111/4232/89 86/4237/93
f 85/4247/100 94/4230/87 112/4258/111
f 94/4230/87 91/4249/102 112/4258/111
f 113/4155/12 108/4190/47 114/4157/14
f 115/4234/90 111/4232/89 84/4246/90
f 89/4200/57 42/4211/68 41/4198/55
