mtllib Hair.mtl
o Mesh_0005.rip.075_Mesh_0005.rip_mesh0000.088
v 0.215234 0.029375 -0.226914
v 0.318125 0.123008 0.126953
v 0.265898 0.335391 0.204336
v 0.160000 0.334375 0.261289
v 0.028672 0.529570 0.254414
v 0.110508 0.044414 -0.250078
v 0.073867 0.122969 -0.249687
v 0.160000 0.334375 -0.261289
v -0.080000 0.518633 -0.266367
v -0.061055 0.616836 -0.187617
v -0.050000 0.670000 -0.110000
v -0.050000 0.690000 0.000000
v -0.154726 0.640000 0.000000
v -0.213945 0.624023 0.072695
v 0.129024 0.442617 -0.254414
v 0.028672 0.529570 -0.254414
v 0.060039 0.674883 -0.106016
v 0.063125 0.692422 0.000000
v -0.150000 0.660000 0.089297
v -0.177109 0.593906 0.186836
v -0.260000 0.573906 0.137656
v -0.300859 0.448594 0.205977
v -0.224766 0.344766 0.200000
v -0.199101 0.561250 0.000000
v -0.213945 0.624023 -0.072695
v -0.150000 0.660000 -0.089297
v -0.260000 0.573906 -0.137656
v -0.177109 0.593906 -0.186836
v -0.167226 0.496328 -0.274844
v -0.195000 0.358906 -0.260078
v -0.099609 0.389844 -0.295430
v -0.110000 0.270000 -0.290977
v 0.070000 0.200000 -0.254414
v 0.030000 0.110000 -0.285469
v 0.221758 0.124141 -0.215625
v 0.318125 0.123008 -0.126953
v 0.331563 0.455039 -0.106016
v 0.348633 0.461250 0.000000
v 0.284219 0.572851 0.000000
v 0.158399 0.581836 0.187617
v 0.050000 0.613633 0.200000
v 0.129024 0.442617 0.254414
v -0.080000 0.518633 0.266367
v -0.061055 0.616836 0.187617
v -0.050000 0.670000 0.110000
v 0.316250 -0.090000 -0.000000
v 0.360000 0.004180 0.000000
v 0.200508 0.209492 0.204336
v 0.073867 0.122969 0.249687
v 0.308633 0.014023 -0.139609
v 0.260000 -0.071992 -0.110820
v 0.226250 -0.180000 -0.000000
v -0.099609 0.389844 0.295430
v 0.070000 0.200000 0.254414
v 0.363242 0.120000 0.000000
v 0.305742 0.220273 -0.113086
v 0.335195 0.334375 -0.113086
v 0.221758 0.124141 0.215625
v 0.110508 0.044414 0.250078
v 0.215234 0.029375 0.226914
v 0.083086 -0.036055 0.234375
v 0.170273 -0.072070 0.206758
v 0.105312 -0.147383 0.163984
v 0.305742 0.220273 0.113086
v 0.340313 0.223828 0.000000
v 0.352461 0.334375 0.000000
v 0.331563 0.455039 0.106016
v -0.084844 0.200000 0.284492
v -0.030000 0.100000 0.320000
v -0.090000 0.100000 0.277070
v -0.060000 0.010000 0.220000
v -0.080000 -0.090000 0.270000
v -0.224766 0.344766 -0.200000
v -0.246172 0.240000 -0.270000
v -0.140000 0.140000 -0.239531
v -0.240000 0.476797 0.262031
v -0.167226 0.496328 0.274844
v 0.014297 0.429258 0.278789
v 0.000000 0.334375 0.278789
v 0.014297 0.429258 -0.278789
v 0.000000 0.334375 -0.278789
v -0.024453 0.199180 -0.304492
v 0.030000 0.000000 -0.243359
v -0.090000 0.100000 -0.277070
v -0.030000 0.100000 -0.320000
v -0.020000 0.010000 -0.260000
v 0.200508 0.209492 -0.204336
v 0.265898 0.335391 -0.204336
v 0.263945 0.437031 -0.197852
v 0.158399 0.581836 -0.187617
v 0.176406 0.639922 -0.106016
v 0.050000 0.613633 -0.200000
v 0.270274 0.561172 -0.106016
v 0.335195 0.334375 0.113086
v 0.263945 0.437031 0.197852
v 0.270274 0.561172 0.106016
v -0.020000 0.010000 0.260000
v 0.030000 0.110000 0.285469
v -0.024453 0.199180 0.304492
v -0.084844 0.200000 -0.284492
v -0.110664 0.270156 -0.234883
v -0.140000 0.140000 0.239531
v -0.110664 0.270156 0.234883
v 0.185508 0.655664 0.000000
v -0.195000 0.358906 0.260078
v -0.110000 0.270000 0.290977
v -0.060000 0.010000 -0.220000
v -0.080000 -0.090000 -0.270000
v -0.300859 0.448594 -0.205977
v -0.240000 0.476797 -0.262031
v 0.030000 -0.000000 0.243359
v -0.020000 0.010000 0.180000
v -0.030000 0.100000 0.214727
v 0.083086 -0.036055 -0.234375
v 0.105312 -0.147383 -0.163984
v 0.170273 -0.072070 -0.206758
v 0.260000 -0.071992 0.110820
v 0.308633 0.014023 0.139609
v -0.192500 0.253398 -0.310000
v 0.060039 0.674883 0.106016
v 0.176406 0.639922 0.106016
v -0.246172 0.240000 0.270000
v -0.192500 0.253398 0.310000
v 0.073867 0.122969 -0.249687
v -0.060859 0.307461 0.000000
v -0.119297 0.426680 0.188828
v -0.110664 0.270156 0.234883
v -0.224766 0.344766 0.200000
v 0.260000 -0.071992 -0.110820
v 0.120977 0.017461 0.000000
v 0.033281 0.211211 0.186680
v 0.073867 0.122969 0.249687
v -0.090000 0.100000 0.277070
v -0.060000 0.010000 0.220000
v -0.020000 0.010000 0.180000
v -0.080000 -0.090000 0.270000
v 0.030000 -0.000000 0.243359
v -0.300859 0.448594 0.205977
v -0.260000 0.573906 0.137656
v -0.213945 0.624023 0.072695
v -0.246172 0.240000 -0.270000
v 0.070000 0.200000 -0.254414
v -0.090000 0.100000 -0.277070
v -0.060000 0.010000 -0.220000
v -0.020000 0.010000 -0.180000
v -0.080000 -0.090000 -0.270000
v -0.084844 0.200000 0.284492
v -0.030000 0.100000 0.214727
v 0.070000 0.200000 0.254414
v -0.300859 0.448594 -0.205977
v -0.260000 0.573906 -0.137656
v -0.177695 0.570898 -0.100000
v -0.213945 0.624023 -0.072695
v 0.105312 -0.147383 -0.163984
v 0.113672 0.030039 -0.106680
v 0.083086 -0.036055 -0.234375
v 0.110508 0.044414 -0.250078
v 0.033281 0.211211 -0.186680
v -0.084844 0.200000 -0.284492
v -0.110664 0.270156 -0.234883
v -0.110000 0.270000 -0.290977
v 0.030000 0.000000 -0.243359
v 0.030000 0.110000 -0.285469
v -0.030000 0.100000 -0.214727
v -0.246172 0.240000 0.270000
v -0.140000 0.140000 0.239531
v 0.110508 0.044414 0.250078
v 0.083086 -0.036055 0.234375
v 0.260000 -0.071992 0.110820
v 0.105312 -0.147383 0.163984
v -0.224766 0.344766 -0.200000
v -0.119297 0.426680 -0.188828
v 0.226250 -0.180000 -0.000000
v 0.113672 0.030039 0.106680
v -0.140000 0.140000 -0.239531
v -0.199101 0.561250 0.000000
v -0.177695 0.570898 0.100000
vn -0.2059 0.0517 0.9772
vn -0.4581 0.1378 0.8781
vn -0.4823 -0.1484 0.8634
vn -0.7880 0.2490 0.5631
vn -0.8304 -0.0938 0.5492
vn -0.9730 0.2308 0.0000
vn -0.9966 -0.0819 -0.0000
vn -0.8304 -0.0938 -0.5492
vn -0.8459 0.0432 -0.5316
vn -0.4893 0.0626 -0.8699
vn -0.6424 0.0994 -0.7599
vn -0.3114 0.0525 -0.9488
vn -0.6105 -0.2334 -0.7569
vn -0.2797 -0.2122 -0.9364
vn -0.3953 -0.5540 -0.7327
vn -0.1316 -0.4037 -0.9054
vn -0.1043 -0.6877 -0.7185
vn 0.0889 -0.7386 -0.6682
vn -0.1194 -0.9257 -0.3589
vn 0.0886 -0.9205 -0.3806
vn -0.1313 -0.9913 -0.0000
vn -0.2762 -0.0676 0.9587
vn -0.4893 0.0626 0.8699
vn -0.3593 0.0498 0.9319
vn -0.3114 0.0525 0.9488
vn -0.1626 -0.0084 0.9867
vn -0.2797 -0.2122 0.9364
vn -0.1516 -0.1011 0.9833
vn -0.1316 -0.4037 0.9054
vn 0.0006 -0.4501 0.8930
vn 0.0889 -0.7386 0.6682
vn 0.3099 -0.7340 0.6042
vn 0.0886 -0.9205 0.3806
vn 0.3507 -0.9170 0.1900
vn 0.1486 -0.9889 -0.0000
vn 0.5906 -0.8070 -0.0000
vn 0.3507 -0.9170 -0.1900
vn 0.6007 -0.7985 0.0400
vn 0.5301 -0.6990 -0.4800
vn -0.3953 -0.5540 0.7327
vn -0.1043 -0.6877 0.7185
vn -0.1194 -0.9257 0.3589
vn 0.3099 -0.7340 -0.6042
vn 0.4971 -0.2279 -0.8372
vn 0.7437 -0.0806 -0.6637
vn 0.5462 -0.0329 -0.8370
vn 0.8752 0.1333 -0.4650
vn 0.6534 0.0772 -0.7530
vn 0.8712 -0.4909 0.0000
vn 0.6007 -0.7985 -0.0400
vn 0.5301 -0.6990 0.4800
vn 0.4971 -0.2279 0.8372
vn 0.1723 -0.3603 0.9168
vn 0.5462 -0.0329 0.8370
vn 0.0752 -0.0419 0.9963
vn 0.2179 0.0840 0.9724
vn -0.1221 -0.1022 0.9872
vn -0.5012 0.0710 0.8624
vn -0.8459 0.0432 0.5316
vn -0.6424 0.0994 0.7599
vn -0.9133 0.0714 0.4010
vn -0.6105 -0.2334 0.7569
vn -0.8875 -0.2596 0.3808
vn -0.7041 -0.5865 0.4003
vn -0.9614 -0.2751 0.0000
vn -0.7661 -0.6428 -0.0000
vn -0.7041 -0.5865 -0.4003
vn -0.4420 -0.8160 -0.3725
vn -0.4518 0.1110 -0.8852
vn -0.1626 -0.0084 -0.9867
vn -0.1516 -0.1011 -0.9833
vn 0.0006 -0.4501 -0.8930
vn -0.8035 0.5953 0.0000
vn -0.7880 0.2490 -0.5631
vn -0.4823 -0.1484 -0.8634
vn -0.2762 -0.0676 -0.9587
vn -0.1370 0.3578 0.9237
vn -0.3651 0.5285 0.7664
vn -0.6414 0.5869 0.4942
vn -0.7071 0.7071 0.0000
vn -0.6414 0.5869 -0.4942
vn 0.1723 -0.3603 -0.9168
vn 0.0752 -0.0419 -0.9963
vn 0.0159 0.1326 -0.9910
vn -0.1221 -0.1022 -0.9872
vn -0.9099 0.1761 -0.3755
vn -0.9999 -0.0141 0.0000
vn -0.9993 0.0370 0.0000
vn -0.2059 0.0517 -0.9772
vn -0.4581 0.1378 -0.8781
vn -0.1370 0.3578 -0.9237
vn -0.3651 0.5285 -0.7664
vn -0.2960 0.6518 -0.6982
vn -0.9133 0.0714 -0.4010
vn -0.8875 -0.2596 -0.3808
vn 0.5053 0.1206 -0.8545
vn 0.0446 0.2134 -0.9760
vn 0.5721 0.3063 -0.7609
vn 0.1626 0.2950 -0.9416
vn 0.7052 0.0731 -0.7052
vn 0.2919 -0.2670 -0.9184
vn 0.7437 -0.0806 0.6637
vn 0.8752 0.1333 0.4650
vn 0.6534 0.0772 0.7530
vn 0.2076 0.0743 0.9754
vn 0.0016 0.5283 0.8490
vn 0.5053 0.1206 0.8545
vn 0.0446 0.2134 0.9760
vn -0.3130 0.3103 0.8976
vn 0.5721 0.3063 0.7609
vn 0.1626 0.2950 0.9416
vn 0.2919 -0.2670 0.9184
vn -0.7528 -0.0934 0.6516
vn -0.4420 -0.8160 0.3725
vn -0.4755 -0.8797 -0.0000
vn -0.9092 0.1209 -0.3985
vn 0.9407 0.3390 0.0102
vn -0.3465 0.5529 -0.7578
vn -0.6530 0.7573 0.0098
vn 0.2076 0.0743 -0.9754
vn 0.7052 0.0731 0.7052
vn -0.7489 -0.2657 0.6070
vn -0.2960 0.6518 0.6982
vn 0.9950 0.0992 -0.0120
vn 0.9296 0.3488 0.1193
vn 0.9191 0.3729 -0.1274
vn 0.7474 0.5826 -0.3193
vn 0.8832 0.4689 0.0000
vn 0.8298 0.5580 0.0000
vn 0.7474 0.5826 0.3193
vn 0.3148 0.4493 0.8361
vn 0.2787 0.3464 0.8957
vn 0.0297 0.2549 0.9665
vn 0.1790 0.2904 0.9400
vn 0.5700 0.8125 0.1222
vn 0.7382 0.6746 0.0000
vn 0.9191 0.3729 0.1274
vn 0.9296 0.3488 -0.1193
vn 0.6888 0.6762 -0.2615
vn 0.6289 0.2271 0.7435
vn 0.7145 -0.1294 0.6876
vn 0.6025 -0.0949 0.7925
vn 0.7099 0.0008 0.7043
vn 0.3416 0.3622 0.8673
vn -0.0353 0.6802 0.7322
vn -0.4771 0.7286 0.4915
vn 0.1829 0.3265 0.9273
vn 0.5335 0.6019 0.5941
vn 0.3912 0.4138 0.8220
vn 0.7333 0.6308 0.2537
vn 0.3148 0.4493 -0.8361
vn 0.0175 0.4111 -0.9114
vn 0.0297 0.2549 -0.9665
vn 0.1790 0.2904 -0.9400
vn 0.2189 0.9722 -0.0829
vn 0.1035 -0.1261 -0.9866
vn 0.6289 0.2271 -0.7435
vn 0.7145 -0.1294 -0.6876
vn 0.7099 0.0008 -0.7043
vn -0.1051 0.1518 -0.9828
vn -0.0353 0.6802 -0.7322
vn -0.7493 0.2170 -0.6256
vn 0.1829 0.3265 -0.9273
vn 0.3912 0.4138 -0.8220
vn 0.5335 0.6019 -0.5941
vn 0.7333 0.6308 -0.2537
vn 0.8780 0.4787 0.0000
vn 0.6516 0.2052 -0.7303
vn 0.9771 -0.1365 -0.1634
vn -0.9754 0.2203 -0.0122
vn -0.1182 0.0620 -0.9911
vn -0.7732 0.1863 -0.6062
vn 0.2556 -0.0231 0.9665
vn 0.9950 0.0992 0.0120
vn 0.9771 -0.1365 0.1634
vn 0.5700 0.8125 -0.1222
vn 0.6516 0.2052 0.7303
usemtl Material.013
s 1
f 6/8489/1 1/8490/2 35/8491/3
f 1/8490/2 50/8492/4 35/8491/3
f 35/8491/3 50/8492/4 36/8493/5
f 50/8492/4 47/8494/6 36/8493/5
f 36/8493/5 47/8494/6 55/8495/7
f 47/8494/6 2/8496/8 55/8495/7
f 55/8495/7 2/8496/8 64/8497/9
f 2/8496/8 48/8498/10 64/8497/9
f 64/8497/9 48/8498/10 3/8499/11
f 48/8498/10 4/8500/12 3/8499/11
f 3/8499/11 4/8500/12 95/8501/13
f 4/8500/12 42/8502/14 95/8501/13
f 95/8501/13 42/8502/14 40/8503/15
f 42/8502/14 5/8504/16 40/8503/15
f 40/8503/15 5/8504/16 41/8505/17
f 5/8504/16 44/8506/18 41/8505/17
f 41/8505/17 44/8506/18 120/8507/19
f 44/8506/18 45/8508/20 120/8507/19
f 120/8507/19 45/8508/20 18/8509/21
f 6/8489/1 35/8491/3 7/8510/22
f 35/8491/3 87/8511/23 7/8510/22
f 7/8510/22 87/8511/23 33/8512/24
f 87/8511/23 8/8513/25 33/8512/24
f 33/8512/24 8/8513/25 81/8514/26
f 8/8513/25 15/8515/27 81/8514/26
f 81/8514/26 15/8515/27 80/8516/28
f 15/8515/27 16/8517/29 80/8516/28
f 80/8516/28 16/8517/29 9/8518/30
f 16/8517/29 10/8519/31 9/8518/30
f 9/8518/30 10/8519/31 28/8520/32
f 10/8519/31 11/8521/33 28/8520/32
f 28/8520/32 11/8521/33 26/8522/34
f 11/8521/33 12/8523/35 26/8522/34
f 26/8522/34 12/8523/35 13/8524/36
f 12/8523/35 19/8525/37 13/8524/36
f 13/8524/36 19/8525/37 14/8526/38
f 19/8525/37 21/8527/39 14/8526/38
f 15/8515/27 90/8528/40 16/8517/29
f 90/8528/40 92/8529/41 16/8517/29
f 16/8517/29 92/8529/41 10/8519/31
f 92/8529/41 17/8530/42 10/8519/31
f 10/8519/31 17/8530/42 11/8521/33
f 17/8530/42 18/8509/21 11/8521/33
f 11/8521/33 18/8509/21 12/8523/35
f 18/8509/21 45/8508/20 12/8523/35
f 12/8523/35 45/8508/20 19/8525/37
f 45/8508/20 20/8531/43 19/8525/37
f 19/8525/37 20/8531/43 21/8527/39
f 20/8531/43 76/8532/44 21/8527/39
f 21/8527/39 76/8532/44 22/8533/45
f 76/8532/44 105/8534/46 22/8533/45
f 22/8533/45 105/8534/46 23/8535/47
f 105/8534/46 122/8536/48 23/8535/47
f 14/8526/38 24/8537/49 13/8524/36
f 24/8537/49 25/8538/50 13/8524/36
f 13/8524/36 25/8538/50 26/8522/34
f 25/8538/50 27/8539/51 26/8522/34
f 26/8522/34 27/8539/51 28/8520/32
f 27/8539/51 110/8540/52 28/8520/32
f 28/8520/32 110/8540/52 29/8541/53
f 110/8540/52 30/8542/54 29/8541/53
f 29/8541/53 30/8542/54 31/8543/55
f 30/8542/54 32/8544/56 31/8543/55
f 31/8543/55 32/8544/56 81/8514/26
f 32/8544/56 82/8545/57 81/8514/26
f 81/8514/26 82/8545/57 33/8512/24
f 82/8545/57 34/8546/58 33/8512/24
f 35/8491/3 36/8493/5 87/8511/23
f 36/8493/5 56/8547/59 87/8511/23
f 87/8511/23 56/8547/59 88/8548/60
f 56/8547/59 57/8549/61 88/8548/60
f 88/8548/60 57/8549/61 89/8550/62
f 57/8549/61 37/8551/63 89/8550/62
f 89/8550/62 37/8551/63 93/8552/64
f 37/8551/63 38/8553/65 93/8552/64
f 93/8552/64 38/8553/65 39/8554/66
f 38/8553/65 96/8555/67 39/8554/66
f 39/8554/66 96/8555/67 121/8556/68
f 96/8555/67 40/8503/15 121/8556/68
f 121/8556/68 40/8503/15 41/8505/17
f 48/8498/10 54/8557/69 4/8500/12
f 54/8557/69 79/8558/70 4/8500/12
f 4/8500/12 79/8558/70 42/8502/14
f 79/8558/70 78/8559/71 42/8502/14
f 42/8502/14 78/8559/71 5/8504/16
f 78/8559/71 43/8560/72 5/8504/16
f 5/8504/16 43/8560/72 44/8506/18
f 43/8560/72 20/8531/43 44/8506/18
f 44/8506/18 20/8531/43 45/8508/20
f 50/8492/4 46/8561/73 47/8494/6
f 46/8561/73 118/8562/74 47/8494/6
f 47/8494/6 118/8562/74 2/8496/8
f 118/8562/74 58/8563/75 2/8496/8
f 2/8496/8 58/8563/75 48/8498/10
f 58/8563/75 49/8564/76 48/8498/10
f 48/8498/10 49/8564/76 54/8557/69
f 6/8489/1 114/8565/77 1/8490/2
f 114/8565/77 116/8566/78 1/8490/2
f 1/8490/2 116/8566/78 50/8492/4
f 116/8566/78 51/8567/79 50/8492/4
f 50/8492/4 51/8567/79 46/8561/73
f 51/8567/79 52/8568/80 46/8561/73
f 46/8561/73 52/8568/80 117/8569/81
f 76/8532/44 77/8570/82 105/8534/46
f 77/8570/82 53/8571/83 105/8534/46
f 105/8534/46 53/8571/83 106/8572/84
f 53/8571/83 79/8558/70 106/8572/84
f 106/8572/84 79/8558/70 99/8573/85
f 79/8558/70 54/8557/69 99/8573/85
f 99/8573/85 54/8557/69 98/8574/86
f 36/8493/5 55/8495/7 56/8547/59
f 55/8495/7 65/8575/87 56/8547/59
f 56/8547/59 65/8575/87 57/8549/61
f 65/8575/87 66/8576/88 57/8549/61
f 57/8549/61 66/8576/88 37/8551/63
f 66/8576/88 38/8553/65 37/8551/63
f 49/8564/76 58/8563/75 59/8577/89
f 58/8563/75 60/8578/90 59/8577/89
f 59/8577/89 60/8578/90 61/8579/91
f 60/8578/90 62/8580/92 61/8579/91
f 61/8579/91 62/8580/92 63/8581/93
f 62/8580/92 117/8569/81 63/8581/93
f 55/8495/7 64/8497/9 65/8575/87
f 64/8497/9 94/8582/94 65/8575/87
f 65/8575/87 94/8582/94 66/8576/88
f 94/8582/94 67/8583/95 66/8576/88
f 66/8576/88 67/8583/95 38/8553/65
f 67/8583/95 96/8555/67 38/8553/65
f 106/8572/84 99/8573/85 68/8584/96
f 99/8573/85 69/8585/97 68/8584/96
f 68/8584/96 69/8585/97 70/8586/98
f 69/8585/97 97/8587/99 70/8586/98
f 70/8586/98 97/8587/99 71/8588/100
f 97/8587/99 72/8589/101 71/8588/100
f 109/8590/102 73/8591/103 30/8542/54
f 73/8591/103 74/8592/104 30/8542/54
f 30/8542/54 74/8592/104 119/8593/105
f 74/8592/104 75/8594/106 119/8593/105
f 119/8593/105 75/8594/106 32/8544/56
f 76/8532/44 20/8531/43 77/8570/82
f 20/8531/43 43/8560/72 77/8570/82
f 77/8570/82 43/8560/72 53/8571/83
f 43/8560/72 78/8559/71 53/8571/83
f 53/8571/83 78/8559/71 79/8558/70
f 28/8520/32 29/8541/53 9/8518/30
f 29/8541/53 31/8543/55 9/8518/30
f 9/8518/30 31/8543/55 80/8516/28
f 31/8543/55 81/8514/26 80/8516/28
f 32/8544/56 100/8595/107 82/8545/57
f 100/8595/107 85/8596/108 82/8545/57
f 82/8545/57 85/8596/108 34/8546/58
f 85/8596/108 83/8597/109 34/8546/58
f 100/8595/107 84/8598/110 85/8596/108
f 84/8598/110 86/8599/111 85/8596/108
f 85/8596/108 86/8599/111 83/8597/109
f 86/8599/111 108/8600/112 83/8597/109
f 113/8601/113 98/8574/86 54/8557/69
f 87/8511/23 88/8548/60 8/8513/25
f 88/8548/60 89/8550/62 8/8513/25
f 8/8513/25 89/8550/62 15/8515/27
f 89/8550/62 90/8528/40 15/8515/27
f 89/8550/62 93/8552/64 90/8528/40
f 93/8552/64 91/8602/114 90/8528/40
f 90/8528/40 91/8602/114 92/8529/41
f 91/8602/114 17/8530/42 92/8529/41
f 93/8552/64 39/8554/66 91/8602/114
f 39/8554/66 104/8603/115 91/8602/114
f 91/8602/114 104/8603/115 17/8530/42
f 104/8603/115 18/8509/21 17/8530/42
f 64/8497/9 3/8499/11 94/8582/94
f 3/8499/11 95/8501/13 94/8582/94
f 94/8582/94 95/8501/13 67/8583/95
f 95/8501/13 96/8555/67 67/8583/95
f 72/8589/101 97/8587/99 111/8604/116
f 97/8587/99 69/8585/97 111/8604/116
f 111/8604/116 69/8585/97 98/8574/86
f 69/8585/97 99/8573/85 98/8574/86
f 100/8595/107 32/8544/56 101/8605/117
f 102/8606/118 106/8572/84 103/8607/119
f 103/8607/119 106/8572/84 68/8584/96
f 39/8554/66 121/8556/68 104/8603/115
f 121/8556/68 120/8507/19 104/8603/115
f 104/8603/115 120/8507/19 18/8509/21
f 105/8534/46 106/8572/84 123/8608/120
f 106/8572/84 102/8606/118 123/8608/120
f 123/8608/120 102/8606/118 122/8536/48
f 84/8598/110 107/8609/121 86/8599/111
f 107/8609/121 108/8600/112 86/8599/111
f 27/8539/51 109/8590/102 110/8540/52
f 109/8590/102 30/8542/54 110/8540/52
f 111/8604/116 98/8574/86 112/8610/122
f 98/8574/86 113/8601/113 112/8610/122
f 114/8565/77 115/8611/123 116/8566/78
f 115/8611/123 51/8567/79 116/8566/78
f 58/8563/75 118/8562/74 60/8578/90
f 118/8562/74 62/8580/92 60/8578/90
f 46/8561/73 117/8569/81 118/8562/74
f 117/8569/81 62/8580/92 118/8562/74
f 119/8593/105 32/8544/56 30/8542/54
f 120/8507/19 121/8556/68 41/8505/17
f 95/8501/13 40/8503/15 96/8555/67
f 122/8536/48 105/8534/46 123/8608/120
f 157/8612/124 124/8613/125 155/8614/126
f 124/8613/125 158/8615/127 155/8614/126
f 155/8614/126 158/8615/127 130/8616/128
f 158/8615/127 125/8617/129 130/8616/128
f 130/8616/128 125/8617/129 131/8618/130
f 125/8617/129 126/8619/131 131/8618/130
f 131/8618/130 126/8619/131 127/8620/132
f 126/8619/131 128/8621/133 127/8620/132
f 127/8620/132 128/8621/133 165/8622/134
f 129/8623/135 155/8614/126 173/8624/136
f 155/8614/126 130/8616/128 173/8624/136
f 173/8624/136 130/8616/128 174/8625/137
f 130/8616/128 131/8618/130 174/8625/137
f 174/8625/137 131/8618/130 132/8626/138
f 131/8618/130 149/8627/139 132/8626/138
f 147/8628/140 133/8629/141 148/8630/142
f 133/8629/141 134/8631/143 148/8630/142
f 148/8630/142 134/8631/143 135/8632/144
f 134/8631/143 136/8633/145 135/8632/144
f 135/8632/144 136/8633/145 137/8634/146
f 128/8621/133 126/8619/131 138/8635/147
f 126/8619/131 177/8636/148 138/8635/147
f 138/8635/147 177/8636/148 139/8637/149
f 177/8636/148 140/8638/150 139/8637/149
f 125/8617/129 158/8615/127 172/8639/151
f 158/8615/127 160/8640/152 172/8639/151
f 172/8639/151 160/8640/152 171/8641/153
f 160/8640/152 141/8642/154 171/8641/153
f 124/8613/125 142/8643/155 158/8615/127
f 142/8643/155 164/8644/156 158/8615/127
f 158/8615/127 164/8644/156 159/8645/157
f 164/8644/156 143/8646/158 159/8645/157
f 143/8646/158 164/8644/156 144/8647/159
f 164/8644/156 145/8648/160 144/8647/159
f 144/8647/159 145/8648/160 146/8649/161
f 145/8648/160 162/8650/162 146/8649/161
f 127/8620/132 147/8628/140 131/8618/130
f 147/8628/140 148/8630/142 131/8618/130
f 131/8618/130 148/8630/142 149/8627/139
f 150/8651/163 151/8652/164 152/8653/165
f 151/8652/164 153/8654/166 152/8653/165
f 152/8653/165 153/8654/166 176/8655/167
f 129/8623/135 154/8656/168 155/8614/126
f 154/8656/168 156/8657/169 155/8614/126
f 155/8614/126 156/8657/169 157/8612/124
f 158/8615/127 159/8645/157 160/8640/152
f 160/8640/152 161/8658/170 175/8659/171
f 162/8650/162 145/8648/160 163/8660/172
f 145/8648/160 164/8644/156 163/8660/172
f 163/8660/172 164/8644/156 142/8643/155
f 165/8622/134 166/8661/173 127/8620/132
f 132/8626/138 167/8662/174 174/8625/137
f 167/8662/174 168/8663/175 174/8625/137
f 169/8664/176 174/8625/137 170/8665/177
f 174/8625/137 168/8663/175 170/8665/177
f 171/8641/153 150/8651/163 172/8639/151
f 150/8651/163 152/8653/165 172/8639/151
f 173/8624/136 174/8625/137 169/8664/176
f 141/8642/154 160/8640/152 175/8659/171
f 176/8655/167 140/8638/150 177/8636/148
