mtllib Hair.mtl
o Mesh_0005.rip.016_Mesh_0005.rip_mesh0000.024
v 0.138906 0.155547 0.186680
v 0.183789 0.108906 0.106680
v -0.148164 0.595820 -0.201758
v 0.255000 0.548320 -0.100000
v 0.121719 0.436484 -0.240000
v -0.210898 0.539219 0.000000
v -0.215898 0.628633 0.000000
v 0.130352 0.657852 0.049805
v 0.186992 0.628398 0.049805
v 0.140781 0.681797 0.110898
v 0.149414 0.567813 0.194609
v 0.061875 0.648906 0.144297
v 0.010469 0.713477 0.172031
v 0.006133 0.680000 0.098320
v -0.114961 0.659453 -0.144297
v 0.000000 0.334375 0.263008
v -0.100000 0.300000 0.249375
v 0.281523 0.231914 0.106680
v 0.191055 0.096289 0.000000
v -0.119492 0.600664 0.238437
v -0.116328 0.517891 0.245195
v 0.031172 0.521641 0.247852
v -0.215898 0.628633 0.044805
v 0.147891 0.698203 0.000000
v 0.130352 0.657852 -0.049805
v 0.015313 0.750508 -0.059336
v 0.071250 0.682969 0.000000
v 0.008164 0.695703 0.000000
v -0.116328 0.517891 -0.245195
v -0.055117 0.600039 -0.224180
v -0.119492 0.600664 -0.238437
v 0.140781 0.681797 -0.110898
v -0.129258 0.753789 -0.123477
v -0.112891 0.420000 0.248008
v -0.054258 0.354687 0.000000
v -0.100000 0.300000 -0.249375
v -0.112891 0.420000 -0.248008
v -0.139687 0.554102 0.176992
v 0.000000 0.334375 -0.263008
v -0.139687 0.554102 -0.176992
v 0.000000 0.334375 0.263008
v -0.100000 0.300000 0.249375
v -0.112891 0.420000 0.248008
v 0.255000 0.548320 0.100000
v 0.328906 0.454062 0.000000
v 0.268125 0.559336 0.000000
v 0.186992 0.628398 -0.049805
v 0.170625 0.601719 -0.144297
v 0.046016 0.591602 -0.207148
v -0.120586 0.696680 -0.234414
v 0.006133 0.680000 -0.098320
v 0.013516 0.423906 0.263008
v 0.121719 0.436484 0.240000
v 0.214219 0.511328 0.186641
v 0.170625 0.601719 0.144297
v -0.100000 0.300000 -0.249375
v -0.112891 0.420000 -0.248008
v 0.013516 0.423906 -0.263008
v 0.010469 0.713477 -0.172031
v 0.061875 0.648906 -0.144297
v 0.067031 0.667656 -0.098320
v 0.150938 0.334375 0.246484
v 0.249024 0.431211 0.186680
v 0.316211 0.334375 0.106680
v 0.281523 0.231914 -0.106680
v 0.183789 0.108906 -0.106680
v 0.138906 0.155547 -0.186680
v 0.090234 0.219062 -0.240000
v 0.015313 0.750508 0.059336
v -0.055742 0.664258 0.144297
v -0.148164 0.595820 0.201758
v -0.139687 0.554102 0.176992
v -0.188320 0.551680 0.100000
v -0.198828 0.543594 0.059727
v -0.215898 0.628633 -0.044805
v -0.119648 0.690430 -0.049805
v -0.056055 0.695547 0.049805
v -0.055937 0.683711 0.098320
v -0.114961 0.659453 0.144297
v 0.312813 0.448203 -0.100000
v 0.316211 0.334375 -0.106680
v 0.249024 0.431211 -0.186680
v 0.239453 0.247187 -0.186680
v 0.150938 0.334375 -0.246484
v 0.000000 0.334375 -0.263008
v -0.055117 0.600039 0.224180
v 0.046016 0.591602 0.207148
v 0.067031 0.667656 0.098320
v 0.312813 0.448203 0.100000
v 0.332500 0.334375 0.000000
v 0.296016 0.226641 0.000000
v -0.055937 0.683711 -0.098320
v -0.056055 0.695547 -0.049805
v -0.056094 0.699570 0.000000
v -0.119648 0.690430 0.049805
v -0.129258 0.753789 0.123477
v 0.214219 0.511328 -0.186641
v -0.139687 0.554102 -0.176992
v -0.146211 0.565625 -0.156016
v -0.192539 0.617305 -0.129883
v -0.188320 0.551680 -0.100000
v -0.198828 0.543594 -0.059727
v -0.055742 0.664258 -0.144297
v -0.132226 0.773477 0.000000
v 0.031172 0.521641 -0.247852
v 0.149414 0.567813 -0.194609
v -0.146211 0.565625 0.156016
v -0.192539 0.617305 0.129883
v -0.120586 0.696680 0.234414
v 0.090234 0.219062 0.240000
v 0.239453 0.247187 0.186680
vn 0.9572 -0.2466 0.1515
vn 0.1672 -0.9859 -0.0000
vn 0.3426 -0.9247 0.1663
vn -0.1293 -0.9916 0.0000
vn -0.2033 -0.9791 0.0000
vn 0.1081 -0.9817 -0.1565
vn 0.1629 -0.9363 -0.3112
vn 0.3075 -0.8303 -0.4649
vn -0.9897 0.1430 0.0000
vn -0.8933 -0.2523 0.3718
vn -0.9146 0.1129 0.3883
vn -0.6313 -0.1423 0.7624
vn -0.3269 0.0359 0.9444
vn -0.2551 -0.4786 -0.8401
vn -0.4088 -0.7109 -0.5723
vn -0.3510 -0.9124 -0.2104
vn -0.2907 -0.9339 -0.2083
vn -0.2253 -0.9608 -0.1618
vn -0.3712 -0.9286 0.0000
vn -0.3099 -0.9508 -0.0000
vn 0.1081 -0.9817 0.1565
vn 0.3426 -0.9247 -0.1663
vn -0.5561 -0.3672 0.7456
vn -0.2900 -0.1700 0.9418
vn 0.8379 0.4086 0.3620
vn 0.8934 -0.0822 0.4416
vn 0.8826 0.2406 0.4038
vn 0.9586 0.1618 0.2344
vn 0.1629 -0.9363 0.3112
vn -0.2791 0.2538 -0.9261
vn -0.4556 0.4999 -0.7366
vn -0.7089 0.6123 -0.3501
vn 0.3075 -0.8303 0.4649
vn -0.3390 0.9300 -0.1418
vn 0.4679 0.8414 -0.2703
vn 0.8287 0.5597 0.0000
vn 0.9652 0.1922 -0.1776
vn 0.9503 0.2711 -0.1533
vn 0.9503 0.2711 0.1533
vn 0.9652 0.1922 0.1776
vn -0.3390 0.9300 0.1418
vn 0.4679 0.8414 0.2703
vn 0.1340 0.0031 -0.9910
vn 0.2510 -0.0110 -0.9679
vn 0.0013 0.0250 -0.9997
vn -0.0380 -0.0685 -0.9969
vn -0.3269 0.0359 -0.9444
vn -0.2900 -0.1700 -0.9418
vn -0.6313 -0.1423 -0.7624
vn -0.5561 -0.3672 -0.7456
vn -0.8933 -0.2523 -0.3718
vn -0.7426 -0.5733 -0.3463
vn -0.9614 -0.2751 0.0000
vn -0.7859 -0.6183 0.0000
vn -0.7426 -0.5733 0.3463
vn -0.7000 -0.6975 0.1531
vn -0.6709 -0.5531 0.4938
vn -0.3510 -0.9124 0.2104
vn -0.3893 -0.4600 0.7980
vn -0.2551 -0.4786 0.8401
vn -0.1444 -0.2794 0.9492
vn 0.2510 -0.0110 0.9679
vn 0.5695 -0.0454 0.8207
vn 0.9524 0.2448 0.1815
vn 0.8770 0.1370 0.4606
vn 0.3449 -0.0491 0.9374
vn 0.1575 -0.8008 0.5779
vn -0.1872 -0.3481 0.9186
vn 0.1092 -0.8627 0.4939
vn -0.1269 -0.9037 0.4090
vn -0.2108 -0.9293 0.3032
vn -0.1225 -0.9381 0.3239
vn -0.1355 -0.9781 0.1580
vn 0.9524 0.2448 -0.1815
vn 0.5695 -0.0454 -0.8207
vn -0.1444 -0.2794 -0.9492
vn -0.3893 -0.4600 -0.7980
vn -0.6709 -0.5531 -0.4938
vn -0.7000 -0.6975 -0.1531
vn 0.1340 0.0031 0.9910
vn 0.0013 0.0250 0.9997
vn -0.0380 -0.0685 0.9969
vn -0.4088 -0.7109 0.5723
vn -0.2907 -0.9339 0.2083
vn -0.2253 -0.9608 0.1618
vn -0.6265 0.3145 -0.7132
vn -0.9146 0.1129 -0.3883
vn -0.8348 0.4539 -0.3115
vn -0.8777 0.4793 0.0000
vn -0.7814 0.6240 0.0000
vn -0.8348 0.4539 0.3115
vn -0.7089 0.6123 0.3501
vn -0.6265 0.3145 0.7132
vn -0.4556 0.4999 0.7366
vn -0.2791 0.2538 0.9261
vn -0.1355 -0.9781 -0.1580
vn -0.1225 -0.9381 -0.3239
vn -0.2108 -0.9293 -0.3032
vn -0.1269 -0.9037 -0.4090
vn 0.1092 -0.8627 -0.4939
vn -0.1872 -0.3481 -0.9186
vn 0.1575 -0.8008 -0.5779
vn 0.3449 -0.0491 -0.9374
vn 0.8770 0.1370 -0.4606
vn 0.8379 0.4086 -0.3620
vn 0.8826 0.2406 -0.4038
vn 0.8934 -0.0822 -0.4416
vn 0.9586 0.1618 -0.2344
vn 0.9572 -0.2466 -0.1515
vn 0.9917 0.1286 0.0000
vn 0.9727 -0.2319 0.0000
usemtl Material.013
s 1
f 17/955/43 43/956/44 16/957/45
f 43/956/44 52/958/46 16/957/45
f 16/957/45 52/958/46 62/959/47
f 52/958/46 53/960/48 62/959/47
f 62/959/47 53/960/48 63/961/49
f 53/960/48 54/962/50 63/961/49
f 63/961/49 54/962/50 89/963/51
f 54/962/50 44/964/52 89/963/51
f 89/963/51 44/964/52 45/965/53
f 44/964/52 46/966/54 45/965/53
f 45/965/53 46/966/54 4/967/55
f 46/966/54 47/968/56 4/967/55
f 4/967/55 47/968/56 48/969/57
f 47/968/56 32/970/58 48/969/57
f 48/969/57 32/970/58 106/971/59
f 32/970/58 49/972/60 106/971/59
f 106/971/59 49/972/60 105/973/61
f 57/974/62 29/975/63 98/976/64
f 98/976/64 29/975/63 3/977/65
f 29/975/63 31/978/66 3/977/65
f 3/977/65 31/978/66 50/979/67
f 31/978/66 30/980/68 50/979/67
f 50/979/67 30/980/68 103/981/69
f 30/980/68 59/982/70 103/981/69
f 103/981/69 59/982/70 92/983/71
f 59/982/70 51/984/72 92/983/71
f 92/983/71 51/984/72 26/985/73
f 72/986/74 21/987/75 43/956/44
f 43/956/44 21/987/75 52/958/46
f 21/987/75 22/988/76 52/958/46
f 52/958/46 22/988/76 53/960/48
f 22/988/76 11/989/77 53/960/48
f 53/960/48 11/989/77 54/962/50
f 11/989/77 55/990/78 54/962/50
f 54/962/50 55/990/78 44/964/52
f 55/990/78 9/991/79 44/964/52
f 44/964/52 9/991/79 46/966/54
f 9/991/79 47/968/56 46/966/54
f 56/992/80 85/993/81 57/974/62
f 85/993/81 58/994/82 57/974/62
f 57/974/62 58/994/82 29/975/63
f 58/994/82 105/973/61 29/975/63
f 29/975/63 105/973/61 30/980/68
f 105/973/61 49/972/60 30/980/68
f 30/980/68 49/972/60 59/982/70
f 49/972/60 60/995/83 59/982/70
f 59/982/70 60/995/83 61/996/84
f 60/995/83 32/970/58 61/996/84
f 61/996/84 32/970/58 25/997/85
f 62/959/47 63/961/49 111/998/86
f 63/961/49 64/999/87 111/998/86
f 111/998/86 64/999/87 18/1000/88
f 64/999/87 91/1001/89 18/1000/88
f 18/1000/88 91/1001/89 19/1002/90
f 91/1001/89 65/1003/91 19/1002/90
f 19/1002/90 65/1003/91 66/1004/92
f 65/1003/91 83/1005/93 66/1004/92
f 66/1004/92 83/1005/93 67/1006/94
f 83/1005/93 68/1007/95 67/1006/94
f 69/1008/96 14/1009/97 78/1010/98
f 14/1009/97 13/1011/99 78/1010/98
f 78/1010/98 13/1011/99 70/1012/100
f 13/1011/99 86/1013/101 70/1012/100
f 70/1012/100 86/1013/101 109/1014/102
f 86/1013/101 20/1015/103 109/1014/102
f 109/1014/102 20/1015/103 71/1016/104
f 20/1015/103 21/987/75 71/1016/104
f 71/1016/104 21/987/75 72/986/74
f 107/1017/105 73/1018/106 108/1019/107
f 73/1018/106 74/1020/108 108/1019/107
f 108/1019/107 74/1020/108 23/1021/109
f 74/1020/108 6/1022/110 23/1021/109
f 23/1021/109 6/1022/110 7/1023/111
f 6/1022/110 75/1024/1 7/1023/111
f 7/1023/111 75/1024/1 104/1025/2
f 75/1024/1 76/1026/3 104/1025/2
f 26/985/73 28/1027/4 94/1028/5
f 28/1027/4 69/1008/96 94/1028/5
f 94/1028/5 69/1008/96 77/1029/6
f 69/1008/96 78/1010/98 77/1029/6
f 77/1029/6 78/1010/98 96/1030/7
f 78/1010/98 70/1012/100 96/1030/7
f 96/1030/7 70/1012/100 79/1031/8
f 70/1012/100 109/1014/102 79/1031/8
f 89/963/51 45/965/53 90/1032/9
f 45/965/53 80/1033/10 90/1032/9
f 90/1032/9 80/1033/10 81/1034/11
f 80/1033/10 82/1035/12 81/1034/11
f 81/1034/11 82/1035/12 83/1005/93
f 82/1035/12 84/1036/13 83/1005/93
f 83/1005/93 84/1036/13 68/1007/95
f 84/1036/13 85/993/81 68/1007/95
f 86/1013/101 13/1011/99 87/1037/14
f 13/1011/99 12/1038/15 87/1037/14
f 87/1037/14 12/1038/15 10/1039/16
f 12/1038/15 88/1040/17 10/1039/16
f 10/1039/16 88/1040/17 8/1041/18
f 88/1040/17 27/1042/19 8/1041/18
f 8/1041/18 27/1042/19 24/1043/20
f 27/1042/19 25/997/85 24/1043/20
f 63/961/49 89/963/51 64/999/87
f 89/963/51 90/1032/9 64/999/87
f 64/999/87 90/1032/9 91/1001/89
f 90/1032/9 81/1034/11 91/1001/89
f 91/1001/89 81/1034/11 65/1003/91
f 81/1034/11 83/1005/93 65/1003/91
f 92/983/71 26/985/73 93/1044/21
f 26/985/73 94/1028/5 93/1044/21
f 93/1044/21 94/1028/5 104/1025/2
f 94/1028/5 77/1029/6 104/1025/2
f 104/1025/2 77/1029/6 95/1045/22
f 77/1029/6 96/1030/7 95/1045/22
f 45/965/53 4/967/55 80/1033/10
f 4/967/55 97/1046/23 80/1033/10
f 80/1033/10 97/1046/23 82/1035/12
f 97/1046/23 5/1047/24 82/1035/12
f 82/1035/12 5/1047/24 84/1036/13
f 98/976/64 3/977/65 99/1048/25
f 3/977/65 100/1049/26 99/1048/25
f 99/1048/25 100/1049/26 101/1050/27
f 100/1049/26 102/1051/28 101/1050/27
f 103/981/69 92/983/71 33/1052/29
f 92/983/71 93/1044/21 33/1052/29
f 33/1052/29 93/1044/21 76/1026/3
f 93/1044/21 104/1025/2 76/1026/3
f 85/993/81 84/1036/13 58/994/82
f 84/1036/13 5/1047/24 58/994/82
f 58/994/82 5/1047/24 105/973/61
f 5/1047/24 106/971/59 105/973/61
f 72/986/74 107/1017/105 71/1016/104
f 107/1017/105 108/1019/107 71/1016/104
f 71/1016/104 108/1019/107 109/1014/102
f 108/1019/107 79/1031/8 109/1014/102
f 16/957/45 62/959/47 110/1053/30
f 62/959/47 111/998/86 110/1053/30
f 110/1053/30 111/998/86 1/1054/31
f 111/998/86 2/1055/32 1/1054/31
f 3/977/65 50/979/67 100/1049/26
f 50/979/67 15/1056/33 100/1049/26
f 100/1049/26 15/1056/33 33/1052/29
f 4/967/55 48/969/57 97/1046/23
f 48/969/57 106/971/59 97/1046/23
f 97/1046/23 106/971/59 5/1047/24
f 6/1022/110 102/1051/28 75/1024/1
f 102/1051/28 100/1049/26 75/1024/1
f 75/1024/1 100/1049/26 33/1052/29
f 7/1023/111 104/1025/2 23/1021/109
f 104/1025/2 95/1045/22 23/1021/109
f 23/1021/109 95/1045/22 96/1030/7
f 8/1041/18 9/991/79 10/1039/16
f 9/991/79 55/990/78 10/1039/16
f 10/1039/16 55/990/78 11/989/77
f 10/1039/16 11/989/77 87/1037/14
f 11/989/77 22/988/76 87/1037/14
f 87/1037/14 22/988/76 86/1013/101
f 12/1038/15 13/1011/99 88/1040/17
f 13/1011/99 14/1009/97 88/1040/17
f 88/1040/17 14/1009/97 69/1008/96
f 50/979/67 103/981/69 15/1056/33
f 103/981/69 33/1052/29 15/1056/33
f 59/982/70 61/996/84 51/984/72
f 61/996/84 26/985/73 51/984/72
f 111/998/86 18/1000/88 2/1055/32
f 18/1000/88 19/1002/90 2/1055/32
f 20/1015/103 86/1013/101 21/987/75
f 86/1013/101 22/988/76 21/987/75
f 79/1031/8 108/1019/107 96/1030/7
f 108/1019/107 23/1021/109 96/1030/7
f 47/968/56 9/991/79 24/1043/20
f 9/991/79 8/1041/18 24/1043/20
f 32/970/58 47/968/56 25/997/85
f 47/968/56 24/1043/20 25/997/85
f 25/997/85 27/1042/19 61/996/84
f 27/1042/19 26/985/73 61/996/84
f 26/985/73 27/1042/19 28/1027/4
f 27/1042/19 69/1008/96 28/1027/4
f 29/975/63 30/980/68 31/978/66
f 49/972/60 32/970/58 60/995/83
f 75/1024/1 33/1052/29 76/1026/3
f 27/1042/19 88/1040/17 69/1008/96
f 39/1057/34 36/1058/35 35/1059/36
f 36/1058/35 37/1060/37 35/1059/36
f 35/1059/36 37/1060/37 40/1061/38
f 35/1059/36 38/1062/39 34/1063/40
f 41/1064/41 35/1059/36 42/1065/42
f 35/1059/36 34/1063/40 42/1065/42
