mtllib Hair.mtl
o Mesh_0005.rip.015_Mesh_0005.rip_mesh0000.023
v 0.255000 0.548320 -0.100000
v 0.328906 0.454062 0.000000
v 0.255000 0.548320 0.100000
v 0.316211 0.334375 0.106680
v 0.239453 0.247187 0.186680
v 0.183789 0.108906 0.106680
v 0.191055 0.096289 0.000000
v 0.059570 0.672148 0.000000
v -0.045937 0.595000 -0.176992
v 0.027031 0.518516 -0.240000
v 0.013516 0.423906 -0.263008
v 0.090234 0.219062 -0.240000
v -0.090273 0.462227 -0.240000
v -0.139687 0.554102 -0.176992
v -0.054922 0.645781 -0.100000
v -0.163672 0.596328 -0.100000
v -0.163672 0.596328 0.100000
v 0.296016 0.226641 0.000000
v 0.332500 0.334375 0.000000
v 0.312813 0.448203 -0.100000
v 0.249024 0.431211 0.186680
v 0.166445 0.622617 0.100000
v 0.268125 0.559336 0.000000
v 0.175000 0.637461 0.000000
v 0.138906 0.155547 0.186680
v 0.090234 0.219062 0.240000
v 0.150938 0.334375 0.246484
v 0.000000 0.334375 0.263008
v 0.027031 0.518516 0.240000
v -0.045937 0.595000 0.176992
v 0.149414 0.567813 -0.176992
v 0.121719 0.436484 -0.240000
v 0.249024 0.431211 -0.186680
v 0.150938 0.334375 -0.246484
v 0.239453 0.247187 -0.186680
v 0.316211 0.334375 -0.106680
v 0.281523 0.231914 -0.106680
v 0.281523 0.231914 0.106680
v -0.156289 0.522305 -0.176992
v -0.191758 0.545469 -0.100000
v -0.090273 0.334375 0.240000
v 0.013516 0.423906 0.263008
v -0.057734 0.661797 0.000000
v -0.139687 0.554102 0.176992
v -0.156289 0.522305 0.176992
v 0.056641 0.655625 -0.100000
v 0.312813 0.448203 0.100000
v 0.056641 0.655625 0.100000
v 0.149414 0.567813 0.176992
v 0.000000 0.334375 -0.263008
v -0.090273 0.334375 -0.240000
v -0.090273 0.462227 0.240000
v -0.054922 0.645781 0.100000
v 0.121719 0.436484 0.240000
v 0.138906 0.155547 -0.186680
v -0.202969 0.553984 0.000000
v -0.171914 0.611953 0.000000
v -0.191758 0.545469 0.100000
v 0.183789 0.108906 -0.106680
v 0.166445 0.622617 -0.100000
vn -0.3488 -0.5797 0.7364
vn -0.4344 -0.8165 0.3803
vn -0.7041 -0.5866 0.4002
vn -0.7660 -0.6428 -0.0000
vn -0.9614 -0.2751 -0.0000
vn -0.7041 -0.5866 -0.4002
vn -0.8875 -0.2595 -0.3807
vn -0.6136 -0.2080 -0.7617
vn -0.9146 0.1129 -0.3883
vn -0.6265 0.3145 -0.7132
vn -0.8348 0.4539 -0.3115
vn -0.7089 0.6123 -0.3501
vn -0.7814 0.6240 0.0000
vn 0.2353 -0.9040 -0.3571
vn 0.2500 -0.9683 -0.0000
vn -0.1032 -0.9947 -0.0000
vn 0.2353 -0.9040 0.3571
vn 0.1477 -0.6921 0.7066
vn -0.0469 -0.4469 0.8933
vn -0.2924 -0.2294 0.9284
vn 0.0125 -0.1130 0.9935
vn -0.3269 0.0359 0.9444
vn 0.0432 0.0153 0.9989
vn -0.2791 0.2538 0.9261
vn 0.2265 -0.2743 0.9346
vn 0.5058 -0.5285 0.6818
vn 0.6363 -0.6930 0.3388
vn 0.6716 -0.7409 -0.0000
vn 0.6363 -0.6930 -0.3388
vn 0.8795 -0.4759 0.0000
vn 0.8300 -0.4584 -0.3178
vn -0.8777 0.4793 0.0000
vn -0.9897 0.1430 0.0000
vn -0.9146 0.1129 0.3883
vn -0.8875 -0.2595 0.3807
vn -0.6136 -0.2080 0.7617
vn -0.3488 -0.5797 -0.7364
vn -0.4344 -0.8165 -0.3803
vn -0.4755 -0.8797 -0.0000
vn -0.4556 0.4999 -0.7366
vn -0.2791 0.2538 -0.9261
vn -0.3269 0.0359 -0.9444
vn 0.0432 0.0153 -0.9989
vn 0.0125 -0.1130 -0.9935
vn -0.2924 -0.2294 -0.9284
vn -0.0469 -0.4469 -0.8933
vn 0.1477 -0.6921 -0.7066
vn -0.6265 0.3145 0.7132
vn -0.4556 0.4999 0.7366
vn -0.8348 0.4539 0.3115
vn 0.6564 -0.3468 0.6700
vn 0.8300 -0.4584 0.3178
vn 0.2300 -0.0166 -0.9730
vn 0.2265 -0.2743 -0.9346
vn 0.5058 -0.5285 -0.6818
vn 0.6564 -0.3468 -0.6700
vn -0.0979 -0.9082 -0.4070
vn 0.2300 -0.0166 0.9730
vn -0.7089 0.6123 0.3501
vn -0.0979 -0.9082 0.4070
usemtl Material.013
s 1
f 46/895/60 31/896/1 60/897/2
f 31/896/1 1/898/3 60/897/2
f 60/897/2 1/898/3 23/899/4
f 1/898/3 2/900/5 23/899/4
f 23/899/4 2/900/5 3/901/6
f 2/900/5 47/902/7 3/901/6
f 3/901/6 47/902/7 21/903/8
f 47/902/7 4/904/9 21/903/8
f 21/903/8 4/904/9 5/905/10
f 4/904/9 38/906/11 5/905/10
f 5/905/10 38/906/11 6/907/12
f 38/906/11 7/908/13 6/907/12
f 53/909/14 43/910/15 8/911/16
f 43/910/15 15/912/17 8/911/16
f 8/911/16 15/912/17 46/895/60
f 15/912/17 9/913/18 46/895/60
f 46/895/60 9/913/18 31/896/1
f 9/913/18 10/914/19 31/896/1
f 31/896/1 10/914/19 32/915/20
f 10/914/19 11/916/21 32/915/20
f 32/915/20 11/916/21 34/917/22
f 11/916/21 50/918/23 34/917/22
f 34/917/22 50/918/23 12/919/24
f 11/916/21 10/914/19 13/920/25
f 10/914/19 9/913/18 13/920/25
f 13/920/25 9/913/18 14/921/26
f 9/913/18 15/912/17 14/921/26
f 14/921/26 15/912/17 16/922/27
f 15/912/17 43/910/15 16/922/27
f 16/922/27 43/910/15 57/923/28
f 43/910/15 17/924/29 57/923/28
f 57/923/28 17/924/29 56/925/30
f 17/924/29 58/926/31 56/925/30
f 38/906/11 4/904/9 18/927/32
f 4/904/9 19/928/33 18/927/32
f 18/927/32 19/928/33 36/929/34
f 19/928/33 20/930/35 36/929/34
f 36/929/34 20/930/35 33/931/36
f 20/930/35 1/898/3 33/931/36
f 33/931/36 1/898/3 31/896/1
f 21/903/8 49/932/37 3/901/6
f 49/932/37 22/933/38 3/901/6
f 3/901/6 22/933/38 23/899/4
f 22/933/38 24/934/39 23/899/4
f 23/899/4 24/934/39 60/897/2
f 24/934/39 46/895/60 60/897/2
f 6/907/12 25/935/40 5/905/10
f 25/935/40 26/936/41 5/905/10
f 5/905/10 26/936/41 27/937/42
f 26/936/41 28/938/43 27/937/42
f 27/937/42 28/938/43 42/939/44
f 5/905/10 27/937/42 21/903/8
f 27/937/42 54/940/45 21/903/8
f 21/903/8 54/940/45 49/932/37
f 54/940/45 29/941/46 49/932/37
f 49/932/37 29/941/46 30/942/47
f 31/896/1 32/915/20 33/931/36
f 32/915/20 34/917/22 33/931/36
f 33/931/36 34/917/22 35/943/48
f 34/917/22 12/919/24 35/943/48
f 35/943/48 12/919/24 55/944/49
f 33/931/36 35/943/48 36/929/34
f 35/943/48 37/945/50 36/929/34
f 36/929/34 37/945/50 18/927/32
f 37/945/50 7/908/13 18/927/32
f 18/927/32 7/908/13 38/906/11
f 13/920/25 14/921/26 39/946/51
f 14/921/26 16/922/27 39/946/51
f 39/946/51 16/922/27 40/947/52
f 16/922/27 56/925/30 40/947/52
f 28/938/43 41/948/53 42/939/44
f 41/948/53 52/949/54 42/939/44
f 42/939/44 52/949/54 29/941/46
f 52/949/54 30/942/47 29/941/46
f 43/910/15 53/909/14 17/924/29
f 53/909/14 44/950/55 17/924/29
f 17/924/29 44/950/55 45/951/56
f 44/950/55 52/949/54 45/951/56
f 46/895/60 24/934/39 8/911/16
f 24/934/39 48/952/57 8/911/16
f 8/911/16 48/952/57 53/909/14
f 48/952/57 30/942/47 53/909/14
f 1/898/3 20/930/35 2/900/5
f 20/930/35 19/928/33 2/900/5
f 2/900/5 19/928/33 47/902/7
f 19/928/33 4/904/9 47/902/7
f 24/934/39 22/933/38 48/952/57
f 22/933/38 49/932/37 48/952/57
f 48/952/57 49/932/37 30/942/47
f 50/918/23 11/916/21 51/953/58
f 11/916/21 13/920/25 51/953/58
f 52/949/54 44/950/55 30/942/47
f 44/950/55 53/909/14 30/942/47
f 27/937/42 42/939/44 54/940/45
f 42/939/44 29/941/46 54/940/45
f 55/944/49 59/954/59 35/943/48
f 59/954/59 37/945/50 35/943/48
f 56/925/30 16/922/27 57/923/28
f 17/924/29 45/951/56 58/926/31
f 37/945/50 59/954/59 7/908/13
