mtllib Hair.mtl
o Mesh_0005.rip.064_Mesh_0005.rip_mesh0000.076
v -0.102930 0.275625 0.247266
v -0.200000 0.360000 0.233555
v -0.080820 0.434180 0.277187
v -0.093320 0.517266 0.255039
v -0.048672 0.610625 0.187617
v 0.158399 0.581836 0.187617
v 0.284219 0.572851 0.000000
v 0.176406 0.639922 -0.106016
v 0.270274 0.561172 -0.106016
v 0.158399 0.581836 -0.187617
v 0.161094 0.448633 -0.265742
v 0.173828 0.341289 -0.269492
v -0.074414 0.243359 -0.271211
v -0.235000 0.440000 0.213281
v -0.235000 0.500000 0.194805
v -0.125703 0.600781 0.186992
v -0.220898 0.642539 0.108555
v -0.151758 0.656289 0.109219
v -0.053320 0.680000 0.104609
v -0.053320 0.697305 0.000000
v -0.048672 0.610625 -0.187617
v 0.066953 0.350703 -0.295859
v 0.307188 0.190820 -0.103398
v 0.348633 0.461250 0.000000
v 0.270274 0.561172 0.106016
v 0.176406 0.639922 0.106016
v -0.220976 0.558320 0.177031
v -0.265195 0.643125 0.000078
v -0.160000 0.686797 0.000000
v -0.151758 0.656289 -0.109219
v -0.093281 0.517305 -0.255000
v 0.028672 0.529570 -0.254414
v 0.054336 0.439922 -0.290312
v 0.059297 -0.021875 0.289297
v 0.034766 0.296719 0.121211
v 0.034766 0.296719 -0.121211
v -0.000195 0.019023 -0.156055
v -0.143906 0.057500 -0.342422
v 0.292266 -0.019258 -0.117617
v 0.303008 0.085469 -0.099102
v 0.327578 0.188867 0.000000
v 0.335195 0.334375 -0.113086
v 0.331563 0.455039 -0.106016
v 0.244453 0.073008 0.186914
v 0.140391 0.069922 0.248594
v 0.156914 0.206016 0.254648
v 0.044336 0.167422 0.281602
v 0.054297 0.254102 0.282422
v -0.090664 0.169922 0.275937
v -0.074414 0.243359 0.271211
v 0.060039 0.674883 -0.106016
v 0.185508 0.655664 0.000000
v 0.063125 0.692422 0.000000
v 0.060039 0.674883 0.106016
v -0.258086 0.543359 -0.183359
v -0.195391 0.446875 -0.243164
v 0.054297 0.254102 -0.282422
v 0.156914 0.206016 -0.254648
v 0.044336 0.167422 -0.281602
v 0.059297 -0.021875 -0.289297
v -0.048555 0.010000 -0.326797
v 0.352461 0.334375 0.000000
v -0.077305 0.358828 0.283437
v 0.054336 0.439922 0.290312
v 0.066953 0.350703 0.295859
v 0.161094 0.448633 0.265742
v 0.173828 0.341289 0.269492
v 0.335195 0.334375 0.113086
v 0.203945 -0.029258 0.206523
v 0.059297 -0.021875 0.289297
v -0.116250 0.105000 0.300352
v -0.220976 0.558320 0.177031
v -0.235000 0.500000 0.194805
v -0.235000 0.440000 0.213281
v -0.000195 0.019023 0.156055
v 0.276250 0.337930 0.210117
v 0.028672 0.529570 0.255000
v 0.331563 0.455039 0.106016
v 0.261484 0.453320 -0.206523
v 0.276250 0.337930 -0.210117
v 0.244648 0.196836 -0.197539
v 0.244453 0.073008 -0.186914
v -0.102891 0.275625 -0.247305
v -0.175156 0.333242 -0.230000
v -0.238945 0.392031 -0.201445
v -0.300703 0.458125 -0.147539
v 0.244648 0.196836 0.197539
v -0.295078 0.560547 0.106523
v -0.325195 0.536758 0.011563
v -0.327422 0.500664 -0.071875
v -0.284258 0.608242 -0.101172
v -0.125703 0.600859 -0.186992
v 0.292266 -0.019258 -0.117617
v 0.335000 -0.007500 -0.000000
v 0.103789 0.001016 0.062695
v 0.292266 -0.019258 0.117617
v 0.203945 -0.029258 0.206523
v -0.090664 0.169922 0.275937
v -0.116250 0.105000 0.300352
v -0.079922 0.038945 0.214609
v -0.143906 0.057500 0.342422
v -0.048555 0.010000 0.326797
v -0.048555 0.010000 0.326797
v 0.014375 0.085742 0.289805
v -0.143906 0.057500 0.342422
v -0.300703 0.458125 -0.147539
v -0.327422 0.500664 -0.071875
v -0.325195 0.536758 0.011563
v -0.295078 0.560547 0.106523
v -0.200000 0.360000 0.233555
v -0.102930 0.275625 0.247266
v -0.077305 0.358828 0.283437
v -0.074414 0.243359 0.271211
v -0.108125 0.540000 0.140000
v -0.238945 0.392031 -0.201445
v 0.203945 -0.029258 -0.206523
v 0.140391 0.069922 -0.248594
v -0.090664 0.169922 -0.275937
v 0.014375 0.085742 -0.289805
v 0.324023 0.092148 0.000000
v 0.303008 0.085469 0.099102
v 0.335000 -0.007500 -0.000000
v 0.292266 -0.019258 0.117617
v 0.307188 0.190820 0.103398
v -0.143906 0.057500 -0.342422
v -0.116250 0.105000 -0.300352
v -0.077305 0.358828 -0.283437
v -0.074414 0.243359 -0.271211
v -0.090664 0.169922 -0.275937
v -0.079922 0.038945 -0.214609
v -0.048555 0.010000 -0.326797
v 0.059297 -0.021875 -0.289297
v 0.103789 0.001016 -0.062695
v 0.203945 -0.029258 -0.206523
v -0.175156 0.333242 -0.230000
v -0.102891 0.275625 -0.247305
v -0.077305 0.358828 -0.283437
v -0.080781 0.434219 -0.277187
v -0.053320 0.680000 -0.104609
v -0.116250 0.105000 -0.300352
v 0.261484 0.453320 0.206523
vn 0.3644 0.2746 -0.8898
vn 0.3792 0.0250 -0.9250
vn 0.2236 0.0490 -0.9735
vn 0.2399 -0.1464 -0.9597
vn -0.0644 -0.2182 -0.9738
vn 0.2215 -0.3947 -0.8917
vn -0.0677 -0.5235 -0.8493
vn 0.0211 -0.6989 -0.7149
vn -0.3355 -0.6261 -0.7039
vn -0.1441 -0.8952 -0.4218
vn -0.4343 -0.8165 -0.3803
vn -0.4755 -0.8797 -0.0000
vn -0.7661 -0.6428 -0.0000
vn -0.4343 -0.8165 0.3803
vn -0.7046 -0.6008 0.3777
vn -0.3349 -0.6258 0.7044
vn -0.6445 -0.2882 0.7082
vn -0.3450 -0.2771 0.8968
vn -0.3758 0.0389 0.9259
vn -0.0858 0.0371 0.9956
vn -0.0788 0.0832 0.9934
vn 0.0903 0.0045 0.9959
vn 0.0502 -0.2340 0.9710
vn 0.3691 -0.1961 -0.9085
vn 0.3875 -0.2968 -0.8728
vn 0.4183 -0.4967 -0.7604
vn 0.2044 -0.6544 -0.7280
vn 0.4405 -0.7707 -0.4605
vn 0.1832 -0.8718 -0.4543
vn 0.2554 -0.9667 0.0187
vn 0.0583 -0.9078 -0.4153
vn 0.0279 -0.9996 0.0000
vn -0.1665 -0.9860 -0.0000
vn 0.0582 -0.9079 0.4152
vn -0.1441 -0.8952 0.4218
vn 0.0202 -0.6983 0.7155
vn -0.0685 -0.5246 0.8486
vn -0.0646 -0.2204 0.9733
vn 0.2254 0.0653 0.9721
vn -0.5837 0.0828 0.8078
vn -0.8551 0.0559 0.5154
vn -0.6904 0.0664 0.7204
vn -0.9180 0.0154 0.3962
vn -0.6831 0.1403 0.7167
vn -0.9154 0.1316 0.3805
vn -0.7066 0.0415 0.7064
vn -0.9322 0.0638 0.3563
vn -0.8986 -0.2554 0.3567
vn -0.9614 -0.2751 0.0000
vn -0.7046 -0.6008 -0.3777
vn 0.7375 -0.5634 -0.3725
vn 0.6308 -0.7758 -0.0144
vn 0.2649 -0.8509 0.4537
vn 0.1979 -0.6722 0.7134
vn 0.1707 -0.4192 0.8917
vn 0.2486 0.9515 0.1811
vn 0.1287 0.9797 0.1536
vn 0.5477 0.6245 0.5568
vn 0.5451 0.8123 0.2073
vn 0.8182 0.2227 0.5300
vn 0.5451 0.8123 -0.2073
vn 0.7850 0.4058 -0.4682
vn 0.5477 0.6245 -0.5568
vn 0.7284 0.4716 -0.4970
vn 0.3900 0.9125 -0.1234
vn 0.8052 0.4914 -0.3318
vn -0.9993 -0.0363 -0.0000
vn -0.9995 -0.0307 -0.0000
vn -0.9935 0.1135 0.0000
vn -0.9978 0.0665 0.0000
vn -0.8551 0.0559 -0.5154
vn -0.5837 0.0828 -0.8078
vn -0.6904 0.0664 -0.7204
vn -0.4258 0.0342 -0.9042
vn -0.3800 0.1115 -0.9182
vn -0.1464 -0.0090 -0.9892
vn -0.0788 0.0832 -0.9934
vn 0.0502 -0.2340 -0.9710
vn 0.0903 0.0045 -0.9959
vn 0.9087 -0.2875 0.3026
vn 0.7831 -0.1255 0.6091
vn 0.5892 -0.3837 0.7111
vn 0.4674 -0.0659 0.8816
vn 0.1830 -0.1474 0.9720
vn -0.3800 0.1115 0.9182
vn -0.1464 -0.0090 0.9892
vn -0.4258 0.0342 0.9042
vn -0.2501 -0.1269 0.9599
vn -0.3876 -0.0840 0.9180
vn -0.3048 -0.2014 0.9309
vn -0.9154 0.1316 -0.3805
vn -0.9322 0.0638 -0.3563
vn -0.8986 -0.2554 -0.3567
vn -0.0858 0.0371 -0.9956
vn -0.3457 -0.2765 -0.8967
vn -0.3758 0.0389 -0.9259
vn -0.6445 -0.2882 -0.7082
vn -0.7066 0.0415 -0.7064
vn -0.3876 -0.0840 -0.9180
vn -0.2501 -0.1269 -0.9599
vn -0.0980 -0.4705 -0.8769
vn 0.1492 0.9579 -0.2452
vn 0.2918 0.8274 0.4799
vn 0.4740 0.7895 0.3898
vn 0.3780 0.2043 0.9030
vn 0.4502 0.3094 0.8376
vn 0.4809 0.4688 0.7409
vn 0.8214 -0.1040 0.5608
vn 0.8371 -0.1655 0.5213
vn 0.7284 0.4716 0.4970
vn 0.3900 0.9125 0.1234
vn 0.4117 0.2535 0.8753
vn 0.4556 0.2046 0.8664
vn 0.6171 0.1033 0.7800
vn -0.6831 0.1403 -0.7167
vn 0.8927 -0.4503 -0.0202
vn 0.6816 -0.6286 0.3746
vn 0.0650 0.9878 -0.1417
vn 0.0634 0.9980 0.0000
vn 0.0650 0.9878 0.1417
vn 0.8719 -0.1324 0.4714
vn 0.8052 0.4914 0.3318
vn -0.3048 -0.2014 -0.9309
vn -0.2079 -0.4514 -0.8677
vn 0.3492 0.8133 -0.4655
vn 0.2331 0.8839 -0.4054
vn 0.2022 0.9089 -0.3647
vn -0.0232 0.9898 0.1403
vn 0.4237 0.9042 -0.0535
vn 0.4250 0.7406 -0.5205
vn 0.4378 0.7516 -0.4934
vn -0.0980 -0.4705 0.8769
vn -0.9180 0.0154 -0.3962
vn -0.2079 -0.4514 0.8677
vn 0.4235 0.9043 0.0536
vn 0.8214 -0.1040 -0.5608
vn 0.8371 -0.1655 -0.5213
vn 0.8719 -0.1324 -0.4714
vn 0.2486 0.9515 -0.1811
vn 0.1287 0.9797 -0.1536
vn -0.0731 0.9936 -0.0864
usemtl Material.013
s 1
f 1/6872/1 2/6873/2 63/6874/3
f 2/6873/2 3/6875/4 63/6874/3
f 63/6874/3 3/6875/4 64/6876/5
f 3/6875/4 4/6877/6 64/6876/5
f 64/6876/5 4/6877/6 77/6878/7
f 4/6877/6 5/6879/8 77/6878/7
f 77/6878/7 5/6879/8 6/6880/9
f 5/6879/8 54/6881/10 6/6880/9
f 6/6880/9 54/6881/10 26/6882/11
f 54/6881/10 52/6883/12 26/6882/11
f 26/6882/11 52/6883/12 7/6884/13
f 52/6883/12 8/6885/14 7/6884/13
f 7/6884/13 8/6885/14 9/6886/15
f 8/6885/14 10/6887/16 9/6886/15
f 9/6886/15 10/6887/16 79/6888/17
f 10/6887/16 11/6889/18 79/6888/17
f 79/6888/17 11/6889/18 12/6890/19
f 11/6889/18 22/6891/20 12/6890/19
f 12/6890/19 22/6891/20 57/6892/21
f 22/6891/20 13/6893/22 57/6892/21
f 57/6892/21 13/6893/22 118/6894/23
f 2/6873/2 14/6895/24 3/6875/4
f 14/6895/24 15/6896/25 3/6875/4
f 3/6875/4 15/6896/25 4/6877/6
f 15/6896/25 27/6897/26 4/6877/6
f 4/6877/6 27/6897/26 16/6898/27
f 27/6897/26 17/6899/28 16/6898/27
f 16/6898/27 17/6899/28 18/6900/29
f 17/6899/28 29/6901/30 18/6900/29
f 18/6900/29 29/6901/30 19/6902/31
f 29/6901/30 20/6903/32 19/6902/31
f 19/6902/31 20/6903/32 53/6904/33
f 20/6903/32 139/6905/34 53/6904/33
f 53/6904/33 139/6905/34 51/6906/35
f 139/6905/34 21/6907/36 51/6906/35
f 51/6906/35 21/6907/36 10/6887/16
f 21/6907/36 32/6908/37 10/6887/16
f 10/6887/16 32/6908/37 11/6889/18
f 32/6908/37 33/6909/38 11/6889/18
f 11/6889/18 33/6909/38 22/6891/20
f 33/6909/38 137/6910/39 22/6891/20
f 22/6891/20 137/6910/39 13/6893/22
f 116/6911/40 39/6912/41 82/6913/42
f 39/6912/41 40/6914/43 82/6913/42
f 82/6913/42 40/6914/43 81/6915/44
f 40/6914/43 23/6916/45 81/6915/44
f 81/6915/44 23/6916/45 80/6917/46
f 23/6916/45 42/6918/47 80/6917/46
f 80/6917/46 42/6918/47 79/6888/17
f 42/6918/47 43/6919/48 79/6888/17
f 79/6888/17 43/6919/48 9/6886/15
f 43/6919/48 24/6920/49 9/6886/15
f 9/6886/15 24/6920/49 7/6884/13
f 24/6920/49 25/6921/50 7/6884/13
f 7/6884/13 25/6921/50 26/6882/11
f 25/6921/50 6/6880/9 26/6882/11
f 27/6897/26 88/6922/51 17/6899/28
f 88/6922/51 28/6923/52 17/6899/28
f 17/6899/28 28/6923/52 29/6901/30
f 28/6923/52 30/6924/53 29/6901/30
f 29/6901/30 30/6924/53 139/6905/34
f 30/6924/53 92/6925/54 139/6905/34
f 139/6905/34 92/6925/54 21/6907/36
f 92/6925/54 31/6926/55 21/6907/36
f 21/6907/36 31/6926/55 32/6908/37
f 31/6926/55 33/6909/38 32/6908/37
f 34/6927/56 97/6928/57 75/6929/58
f 97/6928/57 95/6930/59 75/6929/58
f 75/6929/58 95/6930/59 35/6931/60
f 95/6930/59 133/6932/61 35/6931/60
f 35/6931/60 133/6932/61 36/6933/62
f 133/6932/61 37/6934/63 36/6933/62
f 36/6933/62 37/6934/63 130/6935/64
f 37/6934/63 131/6936/65 130/6935/64
f 130/6935/64 131/6936/65 38/6937/66
f 39/6912/41 122/6938/67 40/6914/43
f 122/6938/67 120/6939/68 40/6914/43
f 40/6914/43 120/6939/68 23/6916/45
f 120/6939/68 41/6940/69 23/6916/45
f 23/6916/45 41/6940/69 42/6918/47
f 41/6940/69 62/6941/70 42/6918/47
f 42/6918/47 62/6941/70 43/6919/48
f 62/6941/70 24/6920/49 43/6919/48
f 123/6942/71 69/6943/72 44/6944/73
f 69/6943/72 45/6945/74 44/6944/73
f 44/6944/73 45/6945/74 46/6946/75
f 45/6945/74 47/6947/76 46/6946/75
f 46/6946/75 47/6947/76 48/6948/77
f 47/6947/76 49/6949/78 48/6948/77
f 48/6948/77 49/6949/78 50/6950/79
f 10/6887/16 8/6885/14 51/6906/35
f 8/6885/14 52/6883/12 51/6906/35
f 51/6906/35 52/6883/12 53/6904/33
f 52/6883/12 54/6881/10 53/6904/33
f 53/6904/33 54/6881/10 19/6902/31
f 54/6881/10 5/6879/8 19/6902/31
f 90/6951/80 86/6952/81 55/6953/82
f 86/6952/81 56/6954/83 55/6953/82
f 55/6953/82 56/6954/83 31/6926/55
f 56/6954/83 138/6955/84 31/6926/55
f 31/6926/55 138/6955/84 33/6909/38
f 138/6955/84 137/6910/39 33/6909/38
f 12/6890/19 57/6892/21 58/6956/85
f 57/6892/21 59/6957/86 58/6956/85
f 58/6956/85 59/6957/86 117/6958/87
f 59/6957/86 119/6959/88 117/6958/87
f 117/6958/87 119/6959/88 60/6960/89
f 119/6959/88 61/6961/90 60/6960/89
f 120/6939/68 124/6962/91 41/6940/69
f 124/6962/91 68/6963/92 41/6940/69
f 41/6940/69 68/6963/92 62/6941/70
f 68/6963/92 78/6964/93 62/6941/70
f 62/6941/70 78/6964/93 24/6920/49
f 78/6964/93 25/6921/50 24/6920/49
f 63/6874/3 64/6876/5 65/6965/94
f 64/6876/5 66/6966/95 65/6965/94
f 65/6965/94 66/6966/95 67/6967/96
f 66/6966/95 141/6968/97 67/6967/96
f 67/6967/96 141/6968/97 76/6969/98
f 141/6968/97 68/6963/92 76/6969/98
f 69/6943/72 70/6970/99 45/6945/74
f 70/6970/99 104/6971/100 45/6945/74
f 45/6945/74 104/6971/100 47/6947/76
f 104/6971/100 71/6972/101 47/6947/76
f 47/6947/76 71/6972/101 49/6949/78
f 109/6973/102 72/6974/103 114/6975/104
f 72/6974/103 73/6976/105 114/6975/104
f 114/6975/104 73/6976/105 35/6931/60
f 73/6976/105 74/6977/106 35/6931/60
f 35/6931/60 74/6977/106 110/6978/107
f 113/6979/108 98/6980/109 35/6931/60
f 98/6980/109 100/6981/110 35/6931/60
f 35/6931/60 100/6981/110 75/6929/58
f 100/6981/110 102/6982/111 75/6929/58
f 75/6929/58 102/6982/111 34/6927/56
f 76/6969/98 46/6946/75 67/6967/96
f 46/6946/75 48/6948/77 67/6967/96
f 67/6967/96 48/6948/77 65/6965/94
f 48/6948/77 50/6950/79 65/6965/94
f 65/6965/94 50/6950/79 63/6874/3
f 64/6876/5 77/6878/7 66/6966/95
f 77/6878/7 6/6880/9 66/6966/95
f 66/6966/95 6/6880/9 141/6968/97
f 6/6880/9 25/6921/50 141/6968/97
f 141/6968/97 25/6921/50 78/6964/93
f 79/6888/17 12/6890/19 80/6917/46
f 12/6890/19 58/6956/85 80/6917/46
f 80/6917/46 58/6956/85 81/6915/44
f 58/6956/85 82/6913/42 81/6915/44
f 83/6983/112 137/6910/39 84/6984/113
f 137/6910/39 56/6954/83 84/6984/113
f 84/6984/113 56/6954/83 85/6985/114
f 56/6954/83 86/6952/81 85/6985/114
f 68/6963/92 124/6962/91 76/6969/98
f 124/6962/91 87/6986/115 76/6969/98
f 76/6969/98 87/6986/115 46/6946/75
f 87/6986/115 44/6944/73 46/6946/75
f 88/6922/51 89/6987/116 28/6923/52
f 89/6987/116 91/6988/117 28/6923/52
f 28/6923/52 91/6988/117 30/6924/53
f 91/6988/117 92/6925/54 30/6924/53
f 89/6987/116 90/6951/80 91/6988/117
f 90/6951/80 55/6953/82 91/6988/117
f 91/6988/117 55/6953/82 92/6925/54
f 55/6953/82 31/6926/55 92/6925/54
f 93/6989/118 133/6932/61 94/6990/119
f 133/6932/61 95/6930/59 94/6990/119
f 94/6990/119 95/6930/59 96/6991/120
f 95/6930/59 97/6928/57 96/6991/120
f 98/6980/109 99/6992/121 100/6981/110
f 99/6992/121 101/6993/122 100/6981/110
f 100/6981/110 101/6993/122 102/6982/111
f 18/6900/29 19/6902/31 16/6898/27
f 19/6902/31 5/6879/8 16/6898/27
f 16/6898/27 5/6879/8 4/6877/6
f 70/6970/99 103/6994/123 104/6971/100
f 103/6994/123 105/6995/124 104/6971/100
f 104/6971/100 105/6995/124 71/6972/101
f 106/6996/125 107/6997/126 114/6975/104
f 107/6997/126 108/6998/127 114/6975/104
f 114/6975/104 108/6998/127 109/6973/102
f 110/6978/107 111/6999/128 35/6931/60
f 111/6999/128 112/7000/129 35/6931/60
f 35/6931/60 112/7000/129 113/6979/108
f 36/6933/62 135/7001/130 114/6975/104
f 135/7001/130 115/7002/131 114/6975/104
f 114/6975/104 115/7002/131 106/6996/125
f 60/6960/89 116/6911/40 117/6958/87
f 116/6911/40 82/6913/42 117/6958/87
f 117/6958/87 82/6913/42 58/6956/85
f 57/6892/21 118/6894/23 59/6957/86
f 118/6894/23 126/7003/132 59/6957/86
f 59/6957/86 126/7003/132 119/6959/88
f 124/6962/91 120/6939/68 121/7004/133
f 120/6939/68 122/6938/67 121/7004/133
f 121/7004/133 122/6938/67 123/6942/71
f 123/6942/71 44/6944/73 121/7004/133
f 44/6944/73 87/6986/115 121/7004/133
f 121/7004/133 87/6986/115 124/6962/91
f 61/6961/90 119/6959/88 125/7005/134
f 119/6959/88 126/7003/132 125/7005/134
f 127/7006/135 36/6933/62 128/7007/136
f 36/6933/62 129/7008/137 128/7007/136
f 36/6933/62 130/6935/64 129/7008/137
f 130/6935/64 140/7009/138 129/7008/137
f 131/6936/65 37/6934/63 132/7010/139
f 37/6934/63 134/7011/140 132/7010/139
f 37/6934/63 133/6932/61 134/7011/140
f 133/6932/61 93/6989/118 134/7011/140
f 135/7001/130 36/6933/62 136/7012/141
f 36/6933/62 127/7006/135 136/7012/141
f 137/6910/39 138/6955/84 56/6954/83
f 139/6905/34 20/6903/32 29/6901/30
f 140/7009/138 130/6935/64 38/6937/66
f 141/6968/97 78/6964/93 68/6963/92
