mtllib Hair.mtl
o Mesh_0005.rip.058_Mesh_0005.rip_mesh0000.070
v -0.182656 0.568555 -0.185742
v -0.175859 0.467188 -0.237695
v -0.072617 0.393438 -0.310000
v -0.050000 0.182773 -0.281094
v -0.264336 0.503672 -0.138555
v -0.264336 0.503672 0.138555
v -0.202031 0.503750 0.192578
v -0.204961 0.435469 0.193086
v -0.202031 0.503750 -0.192578
v -0.204961 0.435469 -0.193086
v -0.266953 0.435391 -0.138750
v -0.305078 0.435234 -0.070781
v -0.317812 0.435039 0.000000
v -0.305078 0.435234 0.070781
v -0.266953 0.435391 0.138750
v -0.204961 0.435469 0.193086
v -0.202031 0.503750 0.192578
v -0.182656 0.568555 0.185742
v -0.148633 0.620000 0.180273
v -0.167734 0.549883 0.205195
v -0.175859 0.467188 0.237695
v -0.169922 0.378750 0.261914
v -0.128594 0.280000 0.275000
v -0.050000 0.182773 0.281094
v 0.090000 0.020000 -0.230000
v -0.148633 0.620000 -0.180273
v -0.182656 0.568555 -0.185742
v 0.353750 0.336914 0.000000
v 0.336641 0.336914 -0.108281
v 0.260547 0.237695 -0.199844
v 0.270000 -0.010000 -0.093398
v 0.290000 -0.020000 -0.000000
v 0.220000 -0.070000 -0.070000
v 0.201367 -0.150000 -0.000000
v 0.160000 0.234648 0.261914
v 0.160000 0.120000 0.250000
v 0.132227 0.444258 0.262461
v -0.050000 0.182773 -0.281094
v 0.030000 0.300000 -0.300000
v 0.060000 0.140000 -0.280000
v 0.160000 0.234648 -0.261914
v -0.169922 0.378750 -0.261914
v -0.128594 0.280000 -0.275000
v -0.167734 0.549883 -0.205195
v -0.175859 0.467188 -0.237695
v -0.060000 0.290000 -0.310000
v -0.128594 0.280000 -0.275000
v -0.169922 0.378750 -0.261914
v 0.331094 0.220000 0.106992
v 0.260547 0.237695 0.199844
v 0.125547 0.048906 0.100430
v 0.160000 0.120000 -0.250000
v 0.060000 0.140000 -0.280000
v 0.253867 0.108086 0.196992
v -0.059648 0.620000 -0.203398
v 0.060039 0.674883 -0.106016
v 0.158399 0.581836 0.188516
v 0.040000 0.520000 0.270000
v 0.030000 0.400000 0.300000
v 0.030000 0.300000 0.300000
v 0.060000 0.140000 0.280000
v 0.090000 0.020000 0.230000
v 0.140000 -0.123203 0.155586
v 0.220000 -0.070000 0.070000
v -0.148633 0.620000 -0.180273
v -0.186758 0.666211 -0.057344
v -0.122773 0.684375 -0.063242
v -0.140000 0.661211 0.118711
v -0.070937 0.557422 0.255469
v -0.167734 0.549883 0.205195
v -0.175859 0.467188 0.237695
v -0.169922 0.378750 0.261914
v -0.060000 0.290000 0.310000
v -0.128594 0.280000 0.275000
v -0.140000 0.661211 -0.118711
v -0.070937 0.557422 -0.255469
v 0.047188 0.603828 -0.196406
v 0.040000 0.520000 -0.270000
v 0.158399 0.581836 -0.188516
v 0.263945 0.437031 -0.197852
v 0.090000 0.020000 -0.230000
v -0.050000 0.182773 0.281094
v -0.072617 0.393438 0.310000
v -0.075625 0.474766 0.293281
v 0.047188 0.603828 0.196406
v -0.059648 0.620000 0.203398
v 0.060039 0.674883 0.106016
v -0.040000 0.680000 0.101562
v 0.063125 0.692422 0.000000
v -0.040000 0.700000 0.000000
v -0.040000 0.680000 -0.101562
v 0.140000 -0.123203 -0.155586
v 0.200000 0.000000 -0.184180
v 0.253867 0.108086 -0.196992
v 0.319727 0.103984 -0.102891
v 0.331094 0.220000 -0.106992
v 0.263945 0.437031 0.197852
v 0.176406 0.639922 0.106016
v -0.204961 0.435469 -0.193086
v -0.202031 0.503750 -0.192578
v -0.243203 0.568516 0.133789
v -0.205469 0.624297 0.124727
v 0.319727 0.103984 0.102891
v 0.270000 -0.010000 0.093398
v 0.200000 -0.000000 0.184180
v -0.167734 0.549883 -0.205195
v 0.030000 0.300000 -0.300000
v 0.160000 0.336914 -0.263477
v -0.075625 0.474766 -0.293281
v 0.030000 0.400000 -0.300000
v 0.132227 0.444258 -0.262461
v 0.176406 0.639922 -0.106016
v 0.185508 0.655664 0.000000
v 0.270274 0.561172 0.106016
v 0.284219 0.572851 0.000000
v 0.331563 0.455039 0.106016
v 0.330000 0.100000 0.000000
v 0.348203 0.220000 0.000000
v 0.336641 0.336914 0.108281
v 0.160000 0.336914 0.263477
v -0.182656 0.568555 0.185742
v -0.280859 0.568398 0.068516
v -0.302891 0.503516 0.070859
v 0.220000 -0.070000 0.070000
v 0.201367 -0.150000 -0.000000
v 0.125547 0.048906 -0.100430
v 0.220000 -0.070000 -0.070000
v 0.140000 -0.123203 -0.155586
v 0.030000 0.300000 0.300000
v 0.000508 0.440000 0.000000
v 0.060000 0.140000 0.280000
v 0.090000 0.020000 0.230000
v 0.140000 -0.123203 0.155586
v 0.270274 0.561172 -0.106016
v 0.331563 0.455039 -0.106016
v 0.348633 0.461250 0.000000
v -0.266953 0.435391 -0.138750
v -0.302891 0.503516 -0.070859
v -0.305078 0.435234 -0.070781
v -0.316094 0.503320 0.000000
v -0.317812 0.435039 0.000000
v -0.294140 0.568203 0.000000
v -0.305078 0.435234 0.070781
v -0.266953 0.435391 0.138750
v -0.241015 0.624219 0.063906
v -0.253789 0.624141 0.000000
v -0.198555 0.666211 0.000000
v -0.241015 0.624219 -0.063906
v -0.205469 0.624297 -0.124727
v -0.148633 0.620000 0.180273
v -0.186758 0.666211 0.057344
v -0.122773 0.684375 0.063242
v -0.133203 0.690820 0.000000
v -0.280859 0.568398 -0.068516
v -0.243203 0.568516 -0.133789
vn -0.1148 0.7430 0.6593
vn 0.3192 0.8704 0.3748
vn 0.6327 0.7744 0.0000
vn 0.9591 0.2436 0.1439
vn 0.9463 0.1410 0.2911
vn -0.8862 -0.2590 0.3842
vn 0.9408 -0.0281 0.3377
vn 0.9849 -0.1732 -0.0000
vn 0.9997 -0.0252 -0.0000
vn 0.9408 -0.0281 -0.3377
vn 0.7760 -0.0312 -0.6299
vn 0.4973 -0.8676 -0.0000
vn 0.6870 -0.6778 0.2620
vn 0.4433 -0.8691 -0.2195
vn 0.7047 -0.4074 0.5809
vn 0.4541 -0.0887 0.8865
vn 0.1522 0.1441 0.9778
vn 0.1347 0.2696 0.9535
vn 0.6588 -0.0339 -0.7516
vn -0.6747 0.0746 0.7343
vn -0.4641 0.7468 0.4763
vn -0.0130 0.9999 -0.0082
vn -0.0150 0.9999 -0.0026
vn -0.0156 0.9999 0.0000
vn -0.0150 0.9999 0.0026
vn -0.0130 0.9999 0.0082
vn -0.4641 0.7468 -0.4763
vn -0.6747 0.0746 -0.7343
vn -0.6177 0.2134 -0.7569
vn 0.4464 0.7903 -0.4198
vn 0.7915 0.0804 0.6059
vn 0.7995 0.1823 0.5724
vn 0.7622 0.3098 0.5684
vn 0.6609 0.4709 0.5843
vn 0.9463 0.1410 -0.2911
vn 0.9591 0.2436 -0.1439
vn 0.7915 0.0804 -0.6059
vn 0.4464 0.7903 0.4198
vn -0.6177 0.2134 0.7569
vn -0.8262 0.5633 0.0000
vn -0.1148 0.7430 -0.6593
vn 0.3192 0.8704 -0.3748
vn -0.2417 0.1735 0.9547
vn 0.7622 0.3098 -0.5684
vn 0.6609 0.4709 -0.5843
vn 0.7995 0.1823 -0.5724
vn 0.4330 0.1442 0.8898
vn 0.2494 -0.8690 0.4273
vn 0.0152 -0.7437 0.6684
vn 0.0128 -0.9358 0.3524
vn -0.1654 -0.9066 0.3882
vn -0.1744 -0.9847 -0.0000
vn -0.4755 -0.8797 0.0000
vn -0.1654 -0.9066 -0.3882
vn -0.4302 -0.8176 -0.3827
vn -0.1700 -0.7056 -0.6879
vn -0.3793 -0.5958 -0.7080
vn -0.1902 -0.4343 -0.8804
vn -0.3682 -0.2305 -0.9007
vn -0.1838 -0.1100 -0.9768
vn -0.4044 -0.0296 -0.9141
vn -0.1950 0.0525 -0.9794
vn -0.3914 0.0503 -0.9189
vn -0.2417 0.1735 -0.9547
vn -0.3512 0.2224 -0.9095
vn -0.2746 0.3592 -0.8919
vn -0.5314 0.4354 -0.7266
vn -0.6056 0.4476 -0.6579
vn -0.7160 0.5780 -0.3916
vn 0.6077 -0.3900 0.6918
vn 0.3658 -0.6672 0.6489
vn 0.5670 -0.6618 0.4905
vn 0.4433 -0.8691 0.2195
vn 0.1712 -0.9584 0.2282
vn 0.2181 -0.9759 -0.0000
vn -0.0048 -1.0000 -0.0000
vn 0.1712 -0.9584 -0.2282
vn 0.0128 -0.9358 -0.3524
vn 0.2494 -0.8690 -0.4273
vn 0.0152 -0.7437 -0.6684
vn 0.3658 -0.6672 -0.6489
vn 0.1572 -0.5226 -0.8379
vn 0.4545 -0.3897 -0.8009
vn 0.2166 -0.2898 -0.9323
vn 0.4739 -0.2799 -0.8349
vn 0.1947 -0.0886 -0.9768
vn 0.4541 -0.0887 -0.8865
vn 0.1522 0.1441 -0.9778
vn 0.4330 0.1442 -0.8898
vn 0.1347 0.2696 -0.9535
vn 0.1572 -0.5226 0.8379
vn -0.1700 -0.7056 0.6879
vn -0.1902 -0.4343 0.8804
vn -0.3793 -0.5958 0.7080
vn -0.3682 -0.2305 0.9007
vn -0.6304 -0.2119 0.7468
vn -0.4044 -0.0296 0.9141
vn -0.6704 0.0377 0.7410
vn -0.3914 0.0503 0.9189
vn -0.6549 0.2169 0.7239
vn -0.3512 0.2224 0.9095
vn -0.5314 0.4354 0.7266
vn -0.2746 0.3592 0.8919
vn -0.6056 0.4476 0.6579
vn -0.7160 0.5780 0.3916
vn -0.7435 0.5380 0.3971
vn -0.9050 0.2288 0.3586
vn -0.9163 0.0832 0.3917
vn -0.9166 0.0021 0.3998
vn -0.9951 0.0988 -0.0000
vn -1.0000 0.0018 -0.0000
vn -0.9166 0.0021 -0.3998
vn -0.8862 -0.2590 -0.3842
vn -0.6304 -0.2119 -0.7468
vn -0.7049 -0.5863 -0.3991
vn 0.6588 -0.0339 0.7516
vn 0.6473 -0.1542 0.7465
vn 0.7760 -0.0312 0.6299
vn 0.7667 -0.1581 0.6223
vn 0.9263 -0.1716 0.3354
vn 0.8409 -0.4423 0.3118
vn 0.8920 -0.4521 0.0000
vn 0.7240 -0.6898 -0.0000
vn 0.8409 -0.4423 -0.3118
vn 0.6870 -0.6778 -0.2620
vn 0.7047 -0.4074 -0.5809
vn 0.5670 -0.6618 -0.4905
vn 0.6077 -0.3900 -0.6918
vn -0.9750 0.2224 0.0000
vn -0.8623 0.5064 0.0000
vn -0.9050 0.2288 -0.3586
vn -0.7435 0.5380 -0.3971
vn -0.6549 0.2169 -0.7239
vn 0.4545 -0.3897 0.8009
vn 0.4739 -0.2799 0.8349
vn 0.2166 -0.2898 0.9323
vn 0.1947 -0.0886 0.9768
vn -0.1838 -0.1100 0.9768
vn -0.1950 0.0525 0.9794
vn -0.4302 -0.8176 0.3827
vn -0.7661 -0.6428 0.0000
vn -0.7049 -0.5863 0.3991
vn -0.9599 -0.2802 -0.0000
vn -0.9163 0.0832 -0.3917
vn -0.6704 0.0377 -0.7410
vn 0.6473 -0.1542 -0.7465
vn 0.7667 -0.1581 -0.6223
vn 0.9263 -0.1716 -0.3354
vn 0.7857 0.2477 0.5669
vn 0.7313 0.6407 -0.2339
vn 0.9355 0.3123 0.1653
vn 0.8219 0.5697 0.0000
vn 0.9355 0.3123 -0.1653
vn 0.7313 0.6407 0.2339
vn 0.7857 0.2477 -0.5669
usemtl Material.013
s 1
f 75/6043/48 55/6044/49 91/6045/50
f 55/6044/49 56/6046/51 91/6045/50
f 91/6045/50 56/6046/51 89/6047/52
f 56/6046/51 113/6048/53 89/6047/52
f 89/6047/52 113/6048/53 87/6049/54
f 113/6048/53 98/6050/55 87/6049/54
f 87/6049/54 98/6050/55 85/6051/56
f 98/6050/55 57/6052/57 85/6051/56
f 85/6051/56 57/6052/57 58/6053/58
f 57/6052/57 37/6054/59 58/6053/58
f 58/6053/58 37/6054/59 59/6055/60
f 37/6054/59 120/6056/61 59/6055/60
f 59/6055/60 120/6056/61 60/6057/62
f 120/6056/61 35/6058/63 60/6057/62
f 60/6057/62 35/6058/63 61/6059/64
f 35/6058/63 36/6060/65 61/6059/64
f 61/6059/64 36/6060/65 62/6061/66
f 36/6060/65 105/6062/67 62/6061/66
f 62/6061/66 105/6062/67 63/6063/68
f 105/6062/67 64/6064/69 63/6063/68
f 1/6065/70 65/6066/71 149/6067/72
f 65/6066/71 75/6043/48 149/6067/72
f 149/6067/72 75/6043/48 66/6068/73
f 75/6043/48 67/6069/74 66/6068/73
f 66/6068/73 67/6069/74 153/6070/75
f 67/6069/74 90/6071/76 153/6070/75
f 153/6070/75 90/6071/76 152/6072/77
f 90/6071/76 88/6073/78 152/6072/77
f 152/6072/77 88/6073/78 68/6074/79
f 88/6073/78 86/6075/80 68/6074/79
f 68/6074/79 86/6075/80 150/6076/81
f 86/6075/80 69/6077/82 150/6076/81
f 150/6076/81 69/6077/82 70/6078/83
f 69/6077/82 84/6079/84 70/6078/83
f 70/6078/83 84/6079/84 71/6080/85
f 84/6079/84 83/6081/86 71/6080/85
f 71/6080/85 83/6081/86 72/6082/87
f 83/6081/86 73/6083/88 72/6082/87
f 72/6082/87 73/6083/88 74/6084/89
f 73/6083/88 82/6085/90 74/6084/89
f 75/6043/48 65/6066/71 55/6044/49
f 65/6066/71 76/6086/91 55/6044/49
f 55/6044/49 76/6086/91 77/6087/92
f 76/6086/91 78/6088/93 77/6087/92
f 77/6087/92 78/6088/93 79/6089/94
f 78/6088/93 111/6090/95 79/6089/94
f 79/6089/94 111/6090/95 80/6091/96
f 111/6090/95 108/6092/97 80/6091/96
f 80/6091/96 108/6092/97 30/6093/98
f 108/6092/97 41/6094/99 30/6093/98
f 30/6093/98 41/6094/99 94/6095/100
f 41/6094/99 52/6096/101 94/6095/100
f 94/6095/100 52/6096/101 93/6097/102
f 52/6096/101 81/6098/103 93/6097/102
f 93/6097/102 81/6098/103 92/6099/104
f 82/6085/90 73/6083/88 60/6057/62
f 73/6083/88 83/6081/86 60/6057/62
f 60/6057/62 83/6081/86 59/6055/60
f 83/6081/86 84/6079/84 59/6055/60
f 59/6055/60 84/6079/84 58/6053/58
f 84/6079/84 69/6077/82 58/6053/58
f 58/6053/58 69/6077/82 85/6051/56
f 69/6077/82 86/6075/80 85/6051/56
f 85/6051/56 86/6075/80 87/6049/54
f 86/6075/80 88/6073/78 87/6049/54
f 87/6049/54 88/6073/78 89/6047/52
f 88/6073/78 90/6071/76 89/6047/52
f 89/6047/52 90/6071/76 91/6045/50
f 90/6071/76 67/6069/74 91/6045/50
f 91/6045/50 67/6069/74 75/6043/48
f 92/6099/104 33/6100/105 93/6097/102
f 33/6100/105 31/6101/106 93/6097/102
f 93/6097/102 31/6101/106 94/6095/100
f 31/6101/106 95/6102/107 94/6095/100
f 94/6095/100 95/6102/107 30/6093/98
f 95/6102/107 96/6103/108 30/6093/98
f 30/6093/98 96/6103/108 29/6104/109
f 96/6103/108 118/6105/110 29/6104/109
f 29/6104/109 118/6105/110 28/6106/111
f 118/6105/110 119/6107/112 28/6106/111
f 28/6106/111 119/6107/112 116/6108/113
f 119/6107/112 97/6109/114 116/6108/113
f 116/6108/113 97/6109/114 114/6110/115
f 97/6109/114 57/6052/57 114/6110/115
f 114/6110/115 57/6052/57 98/6050/55
f 99/6111/116 100/6112/117 137/6113/118
f 100/6112/117 5/6114/119 137/6113/118
f 137/6113/118 5/6114/119 138/6115/120
f 5/6114/119 154/6116/121 138/6115/120
f 138/6115/120 154/6116/121 142/6117/122
f 154/6116/121 146/6118/123 142/6117/122
f 142/6117/122 146/6118/123 122/6119/124
f 146/6118/123 145/6120/125 122/6119/124
f 122/6119/124 145/6120/125 101/6121/126
f 145/6120/125 102/6122/127 101/6121/126
f 101/6121/126 102/6122/127 121/6123/128
f 102/6122/127 150/6076/81 121/6123/128
f 96/6103/108 95/6102/107 117/6124/129
f 95/6102/107 32/6125/130 117/6124/129
f 117/6124/129 32/6125/130 103/6126/131
f 32/6125/130 104/6127/132 103/6126/131
f 103/6126/131 104/6127/132 54/6128/133
f 104/6127/132 105/6062/67 54/6128/133
f 54/6128/133 105/6062/67 36/6060/65
f 106/6129/134 2/6130/135 109/6131/136
f 2/6130/135 3/6132/137 109/6131/136
f 109/6131/136 3/6132/137 110/6133/138
f 3/6132/137 107/6134/139 110/6133/138
f 110/6133/138 107/6134/139 108/6092/97
f 107/6134/139 41/6094/99 108/6092/97
f 65/6066/71 106/6129/134 76/6086/91
f 106/6129/134 109/6131/136 76/6086/91
f 76/6086/91 109/6131/136 78/6088/93
f 109/6131/136 110/6133/138 78/6088/93
f 78/6088/93 110/6133/138 111/6090/95
f 110/6133/138 108/6092/97 111/6090/95
f 55/6044/49 77/6087/92 56/6046/51
f 77/6087/92 112/6135/140 56/6046/51
f 56/6046/51 112/6135/140 113/6048/53
f 112/6135/140 115/6136/141 113/6048/53
f 113/6048/53 115/6136/141 98/6050/55
f 115/6136/141 114/6110/115 98/6050/55
f 77/6087/92 79/6089/94 112/6135/140
f 79/6089/94 134/6137/142 112/6135/140
f 112/6135/140 134/6137/142 115/6136/141
f 134/6137/142 136/6138/143 115/6136/141
f 115/6136/141 136/6138/143 114/6110/115
f 136/6138/143 116/6108/113 114/6110/115
f 96/6103/108 117/6124/129 118/6105/110
f 117/6124/129 49/6139/144 118/6105/110
f 118/6105/110 49/6139/144 119/6107/112
f 49/6139/144 50/6140/145 119/6107/112
f 119/6107/112 50/6140/145 97/6109/114
f 50/6140/145 120/6056/61 97/6109/114
f 121/6123/128 7/6141/146 101/6121/126
f 7/6141/146 6/6142/147 101/6121/126
f 101/6121/126 6/6142/147 122/6119/124
f 6/6142/147 123/6143/148 122/6119/124
f 122/6119/124 123/6143/148 142/6117/122
f 133/6144/149 124/6145/150 51/6146/151
f 124/6145/150 125/6147/152 51/6146/151
f 51/6146/151 125/6147/152 126/6148/153
f 125/6147/152 127/6149/154 126/6148/153
f 126/6148/153 127/6149/154 128/6150/155
f 24/6151/1 129/6152/2 130/6153/3
f 129/6152/2 131/6154/4 130/6153/3
f 130/6153/3 131/6154/4 51/6146/151
f 131/6154/4 132/6155/5 51/6146/151
f 51/6146/151 132/6155/5 133/6144/149
f 79/6089/94 80/6091/96 134/6137/142
f 80/6091/96 135/6156/6 134/6137/142
f 134/6137/142 135/6156/6 136/6138/143
f 135/6156/6 28/6106/111 136/6138/143
f 136/6138/143 28/6106/111 116/6108/113
f 137/6113/118 138/6115/120 139/6157/7
f 138/6115/120 140/6158/8 139/6157/7
f 139/6157/7 140/6158/8 141/6159/9
f 140/6158/8 143/6160/10 141/6159/9
f 138/6115/120 142/6117/122 140/6158/8
f 142/6117/122 123/6143/148 140/6158/8
f 140/6158/8 123/6143/148 143/6160/10
f 123/6143/148 144/6161/11 143/6160/10
f 145/6120/125 146/6118/123 147/6162/12
f 146/6118/123 148/6163/13 147/6162/12
f 147/6162/12 148/6163/13 66/6068/73
f 148/6163/13 149/6067/72 66/6068/73
f 150/6076/81 102/6122/127 68/6074/79
f 102/6122/127 151/6164/14 68/6074/79
f 68/6074/79 151/6164/14 152/6072/77
f 151/6164/14 153/6070/75 152/6072/77
f 102/6122/127 145/6120/125 151/6164/14
f 145/6120/125 147/6162/12 151/6164/14
f 151/6164/14 147/6162/12 153/6070/75
f 147/6162/12 66/6068/73 153/6070/75
f 146/6118/123 154/6116/121 148/6163/13
f 154/6116/121 155/6165/15 148/6163/13
f 148/6163/13 155/6165/15 149/6067/72
f 155/6165/15 1/6065/70 149/6067/72
f 2/6130/135 48/6166/16 3/6132/137
f 48/6166/16 46/6167/17 3/6132/137
f 3/6132/137 46/6167/17 107/6134/139
f 46/6167/17 4/6168/18 107/6134/139
f 154/6116/121 5/6114/119 155/6165/15
f 5/6114/119 100/6112/117 155/6165/15
f 155/6165/15 100/6112/117 1/6065/70
f 123/6143/148 6/6142/147 144/6161/11
f 6/6142/147 7/6141/146 144/6161/11
f 144/6161/11 7/6141/146 8/6169/19
f 9/6170/20 10/6171/21 130/6153/3
f 10/6171/21 11/6172/22 130/6153/3
f 130/6153/3 11/6172/22 12/6173/23
f 12/6173/23 13/6174/24 130/6153/3
f 13/6174/24 14/6175/25 130/6153/3
f 130/6153/3 14/6175/25 15/6176/26
f 15/6176/26 16/6177/27 130/6153/3
f 16/6177/27 17/6178/28 130/6153/3
f 130/6153/3 17/6178/28 18/6179/29
f 18/6179/29 19/6180/30 130/6153/3
f 19/6180/30 20/6181/31 130/6153/3
f 130/6153/3 20/6181/31 21/6182/32
f 21/6182/32 22/6183/33 130/6153/3
f 22/6183/33 23/6184/34 130/6153/3
f 130/6153/3 23/6184/34 24/6151/1
f 128/6150/155 25/6185/35 126/6148/153
f 25/6185/35 40/6186/36 126/6148/153
f 126/6148/153 40/6186/36 130/6153/3
f 44/6187/37 26/6188/38 130/6153/3
f 26/6188/38 27/6189/39 130/6153/3
f 130/6153/3 27/6189/39 9/6170/20
f 28/6106/111 135/6156/6 29/6104/109
f 135/6156/6 80/6091/96 29/6104/109
f 29/6104/109 80/6091/96 30/6093/98
f 95/6102/107 31/6101/106 32/6125/130
f 31/6101/106 33/6100/105 32/6125/130
f 32/6125/130 33/6100/105 34/6190/40
f 120/6056/61 50/6140/145 35/6058/63
f 50/6140/145 54/6128/133 35/6058/63
f 35/6058/63 54/6128/133 36/6060/65
f 105/6062/67 104/6127/132 64/6064/69
f 104/6127/132 32/6125/130 64/6064/69
f 64/6064/69 32/6125/130 34/6190/40
f 57/6052/57 97/6109/114 37/6054/59
f 97/6109/114 120/6056/61 37/6054/59
f 38/6191/41 130/6153/3 39/6192/42
f 130/6153/3 40/6186/36 39/6192/42
f 107/6134/139 53/6193/43 41/6094/99
f 53/6193/43 52/6096/101 41/6094/99
f 42/6194/44 130/6153/3 43/6195/45
f 130/6153/3 38/6191/41 43/6195/45
f 44/6187/37 130/6153/3 45/6196/46
f 130/6153/3 42/6194/44 45/6196/46
f 4/6168/18 46/6167/17 47/6197/47
f 46/6167/17 48/6166/16 47/6197/47
f 117/6124/129 103/6126/131 49/6139/144
f 103/6126/131 50/6140/145 49/6139/144
f 126/6148/153 130/6153/3 51/6146/151
f 81/6098/103 52/6096/101 53/6193/43
f 103/6126/131 54/6128/133 50/6140/145
