mtllib Hair.mtl
o Mesh_0005.rip.038_Mesh_0005.rip_mesh0000.047
v 0.130742 0.440000 -0.274023
v 0.018047 0.529102 -0.249961
v 0.332031 0.329922 -0.114063
v 0.270000 0.323750 -0.211563
v 0.120000 0.320000 0.284492
v 0.090234 0.219062 0.240000
v 0.200000 0.210000 0.197852
v 0.270000 0.323750 0.211562
v -0.106719 0.438711 -0.257148
v -0.028203 0.235430 0.000000
v -0.117578 0.520234 0.232812
v 0.018047 0.529102 0.249961
v -0.094805 0.320000 -0.269883
v -0.106719 0.438711 -0.257148
v -0.117578 0.520234 -0.232812
v 0.090234 0.219062 -0.240000
v 0.000000 0.320000 -0.296836
v -0.094805 0.320000 -0.269883
v -0.117578 0.520234 -0.232812
v 0.018047 0.529102 -0.249961
v 0.124766 0.538750 -0.239609
v 0.210000 0.549453 -0.190000
v 0.263359 0.560195 -0.104453
v 0.283086 0.565351 0.000000
v 0.263359 0.560195 0.104453
v 0.210000 0.549453 0.190000
v 0.000000 0.531563 0.000000
v 0.124766 0.538750 0.239609
v 0.200000 0.320000 -0.262852
v 0.244024 0.445039 -0.212383
v 0.090234 0.219062 0.240000
v 0.000000 0.320000 0.296836
v -0.094805 0.320000 0.269883
v -0.106719 0.438711 0.257148
v 0.138906 0.155547 0.186680
v 0.183789 0.108906 0.106680
v 0.270000 0.200000 0.110586
v -0.094805 0.320000 0.269883
v 0.000000 0.320000 0.296836
v 0.200000 0.320000 0.262852
v 0.332031 0.329922 0.114062
v 0.191055 0.096289 0.000000
v 0.183789 0.108906 -0.106680
v 0.200000 0.210000 -0.197852
v 0.138906 0.155547 -0.186680
v 0.090234 0.219062 -0.240000
v 0.328438 0.451406 0.116406
v 0.349102 0.330078 0.000000
v 0.290000 0.190000 0.000000
v 0.270000 0.200000 -0.110586
v 0.120000 0.320000 -0.284492
v 0.000000 0.320000 -0.296836
v 0.010469 0.438867 -0.284805
v -0.106719 0.438711 0.257148
v -0.117578 0.520234 0.232812
v 0.010469 0.438867 0.284805
v 0.018047 0.529102 0.249961
v 0.130742 0.440000 0.274023
v 0.124766 0.538750 0.239609
v 0.244024 0.445039 0.212383
v 0.210000 0.549453 0.190000
v 0.263359 0.560195 0.104453
v 0.345352 0.457539 0.000000
v 0.283086 0.565351 0.000000
v 0.263359 0.560195 -0.104453
v 0.328438 0.451406 -0.116406
v 0.210000 0.549453 -0.190000
v 0.124766 0.538750 -0.239609
vn -0.6206 -0.2367 0.7476
vn -0.2739 -0.3326 0.9024
vn -0.2565 -0.2230 0.9405
vn 0.0250 -0.3562 0.9341
vn -0.2176 0.4638 -0.8588
vn -0.4805 0.5261 -0.7017
vn 0.9724 0.1572 -0.1726
vn 0.8242 -0.5119 -0.2421
vn 0.9171 0.3986 0.0000
vn 0.5772 -0.8166 -0.0000
vn 0.8242 -0.5119 0.2421
vn 0.0784 -0.9968 -0.0155
vn 0.2727 -0.0755 0.9591
vn 0.2347 -0.1833 0.9546
vn 0.1870 -0.3028 0.9345
vn 0.6393 0.7214 0.2663
vn 0.3551 0.8896 0.2872
vn 0.7288 0.6839 0.0345
vn 0.0784 -0.9968 0.0155
vn 0.1001 -0.9947 0.0223
vn 0.1180 -0.9923 0.0369
vn 0.1222 -0.9918 0.0362
vn 0.1185 -0.9930 0.0000
vn 0.1222 -0.9918 -0.0362
vn 0.1180 -0.9923 -0.0369
vn 0.1001 -0.9947 -0.0223
vn 0.6393 0.7214 -0.2663
vn 0.3551 0.8896 -0.2872
vn 0.7288 0.6839 -0.0345
vn 0.9724 0.1572 0.1726
vn -0.3764 0.5719 -0.7289
vn -0.6510 0.6695 -0.3579
vn 0.2727 -0.0755 -0.9591
vn 0.2347 -0.1833 -0.9546
vn 0.0466 0.0193 -0.9987
vn 0.0549 -0.2209 -0.9737
vn -0.1787 0.1869 -0.9660
vn -0.2565 -0.2230 -0.9405
vn -0.4335 0.1727 -0.8844
vn -0.6206 -0.2367 -0.7476
vn -0.7294 0.1425 -0.6690
vn -0.9181 0.1677 -0.3592
vn -0.7520 0.5492 -0.3646
vn -0.8158 0.5783 -0.0000
vn -0.7071 0.7071 0.0000
vn -0.7520 0.5492 0.3646
vn -0.6510 0.6695 0.3579
vn -0.4805 0.5261 0.7017
vn -0.3764 0.5719 0.7289
vn -0.2176 0.4638 0.8588
vn -0.8813 -0.2497 -0.4013
vn -0.9835 0.1809 -0.0000
vn -0.9181 0.1677 0.3592
vn -0.7294 0.1425 0.6690
vn -0.4335 0.1727 0.8844
vn -0.1787 0.1869 0.9660
vn 0.0466 0.0193 0.9987
vn 0.0549 -0.2209 0.9737
vn 0.1870 -0.3028 -0.9345
vn 0.0250 -0.3562 -0.9341
vn -0.2739 -0.3326 -0.9024
vn -0.5875 -0.3810 -0.7139
vn -0.7925 -0.5023 -0.3460
vn -0.9593 -0.2823 -0.0000
vn -0.8660 -0.5001 -0.0000
vn -0.7925 -0.5023 0.3460
vn -0.8813 -0.2497 0.4013
vn -0.5875 -0.3810 0.7139
usemtl Material.013
s 1
f 38/3553/33 54/3554/34 39/3555/35
f 54/3554/34 56/3556/36 39/3555/35
f 39/3555/35 56/3556/36 5/3557/37
f 56/3556/36 58/3558/38 5/3557/37
f 5/3557/37 58/3558/38 40/3559/39
f 58/3558/38 60/3560/40 40/3559/39
f 40/3559/39 60/3560/40 8/3561/41
f 60/3560/40 41/3562/42 8/3561/41
f 8/3561/41 41/3562/42 37/3563/43
f 41/3562/42 49/3564/44 37/3563/43
f 37/3563/43 49/3564/44 42/3565/45
f 49/3564/44 50/3566/46 42/3565/45
f 42/3565/45 50/3566/46 43/3567/47
f 50/3566/46 44/3568/48 43/3567/47
f 43/3567/47 44/3568/48 45/3569/49
f 44/3568/48 46/3570/50 45/3569/49
f 60/3560/40 47/3571/51 41/3562/42
f 47/3571/51 48/3572/52 41/3562/42
f 41/3562/42 48/3572/52 49/3564/44
f 48/3572/52 3/3573/53 49/3564/44
f 49/3564/44 3/3573/53 50/3566/46
f 3/3573/53 4/3574/54 50/3566/46
f 50/3566/46 4/3574/54 44/3568/48
f 4/3574/54 29/3575/55 44/3568/48
f 44/3568/48 29/3575/55 46/3570/50
f 29/3575/55 51/3576/56 46/3570/50
f 46/3570/50 51/3576/56 52/3577/57
f 51/3576/56 53/3578/58 52/3577/57
f 54/3554/34 55/3579/59 56/3556/36
f 55/3579/59 57/3580/60 56/3556/36
f 56/3556/36 57/3580/60 58/3558/38
f 57/3580/60 59/3581/61 58/3558/38
f 58/3558/38 59/3581/61 60/3560/40
f 59/3581/61 61/3582/62 60/3560/40
f 60/3560/40 61/3582/62 47/3571/51
f 61/3582/62 62/3583/63 47/3571/51
f 47/3571/51 62/3583/63 63/3584/64
f 62/3583/63 64/3585/65 63/3584/64
f 63/3584/64 64/3585/65 65/3586/66
f 63/3584/64 65/3586/66 66/3587/67
f 65/3586/66 67/3588/68 66/3587/67
f 66/3587/67 67/3588/68 30/3589/1
f 67/3588/68 68/3590/2 30/3589/1
f 30/3589/1 68/3590/2 1/3591/3
f 68/3590/2 2/3592/4 1/3591/3
f 1/3591/3 2/3592/4 53/3578/58
f 47/3571/51 63/3584/64 48/3572/52
f 63/3584/64 66/3587/67 48/3572/52
f 48/3572/52 66/3587/67 3/3573/53
f 66/3587/67 30/3589/1 3/3573/53
f 3/3573/53 30/3589/1 4/3574/54
f 30/3589/1 29/3575/55 4/3574/54
f 39/3555/35 5/3557/37 6/3593/5
f 5/3557/37 40/3559/39 6/3593/5
f 6/3593/5 40/3559/39 7/3594/6
f 40/3559/39 8/3561/41 7/3594/6
f 7/3594/6 8/3561/41 37/3563/43
f 9/3595/7 19/3596/8 10/3597/9
f 19/3596/8 27/3598/10 10/3597/9
f 10/3597/9 27/3598/10 11/3599/11
f 27/3598/10 12/3600/12 11/3599/11
f 13/3601/13 52/3577/57 14/3602/14
f 52/3577/57 53/3578/58 14/3602/14
f 14/3602/14 53/3578/58 15/3603/15
f 53/3578/58 2/3592/4 15/3603/15
f 16/3604/16 17/3605/17 10/3597/9
f 17/3605/17 18/3606/18 10/3597/9
f 10/3597/9 18/3606/18 9/3595/7
f 19/3596/8 20/3607/19 27/3598/10
f 20/3607/19 21/3608/20 27/3598/10
f 27/3598/10 21/3608/20 22/3609/21
f 22/3609/21 23/3610/22 27/3598/10
f 23/3610/22 24/3611/23 27/3598/10
f 27/3598/10 24/3611/23 25/3612/24
f 25/3612/24 26/3613/25 27/3598/10
f 26/3613/25 28/3614/26 27/3598/10
f 27/3598/10 28/3614/26 12/3600/12
f 53/3578/58 51/3576/56 1/3591/3
f 51/3576/56 29/3575/55 1/3591/3
f 1/3591/3 29/3575/55 30/3589/1
f 31/3615/27 10/3597/9 32/3616/28
f 10/3597/9 33/3617/29 32/3616/28
f 33/3617/29 10/3597/9 34/3618/30
f 10/3597/9 11/3599/11 34/3618/30
f 6/3593/5 7/3594/6 35/3619/31
f 7/3594/6 36/3620/32 35/3619/31
f 7/3594/6 37/3563/43 36/3620/32
f 37/3563/43 42/3565/45 36/3620/32
