mtllib Hair.mtl
o Mesh_0005.rip.019_Mesh_0005.rip_mesh0000.028
v -0.120000 0.340000 -0.248203
v -0.172891 0.490547 -0.218437
v -0.179922 0.510039 -0.150000
v -0.196719 0.532031 -0.150000
v -0.189922 0.516836 -0.128750
v -0.203906 0.523516 -0.100000
v 0.066914 0.691953 0.000000
v -0.053398 0.664219 0.104023
v 0.179219 0.639922 0.108359
v 0.065234 0.596563 0.203398
v 0.168086 0.593711 0.225508
v 0.374805 0.462695 0.000000
v 0.004297 0.309492 -0.272617
v -0.100000 0.260000 -0.247852
v 0.027109 0.501445 -0.286875
v 0.061211 0.694844 -0.116406
v -0.055976 0.486367 -0.246133
v 0.149766 0.134531 0.189180
v 0.271797 0.224414 0.218320
v 0.090234 0.219062 0.240000
v -0.202461 0.652734 0.111641
v -0.152422 0.594023 0.190937
v 0.289688 0.571250 0.118789
v 0.333047 0.456602 0.108359
v 0.213672 0.510508 0.201758
v -0.120000 0.340000 0.248203
v -0.140000 0.420000 0.237383
v -0.172891 0.490547 0.218438
v -0.179922 0.510039 0.150000
v -0.196719 0.532031 0.150000
v -0.189922 0.516836 0.128750
v -0.203906 0.523516 0.100000
v -0.140000 0.420000 -0.237383
v -0.222578 0.512383 0.016289
v -0.222578 0.512383 -0.016289
v -0.261367 0.578672 0.000000
v -0.253906 0.576094 -0.050000
v -0.213476 0.519727 -0.050000
v 0.271797 0.224414 -0.218320
v 0.149766 0.134531 -0.189180
v 0.198867 0.074062 -0.102969
v 0.261016 0.342031 0.198477
v 0.134492 0.270273 0.246406
v 0.169844 0.324805 0.290703
v 0.004297 0.309492 0.272617
v 0.136172 0.442461 0.296445
v -0.202461 0.652734 -0.111641
v 0.213672 0.510508 -0.201758
v 0.081641 0.471953 -0.270469
v 0.136172 0.442461 -0.296445
v 0.153008 0.383633 -0.272227
v -0.053398 0.664219 -0.104023
v -0.042539 0.625039 -0.220312
v -0.152422 0.594023 -0.190937
v -0.100000 0.453242 -0.253633
v -0.172891 0.490547 0.218438
v -0.196719 0.532031 0.150000
v -0.246484 0.573516 0.100000
v -0.203906 0.523516 0.100000
v -0.253906 0.576094 0.050000
v -0.213476 0.519727 0.050000
v -0.203906 0.523516 -0.100000
v -0.246484 0.573516 -0.100000
v -0.196719 0.532031 -0.150000
v -0.172891 0.490547 -0.218437
v -0.140000 0.420000 -0.237383
v -0.140000 0.420000 0.237383
v -0.100000 0.453242 0.253633
v -0.100000 0.260000 -0.247852
v 0.004297 0.309492 -0.272617
v 0.090234 0.219062 -0.240000
v 0.149766 0.134531 -0.189180
v 0.000000 0.340000 0.000000
v 0.198867 0.074062 -0.102969
v 0.198867 0.074062 0.102969
v 0.206523 0.060820 0.000000
v 0.326875 0.212226 0.000000
v 0.300195 0.229219 -0.102969
v 0.360195 0.324805 -0.116406
v 0.282774 0.436367 -0.216719
v 0.353750 0.336914 0.000000
v -0.186328 0.654844 0.000000
v 0.206523 0.060820 0.000000
v 0.198867 0.074062 0.102969
v 0.149766 0.134531 0.189180
v 0.090234 0.219062 0.240000
v 0.004297 0.309492 0.272617
v -0.100000 0.260000 0.247852
v -0.120000 0.340000 0.248203
v -0.070547 0.701992 0.000000
v 0.065234 0.596563 -0.203398
v 0.300195 0.229219 0.102969
v 0.360195 0.324805 0.116406
v 0.282774 0.436367 0.216719
v 0.153008 0.383633 0.272227
v 0.081641 0.471953 0.270469
v 0.027109 0.501445 0.286875
v -0.120000 0.340000 -0.248203
v 0.168086 0.593711 -0.225508
v 0.289688 0.571250 -0.118789
v 0.090234 0.219062 -0.240000
v 0.134492 0.270273 -0.246406
v 0.169844 0.324805 -0.290703
v 0.261016 0.342031 -0.198477
v 0.333047 0.456602 -0.108359
v 0.286094 0.573359 0.000000
v 0.179219 0.639922 -0.108359
v 0.197539 0.673945 0.000000
v 0.061211 0.694844 0.116406
v -0.042539 0.625039 0.220312
v -0.055976 0.486367 0.246133
v -0.100000 0.260000 0.247852
vn 0.8725 0.2465 -0.4218
vn 0.8444 0.3908 -0.3663
vn 0.7342 0.6790 0.0000
vn 0.7868 0.5819 -0.2059
vn 0.7724 0.6339 -0.0403
vn 0.7843 0.6148 0.0829
vn 0.7578 0.6207 0.2014
vn 0.7438 0.6330 0.2147
vn 0.8725 0.2465 0.4218
vn 0.8444 0.3908 0.3663
vn 0.7868 0.5819 0.2059
vn 0.7724 0.6339 0.0403
vn 0.7843 0.6148 -0.0829
vn 0.7578 0.6207 -0.2014
vn 0.7438 0.6330 -0.2147
vn 0.3562 0.8376 -0.4141
vn 0.1835 0.9772 -0.1065
vn 0.7818 0.6232 -0.0201
vn 0.8029 0.5960 -0.0118
vn 0.8002 0.5997 -0.0033
vn 0.8039 0.5947 0.0000
vn 0.8002 0.5997 0.0033
vn 0.8029 0.5960 0.0118
vn 0.7818 0.6232 0.0201
vn 0.1835 0.9772 0.1065
vn 0.3562 0.8376 0.4141
vn 0.2056 0.0557 -0.9771
vn 0.2282 0.0220 -0.9734
vn 0.1065 0.0935 -0.9899
vn 0.1945 -0.1643 -0.9671
vn 0.1947 -0.2643 -0.9446
vn 0.4546 -0.4901 -0.7437
vn 0.0216 -0.6703 -0.7418
vn 0.1305 -0.9252 -0.3562
vn -0.0395 -0.6636 -0.7471
vn -0.0599 -0.9199 -0.3876
vn -0.4383 -0.8135 -0.3822
vn -0.1051 -0.9945 -0.0000
vn -0.4733 -0.8809 0.0000
vn -0.4383 -0.8135 0.3822
vn -0.7648 -0.6443 0.0000
vn -0.7109 -0.5778 0.4009
vn -0.8792 -0.2503 0.4055
vn -0.5467 -0.3911 0.7404
vn -0.6903 -0.1711 0.7030
vn -0.3636 -0.0512 0.9301
vn -0.6684 0.1068 0.7361
vn -0.3822 0.1950 0.9033
vn -0.1833 0.3809 0.9063
vn 0.1065 0.0935 0.9899
vn -0.1233 0.2963 0.9471
vn -0.4044 -0.5897 0.6991
vn -0.1176 -0.3028 0.9458
vn -0.0395 -0.6636 0.7471
vn 0.0547 -0.3610 0.9309
vn 0.1947 -0.2643 0.9446
vn 0.1945 -0.1643 0.9671
vn 0.2282 0.0220 0.9734
vn 0.4021 -0.0366 0.9149
vn 0.0547 -0.3610 -0.9309
vn -0.1176 -0.3028 -0.9458
vn -0.2677 -0.2273 -0.9363
vn -0.5467 -0.3911 -0.7404
vn -0.3636 -0.0512 -0.9301
vn -0.6903 -0.1711 -0.7030
vn -0.6684 0.1068 -0.7361
vn -0.8792 -0.2503 -0.4055
vn -0.9065 0.1838 -0.3800
vn -0.9869 0.1611 0.0000
vn -0.8266 0.4612 -0.3226
vn -0.9018 0.4322 0.0000
vn -0.0599 -0.9199 0.3876
vn 0.1305 -0.9252 0.3562
vn 0.1694 -0.9855 -0.0000
vn 0.4868 -0.8735 0.0000
vn 0.5172 -0.7803 -0.3516
vn 0.9919 -0.0393 -0.1209
vn 0.9287 0.0743 -0.3632
vn 0.7747 0.5855 -0.2387
vn 0.7455 0.6348 -0.2031
vn -0.4044 -0.5897 -0.6991
vn -0.7109 -0.5778 -0.4009
vn -0.9699 -0.2434 -0.0000
vn -0.9065 0.1838 0.3800
vn -0.8266 0.4612 0.3226
vn -0.8201 0.5722 0.0000
vn -0.7731 0.5049 -0.3840
vn -0.4288 0.5567 -0.7115
vn 0.4021 -0.0366 -0.9149
vn 0.4768 -0.2637 0.8385
vn 0.4546 -0.4901 0.7437
vn 0.8234 0.0369 0.5663
vn 0.9287 0.0743 0.3632
vn 0.7455 0.6348 0.2031
vn 0.7747 0.5855 0.2387
vn 0.8413 0.5226 -0.1380
vn 0.9896 -0.1441 0.0000
vn 0.9919 -0.0393 0.1209
vn 0.5172 -0.7803 0.3516
vn -0.6801 0.3251 -0.6571
vn -0.1833 0.3809 -0.9063
vn -0.1233 0.2963 -0.9471
vn 0.8234 0.0369 -0.5663
vn 0.4768 -0.2637 -0.8385
vn 0.0216 -0.6703 0.7418
vn -0.2677 -0.2273 0.9363
vn -0.6801 0.3251 0.6571
vn -0.4288 0.5567 0.7115
vn -0.3822 0.1950 -0.9033
vn -0.7731 0.5049 0.3840
vn 0.8413 0.5226 0.1380
vn 0.2056 0.0557 0.9771
usemtl Material.013
s 1
f 1/1258/1 33/1259/2 73/1260/3
f 33/1259/2 2/1261/4 73/1260/3
f 73/1260/3 2/1261/4 3/1262/5
f 2/1261/4 4/1263/6 3/1262/5
f 3/1262/5 4/1263/6 5/1264/7
f 4/1263/6 6/1265/8 5/1264/7
f 89/1266/9 73/1260/3 27/1267/10
f 27/1267/10 73/1260/3 28/1268/11
f 73/1260/3 29/1269/12 28/1268/11
f 28/1268/11 29/1269/12 30/1270/13
f 29/1269/12 31/1271/14 30/1270/13
f 30/1270/13 31/1271/14 32/1272/15
f 1/1258/1 73/1260/3 69/1273/16
f 73/1260/3 70/1274/17 69/1273/16
f 70/1274/17 73/1260/3 71/1275/18
f 73/1260/3 72/1276/19 71/1275/18
f 72/1276/19 73/1260/3 74/1277/20
f 73/1260/3 83/1278/21 74/1277/20
f 83/1278/21 73/1260/3 84/1279/22
f 73/1260/3 85/1280/23 84/1279/22
f 85/1280/23 73/1260/3 86/1281/24
f 73/1260/3 87/1282/25 86/1281/24
f 87/1282/25 73/1260/3 88/1283/26
f 73/1260/3 89/1266/9 88/1283/26
f 112/1284/27 26/1285/28 45/1286/29
f 26/1285/28 68/1287/30 45/1286/29
f 45/1286/29 68/1287/30 111/1288/31
f 68/1287/30 22/1289/32 111/1288/31
f 111/1288/31 22/1289/32 110/1290/33
f 22/1289/32 8/1291/34 110/1290/33
f 110/1290/33 8/1291/34 10/1292/35
f 8/1291/34 109/1293/36 10/1292/35
f 10/1292/35 109/1293/36 9/1294/37
f 109/1293/36 7/1295/38 9/1294/37
f 9/1294/37 7/1295/38 108/1296/39
f 7/1295/38 107/1297/40 108/1296/39
f 108/1296/39 107/1297/40 106/1298/41
f 107/1297/40 100/1299/42 106/1298/41
f 106/1298/41 100/1299/42 105/1300/43
f 100/1299/42 48/1301/44 105/1300/43
f 105/1300/43 48/1301/44 80/1302/45
f 48/1301/44 51/1303/46 80/1302/45
f 80/1302/45 51/1303/46 104/1304/47
f 51/1303/46 103/1305/48 104/1304/47
f 104/1304/47 103/1305/48 102/1306/49
f 103/1305/48 13/1307/50 102/1306/49
f 102/1306/49 13/1307/50 101/1308/51
f 100/1299/42 107/1297/40 48/1301/44
f 107/1297/40 99/1309/52 48/1301/44
f 48/1301/44 99/1309/52 49/1310/53
f 99/1309/52 91/1311/54 49/1310/53
f 49/1310/53 91/1311/54 15/1312/55
f 91/1311/54 17/1313/56 15/1312/55
f 15/1312/55 17/1313/56 13/1307/50
f 17/1313/56 55/1314/57 13/1307/50
f 13/1307/50 55/1314/57 98/1315/58
f 55/1314/57 66/1316/59 98/1315/58
f 110/1290/33 10/1292/35 111/1288/31
f 10/1292/35 97/1317/60 111/1288/31
f 111/1288/31 97/1317/60 45/1286/29
f 97/1317/60 96/1318/61 45/1286/29
f 45/1286/29 96/1318/61 46/1319/62
f 96/1318/61 25/1320/63 46/1319/62
f 46/1319/62 25/1320/63 95/1321/64
f 25/1320/63 94/1322/65 95/1321/64
f 95/1321/64 94/1322/65 42/1323/66
f 94/1322/65 24/1324/67 42/1323/66
f 42/1323/66 24/1324/67 93/1325/68
f 24/1324/67 81/1326/69 93/1325/68
f 93/1325/68 81/1326/69 92/1327/70
f 81/1326/69 77/1328/71 92/1327/70
f 99/1309/52 107/1297/40 91/1311/54
f 107/1297/40 16/1329/72 91/1311/54
f 91/1311/54 16/1329/72 52/1330/73
f 16/1329/72 7/1295/38 52/1330/73
f 52/1330/73 7/1295/38 90/1331/74
f 7/1295/38 8/1291/34 90/1331/74
f 90/1331/74 8/1291/34 82/1332/75
f 8/1291/34 21/1333/76 82/1332/75
f 82/1332/75 21/1333/76 60/1334/77
f 21/1333/76 58/1335/78 60/1334/77
f 60/1334/77 58/1335/78 61/1336/79
f 58/1335/78 59/1337/80 61/1336/79
f 97/1317/60 10/1292/35 96/1318/61
f 10/1292/35 11/1338/81 96/1318/61
f 96/1318/61 11/1338/81 25/1320/63
f 11/1338/81 9/1294/37 25/1320/63
f 25/1320/63 9/1294/37 23/1339/82
f 9/1294/37 106/1298/41 23/1339/82
f 23/1339/82 106/1298/41 24/1324/67
f 106/1298/41 12/1340/83 24/1324/67
f 24/1324/67 12/1340/83 81/1326/69
f 12/1340/83 105/1300/43 81/1326/69
f 80/1302/45 104/1304/47 105/1300/43
f 104/1304/47 79/1341/84 105/1300/43
f 105/1300/43 79/1341/84 81/1326/69
f 79/1341/84 78/1342/85 81/1326/69
f 81/1326/69 78/1342/85 77/1328/71
f 78/1342/85 76/1343/86 77/1328/71
f 77/1328/71 76/1343/86 92/1327/70
f 76/1343/86 75/1344/87 92/1327/70
f 92/1327/70 75/1344/87 18/1345/88
f 68/1287/30 26/1285/28 67/1346/89
f 66/1316/59 55/1314/57 65/1347/90
f 55/1314/57 54/1348/91 65/1347/90
f 65/1347/90 54/1348/91 64/1349/92
f 54/1348/91 63/1350/93 64/1349/92
f 64/1349/92 63/1350/93 62/1351/94
f 63/1350/93 38/1352/95 62/1351/94
f 61/1336/79 34/1353/96 60/1334/77
f 34/1353/96 36/1354/97 60/1334/77
f 60/1334/77 36/1354/97 82/1332/75
f 36/1354/97 37/1355/98 82/1332/75
f 82/1332/75 37/1355/98 47/1356/99
f 37/1355/98 63/1350/93 47/1356/99
f 93/1325/68 92/1327/70 42/1323/66
f 92/1327/70 19/1357/100 42/1323/66
f 42/1323/66 19/1357/100 43/1358/101
f 19/1357/100 20/1359/102 43/1358/101
f 43/1358/101 20/1359/102 45/1286/29
f 59/1337/80 58/1335/78 57/1360/103
f 58/1335/78 22/1289/32 57/1360/103
f 57/1360/103 22/1289/32 56/1361/104
f 22/1289/32 68/1287/30 56/1361/104
f 56/1361/104 68/1287/30 67/1346/89
f 55/1314/57 17/1313/56 54/1348/91
f 17/1313/56 53/1362/105 54/1348/91
f 54/1348/91 53/1362/105 52/1330/73
f 53/1362/105 91/1311/54 52/1330/73
f 103/1305/48 51/1303/46 13/1307/50
f 51/1303/46 50/1363/106 13/1307/50
f 13/1307/50 50/1363/106 49/1310/53
f 50/1363/106 48/1301/44 49/1310/53
f 79/1341/84 104/1304/47 78/1342/85
f 104/1304/47 39/1364/107 78/1342/85
f 78/1342/85 39/1364/107 40/1365/108
f 39/1364/107 101/1308/51 40/1365/108
f 90/1331/74 82/1332/75 52/1330/73
f 82/1332/75 47/1356/99 52/1330/73
f 52/1330/73 47/1356/99 54/1348/91
f 47/1356/99 63/1350/93 54/1348/91
f 46/1319/62 95/1321/64 45/1286/29
f 95/1321/64 44/1366/109 45/1286/29
f 45/1286/29 44/1366/109 43/1358/101
f 44/1366/109 42/1323/66 43/1358/101
f 76/1343/86 78/1342/85 41/1367/110
f 78/1342/85 40/1365/108 41/1367/110
f 104/1304/47 102/1306/49 39/1364/107
f 102/1306/49 101/1308/51 39/1364/107
f 63/1350/93 37/1355/98 38/1352/95
f 37/1355/98 35/1368/111 38/1352/95
f 37/1355/98 36/1354/97 35/1368/111
f 36/1354/97 34/1353/96 35/1368/111
f 94/1322/65 25/1320/63 24/1324/67
f 25/1320/63 23/1339/82 24/1324/67
f 8/1291/34 22/1289/32 21/1333/76
f 22/1289/32 58/1335/78 21/1333/76
f 20/1359/102 19/1357/100 18/1345/88
f 19/1357/100 92/1327/70 18/1345/88
f 17/1313/56 91/1311/54 53/1362/105
f 7/1295/38 16/1329/72 107/1297/40
f 13/1307/50 49/1310/53 15/1312/55
f 51/1303/46 48/1301/44 50/1363/106
f 98/1315/58 14/1369/112 13/1307/50
f 106/1298/41 105/1300/43 12/1340/83
f 11/1338/81 10/1292/35 9/1294/37
f 109/1293/36 8/1291/34 7/1295/38
f 9/1294/37 108/1296/39 106/1298/41
f 44/1366/109 95/1321/64 42/1323/66
