mtllib Hair.mtl
o Mesh_0005.rip.036_Mesh_0005.rip_mesh0000.045
v -0.143125 0.475430 0.306562
v -0.049531 0.405508 0.349375
v 0.055469 0.434219 0.366914
v 0.152227 0.540781 0.325547
v 0.379649 0.521172 0.170469
v 0.282774 0.626641 0.166406
v 0.415820 0.545234 0.000000
v 0.282774 0.626641 -0.166406
v 0.126094 0.751484 -0.101797
v 0.133945 0.706602 -0.184961
v -0.008164 0.738281 -0.201367
v -0.091445 0.662812 -0.281445
v -0.042226 0.594141 -0.332500
v -0.143125 0.475430 -0.306562
v -0.225469 0.513320 0.192305
v -0.263555 0.505508 0.099336
v -0.309492 0.585938 0.103438
v -0.222031 0.656914 0.202969
v -0.253398 0.688320 0.106797
v -0.030117 0.788164 0.000000
v -0.155195 0.753555 -0.107656
v -0.024492 0.775312 -0.105937
v -0.155195 0.753555 0.107656
v -0.173008 0.608750 0.279492
v -0.274570 0.561406 0.196914
v 0.159570 0.464414 0.346367
v 0.285547 0.480000 0.284219
v 0.169727 0.360352 0.352930
v 0.305547 0.362305 0.284922
v 0.287617 0.249102 0.258789
v 0.370898 0.240078 0.144766
v 0.278164 0.157305 0.122969
v 0.183789 0.108906 -0.106680
v 0.223203 0.181484 -0.213555
v 0.138906 0.155547 -0.186680
v 0.090234 0.219062 -0.240000
v 0.451016 0.387266 0.000000
v 0.413008 0.376211 -0.163047
v 0.285547 0.480000 -0.284219
v 0.225547 0.580000 -0.265273
v 0.016992 0.681055 -0.277500
v -0.161445 0.475313 0.241758
v -0.208984 0.524102 0.271914
v -0.110469 0.548984 0.330508
v -0.060976 0.485117 0.355625
v -0.042226 0.594141 0.332500
v 0.055664 0.501562 0.365391
v 0.048399 0.609531 0.328477
v 0.225547 0.580000 0.265273
v 0.298125 0.147070 0.000000
v 0.370898 0.240078 -0.144766
v 0.278164 0.157305 -0.122969
v 0.287617 0.249102 -0.258789
v 0.036445 0.299453 -0.332500
v 0.173945 0.261953 0.318672
v 0.090234 0.219062 0.240000
v 0.138906 0.155547 0.186680
v -0.284922 0.501602 0.000000
v -0.264180 0.699258 0.000000
v -0.309492 0.585938 -0.103437
v -0.130273 0.717852 -0.204492
v -0.263555 0.505508 -0.099336
v -0.222031 0.656914 -0.202969
v -0.173008 0.608750 -0.279492
v -0.116328 0.391094 -0.241211
v -0.110469 0.548984 -0.330508
v -0.161445 0.475313 -0.241758
v -0.126914 0.387070 -0.298594
v 0.403008 0.238242 0.000000
v 0.305547 0.362305 -0.284922
v 0.169727 0.360352 -0.352930
v 0.173945 0.261953 -0.318672
v 0.141797 0.661758 0.268125
v -0.091445 0.662812 0.281445
v 0.016992 0.681055 0.277500
v 0.413008 0.376211 0.163047
v 0.379649 0.521172 -0.170469
v 0.141797 0.661758 -0.268125
v 0.055469 0.434219 -0.366914
v -0.060976 0.485117 -0.355625
v 0.099492 0.379766 0.358945
v 0.191055 0.096289 0.000000
v 0.183789 0.108906 0.106680
v 0.223203 0.181484 0.213555
v -0.130273 0.717852 0.204492
v -0.008164 0.738281 0.201367
v 0.126094 0.751484 0.101797
v 0.133945 0.706602 0.184961
v -0.225469 0.513320 -0.192305
v -0.274570 0.561406 -0.196914
v 0.310195 0.661016 0.000000
v 0.123828 0.763672 0.000000
v -0.012148 0.245547 0.274609
v -0.074101 0.318594 0.233828
v -0.082773 0.307695 0.287422
v -0.116328 0.391094 0.241211
v -0.126914 0.387070 0.298594
v 0.152227 0.540781 -0.325547
v 0.048399 0.609531 -0.328477
v 0.055664 0.501562 -0.365391
v 0.159570 0.464414 -0.346367
v 0.099492 0.379766 -0.358945
v -0.049531 0.405508 -0.349375
v -0.015898 0.346094 -0.341328
v -0.082773 0.307695 -0.287422
v -0.074102 0.318594 -0.233828
v -0.012148 0.245547 -0.274609
v -0.163789 0.765977 0.000000
v -0.253398 0.688320 -0.106797
v -0.015898 0.346094 0.341328
v -0.024492 0.775312 0.105937
v 0.036445 0.299453 0.332500
v -0.208984 0.524102 -0.271914
v -0.321523 0.594492 0.000000
v 0.090234 0.219062 0.240000
v -0.012148 0.245547 0.274609
v -0.074101 0.318594 0.233828
v -0.116328 0.391094 0.241211
v -0.161445 0.475313 0.241758
v -0.225469 0.513320 0.192305
v -0.263555 0.505508 0.099336
v -0.284922 0.501602 0.000000
v 0.090234 0.219062 -0.240000
v -0.012148 0.245547 -0.274609
v 0.015117 0.349531 -0.120000
v -0.074102 0.318594 -0.233828
v -0.095781 0.361992 -0.258477
v 0.000000 0.334375 0.263984
v -0.116328 0.391094 -0.241211
v -0.161445 0.475313 -0.241758
v -0.225469 0.513320 -0.192305
v -0.263555 0.505508 -0.099336
v -0.120117 0.231523 -0.256719
v 0.000000 0.334375 -0.263984
v -0.042578 0.209336 -0.271250
v -0.028125 0.344766 -0.170000
v -0.095781 0.361992 0.258477
v -0.042578 0.209336 0.271250
v -0.042578 0.209336 0.000000
v -0.120117 0.231523 0.256719
v -0.095781 0.361992 0.000000
v -0.060000 0.493711 0.000000
v -0.028125 0.344766 0.170000
v 0.015117 0.349531 0.120000
vn 0.8641 0.4620 0.1996
vn 0.7817 0.5997 -0.1710
vn 0.8181 0.3996 -0.4136
vn 0.6916 0.2366 -0.6824
vn 0.3235 0.2146 -0.9216
vn 0.2901 -0.0204 -0.9568
vn -0.0116 0.0711 -0.9974
vn -0.0789 -0.1784 -0.9808
vn -0.3093 -0.1560 -0.9381
vn -0.3471 -0.3532 -0.8688
vn -0.5717 -0.2599 -0.7782
vn -0.5179 -0.4869 -0.7034
vn -0.7951 -0.4011 -0.4549
vn -0.6002 -0.6873 -0.4091
vn -0.8843 -0.4668 -0.0000
vn -0.6411 -0.7675 0.0000
vn -0.6002 -0.6873 0.4091
vn -0.3387 -0.9059 0.2541
vn -0.3504 -0.8328 0.4286
vn -0.0371 -0.8734 0.4855
vn -0.0518 -0.7232 0.6887
vn 0.2360 -0.6194 0.7487
vn 0.1400 -0.4007 0.9054
vn 0.3836 -0.1839 0.9050
vn 0.2901 -0.0204 0.9568
vn 0.6916 0.2366 0.6824
vn 0.3235 0.2146 0.9216
vn 0.8181 0.3996 0.4136
vn 0.2579 0.3495 0.9008
vn 0.7102 0.6243 0.3254
vn 0.1273 0.5177 0.8460
vn 0.2639 0.7261 0.6349
vn 0.0845 0.7680 0.6348
vn 0.6508 0.7111 -0.2661
vn 0.8132 0.5376 -0.2230
vn 0.8666 0.1402 -0.4790
vn 0.9683 -0.0187 -0.2490
vn 0.6298 -0.5572 -0.5411
vn 0.7102 -0.6467 -0.2783
vn 0.3563 -0.8952 -0.2677
vn 0.3708 -0.9287 0.0000
vn 0.0083 -1.0000 0.0000
vn 0.3563 -0.8952 0.2676
vn 0.0034 -0.9705 0.2409
vn 0.3115 -0.7928 0.5238
vn -0.3192 -0.9477 0.0000
vn 0.0034 -0.9705 -0.2409
vn 0.3115 -0.7928 -0.5238
vn 0.5077 -0.3909 -0.7677
vn 0.7239 0.3061 -0.6183
vn -0.2445 0.1290 -0.9610
vn -0.6212 0.0904 -0.7784
vn -0.5396 0.5038 -0.6746
vn -0.7619 0.5329 -0.3681
vn -0.4964 0.8140 -0.3016
vn -0.5505 0.8348 0.0000
vn -0.4326 0.9016 0.0000
vn -0.4964 0.8140 0.3016
vn -0.3429 0.8857 0.3129
vn -0.2225 0.7878 0.5744
vn -0.0221 0.7531 0.6575
vn -0.8943 0.0677 -0.4423
vn -0.8423 0.5390 0.0000
vn -0.9994 0.0352 0.0000
vn -0.8943 0.0677 0.4423
vn -0.7951 -0.4011 0.4549
vn -0.5717 -0.2599 0.7782
vn -0.5179 -0.4869 0.7034
vn -0.3471 -0.3532 0.8688
vn -0.3548 -0.6813 0.6403
vn -0.1115 -0.4646 0.8785
vn 0.3836 -0.1839 -0.9050
vn 0.1400 -0.4007 -0.9054
vn -0.1115 -0.4646 -0.8785
vn -0.3548 -0.6813 -0.6403
vn -0.7619 0.5329 0.3681
vn -0.5396 0.5038 0.6746
vn -0.1261 0.5721 0.8104
vn -0.0338 0.1473 -0.9885
vn 0.1273 0.5177 -0.8460
vn -0.1261 0.5721 -0.8104
vn 0.0845 0.7680 -0.6348
vn -0.2225 0.7878 -0.5744
vn -0.0221 0.7531 -0.6575
vn -0.3429 0.8857 -0.3129
vn 0.9024 0.4308 0.0000
vn 0.9966 -0.0819 0.0000
vn 0.7367 -0.6762 0.0000
vn 0.9683 -0.0187 0.2490
vn 0.7102 -0.6467 0.2783
vn 0.6298 -0.5572 0.5411
vn 0.8132 0.5376 0.2230
vn 0.8666 0.1402 0.4790
vn 0.5077 -0.3909 0.7677
vn 0.7813 0.5748 -0.2433
vn 0.8641 0.4620 -0.1996
vn 0.7239 0.3061 0.6183
vn 0.7817 0.5997 0.1710
vn -0.6212 0.0904 0.7784
vn -0.2445 0.1290 0.9610
vn 0.2360 -0.6194 -0.7487
vn -0.0518 -0.7232 -0.6887
vn -0.0371 -0.8734 -0.4855
vn -0.3504 -0.8328 -0.4286
vn -0.3093 -0.1560 0.9381
vn -0.0789 -0.1784 0.9808
vn -0.0116 0.0711 0.9974
vn 0.2639 0.7261 -0.6349
vn 0.7102 0.6243 -0.3254
vn 0.2579 0.3495 -0.9008
vn -0.3387 -0.9059 -0.2541
vn 0.6508 0.7111 0.2661
vn -0.0338 0.1473 0.9885
vn 0.7813 0.5748 0.2433
vn 0.3800 0.7351 0.5614
vn 0.4959 0.6913 0.5256
vn 0.4155 0.7122 0.5658
vn 0.4626 0.6940 0.5517
vn 0.5612 0.6334 0.5327
vn 0.4480 0.8941 0.0000
vn 0.8171 0.4365 0.3765
vn 0.6397 0.6981 0.3216
vn 0.2227 0.9705 0.0927
vn 0.0234 0.9972 -0.0704
vn 0.0351 0.9994 0.0000
vn 0.0234 0.9972 0.0704
vn 0.3800 0.7351 -0.5614
vn 0.4155 0.7122 -0.5658
vn 0.4959 0.6913 -0.5256
vn 0.4626 0.6940 -0.5517
vn 0.5612 0.6334 -0.5327
vn 0.8171 0.4365 -0.3765
vn 0.7392 -0.1618 0.6537
vn 0.9830 -0.1834 -0.0000
vn 0.7396 0.4301 0.5176
vn 0.7396 0.4301 -0.5176
vn -0.4635 0.8861 0.0000
vn -0.3391 0.6968 -0.6320
vn -0.6848 0.1923 -0.7029
vn 0.6397 0.6981 -0.3216
vn 0.2227 0.9705 -0.0927
vn -0.3391 0.6968 0.6320
vn -0.6848 0.1923 0.7029
vn 0.7392 -0.1618 -0.6537
usemtl Material.013
s 1
f 96/3307/1 42/3308/2 97/3309/3
f 42/3308/2 1/3310/4 97/3309/3
f 97/3309/3 1/3310/4 2/3311/5
f 1/3310/4 45/3312/6 2/3311/5
f 2/3311/5 45/3312/6 3/3313/7
f 45/3312/6 47/3314/8 3/3313/7
f 3/3313/7 47/3314/8 26/3315/9
f 47/3314/8 4/3316/10 26/3315/9
f 26/3315/9 4/3316/10 27/3317/11
f 4/3316/10 49/3318/12 27/3317/11
f 27/3317/11 49/3318/12 5/3319/13
f 49/3318/12 6/3320/14 5/3319/13
f 5/3319/13 6/3320/14 7/3321/15
f 6/3320/14 91/3322/16 7/3321/15
f 7/3321/15 91/3322/16 8/3323/17
f 91/3322/16 9/3324/18 8/3323/17
f 8/3323/17 9/3324/18 10/3325/19
f 9/3324/18 11/3326/20 10/3325/19
f 10/3325/19 11/3326/20 41/3327/21
f 11/3326/20 12/3328/22 41/3327/21
f 41/3327/21 12/3328/22 13/3329/23
f 12/3328/22 66/3330/24 13/3329/23
f 13/3329/23 66/3330/24 80/3331/25
f 66/3330/24 14/3332/26 80/3331/25
f 80/3331/25 14/3332/26 103/3333/27
f 14/3332/26 68/3334/28 103/3333/27
f 103/3333/27 68/3334/28 104/3335/29
f 68/3334/28 105/3336/30 104/3335/29
f 104/3335/29 105/3336/30 54/3337/31
f 105/3336/30 107/3338/32 54/3337/31
f 54/3337/31 107/3338/32 36/3339/33
f 15/3340/34 16/3341/35 25/3342/36
f 16/3341/35 17/3343/37 25/3342/36
f 25/3342/36 17/3343/37 18/3344/38
f 17/3343/37 19/3345/39 18/3344/38
f 18/3344/38 19/3345/39 23/3346/40
f 19/3345/39 108/3347/41 23/3346/40
f 23/3346/40 108/3347/41 20/3348/42
f 108/3347/41 21/3349/43 20/3348/42
f 20/3348/42 21/3349/43 22/3350/44
f 21/3349/43 61/3351/45 22/3350/44
f 22/3350/44 61/3351/45 11/3326/20
f 61/3351/45 12/3328/22 11/3326/20
f 11/3326/20 9/3324/18 22/3350/44
f 9/3324/18 92/3352/46 22/3350/44
f 22/3350/44 92/3352/46 20/3348/42
f 92/3352/46 111/3353/47 20/3348/42
f 20/3348/42 111/3353/47 23/3346/40
f 111/3353/47 85/3354/48 23/3346/40
f 23/3346/40 85/3354/48 18/3344/38
f 85/3354/48 24/3355/49 18/3344/38
f 18/3344/38 24/3355/49 25/3342/36
f 24/3355/49 43/3356/50 25/3342/36
f 25/3342/36 43/3356/50 15/3340/34
f 43/3356/50 42/3308/2 15/3340/34
f 26/3315/9 27/3317/11 28/3357/51
f 27/3317/11 29/3358/52 28/3357/51
f 28/3357/51 29/3358/52 30/3359/53
f 29/3358/52 31/3360/54 30/3359/53
f 30/3359/53 31/3360/54 32/3361/55
f 31/3360/54 50/3362/56 32/3361/55
f 32/3361/55 50/3362/56 82/3363/57
f 50/3362/56 52/3364/58 82/3363/57
f 82/3363/57 52/3364/58 33/3365/59
f 52/3364/58 34/3366/60 33/3365/59
f 33/3365/59 34/3366/60 35/3367/61
f 34/3366/60 36/3339/33 35/3367/61
f 31/3360/54 76/3368/62 69/3369/63
f 76/3368/62 37/3370/64 69/3369/63
f 69/3369/63 37/3370/64 38/3371/65
f 37/3370/64 77/3372/66 38/3371/65
f 38/3371/65 77/3372/66 39/3373/67
f 77/3372/66 40/3374/68 39/3373/67
f 39/3373/67 40/3374/68 98/3375/69
f 40/3374/68 78/3376/70 98/3375/69
f 98/3375/69 78/3376/70 99/3377/71
f 78/3376/70 41/3327/21 99/3377/71
f 99/3377/71 41/3327/21 13/3329/23
f 42/3308/2 43/3356/50 1/3310/4
f 43/3356/50 44/3378/72 1/3310/4
f 1/3310/4 44/3378/72 45/3312/6
f 44/3378/72 46/3379/73 45/3312/6
f 45/3312/6 46/3379/73 47/3314/8
f 46/3379/73 48/3380/74 47/3314/8
f 47/3314/8 48/3380/74 4/3316/10
f 48/3380/74 73/3381/75 4/3316/10
f 4/3316/10 73/3381/75 49/3318/12
f 73/3381/75 6/3320/14 49/3318/12
f 31/3360/54 69/3369/63 50/3362/56
f 69/3369/63 51/3382/76 50/3362/56
f 50/3362/56 51/3382/76 52/3364/58
f 51/3382/76 53/3383/77 52/3364/58
f 52/3364/58 53/3383/77 34/3366/60
f 53/3383/77 72/3384/78 34/3366/60
f 34/3366/60 72/3384/78 36/3339/33
f 72/3384/78 54/3337/31 36/3339/33
f 3/3313/7 26/3315/9 81/3385/79
f 26/3315/9 28/3357/51 81/3385/79
f 81/3385/79 28/3357/51 112/3386/80
f 28/3357/51 55/3387/81 112/3386/80
f 112/3386/80 55/3387/81 56/3388/82
f 55/3387/81 84/3389/83 56/3388/82
f 56/3388/82 84/3389/83 57/3390/84
f 84/3389/83 83/3391/85 57/3390/84
f 16/3341/35 58/3392/86 17/3343/37
f 58/3392/86 114/3393/87 17/3343/37
f 17/3343/37 114/3393/87 59/3394/88
f 114/3393/87 60/3395/89 59/3394/88
f 59/3394/88 60/3395/89 109/3396/90
f 60/3395/89 63/3397/91 109/3396/90
f 109/3396/90 63/3397/91 21/3349/43
f 63/3397/91 61/3351/45 21/3349/43
f 58/3392/86 62/3398/92 60/3395/89
f 62/3398/92 90/3399/93 60/3395/89
f 60/3395/89 90/3399/93 63/3397/91
f 90/3399/93 64/3400/94 63/3397/91
f 63/3397/91 64/3400/94 61/3351/45
f 64/3400/94 12/3328/22 61/3351/45
f 106/3401/95 105/3336/30 65/3402/96
f 65/3402/96 105/3336/30 68/3334/28
f 12/3328/22 64/3400/94 66/3330/24
f 64/3400/94 113/3403/97 66/3330/24
f 66/3330/24 113/3403/97 14/3332/26
f 113/3403/97 67/3404/98 14/3332/26
f 14/3332/26 67/3404/98 68/3334/28
f 67/3404/98 65/3402/96 68/3334/28
f 69/3369/63 38/3371/65 51/3382/76
f 38/3371/65 70/3405/99 51/3382/76
f 51/3382/76 70/3405/99 53/3383/77
f 70/3405/99 71/3406/100 53/3383/77
f 53/3383/77 71/3406/100 72/3384/78
f 71/3406/100 54/3337/31 72/3384/78
f 43/3356/50 24/3355/49 44/3378/72
f 24/3355/49 74/3407/101 44/3378/72
f 44/3378/72 74/3407/101 46/3379/73
f 74/3407/101 75/3408/102 46/3379/73
f 46/3379/73 75/3408/102 48/3380/74
f 75/3408/102 73/3381/75 48/3380/74
f 24/3355/49 85/3354/48 74/3407/101
f 85/3354/48 86/3409/103 74/3407/101
f 74/3407/101 86/3409/103 75/3408/102
f 86/3409/103 88/3410/104 75/3408/102
f 75/3408/102 88/3410/104 73/3381/75
f 88/3410/104 6/3320/14 73/3381/75
f 76/3368/62 5/3319/13 37/3370/64
f 5/3319/13 7/3321/15 37/3370/64
f 37/3370/64 7/3321/15 77/3372/66
f 7/3321/15 8/3323/17 77/3372/66
f 77/3372/66 8/3323/17 40/3374/68
f 8/3323/17 78/3376/70 40/3374/68
f 39/3373/67 98/3375/69 101/3411/105
f 98/3375/69 100/3412/106 101/3411/105
f 101/3411/105 100/3412/106 79/3413/107
f 100/3412/106 80/3331/25 79/3413/107
f 79/3413/107 80/3331/25 103/3333/27
f 93/3414/108 95/3415/109 112/3386/80
f 95/3415/109 110/3416/110 112/3386/80
f 112/3386/80 110/3416/110 81/3385/79
f 110/3416/110 2/3311/5 81/3385/79
f 81/3385/79 2/3311/5 3/3313/7
f 82/3363/57 83/3391/85 32/3361/55
f 83/3391/85 84/3389/83 32/3361/55
f 32/3361/55 84/3389/83 30/3359/53
f 84/3389/83 55/3387/81 30/3359/53
f 30/3359/53 55/3387/81 28/3357/51
f 85/3354/48 111/3353/47 86/3409/103
f 111/3353/47 87/3417/111 86/3409/103
f 86/3409/103 87/3417/111 88/3410/104
f 87/3417/111 6/3320/14 88/3410/104
f 89/3418/112 90/3399/93 62/3398/92
f 39/3373/67 101/3411/105 71/3406/100
f 101/3411/105 102/3419/113 71/3406/100
f 71/3406/100 102/3419/113 54/3337/31
f 102/3419/113 104/3335/29 54/3337/31
f 6/3320/14 87/3417/111 91/3322/16
f 87/3417/111 92/3352/46 91/3322/16
f 91/3322/16 92/3352/46 9/3324/18
f 31/3360/54 29/3358/52 76/3368/62
f 29/3358/52 27/3317/11 76/3368/62
f 76/3368/62 27/3317/11 5/3319/13
f 93/3414/108 94/3420/114 95/3415/109
f 94/3420/114 96/3307/1 95/3415/109
f 95/3415/109 96/3307/1 97/3309/3
f 98/3375/69 99/3377/71 100/3412/106
f 99/3377/71 13/3329/23 100/3412/106
f 100/3412/106 13/3329/23 80/3331/25
f 101/3411/105 79/3413/107 102/3419/113
f 79/3413/107 103/3333/27 102/3419/113
f 102/3419/113 103/3333/27 104/3335/29
f 38/3371/65 39/3373/67 70/3405/99
f 39/3373/67 71/3406/100 70/3405/99
f 8/3323/17 10/3325/19 78/3376/70
f 10/3325/19 41/3327/21 78/3376/70
f 105/3336/30 106/3401/95 107/3338/32
f 17/3343/37 59/3394/88 19/3345/39
f 59/3394/88 108/3347/41 19/3345/39
f 67/3404/98 113/3403/97 89/3418/112
f 113/3403/97 90/3399/93 89/3418/112
f 21/3349/43 108/3347/41 109/3396/90
f 108/3347/41 59/3394/88 109/3396/90
f 95/3415/109 97/3309/3 110/3416/110
f 97/3309/3 2/3311/5 110/3416/110
f 87/3417/111 111/3353/47 92/3352/46
f 112/3386/80 56/3388/82 93/3414/108
f 113/3403/97 64/3400/94 90/3399/93
f 114/3393/87 58/3392/86 60/3395/89
f 115/3421/115 144/3422/116 116/3423/117
f 144/3422/116 143/3424/118 116/3423/117
f 116/3423/117 143/3424/118 117/3425/119
f 143/3424/118 142/3426/120 117/3425/119
f 117/3425/119 142/3426/120 118/3427/121
f 142/3426/120 119/3428/122 118/3427/121
f 119/3428/122 142/3426/120 120/3429/123
f 142/3426/120 121/3430/124 120/3429/123
f 121/3430/124 142/3426/120 122/3431/125
f 142/3426/120 132/3432/126 122/3431/125
f 123/3433/127 124/3434/128 125/3435/129
f 124/3434/128 136/3436/130 125/3435/129
f 125/3435/129 136/3436/130 142/3426/120
f 136/3436/130 126/3437/131 142/3426/120
f 142/3426/120 126/3437/131 129/3438/132
f 127/3439/133 141/3440/134 133/3441/135
f 141/3440/134 140/3442/136 133/3441/135
f 133/3441/135 140/3442/136 139/3443/137
f 140/3442/136 138/3444/138 139/3443/137
f 139/3443/137 138/3444/138 128/3445/139
f 129/3438/132 130/3446/140 142/3426/120
f 130/3446/140 131/3447/141 142/3426/120
f 142/3426/120 131/3447/141 132/3432/126
f 133/3441/135 139/3443/137 135/3448/142
f 139/3443/137 134/3449/143 135/3448/142
f 134/3449/143 127/3439/133 135/3448/142
f 127/3439/133 133/3441/135 135/3448/142
f 126/3437/131 136/3436/130 124/3434/128
f 140/3442/136 137/3450/144 138/3444/138
f 137/3450/144 128/3445/139 138/3444/138
f 139/3443/137 128/3445/139 134/3449/143
f 140/3442/136 141/3440/134 137/3450/144
f 142/3426/120 143/3424/118 144/3422/116
