mtllib Hair.mtl
o Mesh_0005.rip.050_Mesh_0005.rip_mesh0000.061
v -0.010000 0.230000 0.272500
v 0.253828 0.241953 0.197852
v 0.332148 0.225000 0.000000
v 0.347930 0.325000 -0.110078
v 0.176406 0.639922 -0.106016
v 0.063125 0.692422 0.000000
v -0.189531 0.510234 0.256445
v -0.300234 0.465859 0.219297
v 0.075820 -0.075000 -0.253555
v 0.120000 0.010000 -0.224414
v 0.038555 0.020000 -0.257734
v 0.150000 0.080000 -0.220000
v 0.010000 0.120000 -0.263437
v 0.152070 0.225000 -0.247461
v -0.010000 0.230000 -0.272500
v -0.290195 0.421484 -0.144961
v -0.288437 0.526563 -0.089336
v 0.010000 0.120000 0.263437
v 0.152070 0.225000 0.247461
v 0.298398 0.225742 0.113086
v 0.298398 0.225742 -0.113086
v 0.269531 0.325000 -0.196289
v 0.132227 0.444258 -0.262461
v 0.185508 0.655664 0.000000
v 0.060039 0.674883 0.106016
v -0.030820 0.610859 0.201055
v -0.010000 0.530000 0.254414
v -0.244648 0.333359 0.210508
v -0.161914 0.275313 0.275039
v -0.290195 0.421484 0.144961
v -0.244180 0.610000 0.054766
v -0.182383 0.653047 0.080000
v -0.056367 0.688398 0.000000
v -0.182383 0.653047 -0.080000
v -0.053398 0.671523 -0.104023
v -0.030820 0.610859 -0.201055
v 0.270274 0.561172 0.106016
v 0.176406 0.639922 0.106016
v 0.284219 0.572851 0.000000
v 0.060039 0.674883 -0.106016
v -0.053398 0.671523 0.104023
v -0.197383 0.588945 0.194766
v -0.297148 0.564961 0.153711
v 0.284961 0.060000 0.090000
v 0.297656 -0.000000 0.045977
v 0.127734 0.035430 0.106680
v 0.156367 0.022812 0.000000
v 0.080156 0.055430 -0.174961
v 0.010000 0.120000 -0.263437
v -0.189531 0.510234 -0.256445
v -0.197383 0.588945 -0.194766
v -0.170000 0.630000 0.000000
v -0.220273 0.577969 0.000000
v -0.288437 0.526563 0.089336
v 0.270274 0.561172 -0.106016
v 0.333047 0.456602 0.108359
v 0.269531 0.325000 0.196289
v -0.300234 0.465859 -0.219297
v -0.160000 0.423984 -0.298203
v -0.011016 0.430703 -0.278789
v 0.158399 0.581836 0.187617
v -0.011016 0.430703 0.278789
v -0.160000 0.423984 0.298203
v -0.253359 0.371758 0.274883
v 0.310000 0.020000 0.000000
v 0.310000 0.130000 0.000000
v 0.284961 0.060000 -0.090000
v 0.167891 0.325000 -0.266758
v 0.260000 0.000000 -0.128008
v 0.244609 -0.075000 -0.179922
v 0.175937 0.010000 -0.201680
v 0.280000 0.132851 0.101523
v 0.284961 0.060000 0.090000
v 0.220000 0.140000 0.180352
v 0.150000 0.080000 0.220000
v 0.175938 0.010000 0.201680
v -0.020000 0.320000 -0.282969
v -0.060391 0.249961 -0.321758
v -0.166953 0.297500 -0.312187
v -0.161914 0.275313 -0.275039
v 0.244609 -0.075000 0.179922
v 0.175938 0.010000 0.201680
v 0.220000 0.140000 -0.180352
v 0.220000 0.050508 -0.174063
v 0.333047 0.456602 -0.108359
v 0.349961 0.462734 0.000000
v 0.365664 0.325000 0.000000
v 0.347930 0.325000 0.110078
v 0.297656 -0.000000 0.045977
v 0.331133 -0.075000 -0.000000
v -0.010000 0.230000 -0.272500
v -0.020000 0.320000 -0.282969
v -0.257617 0.500000 0.000000
v -0.244180 0.610000 -0.054766
v -0.297148 0.564961 -0.153711
v -0.060391 0.249961 -0.321758
v -0.161914 0.275313 -0.275039
v -0.244648 0.333359 -0.210508
v 0.175937 0.010000 -0.201680
v 0.244609 -0.075000 -0.179922
v 0.260000 0.000000 -0.128008
v 0.260000 -0.000000 0.128008
v 0.220000 0.050508 0.174062
v 0.244609 -0.075000 0.179922
v 0.284961 0.060000 -0.090000
v 0.127734 0.035430 -0.106680
v 0.297656 0.000000 -0.045977
v 0.331133 -0.075000 -0.000000
v 0.260000 -0.000000 0.128008
v 0.150000 0.080000 0.220000
v 0.120000 0.010000 0.224414
v 0.075820 -0.075000 0.253555
v 0.038555 0.020000 0.257734
v 0.080156 0.055430 0.174961
v 0.010000 0.120000 0.263437
v 0.266016 0.438711 -0.197734
v 0.158399 0.581836 -0.187617
v -0.010000 0.530000 -0.254414
v 0.075820 -0.075000 0.253555
v 0.038555 0.020000 0.257734
v 0.120000 0.010000 0.224414
v 0.132227 0.444258 0.262461
v -0.020000 0.320000 0.282969
v -0.060391 0.249961 0.321758
v -0.110156 0.334844 0.320742
v -0.166953 0.297500 0.312187
v -0.110156 0.334844 -0.320742
v -0.253359 0.371758 -0.274883
v -0.244648 0.333359 -0.210508
v -0.257617 0.500000 0.000000
v -0.288437 0.526563 -0.089336
v -0.290195 0.421484 -0.144961
v -0.032539 0.544766 0.000000
v -0.161914 0.275313 0.275039
v -0.244648 0.333359 0.210508
v -0.290195 0.421484 0.144961
v 0.297656 0.000000 -0.045977
v -0.010000 0.230000 0.272500
v -0.020000 0.320000 0.282969
v -0.060391 0.249961 0.321758
v 0.038555 0.020000 -0.257734
v 0.075820 -0.075000 -0.253555
v 0.120000 0.010000 -0.224414
v 0.280000 0.132851 -0.101523
v 0.253828 0.241953 -0.197852
v 0.150000 0.080000 -0.220000
v -0.288437 0.526563 0.089336
v 0.167891 0.325000 0.266758
v 0.266016 0.438711 0.197734
vn -0.2311 0.0643 -0.9708
vn -0.1254 0.1010 -0.9869
vn -0.3308 0.2058 -0.9210
vn -0.3338 0.0469 -0.9415
vn -0.6819 0.2202 -0.6975
vn -0.6827 0.0849 -0.7257
vn -0.8640 0.2821 -0.4171
vn -0.8983 0.1370 -0.4175
vn -0.9514 0.3079 0.0000
vn -0.9948 0.1022 0.0000
vn -0.8983 0.1370 0.4175
vn -0.8715 -0.2989 0.3887
vn -0.6187 -0.2366 0.7492
vn -0.6985 -0.5950 0.3976
vn -0.3533 -0.5848 0.7302
vn -0.4343 -0.8165 0.3803
vn -0.1270 -0.9114 0.3914
vn -0.4755 -0.8797 -0.0000
vn -0.1297 -0.9915 -0.0000
vn -0.1270 -0.9114 -0.3914
vn 0.1044 -0.9289 -0.3552
vn -0.0008 -0.7072 -0.7071
vn 0.2829 -0.7171 -0.6370
vn 0.2590 -0.4624 -0.8480
vn 0.8360 -0.4945 -0.2381
vn 0.8735 -0.0990 -0.4766
vn 0.9753 0.2210 -0.0002
vn 0.8262 0.5260 -0.2021
vn -0.3880 -0.1120 0.9148
vn -0.3766 0.0187 0.9262
vn -0.3476 -0.0360 0.9369
vn -0.4316 0.0944 0.8971
vn -0.2311 0.0643 0.9708
vn -0.3308 0.2058 0.9210
vn -0.1254 0.1010 0.9869
vn -0.3338 0.0469 0.9415
vn -0.2405 -0.0343 0.9700
vn -0.2593 -0.2410 0.9353
vn -0.1410 -0.1602 0.9770
vn -0.0807 -0.4326 0.8980
vn 0.1608 -0.2697 0.9494
vn 0.2590 -0.4624 0.8480
vn 0.8735 -0.0990 0.4766
vn 0.8360 -0.4945 0.2381
vn 0.9753 0.2210 0.0002
vn 0.9430 -0.1929 -0.2713
vn -0.3476 -0.0360 -0.9369
vn -0.4316 0.0944 -0.8971
vn -0.6548 0.1888 -0.7318
vn -0.8837 0.1377 -0.4474
vn -0.9939 0.1106 0.0000
vn -0.8640 0.2821 0.4171
vn -0.6827 0.0849 0.7257
vn -0.4343 -0.8165 -0.3803
vn -0.3533 -0.5848 -0.7302
vn -0.0807 -0.4326 -0.8980
vn 0.1608 -0.2697 -0.9494
vn 0.7249 0.1951 -0.6607
vn 0.4734 0.3930 -0.7883
vn 0.5678 0.7383 -0.3639
vn -0.1299 0.0361 -0.9909
vn 0.9430 -0.1929 0.2713
vn 0.7084 -0.6393 0.2991
vn 0.3849 -0.9186 -0.0899
vn 0.5239 -0.8518 0.0000
vn 0.1564 -0.9877 0.0000
vn 0.3849 -0.9186 0.0899
vn 0.1044 -0.9289 0.3552
vn 0.2829 -0.7171 0.6370
vn -0.0008 -0.7072 0.7071
vn -0.2405 -0.0343 -0.9700
vn -0.2593 -0.2410 -0.9353
vn -0.6187 -0.2366 -0.7492
vn -0.6985 -0.5950 -0.3976
vn -0.7614 -0.6483 -0.0000
vn -0.1781 0.9380 -0.2975
vn -0.2062 0.4759 -0.8550
vn 0.6686 0.6918 0.2729
vn 0.1283 0.9917 0.0000
vn 0.7227 0.6912 0.0000
vn 0.6686 0.6918 -0.2729
vn 0.4987 0.8668 0.0000
vn 0.6875 0.5601 -0.4621
vn 0.8802 0.2760 -0.3861
vn 0.8160 0.2544 -0.5190
vn 0.7084 -0.6393 -0.2991
vn 0.8329 -0.5535 -0.0000
vn 0.9312 -0.3644 -0.0000
vn -0.9468 -0.3220 -0.0000
vn -0.8715 -0.2989 -0.3887
vn 0.8262 0.5260 0.2021
vn 0.7249 0.1951 0.6607
vn -0.0427 -0.1259 0.9911
vn -0.1410 -0.1602 -0.9770
vn -0.0427 -0.1259 -0.9911
vn -0.9963 -0.0859 -0.0000
vn -0.8986 -0.0034 0.4388
vn -0.8837 0.1377 0.4474
vn -0.6548 0.1888 0.7318
vn -0.6819 0.2202 0.6975
vn -0.1781 0.9380 0.2975
vn 0.0128 0.5504 -0.8348
vn 0.3325 0.8085 -0.4856
vn 0.4452 0.5030 0.7408
vn 0.0121 0.8698 0.4932
vn -0.8986 -0.0034 -0.4388
vn -0.6674 -0.0288 -0.7441
vn -0.4898 -0.0603 -0.8698
vn -0.1299 0.0361 0.9909
vn 0.4734 0.3930 0.7883
vn 0.5678 0.7383 0.3639
vn 0.6875 0.5602 0.4621
vn 0.3325 0.8085 0.4856
vn 0.4452 0.5030 -0.7408
vn -0.6674 -0.0288 0.7441
vn -0.8142 -0.1285 0.5662
vn -0.9505 -0.0939 -0.2960
vn -0.9761 -0.2171 -0.0000
vn 0.9838 0.1524 -0.0946
vn 0.2758 0.7586 -0.5903
vn -0.2684 0.7217 -0.6380
vn -0.0875 0.7318 -0.6758
vn 0.0256 0.6923 -0.7211
vn 0.1768 0.5722 -0.8008
vn -0.4897 -0.0603 0.8698
vn -0.6824 -0.1670 0.7116
vn -0.8142 -0.1285 -0.5662
vn -0.6824 -0.1670 -0.7116
vn -0.2062 0.4759 0.8550
vn 0.0128 0.5504 0.8348
vn 0.0121 0.8698 -0.4932
vn -0.4817 0.4167 0.7709
vn 0.3922 0.4652 0.7936
vn 0.8160 0.2544 0.5190
vn 0.8802 0.2760 0.3861
vn 0.9838 0.1524 0.0946
vn -0.3880 -0.1120 -0.9148
vn -0.3766 0.0187 -0.9262
vn -0.1951 0.9808 -0.0000
vn 0.1445 0.8034 -0.5777
vn -0.2684 0.7217 0.6380
vn -0.0875 0.7318 0.6758
vn 0.0256 0.6923 0.7211
vn 0.1768 0.5722 0.8008
vn 0.1445 0.8034 0.5777
vn -0.9505 -0.0939 0.2960
vn 0.2758 0.7586 0.5903
vn 0.3922 0.4652 -0.7936
vn -0.4817 0.4167 -0.7709
usemtl Material.013
s 1
f 18/4850/1 1/4851/2 19/4852/3
f 1/4851/2 148/4853/4 19/4852/3
f 19/4852/3 148/4853/4 2/4854/5
f 148/4853/4 57/4855/6 2/4854/5
f 2/4854/5 57/4855/6 20/4856/7
f 57/4855/6 88/4857/8 20/4856/7
f 20/4856/7 88/4857/8 3/4858/9
f 88/4857/8 87/4859/10 3/4858/9
f 3/4858/9 87/4859/10 4/4860/11
f 87/4859/10 85/4861/12 4/4860/11
f 4/4860/11 85/4861/12 116/4862/13
f 85/4861/12 55/4863/14 116/4862/13
f 116/4862/13 55/4863/14 117/4864/15
f 55/4863/14 5/4865/16 117/4864/15
f 117/4864/15 5/4865/16 40/4866/17
f 5/4865/16 24/4867/18 40/4866/17
f 40/4866/17 24/4867/18 6/4868/19
f 24/4867/18 25/4869/20 6/4868/19
f 6/4868/19 25/4869/20 41/4870/21
f 25/4869/20 26/4871/22 41/4870/21
f 41/4870/21 26/4871/22 42/4872/23
f 26/4871/22 7/4873/24 42/4872/23
f 42/4872/23 7/4873/24 43/4874/25
f 7/4873/24 8/4875/26 43/4874/25
f 43/4874/25 8/4875/26 30/4876/27
f 8/4875/26 28/4877/28 30/4876/27
f 9/4878/29 10/4879/30 11/4880/31
f 10/4879/30 12/4881/32 11/4880/31
f 11/4880/31 12/4881/32 13/4882/33
f 12/4881/32 14/4883/34 13/4882/33
f 13/4882/33 14/4883/34 15/4884/35
f 14/4883/34 68/4885/36 15/4884/35
f 15/4884/35 68/4885/36 77/4886/37
f 68/4885/36 23/4887/38 77/4886/37
f 77/4886/37 23/4887/38 60/4888/39
f 23/4887/38 118/4889/40 60/4888/39
f 60/4888/39 118/4889/40 59/4890/41
f 118/4889/40 50/4891/42 59/4890/41
f 59/4890/41 50/4891/42 58/4892/43
f 50/4891/42 95/4893/44 58/4892/43
f 58/4892/43 95/4893/44 16/4894/45
f 95/4893/44 17/4895/46 16/4894/45
f 120/4896/47 18/4850/1 75/4897/48
f 18/4850/1 19/4852/3 75/4897/48
f 75/4897/48 19/4852/3 74/4898/49
f 19/4852/3 2/4854/5 74/4898/49
f 74/4898/49 2/4854/5 72/4899/50
f 2/4854/5 20/4856/7 72/4899/50
f 72/4899/50 20/4856/7 66/4900/51
f 20/4856/7 3/4858/9 66/4900/51
f 66/4900/51 3/4858/9 21/4901/52
f 3/4858/9 4/4860/11 21/4901/52
f 21/4901/52 4/4860/11 22/4902/53
f 4/4860/11 116/4862/13 22/4902/53
f 22/4902/53 116/4862/13 68/4885/36
f 116/4862/13 23/4887/38 68/4885/36
f 24/4867/18 38/4903/54 25/4869/20
f 38/4903/54 61/4904/55 25/4869/20
f 25/4869/20 61/4904/55 26/4871/22
f 61/4904/55 27/4905/56 26/4871/22
f 26/4871/22 27/4905/56 7/4873/24
f 27/4905/56 63/4906/57 7/4873/24
f 7/4873/24 63/4906/57 8/4875/26
f 63/4906/57 64/4907/58 8/4875/26
f 8/4875/26 64/4907/58 28/4877/28
f 64/4907/58 126/4908/59 28/4877/28
f 28/4877/28 126/4908/59 29/4909/60
f 126/4908/59 124/4910/61 29/4909/60
f 30/4876/27 54/4911/62 43/4874/25
f 54/4911/62 31/4912/63 43/4874/25
f 43/4874/25 31/4912/63 32/4913/64
f 31/4912/63 52/4914/65 32/4913/64
f 32/4913/64 52/4914/65 33/4915/66
f 52/4914/65 34/4916/67 33/4915/66
f 33/4915/66 34/4916/67 35/4917/68
f 34/4916/67 51/4918/69 35/4917/68
f 35/4917/68 51/4918/69 36/4919/70
f 51/4918/69 50/4891/42 36/4919/70
f 36/4919/70 50/4891/42 118/4889/40
f 1/4851/2 123/4920/71 148/4853/4
f 123/4920/71 122/4921/72 148/4853/4
f 148/4853/4 122/4921/72 149/4922/73
f 122/4921/72 61/4904/55 149/4922/73
f 149/4922/73 61/4904/55 37/4923/74
f 61/4904/55 38/4903/54 37/4923/74
f 37/4923/74 38/4903/54 39/4924/75
f 38/4903/54 24/4867/18 39/4924/75
f 39/4924/75 24/4867/18 5/4865/16
f 118/4889/40 117/4864/15 36/4919/70
f 117/4864/15 40/4866/17 36/4919/70
f 36/4919/70 40/4866/17 35/4917/68
f 40/4866/17 6/4868/19 35/4917/68
f 35/4917/68 6/4868/19 33/4915/66
f 6/4868/19 41/4870/21 33/4915/66
f 33/4915/66 41/4870/21 32/4913/64
f 41/4870/21 42/4872/23 32/4913/64
f 32/4913/64 42/4872/23 43/4874/25
f 44/4925/76 45/4926/77 46/4927/78
f 45/4926/77 108/4928/79 46/4927/78
f 46/4927/78 108/4928/79 47/4929/80
f 108/4928/79 106/4930/81 47/4929/80
f 47/4929/80 106/4930/81 133/4931/82
f 106/4930/81 48/4932/83 133/4931/82
f 133/4931/82 48/4932/83 49/4933/84
f 48/4932/83 141/4934/85 49/4933/84
f 50/4891/42 51/4918/69 95/4893/44
f 51/4918/69 34/4916/67 95/4893/44
f 95/4893/44 34/4916/67 94/4935/86
f 34/4916/67 52/4914/65 94/4935/86
f 94/4935/86 52/4914/65 53/4936/87
f 52/4914/65 31/4912/63 53/4936/87
f 53/4936/87 31/4912/63 93/4937/88
f 31/4912/63 54/4911/62 93/4937/88
f 5/4865/16 55/4863/14 39/4924/75
f 55/4863/14 86/4938/89 39/4924/75
f 39/4924/75 86/4938/89 37/4923/74
f 86/4938/89 56/4939/90 37/4923/74
f 37/4923/74 56/4939/90 149/4922/73
f 56/4939/90 88/4857/8 149/4922/73
f 149/4922/73 88/4857/8 57/4855/6
f 16/4894/45 129/4940/91 58/4892/43
f 129/4940/91 128/4941/92 58/4892/43
f 58/4892/43 128/4941/92 59/4890/41
f 128/4941/92 127/4942/93 59/4890/41
f 59/4890/41 127/4942/93 60/4888/39
f 127/4942/93 77/4886/37 60/4888/39
f 61/4904/55 122/4921/72 27/4905/56
f 122/4921/72 62/4943/94 27/4905/56
f 27/4905/56 62/4943/94 63/4906/57
f 62/4943/94 125/4944/95 63/4906/57
f 63/4906/57 125/4944/95 64/4907/58
f 125/4944/95 126/4908/59 64/4907/58
f 65/4945/96 66/4900/51 67/4946/97
f 66/4900/51 144/4947/98 67/4946/97
f 67/4946/97 144/4947/98 83/4948/99
f 144/4947/98 145/4949/100 83/4948/99
f 83/4948/99 145/4949/100 14/4883/34
f 145/4949/100 68/4885/36 14/4883/34
f 105/4950/101 69/4951/102 106/4930/81
f 69/4951/102 70/4952/103 106/4930/81
f 106/4930/81 70/4952/103 48/4932/83
f 70/4952/103 71/4953/104 48/4932/83
f 48/4932/83 71/4953/104 146/4954/105
f 72/4899/50 73/4955/106 74/4898/49
f 73/4955/106 103/4956/107 74/4898/49
f 74/4898/49 103/4956/107 75/4897/48
f 103/4956/107 76/4957/108 75/4897/48
f 77/4886/37 127/4942/93 78/4958/109
f 127/4942/93 79/4959/110 78/4958/109
f 78/4958/109 79/4959/110 80/4960/111
f 79/4959/110 129/4940/91 80/4960/111
f 47/4929/80 133/4931/82 46/4927/78
f 133/4931/82 114/4961/112 46/4927/78
f 46/4927/78 114/4961/112 81/4962/113
f 114/4961/112 82/4963/114 81/4962/113
f 14/4883/34 12/4881/32 83/4948/99
f 12/4881/32 84/4964/115 83/4948/99
f 83/4948/99 84/4964/115 67/4946/97
f 84/4964/115 101/4965/116 67/4946/97
f 55/4863/14 85/4861/12 86/4938/89
f 85/4861/12 87/4859/10 86/4938/89
f 86/4938/89 87/4859/10 56/4939/90
f 87/4859/10 88/4857/8 56/4939/90
f 72/4899/50 66/4900/51 73/4955/106
f 66/4900/51 65/4945/96 73/4955/106
f 73/4955/106 65/4945/96 89/4966/117
f 65/4945/96 90/4967/118 89/4966/117
f 49/4933/84 91/4968/119 133/4931/82
f 91/4968/119 92/4969/120 133/4931/82
f 133/4931/82 92/4969/120 96/4970/121
f 53/4936/87 93/4937/88 94/4935/86
f 93/4937/88 17/4895/46 94/4935/86
f 94/4935/86 17/4895/46 95/4893/44
f 96/4970/121 97/4971/122 133/4931/82
f 97/4971/122 98/4972/123 133/4931/82
f 133/4931/82 98/4972/123 132/4973/124
f 12/4881/32 99/4974/125 84/4964/115
f 99/4974/125 100/4975/126 84/4964/115
f 84/4964/115 100/4975/126 101/4965/116
f 73/4955/106 102/4976/127 103/4956/107
f 102/4976/127 104/4977/128 103/4956/107
f 103/4956/107 104/4977/128 76/4957/108
f 105/4950/101 106/4930/81 107/4978/129
f 106/4930/81 108/4928/79 107/4978/129
f 44/4925/76 46/4927/78 109/4979/130
f 46/4927/78 81/4962/113 109/4979/130
f 110/4980/131 114/4961/112 111/4981/132
f 114/4961/112 112/4982/133 111/4981/132
f 112/4982/133 114/4961/112 113/4983/134
f 114/4961/112 115/4984/135 113/4983/134
f 114/4961/112 133/4931/82 115/4984/135
f 133/4931/82 138/4985/136 115/4984/135
f 116/4862/13 117/4864/15 23/4887/38
f 117/4864/15 118/4889/40 23/4887/38
f 119/4986/137 120/4896/47 121/4987/138
f 120/4896/47 75/4897/48 121/4987/138
f 122/4921/72 123/4920/71 62/4943/94
f 123/4920/71 125/4944/95 62/4943/94
f 123/4920/71 124/4910/61 125/4944/95
f 124/4910/61 126/4908/59 125/4944/95
f 127/4942/93 128/4941/92 79/4959/110
f 128/4941/92 129/4940/91 79/4959/110
f 130/4988/139 133/4931/82 131/4989/140
f 133/4931/82 132/4973/124 131/4989/140
f 140/4990/141 133/4931/82 134/4991/142
f 133/4931/82 135/4992/143 134/4991/142
f 135/4992/143 133/4931/82 136/4993/144
f 133/4931/82 147/4994/145 136/4993/144
f 90/4967/118 65/4945/96 137/4995/146
f 65/4945/96 67/4946/97 137/4995/146
f 138/4985/136 133/4931/82 139/4996/147
f 133/4931/82 140/4990/141 139/4996/147
f 141/4934/85 48/4932/83 142/4997/148
f 48/4932/83 143/4998/149 142/4997/148
f 66/4900/51 21/4901/52 144/4947/98
f 21/4901/52 145/4949/100 144/4947/98
f 21/4901/52 22/4902/53 145/4949/100
f 22/4902/53 68/4885/36 145/4949/100
f 48/4932/83 146/4954/105 143/4998/149
f 110/4980/131 82/4963/114 114/4961/112
f 147/4994/145 133/4931/82 130/4988/139
f 57/4855/6 148/4853/4 149/4922/73
