mtllib Hair.mtl
o Mesh_0005.rip.044_Mesh_0005.rip_mesh0000.054
v -0.176445 0.492383 0.217383
v -0.182109 0.424336 0.218828
v -0.252070 0.432266 0.157813
v -0.296680 0.438438 0.082734
v -0.118516 0.616484 -0.178984
v -0.188359 0.622383 -0.138594
v 0.179219 0.639922 0.108555
v -0.058203 0.681367 -0.106016
v 0.336641 0.336914 -0.106211
v 0.347305 0.331250 0.000078
v 0.333047 0.456602 -0.108359
v -0.311992 0.440781 0.000078
v 0.090234 0.219062 0.240000
v 0.000000 0.310000 0.265547
v 0.418008 0.273984 0.000078
v 0.431172 0.285547 -0.043750
v 0.453555 0.305937 -0.059023
v -0.159922 0.557969 -0.207812
v -0.136719 0.491250 -0.227500
v -0.182109 0.424336 -0.218633
v -0.176445 0.492383 -0.217227
v 0.265117 0.584531 0.077148
v 0.373008 0.650156 0.102500
v -0.296680 0.438438 -0.082578
v -0.252070 0.432266 -0.157656
v 0.377305 0.332851 -0.086016
v 0.000000 0.310000 -0.265391
v -0.090000 0.270000 -0.247148
v -0.101484 0.350000 -0.246758
v 0.255977 0.245312 -0.199219
v 0.300195 0.229219 -0.102969
v 0.191055 0.096289 0.000000
v -0.223047 0.565000 -0.154531
v -0.176445 0.492383 -0.217227
v -0.159414 0.671680 0.060000
v -0.288281 0.506406 -0.084180
v -0.263320 0.570469 -0.080898
v 0.333047 0.456602 0.108555
v -0.114687 0.444297 0.000078
v -0.101484 0.350000 0.246953
v -0.090000 0.270000 0.247305
v -0.101484 0.350000 -0.246758
v -0.114726 0.422148 -0.239766
v 0.000000 0.310000 0.265547
v 0.090234 0.219062 0.240000
v -0.050000 0.350000 -0.269609
v -0.114726 0.422148 -0.239766
v 0.479102 0.324687 0.037227
v 0.479102 0.324687 -0.037031
v 0.431172 0.285547 0.043906
v 0.444805 0.397109 -0.087891
v 0.324531 0.502851 -0.110000
v 0.302031 0.546250 0.101484
v 0.373008 0.650156 -0.102344
v 0.224609 0.613437 0.000078
v 0.221875 0.694805 0.041211
v 0.307031 0.730078 0.000078
v -0.288281 0.506406 0.084336
v -0.277226 0.572578 0.000078
v -0.263320 0.570469 0.081055
v -0.223633 0.626836 0.072891
v -0.188945 0.622695 0.139141
v -0.159922 0.557969 0.208008
v -0.044297 0.537305 0.247344
v 0.053164 0.524219 0.253047
v 0.161328 0.582305 0.205937
v 0.132227 0.444258 0.262617
v 0.266016 0.438711 0.197891
v 0.162969 0.336914 0.257500
v 0.138906 0.155547 0.186680
v 0.255977 0.245312 0.199375
v 0.183789 0.108906 0.106680
v 0.315391 0.223711 0.000078
v 0.053164 0.524219 -0.252891
v -0.040000 0.430000 -0.272930
v -0.044297 0.537305 -0.247148
v -0.303281 0.508750 0.000078
v -0.223359 0.626680 -0.072461
v -0.159922 0.557969 -0.207812
v 0.132227 0.444258 -0.262461
v 0.012031 0.611680 0.197305
v 0.060039 0.674883 0.106016
v 0.286094 0.573359 0.000078
v 0.349961 0.462734 0.000078
v -0.136719 0.491250 -0.227500
v 0.045352 0.425000 -0.280039
v 0.162969 0.336914 -0.257344
v 0.090234 0.219062 -0.240000
v 0.138906 0.155547 -0.186680
v 0.183789 0.108906 -0.106680
v -0.118789 0.616680 0.179336
v -0.061211 0.698320 0.000000
v -0.159101 0.671445 -0.059219
v -0.296680 0.438438 0.082734
v -0.311992 0.440781 0.000078
v -0.296680 0.438438 -0.082578
v -0.252070 0.432266 -0.157656
v -0.244726 0.500273 -0.160742
v -0.182109 0.424336 -0.218633
v 0.266016 0.438711 -0.197734
v 0.272305 0.561797 -0.108359
v 0.179219 0.639922 -0.108359
v 0.060039 0.674883 -0.106016
v 0.188242 0.655508 0.000078
v 0.063125 0.692422 0.000000
v -0.058203 0.681367 0.106016
v 0.272305 0.561797 0.108555
v -0.136719 0.491250 0.227656
v -0.040000 0.430000 0.273125
v -0.114726 0.422148 0.239922
v -0.050000 0.350000 0.269805
v -0.101484 0.350000 0.246953
v 0.012031 0.611680 -0.197148
v 0.161328 0.582305 -0.205742
v 0.293047 0.694883 0.077852
v 0.223711 0.633906 0.051367
v 0.223711 0.633906 -0.051172
v 0.128399 0.623125 0.000078
v 0.221875 0.694805 -0.041055
v 0.220977 0.715273 0.000078
v 0.293047 0.694883 -0.077695
v 0.341367 0.436094 -0.101758
v 0.343555 0.315742 0.000078
v 0.341367 0.436094 0.101914
v 0.377305 0.332851 0.086211
v 0.444805 0.397109 0.088047
v 0.453555 0.305937 0.059180
v -0.244726 0.500273 0.160898
v -0.223047 0.565000 0.154727
v -0.252070 0.432266 0.157813
v -0.182109 0.424336 0.218828
v -0.176445 0.492383 0.217383
v -0.090000 0.270000 0.247305
v 0.530000 0.263750 0.000078
v 0.493828 0.336289 0.000078
v 0.478555 0.414219 0.000078
v 0.292500 0.428320 0.000078
v 0.324531 0.502851 0.110195
v 0.439024 0.481641 0.102656
v 0.425117 0.564414 0.111094
v 0.475430 0.582695 0.000078
v 0.482774 0.469180 0.000078
v 0.408477 0.684609 0.000078
v 0.439024 0.481641 -0.102500
v 0.425117 0.564414 -0.110938
v 0.266563 0.511797 0.000078
v 0.045352 0.425000 0.280195
v -0.136719 0.491250 0.227656
v -0.114726 0.422148 0.239922
v 0.090234 0.219062 -0.240000
v 0.000000 0.310000 -0.265391
v -0.090000 0.270000 -0.247148
v -0.235469 0.628359 0.000195
v -0.168828 0.672617 0.000352
v 0.265117 0.584531 -0.076992
v 0.302031 0.546250 -0.101328
v 0.251172 0.549375 0.000078
v 0.336641 0.336914 0.106367
v 0.300195 0.229219 0.103125
v -0.159922 0.557969 0.208008
vn 0.0806 -0.9157 0.3937
vn 0.6557 0.2068 -0.7262
vn 0.4845 -0.5683 0.6651
vn 0.4764 0.2672 -0.8376
vn 0.3579 0.5056 -0.7850
vn 0.7488 -0.1829 -0.6371
vn 0.6192 -0.1671 -0.7672
vn 0.7690 -0.0595 -0.6365
vn 0.6411 -0.0553 -0.7655
vn -0.0069 0.1722 -0.9850
vn -0.0438 -0.0748 -0.9962
vn -0.9510 -0.3093 0.0002
vn -0.5768 0.0444 -0.8157
vn -0.9445 -0.3284 -0.0000
vn -0.5136 -0.1964 0.8352
vn 0.5563 0.1067 0.8241
vn 0.0566 0.8812 -0.4694
vn 0.9467 0.3211 0.0254
vn 0.2978 0.9546 0.0000
vn 0.9714 0.2364 0.0220
vn 0.9876 0.1567 0.0070
vn 0.7153 0.6975 -0.0438
vn 0.3377 0.8906 -0.3046
vn 0.1721 0.8131 -0.5561
vn 0.9876 0.1567 -0.0070
vn 0.6948 -0.7192 0.0020
vn -0.9447 0.1358 -0.2985
vn -0.7234 0.6713 -0.1617
vn 0.0166 0.9958 0.0904
vn -0.0064 0.9984 0.0568
vn -0.0178 0.9998 0.0000
vn -0.0064 0.9984 -0.0568
vn 0.7153 0.6974 0.0438
vn 0.3376 0.8906 0.3047
vn 0.1724 0.8131 0.5560
vn 0.0564 0.8811 0.4695
vn 0.9467 0.3211 -0.0254
vn 0.9714 0.2364 -0.0220
vn -0.7233 0.6713 0.1617
vn -0.9447 0.1358 0.2985
vn 0.0166 0.9958 -0.0904
vn 0.2523 0.1426 0.9571
vn 0.4056 0.0163 0.9139
vn -0.7912 -0.1118 0.6013
vn -0.5763 0.0933 0.8119
vn -0.3662 0.4146 0.8331
vn 0.3580 0.5057 0.7849
vn 0.1342 0.8329 0.5369
vn 0.7526 0.6585 0.0000
vn 0.3198 0.9475 0.0000
vn 0.1342 0.8330 -0.5368
vn -0.8387 0.5446 0.0001
vn -0.3661 0.4147 -0.8330
vn -0.7911 -0.1115 -0.6014
vn -0.5763 0.0932 -0.8119
vn -0.9992 -0.0390 0.0000
vn -1.0000 -0.0060 0.0000
vn -0.5767 0.0444 0.8157
vn 0.4764 0.2671 0.8377
vn 0.4674 0.1575 0.8699
vn 0.9357 0.3529 0.0000
vn 0.9385 0.3453 0.0000
vn 0.4673 0.1573 -0.8700
vn 0.5564 0.1065 -0.8241
vn -0.5137 -0.1964 -0.8352
vn -0.2750 -0.4893 -0.8276
vn -0.6526 -0.7577 -0.0000
vn -0.1348 -0.9909 0.0000
vn -0.2750 -0.4893 0.8276
vn 0.1148 -0.6108 0.7834
vn 0.6558 0.2066 0.7261
vn 0.5910 0.2208 0.7759
vn 0.8974 0.4412 0.0000
vn 0.6657 0.7462 0.0001
vn 0.5910 0.2206 -0.7760
vn 0.9448 0.3275 0.0001
vn 0.4845 -0.5684 -0.6649
vn 0.4462 -0.8949 0.0000
vn 0.1147 -0.6109 -0.7834
vn 0.9300 -0.1086 -0.3513
vn 0.9679 -0.2514 0.0000
vn 0.9108 -0.2309 -0.3422
vn 0.8744 -0.4852 0.0006
vn 0.8276 -0.4654 -0.3139
vn 0.6648 -0.7024 -0.2544
vn 0.6849 -0.4139 -0.5996
vn 0.4920 -0.6948 -0.5245
vn 0.4096 -0.4113 -0.8143
vn 0.2025 -0.6899 -0.6950
vn 0.1287 -0.3917 -0.9111
vn -0.0224 -0.6915 -0.7220
vn -0.0744 -0.3889 -0.9183
vn -0.3589 -0.5747 -0.7354
vn -0.2918 -0.1712 -0.9410
vn -0.6383 -0.1761 -0.7494
vn -0.3043 0.1033 -0.9469
vn -0.6042 0.3613 -0.7102
vn -0.2002 0.3205 -0.9259
vn -0.3616 0.5753 -0.7337
vn -0.6390 0.6872 -0.3457
vn -0.8178 0.4990 -0.2867
vn -0.7189 0.6951 0.0000
vn -0.8590 0.5119 -0.0000
vn -0.8179 0.4989 0.2867
vn -0.9288 0.1165 0.3518
vn -0.6045 0.3610 0.7101
vn -0.6383 -0.1762 0.7494
vn -0.3045 0.1030 0.9469
vn -0.2919 -0.1713 0.9410
vn -0.0436 -0.0748 0.9962
vn -0.0743 -0.3889 0.9183
vn 0.2129 -0.0996 0.9720
vn 0.1291 -0.3922 0.9108
vn 0.3203 -0.1566 0.9343
vn 0.4094 -0.4144 0.8128
vn 0.9108 -0.2309 0.3422
vn 0.8264 -0.4677 0.3137
vn 0.6615 -0.7046 0.2566
vn 0.6829 -0.4180 0.5991
vn 0.4892 -0.6978 0.5232
vn 0.2044 -0.6905 0.6938
vn -0.0216 -0.6911 0.7224
vn -0.3590 -0.5747 0.7354
vn 0.0781 -0.9162 -0.3930
vn -0.1467 -0.9153 -0.3750
vn -0.4360 -0.8325 -0.3420
vn -0.7183 -0.5831 -0.3796
vn -0.7661 -0.6427 0.0000
vn -0.9678 -0.2516 0.0000
vn -0.7183 -0.5831 0.3795
vn -0.8921 -0.2409 0.3822
vn 0.4074 -0.0237 0.9129
vn 0.2181 0.0856 0.9722
vn -0.0066 0.1716 0.9851
vn -0.2006 0.3195 0.9261
vn -0.3621 0.5748 0.7338
vn -0.6391 0.6869 0.3458
vn 0.3638 -0.9056 -0.2180
vn 0.0739 -0.9973 0.0006
vn 0.4143 -0.9102 0.0024
vn 0.3643 -0.9050 0.2197
vn 0.9919 -0.1271 0.0000
vn 0.9300 -0.1086 0.3513
vn 0.7689 -0.0594 0.6366
vn 0.7487 -0.1830 0.6371
vn 0.6410 -0.0551 0.7656
vn 0.6192 -0.1670 0.7672
vn -0.4362 -0.8324 0.3419
vn -0.1469 -0.9151 0.3754
vn -0.4724 -0.8814 -0.0000
vn -0.1684 -0.9857 0.0000
vn -0.8921 -0.2408 -0.3823
vn -0.9288 0.1165 -0.3518
vn -0.9895 0.1446 0.0000
vn 0.3206 -0.1562 -0.9343
vn 0.2129 -0.0995 -0.9720
vn 0.4077 -0.0237 -0.9128
vn 0.2179 0.0858 -0.9722
vn 0.4056 0.0162 -0.9139
vn 0.2521 0.1431 -0.9571
usemtl Material.013
s 1
f 49/3984/44 51/3985/45 17/3986/46
f 51/3985/45 26/3987/47 17/3986/46
f 17/3986/46 26/3987/47 16/3988/48
f 26/3987/47 123/3989/49 16/3988/48
f 16/3988/48 123/3989/49 15/3990/50
f 123/3989/49 50/3991/51 15/3990/50
f 15/3990/50 50/3991/51 134/3992/52
f 50/3991/51 127/3993/53 134/3992/52
f 134/3992/52 127/3993/53 48/3994/54
f 127/3993/53 126/3995/55 48/3994/54
f 48/3994/54 126/3995/55 136/3996/56
f 126/3995/55 142/3997/57 136/3996/56
f 136/3996/56 142/3997/57 51/3985/45
f 142/3997/57 144/3998/58 51/3985/45
f 51/3985/45 144/3998/58 122/3999/59
f 144/3998/58 52/4000/60 122/3999/59
f 122/3999/59 52/4000/60 137/4001/61
f 52/4000/60 146/4002/62 137/4001/61
f 137/4001/61 146/4002/62 138/4003/63
f 146/4002/62 53/4004/64 138/4003/63
f 138/4003/63 53/4004/64 140/4005/65
f 53/4004/64 23/4006/66 140/4005/65
f 140/4005/65 23/4006/66 143/4007/67
f 23/4006/66 57/4008/68 143/4007/67
f 143/4007/67 57/4008/68 54/4009/69
f 57/4008/68 121/4010/70 54/4009/69
f 54/4009/69 121/4010/70 155/4011/71
f 121/4010/70 117/4012/72 155/4011/71
f 155/4011/71 117/4012/72 157/4013/73
f 117/4012/72 55/4014/74 157/4013/73
f 157/4013/73 55/4014/74 116/4015/75
f 55/4014/74 118/4016/76 116/4015/75
f 116/4015/75 118/4016/76 56/4017/77
f 118/4016/76 120/4018/78 56/4017/77
f 56/4017/77 120/4018/78 115/4019/79
f 120/4018/78 57/4008/68 115/4019/79
f 115/4019/79 57/4008/68 23/4006/66
f 94/4020/80 77/4021/81 58/4022/82
f 77/4021/81 59/4023/83 58/4022/82
f 58/4022/82 59/4023/83 60/4024/84
f 59/4023/83 61/4025/85 60/4024/84
f 60/4024/84 61/4025/85 129/4026/86
f 61/4025/85 62/4027/87 129/4026/86
f 129/4026/86 62/4027/87 63/4028/88
f 62/4027/87 91/4029/89 63/4028/88
f 63/4028/88 91/4029/89 64/4030/90
f 91/4029/89 81/4031/91 64/4030/90
f 64/4030/90 81/4031/91 65/4032/92
f 81/4031/91 66/4033/93 65/4032/92
f 65/4032/92 66/4033/93 67/4034/94
f 66/4033/93 68/4035/95 67/4034/94
f 67/4034/94 68/4035/95 69/4036/96
f 68/4035/95 71/4037/97 69/4036/96
f 69/4036/96 71/4037/97 45/4038/98
f 71/4037/97 70/4039/99 45/4038/98
f 70/4039/99 71/4037/97 72/4040/100
f 71/4037/97 159/4041/101 72/4040/100
f 72/4040/100 159/4041/101 32/4042/102
f 159/4041/101 73/4043/103 32/4042/102
f 32/4042/102 73/4043/103 31/4044/104
f 73/4043/103 9/4045/105 31/4044/104
f 31/4044/104 9/4045/105 30/4046/106
f 9/4045/105 100/4047/107 30/4046/106
f 30/4046/106 100/4047/107 87/4048/108
f 100/4047/107 80/4049/109 87/4048/108
f 87/4048/108 80/4049/109 86/4050/110
f 80/4049/109 74/4051/111 86/4050/110
f 86/4050/110 74/4051/111 75/4052/112
f 74/4051/111 76/4053/113 75/4052/112
f 75/4052/112 76/4053/113 85/4054/114
f 76/4053/113 79/4055/115 85/4054/114
f 77/4021/81 36/4056/116 59/4023/83
f 36/4056/116 37/4057/117 59/4023/83
f 59/4023/83 37/4057/117 78/4058/118
f 37/4057/117 33/4059/119 78/4058/118
f 78/4058/118 33/4059/119 6/4060/120
f 33/4059/119 79/4055/115 6/4060/120
f 6/4060/120 79/4055/115 5/4061/121
f 79/4055/115 76/4053/113 5/4061/121
f 5/4061/121 76/4053/113 113/4062/122
f 76/4053/113 74/4051/111 113/4062/122
f 113/4062/122 74/4051/111 114/4063/123
f 74/4051/111 80/4049/109 114/4063/123
f 114/4063/123 80/4049/109 100/4047/107
f 91/4029/89 106/4064/124 81/4031/91
f 106/4064/124 82/4065/125 81/4031/91
f 81/4031/91 82/4065/125 66/4033/93
f 82/4065/125 7/4066/126 66/4033/93
f 66/4033/93 7/4066/126 107/4067/127
f 7/4066/126 83/4068/128 107/4067/127
f 107/4067/127 83/4068/128 84/4069/129
f 83/4068/128 101/4070/130 84/4069/129
f 84/4069/129 101/4070/130 11/4071/131
f 101/4070/130 100/4047/107 11/4071/131
f 11/4071/131 100/4047/107 9/4045/105
f 85/4054/114 47/4072/132 75/4052/112
f 47/4072/132 46/4073/133 75/4052/112
f 75/4052/112 46/4073/133 86/4050/110
f 46/4073/133 27/4074/134 86/4050/110
f 86/4050/110 27/4074/134 87/4048/108
f 27/4074/134 88/4075/135 87/4048/108
f 87/4048/108 88/4075/135 30/4046/106
f 88/4075/135 89/4076/136 30/4046/106
f 30/4046/106 89/4076/136 90/4077/137
f 91/4029/89 62/4027/87 106/4064/124
f 62/4027/87 35/4078/138 106/4064/124
f 106/4064/124 35/4078/138 92/4079/139
f 35/4078/138 154/4080/140 92/4079/139
f 92/4079/139 154/4080/140 93/4081/141
f 154/4080/140 78/4058/118 93/4081/141
f 93/4081/141 78/4058/118 6/4060/120
f 94/4020/80 95/4082/142 77/4021/81
f 95/4082/142 96/4083/143 77/4021/81
f 77/4021/81 96/4083/143 36/4056/116
f 96/4083/143 97/4084/144 36/4056/116
f 36/4056/116 97/4084/144 98/4085/145
f 97/4084/144 99/4086/146 98/4085/145
f 98/4085/145 99/4086/146 34/4087/147
f 100/4047/107 101/4070/130 114/4063/123
f 101/4070/130 102/4088/148 114/4063/123
f 114/4063/123 102/4088/148 103/4089/149
f 102/4088/148 104/4090/150 103/4089/149
f 103/4089/149 104/4090/150 105/4091/151
f 104/4090/150 82/4065/125 105/4091/151
f 105/4091/151 82/4065/125 106/4064/124
f 66/4033/93 107/4067/127 68/4035/95
f 107/4067/127 38/4092/152 68/4035/95
f 68/4035/95 38/4092/152 158/4093/153
f 38/4092/152 10/4094/154 158/4093/153
f 158/4093/153 10/4094/154 73/4043/103
f 10/4094/154 9/4045/105 73/4043/103
f 63/4028/88 64/4030/90 108/4095/155
f 64/4030/90 109/4096/156 108/4095/155
f 108/4095/155 109/4096/156 110/4097/157
f 109/4096/156 111/4098/158 110/4097/157
f 110/4097/157 111/4098/158 112/4099/159
f 111/4098/158 133/4100/160 112/4099/159
f 106/4064/124 92/4079/139 105/4091/151
f 92/4079/139 8/4101/1 105/4091/151
f 105/4091/151 8/4101/1 103/4089/149
f 8/4101/1 113/4062/122 103/4089/149
f 103/4089/149 113/4062/122 114/4063/123
f 56/4017/77 115/4019/79 116/4015/75
f 115/4019/79 22/4102/2 116/4015/75
f 116/4015/75 22/4102/2 157/4013/73
f 22/4102/2 53/4004/64 157/4013/73
f 157/4013/73 53/4004/64 146/4002/62
f 55/4014/74 117/4012/72 118/4016/76
f 117/4012/72 119/4103/3 118/4016/76
f 118/4016/76 119/4103/3 120/4018/78
f 119/4103/3 121/4010/70 120/4018/78
f 120/4018/78 121/4010/70 57/4008/68
f 122/3999/59 137/4001/61 123/3989/49
f 137/4001/61 124/4104/4 123/3989/49
f 123/3989/49 124/4104/4 125/4105/5
f 124/4104/4 126/3995/55 125/4105/5
f 125/4105/5 126/3995/55 127/3993/53
f 58/4022/82 60/4024/84 128/4106/6
f 60/4024/84 129/4026/86 128/4106/6
f 128/4106/6 129/4026/86 132/4107/7
f 129/4026/86 63/4028/88 132/4107/7
f 94/4020/80 58/4022/82 130/4108/8
f 58/4022/82 128/4106/6 130/4108/8
f 130/4108/8 128/4106/6 131/4109/9
f 128/4106/6 132/4107/7 131/4109/9
f 133/4100/160 111/4098/158 44/4110/10
f 111/4098/158 147/4111/11 44/4110/10
f 44/4110/10 147/4111/11 69/4036/96
f 147/4111/11 67/4034/94 69/4036/96
f 17/3986/46 134/3992/52 49/3984/44
f 134/3992/52 135/4112/12 49/3984/44
f 49/3984/44 135/4112/12 136/3996/56
f 135/4112/12 48/3994/54 136/3996/56
f 137/4001/61 138/4003/63 124/4104/4
f 138/4003/63 139/4113/13 124/4104/4
f 124/4104/4 139/4113/13 126/3995/55
f 139/4113/13 142/3997/57 126/3995/55
f 138/4003/63 140/4005/65 139/4113/13
f 140/4005/65 141/4114/14 139/4113/13
f 139/4113/13 141/4114/14 142/3997/57
f 141/4114/14 144/3998/58 142/3997/57
f 140/4005/65 143/4007/67 141/4114/14
f 143/4007/67 145/4115/15 141/4114/14
f 141/4114/14 145/4115/15 144/3998/58
f 145/4115/15 52/4000/60 144/3998/58
f 143/4007/67 54/4009/69 145/4115/15
f 54/4009/69 156/4116/16 145/4115/15
f 145/4115/15 156/4116/16 52/4000/60
f 156/4116/16 146/4002/62 52/4000/60
f 67/4034/94 147/4111/11 65/4032/92
f 147/4111/11 109/4096/156 65/4032/92
f 65/4032/92 109/4096/156 64/4030/90
f 160/4117/17 148/4118/18 39/4119/19
f 148/4118/18 149/4120/20 39/4119/19
f 39/4119/19 149/4120/20 40/4121/21
f 150/4122/22 151/4123/23 39/4119/19
f 151/4123/23 152/4124/24 39/4119/19
f 39/4119/19 152/4124/24 42/4125/25
f 61/4025/85 59/4023/83 153/4126/26
f 59/4023/83 78/4058/118 153/4126/26
f 153/4126/26 78/4058/118 154/4080/140
f 54/4009/69 155/4011/71 156/4116/16
f 155/4011/71 157/4013/73 156/4116/16
f 156/4116/16 157/4013/73 146/4002/62
f 68/4035/95 158/4093/153 71/4037/97
f 158/4093/153 159/4041/101 71/4037/97
f 160/4117/17 39/4119/19 1/4127/27
f 39/4119/19 2/4128/28 1/4127/27
f 2/4128/28 39/4119/19 3/4129/29
f 39/4119/19 4/4130/30 3/4129/29
f 113/4062/122 8/4101/1 5/4061/121
f 8/4101/1 6/4060/120 5/4061/121
f 82/4065/125 104/4090/150 7/4066/126
f 104/4090/150 83/4068/128 7/4066/126
f 6/4060/120 8/4101/1 93/4081/141
f 8/4101/1 92/4079/139 93/4081/141
f 101/4070/130 83/4068/128 102/4088/148
f 83/4068/128 104/4090/150 102/4088/148
f 9/4045/105 10/4094/154 11/4071/131
f 10/4094/154 84/4069/129 11/4071/131
f 4/4130/30 39/4119/19 12/4131/31
f 39/4119/19 24/4132/32 12/4131/31
f 13/4133/33 39/4119/19 14/4134/34
f 39/4119/19 41/4135/35 14/4134/34
f 15/3990/50 134/3992/52 16/3988/48
f 134/3992/52 17/3986/46 16/3988/48
f 18/4136/36 39/4119/19 19/4137/37
f 39/4119/19 43/4138/38 19/4137/37
f 20/4139/39 39/4119/19 21/4140/40
f 39/4119/19 18/4136/36 21/4140/40
f 53/4004/64 22/4102/2 23/4006/66
f 22/4102/2 115/4019/79 23/4006/66
f 24/4132/32 39/4119/19 25/4141/41
f 39/4119/19 20/4139/39 25/4141/41
f 51/3985/45 122/3999/59 26/3987/47
f 122/3999/59 123/3989/49 26/3987/47
f 27/4074/134 46/4073/133 28/4142/42
f 46/4073/133 29/4143/43 28/4142/42
f 127/3993/53 50/3991/51 125/4105/5
f 50/3991/51 123/3989/49 125/4105/5
f 30/4046/106 90/4077/137 31/4044/104
f 90/4077/137 32/4042/102 31/4044/104
f 79/4055/115 33/4059/119 34/4087/147
f 33/4059/119 98/4085/145 34/4087/147
f 62/4027/87 61/4025/85 35/4078/138
f 61/4025/85 154/4080/140 35/4078/138
f 36/4056/116 98/4085/145 37/4057/117
f 98/4085/145 33/4059/119 37/4057/117
f 107/4067/127 84/4069/129 38/4092/152
f 84/4069/129 10/4094/154 38/4092/152
f 39/4119/19 40/4121/21 41/4135/35
f 39/4119/19 42/4125/25 43/4138/38
f 44/4110/10 69/4036/96 45/4038/98
f 109/4096/156 147/4111/11 111/4098/158
f 29/4143/43 46/4073/133 47/4072/132
f 158/4093/153 73/4043/103 159/4041/101
f 154/4080/140 61/4025/85 153/4126/26
f 134/3992/52 48/3994/54 135/4112/12
f 121/4010/70 119/4103/3 117/4012/72
f 49/3984/44 136/3996/56 51/3985/45
