mtllib Hair.mtl
o Mesh_0005.rip.027_Mesh_0005.rip_mesh0000.036
v -0.220000 0.545625 0.113828
v -0.219883 0.586602 0.112305
v -0.201445 0.661211 0.046172
v -0.067539 0.684102 0.053711
v 0.059570 0.672148 0.000000
v -0.039101 0.661094 -0.129648
v -0.160000 0.600000 -0.230352
v -0.220351 0.567227 -0.215195
v -0.227578 0.634570 -0.144258
v -0.292500 0.584023 -0.113789
v -0.219883 0.669492 -0.050117
v -0.287031 0.615117 -0.033945
v -0.214726 0.433281 0.234102
v -0.187344 0.442695 0.263906
v -0.200000 0.485625 0.253047
v 0.166445 0.622617 0.103125
v 0.175000 0.637461 0.000000
v 0.166445 0.622617 -0.103125
v 0.150938 0.334375 -0.244844
v 0.000000 0.334375 -0.263008
v -0.090273 0.334375 -0.240000
v 0.090234 0.219062 -0.240000
v 0.332500 0.334375 0.000000
v 0.328906 0.454062 0.000000
v 0.312813 0.448203 0.100000
v 0.249024 0.431211 0.186680
v 0.149414 0.567813 0.176992
v 0.056914 0.504922 0.239492
v 0.138906 0.155547 -0.186680
v 0.183789 0.108906 -0.106680
v 0.296016 0.226641 0.000000
v 0.316211 0.334375 0.106680
v 0.121719 0.436484 0.240000
v -0.166016 0.380586 0.238203
v -0.222305 0.424414 0.196406
v -0.238945 0.470430 0.219570
v 0.056641 0.655625 0.101055
v 0.056641 0.655625 -0.101055
v 0.055742 0.583281 -0.186016
v 0.149414 0.567813 -0.176992
v 0.056914 0.504922 -0.239492
v 0.121719 0.436484 -0.240000
v 0.013516 0.423906 -0.263008
v 0.249024 0.431211 -0.186680
v 0.312813 0.448203 -0.100000
v 0.255000 0.548320 -0.100000
v 0.268125 0.559336 0.000000
v 0.255000 0.548320 0.100000
v 0.055742 0.583281 0.186016
v -0.160000 0.600000 0.230352
v -0.094101 0.527695 0.265977
v -0.094140 0.607461 0.221133
v -0.018906 0.594766 0.204609
v -0.091094 0.693242 0.000000
v -0.153359 0.687383 -0.099102
v -0.067539 0.684102 -0.053711
v -0.105469 0.664883 -0.149805
v -0.254453 0.467969 -0.158164
v -0.275312 0.530938 -0.178242
v -0.238945 0.470430 -0.219570
v -0.187344 0.442695 -0.263906
v 0.239453 0.247187 -0.186680
v 0.281523 0.231914 -0.097969
v 0.316211 0.334375 -0.106680
v -0.105469 0.657852 0.128320
v -0.176875 0.645898 0.120117
v -0.244141 0.547344 0.067148
v -0.220000 0.545625 0.113828
v -0.023867 0.517617 -0.238945
v -0.018906 0.594766 -0.204609
v -0.087422 0.444102 -0.280117
v -0.047070 0.434258 -0.263203
v -0.023867 0.517617 -0.238945
v -0.047070 0.434258 -0.263203
v -0.081211 0.348555 -0.267695
v -0.187344 0.442695 -0.263906
v -0.166016 0.380664 -0.238164
v -0.100000 0.600000 -0.143555
v -0.215820 0.424414 -0.204609
v -0.170625 0.655273 -0.168125
v -0.094141 0.607461 -0.221133
v -0.254453 0.467969 -0.158164
v -0.278125 0.501953 -0.104414
v -0.285234 0.524961 -0.050195
v -0.274023 0.542227 0.007891
v -0.166016 0.380664 -0.238164
v -0.214726 0.433281 -0.234062
v -0.215820 0.424414 -0.204609
v -0.047070 0.434258 0.263203
v -0.087422 0.444102 0.280117
v -0.081211 0.348555 0.267695
v -0.254453 0.474141 0.156914
v -0.220351 0.567227 0.215195
v -0.244141 0.547344 0.067148
v -0.261094 0.614453 0.046523
v -0.274023 0.542227 0.007891
v -0.285234 0.524961 -0.050195
v -0.278125 0.501953 -0.104414
v -0.039101 0.661094 0.129648
v -0.081211 0.348555 0.267695
v -0.100000 0.583711 0.143555
v -0.187344 0.442695 0.263906
v -0.170625 0.644141 0.168125
v -0.220117 0.596953 0.163750
v -0.255703 0.530938 0.178242
v -0.166016 0.380586 0.238203
v -0.222305 0.424414 0.196406
v -0.254453 0.474141 0.156914
v 0.150938 0.334375 0.244844
v 0.000000 0.334375 0.263008
v -0.090273 0.462227 -0.240000
v 0.239453 0.247187 0.186680
v 0.090234 0.219062 0.240000
v 0.138906 0.155547 0.186680
v 0.191055 0.096289 0.000000
v 0.183789 0.108906 0.106680
v 0.281523 0.231914 0.097969
v -0.023867 0.517617 0.238945
v -0.047070 0.434258 0.263203
v -0.023867 0.517617 0.238945
v -0.090273 0.462227 0.240000
v 0.013516 0.423906 0.263008
v -0.090273 0.334375 0.240000
v -0.081211 0.348555 -0.267695
v -0.200000 0.485625 -0.253047
v -0.094101 0.527695 -0.265977
vn 0.9891 -0.0310 0.1436
vn 0.8763 0.0525 -0.4789
vn 0.9262 -0.3113 -0.2129
vn 0.8288 -0.3880 -0.4032
vn 0.4641 -0.8584 -0.2183
vn 0.4085 -0.8801 -0.2420
vn 0.0000 -0.9777 -0.2101
vn 0.0270 -0.9975 -0.0650
vn -0.2224 -0.9750 -0.0000
vn -0.1335 -0.9764 0.1698
vn -0.2255 -0.8934 0.3885
vn -0.1845 -0.8826 0.4324
vn -0.2825 -0.5875 0.7583
vn -0.1565 -0.6441 0.7487
vn -0.0994 -0.2957 0.9501
vn 0.2182 -0.5501 0.8061
vn 0.4611 -0.1331 0.8773
vn 0.5580 -0.4071 0.7231
vn 0.8840 -0.0461 0.4653
vn 0.5747 -0.6980 0.4272
vn 0.9205 -0.3022 0.2477
vn 0.4733 -0.8803 0.0312
vn 0.8920 -0.4445 -0.0823
vn 0.6505 0.5615 -0.5115
vn 0.7415 0.4041 -0.5356
vn 0.4463 0.0835 -0.8910
vn 0.4686 -0.1376 -0.8727
vn -0.1130 -0.0332 -0.9930
vn -0.0994 -0.2957 -0.9501
vn -0.1902 -0.3161 -0.9295
vn -0.2825 -0.5875 -0.7583
vn -0.2103 -0.6404 -0.7387
vn -0.2255 -0.8934 -0.3885
vn -0.4291 -0.8130 -0.3936
vn -0.4749 -0.8801 -0.0000
vn -0.7668 -0.6419 -0.0000
vn -0.4291 -0.8130 0.3936
vn -0.7062 -0.5841 0.4002
vn -0.3630 -0.5751 0.7331
vn -0.6123 -0.2064 0.7632
vn -0.2992 -0.2137 0.9299
vn -0.3271 0.0359 0.9443
vn 0.0081 -0.1027 0.9947
vn 0.0371 0.0139 0.9992
vn 0.2300 -0.0166 0.9730
vn -0.2824 0.2463 0.9271
vn -0.6336 0.3178 0.7054
vn -0.9134 0.1190 0.3893
vn -0.8875 -0.2595 0.3807
vn -0.9897 0.1430 0.0000
vn -0.9614 -0.2751 -0.0000
vn -0.8875 -0.2595 -0.3807
vn -0.7062 -0.5841 -0.4002
vn -0.6123 -0.2064 -0.7632
vn -0.3630 -0.5751 -0.7331
vn -0.2992 -0.2137 -0.9299
vn -0.1719 -0.3809 -0.9085
vn 0.0081 -0.1027 -0.9947
vn 0.1839 -0.0896 -0.9789
vn -0.4556 0.4999 0.7366
vn -0.7148 0.6062 0.3487
vn -0.8376 0.4625 0.2908
vn -0.7843 0.6204 0.0000
vn -0.8763 0.4818 0.0000
vn -0.8376 0.4625 -0.2908
vn -0.9134 0.1190 -0.3893
vn -0.6336 0.3178 -0.7054
vn -0.3271 0.0359 -0.9443
vn 0.8235 0.5060 -0.2565
vn 0.8489 0.1420 -0.5091
vn 0.6539 -0.4345 -0.6194
vn 0.2258 -0.5892 -0.7758
vn 0.3381 -0.8748 -0.3470
vn -0.1336 -0.6851 -0.7161
vn 0.0810 -0.9390 -0.3343
vn -0.1027 -0.8919 -0.4405
vn -0.2103 -0.6404 0.7387
vn -0.1719 -0.3809 0.9085
vn 0.1447 -0.9678 0.2061
vn -0.1212 -0.8778 0.4634
vn 0.9663 0.2339 0.1079
vn 0.8917 0.3981 0.2154
vn 0.8125 0.2214 0.5393
vn 0.7580 0.4190 0.4999
vn 0.4465 0.0837 0.8909
vn 0.6543 0.5666 0.5009
vn 0.7940 -0.5947 -0.1257
vn 0.9736 -0.2096 -0.0906
vn 0.9930 0.1180 -0.0066
vn -0.3433 0.9385 -0.0365
vn -0.2079 0.9729 0.1009
vn -0.4156 0.7469 -0.5190
vn -0.3328 0.8487 0.4110
vn -0.3847 0.7471 0.5422
vn -0.2997 0.5200 0.7999
vn 0.2539 -0.8073 0.5326
vn -0.1902 -0.3161 0.9295
vn -0.1130 -0.0332 0.9930
vn -0.3938 -0.0362 0.9185
vn -0.0404 0.1262 0.9912
vn -0.5432 0.3705 -0.7535
vn -0.6297 0.3124 -0.7113
vn -0.0669 0.4377 -0.8966
vn -0.7407 0.6161 -0.2677
vn -0.8812 0.3841 -0.2756
vn -0.2681 0.4694 -0.8413
vn -0.4217 0.5713 -0.7041
vn -0.5001 0.7112 -0.4941
vn -0.4743 0.8390 -0.2667
vn 0.8031 0.5567 0.2126
vn -0.3938 -0.0362 -0.9185
vn -0.0404 0.1262 -0.9912
vn 0.9488 0.0453 -0.3125
vn 0.9927 0.0938 -0.0764
vn -0.0723 0.4611 0.8844
vn -0.7155 0.6536 0.2466
vn -0.8833 0.4005 0.2435
vn -0.2619 0.4790 0.8378
vn 0.0371 0.0139 -0.9992
vn -0.2824 0.2463 -0.9271
vn 0.1839 -0.0896 0.9789
vn -0.4556 0.4999 -0.7366
vn -0.7148 0.6062 -0.3487
vn -0.5822 0.3724 0.7227
vn -0.6525 0.3192 0.6873
vn 0.2300 -0.0166 -0.9730
usemtl Material.013
s 1
f 1/2197/1 94/2198/2 2/2199/3
f 94/2198/2 95/2200/4 2/2199/3
f 2/2199/3 95/2200/4 66/2201/5
f 95/2200/4 3/2202/6 66/2201/5
f 66/2201/5 3/2202/6 4/2203/7
f 3/2202/6 54/2204/8 4/2203/7
f 4/2203/7 54/2204/8 5/2205/9
f 54/2204/8 56/2206/10 5/2205/9
f 5/2205/9 56/2206/10 38/2207/11
f 56/2206/10 6/2208/12 38/2207/11
f 38/2207/11 6/2208/12 70/2209/13
f 6/2208/12 81/2210/14 70/2209/13
f 70/2209/13 81/2210/14 126/2211/15
f 81/2210/14 7/2212/16 126/2211/15
f 126/2211/15 7/2212/16 125/2213/17
f 7/2212/16 8/2214/18 125/2213/17
f 125/2213/17 8/2214/18 59/2215/19
f 8/2214/18 9/2216/20 59/2215/19
f 59/2215/19 9/2216/20 10/2217/21
f 9/2216/20 11/2218/22 10/2217/21
f 10/2217/21 11/2218/22 12/2219/23
f 11/2218/22 3/2202/6 12/2219/23
f 12/2219/23 3/2202/6 95/2200/4
f 34/2220/24 13/2221/25 14/2222/26
f 13/2221/25 15/2223/27 14/2222/26
f 14/2222/26 15/2223/27 90/2224/28
f 15/2223/27 51/2225/29 90/2224/28
f 90/2224/28 51/2225/29 120/2226/30
f 51/2225/29 53/2227/31 120/2226/30
f 120/2226/30 53/2227/31 49/2228/32
f 53/2227/31 37/2229/33 49/2228/32
f 49/2228/32 37/2229/33 16/2230/34
f 37/2229/33 17/2231/35 16/2230/34
f 16/2230/34 17/2231/35 47/2232/36
f 17/2231/35 18/2233/37 47/2232/36
f 47/2232/36 18/2233/37 46/2234/38
f 18/2233/37 40/2235/39 46/2234/38
f 46/2234/38 40/2235/39 44/2236/40
f 40/2235/39 42/2237/41 44/2236/40
f 44/2236/40 42/2237/41 19/2238/42
f 42/2237/41 43/2239/43 19/2238/42
f 19/2238/42 43/2239/43 20/2240/44
f 43/2239/43 21/2241/45 20/2240/44
f 20/2240/44 22/2242/46 19/2238/42
f 22/2242/46 62/2243/47 19/2238/42
f 19/2238/42 62/2243/47 44/2236/40
f 62/2243/47 64/2244/48 44/2236/40
f 44/2236/40 64/2244/48 45/2245/49
f 64/2244/48 23/2246/50 45/2245/49
f 45/2245/49 23/2246/50 24/2247/51
f 23/2246/50 25/2248/52 24/2247/51
f 24/2247/51 25/2248/52 48/2249/53
f 25/2248/52 26/2250/54 48/2249/53
f 48/2249/53 26/2250/54 27/2251/55
f 26/2250/54 33/2252/56 27/2251/55
f 27/2251/55 33/2252/56 28/2253/57
f 33/2252/56 122/2254/58 28/2253/57
f 28/2253/57 122/2254/58 120/2226/30
f 122/2254/58 121/2255/59 120/2226/30
f 22/2242/46 29/2256/60 62/2243/47
f 29/2256/60 30/2257/61 62/2243/47
f 62/2243/47 30/2257/61 63/2258/62
f 30/2257/61 115/2259/63 63/2258/62
f 63/2258/62 115/2259/63 31/2260/64
f 115/2259/63 117/2261/65 31/2260/64
f 31/2260/64 117/2261/65 32/2262/66
f 117/2261/65 112/2263/67 32/2262/66
f 32/2262/66 112/2263/67 26/2250/54
f 112/2263/67 109/2264/68 26/2250/54
f 26/2250/54 109/2264/68 33/2252/56
f 109/2264/68 122/2254/58 33/2252/56
f 34/2220/24 35/2265/69 13/2221/25
f 35/2265/69 36/2266/70 13/2221/25
f 13/2221/25 36/2266/70 15/2223/27
f 36/2266/70 93/2267/71 15/2223/27
f 15/2223/27 93/2267/71 50/2268/72
f 93/2267/71 103/2269/73 50/2268/72
f 50/2268/72 103/2269/73 52/2270/74
f 103/2269/73 65/2271/75 52/2270/74
f 52/2270/74 65/2271/75 99/2272/76
f 37/2229/33 5/2205/9 17/2231/35
f 5/2205/9 38/2207/11 17/2231/35
f 17/2231/35 38/2207/11 18/2233/37
f 38/2207/11 39/2273/77 18/2233/37
f 18/2233/37 39/2273/77 40/2235/39
f 39/2273/77 41/2274/78 40/2235/39
f 40/2235/39 41/2274/78 42/2237/41
f 41/2274/78 43/2239/43 42/2237/41
f 44/2236/40 45/2245/49 46/2234/38
f 45/2245/49 24/2247/51 46/2234/38
f 46/2234/38 24/2247/51 47/2232/36
f 24/2247/51 48/2249/53 47/2232/36
f 47/2232/36 48/2249/53 16/2230/34
f 48/2249/53 27/2251/55 16/2230/34
f 16/2230/34 27/2251/55 49/2228/32
f 15/2223/27 50/2268/72 51/2225/29
f 50/2268/72 52/2270/74 51/2225/29
f 51/2225/29 52/2270/74 53/2227/31
f 52/2270/74 99/2272/76 53/2227/31
f 53/2227/31 99/2272/76 37/2229/33
f 99/2272/76 4/2203/7 37/2229/33
f 37/2229/33 4/2203/7 5/2205/9
f 3/2202/6 11/2218/22 54/2204/8
f 11/2218/22 55/2275/79 54/2204/8
f 54/2204/8 55/2275/79 56/2206/10
f 55/2275/79 57/2276/80 56/2206/10
f 56/2206/10 57/2276/80 6/2208/12
f 57/2276/80 81/2210/14 6/2208/12
f 98/2277/81 58/2278/82 59/2215/19
f 58/2278/82 60/2279/83 59/2215/19
f 59/2215/19 60/2279/83 125/2213/17
f 60/2279/83 87/2280/84 125/2213/17
f 125/2213/17 87/2280/84 61/2281/85
f 87/2280/84 86/2282/86 61/2281/85
f 62/2243/47 63/2258/62 64/2244/48
f 63/2258/62 31/2260/64 64/2244/48
f 64/2244/48 31/2260/64 23/2246/50
f 31/2260/64 32/2262/66 23/2246/50
f 23/2246/50 32/2262/66 25/2248/52
f 32/2262/66 26/2250/54 25/2248/52
f 65/2271/75 103/2269/73 66/2201/5
f 103/2269/73 104/2283/87 66/2201/5
f 66/2201/5 104/2283/87 2/2199/3
f 104/2283/87 105/2284/88 2/2199/3
f 2/2199/3 105/2284/88 1/2197/1
f 105/2284/88 92/2285/89 1/2197/1
f 85/2286/90 67/2287/91 78/2288/92
f 67/2287/91 68/2289/93 78/2288/92
f 78/2288/92 68/2289/93 101/2290/94
f 68/2289/93 108/2291/95 101/2290/94
f 11/2218/22 9/2216/20 55/2275/79
f 9/2216/20 80/2292/96 55/2275/79
f 55/2275/79 80/2292/96 57/2276/80
f 80/2292/96 81/2210/14 57/2276/80
f 43/2239/43 41/2274/78 69/2293/97
f 41/2274/78 39/2273/77 69/2293/97
f 69/2293/97 39/2273/77 70/2209/13
f 39/2273/77 38/2207/11 70/2209/13
f 70/2209/13 126/2211/15 69/2293/97
f 126/2211/15 71/2294/98 69/2293/97
f 69/2293/97 71/2294/98 72/2295/99
f 71/2294/98 124/2296/100 72/2295/99
f 73/2297/101 74/2298/102 78/2288/92
f 74/2298/102 75/2299/103 78/2288/92
f 78/2288/92 75/2299/103 76/2300/104
f 76/2300/104 77/2301/105 78/2288/92
f 77/2301/105 79/2302/106 78/2288/92
f 78/2288/92 79/2302/106 82/2303/107
f 9/2216/20 8/2214/18 80/2292/96
f 8/2214/18 7/2212/16 80/2292/96
f 80/2292/96 7/2212/16 81/2210/14
f 82/2303/107 83/2304/108 78/2288/92
f 83/2304/108 84/2305/109 78/2288/92
f 78/2288/92 84/2305/109 85/2286/90
f 86/2282/86 87/2280/84 88/2306/110
f 87/2280/84 60/2279/83 88/2306/110
f 88/2306/110 60/2279/83 58/2278/82
f 120/2226/30 89/2307/111 90/2224/28
f 89/2307/111 91/2308/112 90/2224/28
f 90/2224/28 91/2308/112 14/2222/26
f 35/2265/69 92/2285/89 36/2266/70
f 92/2285/89 105/2284/88 36/2266/70
f 36/2266/70 105/2284/88 93/2267/71
f 94/2198/2 96/2309/113 95/2200/4
f 96/2309/113 12/2219/23 95/2200/4
f 96/2309/113 97/2310/114 12/2219/23
f 97/2310/114 10/2217/21 12/2219/23
f 97/2310/114 98/2277/81 10/2217/21
f 98/2277/81 59/2215/19 10/2217/21
f 66/2201/5 4/2203/7 65/2271/75
f 4/2203/7 99/2272/76 65/2271/75
f 100/2311/115 101/2290/94 102/2312/116
f 101/2290/94 106/2313/117 102/2312/116
f 103/2269/73 93/2267/71 104/2283/87
f 93/2267/71 105/2284/88 104/2283/87
f 106/2313/117 101/2290/94 107/2314/118
f 101/2290/94 108/2291/95 107/2314/118
f 122/2254/58 109/2264/68 110/2315/119
f 109/2264/68 113/2316/120 110/2315/119
f 21/2241/45 43/2239/43 111/2317/121
f 43/2239/43 69/2293/97 111/2317/121
f 109/2264/68 112/2263/67 113/2316/120
f 112/2263/67 114/2318/122 113/2316/120
f 115/2259/63 116/2319/123 117/2261/65
f 116/2319/123 112/2263/67 117/2261/65
f 118/2320/124 101/2290/94 119/2321/125
f 101/2290/94 100/2311/115 119/2321/125
f 120/2226/30 49/2228/32 28/2253/57
f 49/2228/32 27/2251/55 28/2253/57
f 121/2255/59 122/2254/58 123/2322/126
f 122/2254/58 110/2315/119 123/2322/126
f 124/2296/100 71/2294/98 61/2281/85
f 71/2294/98 125/2213/17 61/2281/85
f 116/2319/123 114/2318/122 112/2263/67
f 71/2294/98 126/2211/15 125/2213/17
