mtllib Hair.mtl
o Mesh_0005.rip.048_Mesh_0005.rip_mesh0000.058
v -0.037734 0.610625 -0.187617
v -0.155547 0.604219 -0.180703
v -0.058203 0.664453 -0.106016
v 0.359609 -0.006055 -0.406719
v 0.321016 0.003242 -0.359805
v 0.222773 0.124844 -0.261484
v 0.222773 0.124844 0.261523
v 0.256719 0.036641 0.304414
v 0.327930 0.054531 0.327187
v -0.155547 0.604219 0.180703
v -0.152617 0.532031 0.248672
v -0.230508 0.590000 0.142617
v -0.247148 0.491484 0.221133
v 0.362422 -0.030078 0.355039
v 0.321016 0.003242 0.359844
v -0.137109 0.654687 0.089805
v -0.228164 0.588320 0.058672
v -0.251719 0.528438 0.091992
v -0.128750 0.446641 0.284336
v -0.256719 0.438906 0.146680
v -0.085664 0.361758 0.287070
v -0.204531 0.399141 0.262539
v -0.212344 0.362695 0.195820
v -0.132187 0.312188 0.243320
v -0.212344 0.362695 0.195820
v -0.132187 0.312188 0.243320
v -0.026523 0.290781 0.277344
v 0.090234 0.219062 0.240000
v -0.152617 0.532031 -0.248711
v -0.010000 0.530000 -0.254414
v 0.063125 0.692422 0.000000
v -0.061211 0.681445 0.000000
v 0.395859 -0.001875 -0.285547
v 0.351094 -0.042734 -0.287773
v 0.090234 0.219062 0.240000
v 0.335195 0.334375 0.113086
v -0.228164 0.588320 0.058672
v -0.251719 0.528438 0.091992
v -0.256719 0.438906 0.146680
v 0.233477 0.039180 0.222266
v -0.291055 0.511289 0.004336
v -0.309141 0.429336 -0.071055
v -0.275977 0.359063 -0.152852
v -0.200977 0.313867 -0.224805
v -0.103633 0.600000 0.047070
v -0.118164 0.297500 -0.264336
v -0.118164 0.297500 -0.264336
v 0.160000 0.442617 -0.254414
v 0.298398 0.225742 -0.113086
v 0.183789 0.108906 -0.106680
v 0.362422 -0.030078 -0.355000
v 0.375508 0.021055 -0.347305
v 0.327930 0.054531 -0.327148
v 0.343555 0.022305 -0.357109
v 0.160000 0.442617 0.254414
v -0.194883 0.641797 -0.004141
v -0.137109 0.654687 -0.089805
v 0.253828 0.241953 0.197891
v 0.138906 0.155547 0.186680
v 0.295469 0.120937 0.293242
v 0.351094 -0.042734 0.287812
v 0.294727 -0.034961 0.308789
v 0.329883 -0.025078 0.360938
v 0.359609 -0.006055 0.406719
v -0.026523 0.290781 -0.277344
v 0.090234 0.219062 -0.240000
v 0.339102 0.162891 0.234805
v 0.255859 0.200703 0.235937
v 0.395859 -0.001875 0.285547
v 0.385508 -0.006914 0.348164
v 0.375508 0.021055 0.347344
v 0.343555 0.022305 0.357109
v 0.387539 0.029531 0.228242
v 0.364102 0.081914 0.192227
v 0.274961 0.099141 0.158477
v 0.300391 0.179531 0.158906
v 0.255898 0.150156 0.148125
v 0.211367 0.150391 0.179375
v 0.211328 0.180000 0.221406
v 0.381250 0.077383 0.275781
v 0.381250 0.077383 -0.275742
v 0.385508 -0.006914 -0.348125
v 0.329883 -0.025078 -0.360898
v 0.294727 -0.034961 -0.308789
v 0.256719 0.036641 -0.304375
v 0.260312 -0.012070 -0.257461
v 0.233477 0.039180 -0.222227
v 0.295898 0.046133 -0.174141
v 0.364102 0.081914 -0.192188
v 0.300391 0.179531 -0.158867
v 0.339102 0.162891 -0.234766
v 0.300352 0.209101 -0.200898
v 0.255859 0.200703 -0.235898
v 0.211328 0.180000 -0.221367
v -0.184687 0.630000 0.076836
v -0.138437 0.667773 0.000000
v 0.060039 0.674883 0.106016
v 0.185508 0.655664 0.000000
v 0.176406 0.639922 0.106016
v 0.284219 0.572851 0.000000
v 0.270274 0.561172 0.106016
v 0.348633 0.461250 0.000000
v 0.298398 0.225742 0.113086
v 0.183789 0.108906 0.106680
v -0.128750 0.446641 -0.284297
v -0.085664 0.361758 -0.287109
v -0.026523 0.290781 -0.277344
v 0.160000 0.330000 -0.261289
v 0.090234 0.219062 -0.240000
v 0.253828 0.241953 -0.197852
v 0.138906 0.155547 -0.186680
v 0.295469 0.120937 -0.293242
v 0.387539 0.029531 -0.228242
v 0.326406 -0.015391 -0.219219
v 0.000000 0.410000 -0.278789
v 0.335195 0.334375 -0.113086
v 0.191055 0.096289 0.000000
v -0.124141 0.328086 0.273633
v -0.010000 0.530000 0.254414
v -0.037734 0.610625 0.187656
v 0.313750 0.220156 0.000000
v 0.331563 0.455039 -0.106016
v 0.266016 0.450000 -0.210000
v 0.158399 0.581836 -0.187617
v 0.176406 0.639922 -0.106016
v 0.060039 0.674883 -0.106016
v -0.058203 0.664453 0.106016
v 0.158399 0.581836 0.187656
v 0.000000 0.410000 0.278828
v 0.160000 0.330000 0.261328
v -0.026523 0.290781 0.277344
v -0.259609 0.596875 -0.014102
v -0.291055 0.511289 0.004336
v -0.300078 0.534609 -0.095625
v -0.309141 0.429336 -0.071055
v -0.292578 0.458516 -0.174258
v -0.275977 0.359063 -0.152852
v -0.238476 0.383555 -0.234414
v -0.200977 0.313867 -0.224805
v 0.266016 0.450000 0.210039
v 0.331563 0.455039 0.106016
v 0.295898 0.046133 0.174141
v 0.260312 -0.012070 0.257500
v 0.326406 -0.015391 0.219258
v 0.211367 0.150391 -0.179336
v 0.274961 0.099141 -0.158438
v 0.255898 0.150156 -0.148125
v 0.210234 0.265234 -0.113203
v 0.300352 0.209101 0.200937
v 0.210234 0.265234 0.113242
v 0.270274 0.561172 -0.106016
v 0.352461 0.334375 0.000000
vn -0.9204 0.1235 0.3708
vn -0.8089 0.4996 0.3101
vn 0.5387 0.6788 -0.4990
vn 0.3837 0.5007 -0.7759
vn -0.0426 0.1872 -0.9814
vn 0.0584 0.0820 -0.9949
vn -0.1019 -0.0901 -0.9907
vn 0.1521 -0.1651 -0.9745
vn -0.0789 -0.4532 -0.8879
vn 0.2454 -0.5041 -0.8281
vn 0.0073 -0.7328 -0.6804
vn 0.2799 -0.7624 -0.5834
vn -0.9043 -0.2582 0.3400
vn -0.7041 -0.6051 0.3715
vn -0.3233 -0.6056 0.7272
vn -0.4343 -0.8165 0.3803
vn -0.0977 -0.9088 0.4056
vn -0.3233 -0.6056 -0.7271
vn -0.2614 -0.2238 -0.9389
vn -0.2881 0.1193 -0.9501
vn -0.2196 0.3549 -0.9087
vn 0.9964 0.0121 0.0836
vn 0.8749 0.2913 0.3870
vn 0.5588 0.4008 0.7261
vn 0.2929 0.2271 0.9288
vn -0.6221 -0.2313 -0.7480
vn 0.8344 0.4661 0.2941
vn 0.1260 0.2831 -0.9508
vn -0.6029 -0.7894 -0.1156
vn 0.0072 -0.7328 0.6804
vn 0.1151 -0.9244 0.3638
vn 0.1185 -0.7458 0.6555
vn 0.0151 -0.6022 0.7982
vn 0.0152 -0.6021 -0.7983
vn 0.7176 -0.6329 -0.2906
vn 0.8061 -0.2009 -0.5566
vn 0.9675 -0.2491 -0.0430
vn 0.9753 0.1110 -0.1907
vn -0.3584 0.8952 -0.2648
vn 0.4904 0.7069 -0.5096
vn 0.6407 0.2367 -0.7304
vn 0.7995 0.4786 -0.3629
vn -0.0916 0.5587 0.8243
vn -0.1388 0.5673 0.8117
vn -0.0138 0.9967 0.0794
vn 0.3313 0.6153 0.7153
vn 0.5495 0.5828 0.5986
vn -0.5885 0.3812 -0.7130
vn -0.0879 0.9945 0.0576
vn 0.0148 0.5094 0.8604
vn -0.0094 0.5323 0.8465
vn -0.1577 0.6787 -0.7173
vn -0.1856 0.7005 -0.6891
vn -0.2083 0.7085 -0.6743
vn -0.1956 0.7097 -0.6768
vn -0.1028 0.7159 -0.6906
vn 0.3372 0.7202 -0.6063
vn -0.3606 0.5749 -0.7345
vn 0.5642 0.6605 -0.4954
vn -0.9378 0.3353 0.0896
vn -0.9451 0.2056 -0.2538
vn -0.6704 -0.5858 -0.4554
vn -0.1436 0.0337 -0.9891
vn 0.1185 -0.7457 -0.6557
vn 0.6797 -0.1671 -0.7142
vn 0.7564 0.0508 -0.6521
vn 0.5210 0.8162 -0.2499
vn 0.6884 0.7124 0.1363
vn -0.2699 0.9492 0.1617
vn -0.1013 0.7605 0.6414
vn -0.8465 0.2104 0.4891
vn 0.0551 0.4561 0.8882
vn -0.7508 -0.0525 0.6584
vn 0.1247 0.2863 0.9500
vn -0.6503 -0.2373 0.7216
vn 0.1258 0.2833 0.9508
vn 0.3689 -0.7072 0.6031
vn 0.8908 0.2671 0.3676
vn 0.8495 -0.3046 -0.4307
vn 0.7990 -0.1290 -0.5873
vn 0.1056 -0.7229 -0.6829
vn -0.0141 -0.5019 -0.8648
vn -0.7296 -0.6372 -0.2485
vn -0.8301 -0.4763 -0.2900
vn -0.8302 -0.4762 0.2899
vn -0.6705 -0.5858 0.4553
vn -0.9379 0.3352 -0.0895
vn -0.9452 0.2056 0.2538
vn -0.3584 0.8952 0.2647
vn -0.1436 0.0338 0.9891
vn 0.4904 0.7070 0.5095
vn 0.6799 -0.1668 0.7141
vn 0.5210 0.8161 0.2502
vn 0.7565 0.0508 0.6521
vn 0.6884 0.7124 -0.1364
vn 0.8343 0.4662 -0.2942
vn 0.0550 0.4563 -0.8881
vn 0.1247 0.2864 -0.9500
vn -0.7508 -0.0521 -0.6585
vn -0.6502 -0.2372 -0.7218
vn -0.7296 -0.6372 0.2484
vn -0.6029 -0.7894 0.1156
vn 0.1056 -0.7229 0.6828
vn 0.3689 -0.7072 -0.6032
vn 0.8495 -0.3046 0.4307
vn 0.8907 0.2671 -0.3678
vn 0.7991 -0.1290 0.5872
vn 0.9325 -0.2910 -0.2139
vn 0.7420 -0.6652 -0.0833
vn 0.7779 -0.6075 -0.1608
vn 0.5308 -0.8473 -0.0200
vn 0.5554 -0.8101 -0.1881
vn 0.3033 -0.9528 -0.0099
vn 0.3296 -0.9034 -0.2741
vn 0.1272 -0.9919 -0.0000
vn 0.1152 -0.9244 -0.3637
vn -0.1031 -0.9947 0.0000
vn -0.0977 -0.9089 -0.4055
vn -0.4755 -0.8797 0.0000
vn -0.4344 -0.8166 -0.3802
vn -0.7661 -0.6428 -0.0000
vn -0.7042 -0.6052 -0.3714
vn -0.9614 -0.2751 -0.0000
vn -0.9043 -0.2582 -0.3399
vn -0.9897 0.1430 0.0000
vn -0.9205 0.1235 -0.3708
vn -0.8527 0.5224 0.0000
vn -0.8089 0.4996 -0.3100
vn -0.7103 0.7039 0.0000
vn -0.6276 0.6962 -0.3483
vn 0.3408 -0.8957 0.2855
vn 0.8676 -0.4477 0.2165
vn 0.3658 -0.7387 0.5661
vn 0.8461 -0.1472 0.5123
vn 0.3288 -0.4827 0.8117
vn 0.6450 0.1532 0.7487
vn 0.2152 -0.1399 0.9665
vn 0.1088 0.0953 0.9895
vn -0.1020 -0.0901 0.9907
vn -0.0529 0.1374 0.9891
vn -0.2882 0.1193 0.9501
vn -0.2198 0.3547 0.9088
vn -0.5885 0.3811 0.7131
vn -0.3608 0.5748 0.7345
vn -0.6277 0.6962 0.3483
vn -0.0140 -0.5018 0.8648
vn -0.8465 0.2104 -0.4890
vn -0.1014 0.7603 -0.6416
vn -0.2700 0.9492 -0.1617
vn -0.0789 -0.4532 0.8879
vn -0.2616 -0.2237 0.9389
vn -0.6221 -0.2313 0.7480
usemtl Material.013
s 1
f 69/4524/60 70/4525/61 71/4526/62
f 70/4525/61 64/4527/63 71/4526/62
f 71/4526/62 64/4527/63 72/4528/64
f 64/4527/63 15/4529/65 72/4528/64
f 72/4528/64 15/4529/65 8/4530/66
f 15/4529/65 62/4531/67 8/4530/66
f 8/4530/66 62/4531/67 143/4532/68
f 62/4531/67 61/4533/69 143/4532/68
f 143/4532/68 61/4533/69 144/4534/70
f 61/4533/69 73/4535/71 144/4534/70
f 144/4534/70 73/4535/71 142/4536/72
f 73/4535/71 74/4537/73 142/4536/72
f 142/4536/72 74/4537/73 75/4538/74
f 74/4537/73 76/4539/75 75/4538/74
f 75/4538/74 76/4539/75 77/4540/76
f 76/4539/75 150/4541/77 77/4540/76
f 77/4540/76 150/4541/77 78/4542/78
f 150/4541/77 79/4543/79 78/4542/78
f 78/4542/78 79/4543/79 7/4544/80
f 79/4543/79 68/4545/81 7/4544/80
f 7/4544/80 68/4545/81 60/4546/82
f 68/4545/81 67/4547/83 60/4546/82
f 60/4546/82 67/4547/83 80/4548/84
f 67/4547/83 74/4537/73 80/4548/84
f 80/4548/84 74/4537/73 73/4535/71
f 81/4549/85 52/4550/86 33/4551/87
f 52/4550/86 82/4552/88 33/4551/87
f 33/4551/87 82/4552/88 51/4553/89
f 82/4552/88 4/4554/90 51/4553/89
f 51/4553/89 4/4554/90 83/4555/91
f 4/4554/90 5/4556/92 83/4555/91
f 83/4555/91 5/4556/92 84/4557/93
f 5/4556/92 85/4558/94 84/4557/93
f 84/4557/93 85/4558/94 86/4559/95
f 85/4558/94 87/4560/96 86/4559/95
f 86/4559/95 87/4560/96 88/4561/97
f 87/4560/96 146/4562/98 88/4561/97
f 88/4561/97 146/4562/98 89/4563/99
f 146/4562/98 90/4564/100 89/4563/99
f 89/4563/99 90/4564/100 91/4565/101
f 90/4564/100 92/4566/102 91/4565/101
f 91/4565/101 92/4566/102 93/4567/103
f 92/4566/102 148/4568/104 93/4567/103
f 93/4567/103 148/4568/104 94/4569/105
f 148/4568/104 145/4570/106 94/4569/105
f 94/4569/105 145/4570/106 6/4571/107
f 145/4570/106 87/4560/96 6/4571/107
f 6/4571/107 87/4560/96 85/4558/94
f 133/4572/108 132/4573/109 17/4574/110
f 132/4573/109 56/4575/111 17/4574/110
f 17/4574/110 56/4575/111 95/4576/112
f 56/4575/111 96/4577/113 95/4576/112
f 95/4576/112 96/4577/113 16/4578/114
f 96/4577/113 32/4579/115 16/4578/114
f 16/4578/114 32/4579/115 127/4580/116
f 32/4579/115 31/4581/117 127/4580/116
f 127/4580/116 31/4581/117 97/4582/118
f 31/4581/117 98/4583/119 97/4582/118
f 97/4582/118 98/4583/119 99/4584/120
f 98/4583/119 100/4585/121 99/4584/120
f 99/4584/120 100/4585/121 101/4586/122
f 100/4585/121 102/4587/123 101/4586/122
f 101/4586/122 102/4587/123 141/4588/124
f 102/4587/123 152/4589/125 141/4588/124
f 141/4588/124 152/4589/125 36/4590/126
f 152/4589/125 121/4591/127 36/4590/126
f 36/4590/126 121/4591/127 103/4592/128
f 121/4591/127 117/4593/129 103/4592/128
f 103/4592/128 117/4593/129 104/4594/130
f 56/4575/111 132/4573/109 57/4595/131
f 132/4573/109 134/4596/132 57/4595/131
f 57/4595/131 134/4596/132 2/4597/133
f 134/4596/132 136/4598/134 2/4597/133
f 2/4597/133 136/4598/134 29/4599/135
f 136/4598/134 138/4600/136 29/4599/135
f 29/4599/135 138/4600/136 105/4601/137
f 138/4600/136 106/4602/138 105/4601/137
f 105/4601/137 106/4602/138 115/4603/139
f 106/4602/138 107/4604/140 115/4603/139
f 115/4603/139 107/4604/140 108/4605/141
f 107/4604/140 109/4606/142 108/4605/141
f 108/4605/141 109/4606/142 110/4607/143
f 109/4606/142 111/4608/144 110/4607/143
f 110/4607/143 111/4608/144 50/4609/145
f 94/4569/105 6/4571/107 93/4567/103
f 6/4571/107 112/4610/146 93/4567/103
f 93/4567/103 112/4610/146 91/4565/101
f 112/4610/146 81/4549/85 91/4565/101
f 91/4565/101 81/4549/85 89/4563/99
f 81/4549/85 113/4611/147 89/4563/99
f 89/4563/99 113/4611/147 88/4561/97
f 113/4611/147 114/4612/148 88/4561/97
f 88/4561/97 114/4612/148 86/4559/95
f 114/4612/148 34/4613/149 86/4559/95
f 86/4559/95 34/4613/149 84/4557/93
f 34/4613/149 83/4555/91 84/4557/93
f 29/4599/135 105/4601/137 30/4614/150
f 105/4601/137 115/4603/139 30/4614/150
f 30/4614/150 115/4603/139 48/4615/151
f 115/4603/139 108/4605/141 48/4615/151
f 48/4615/151 108/4605/141 123/4616/152
f 108/4605/141 110/4607/143 123/4616/152
f 123/4616/152 110/4607/143 116/4617/1
f 110/4607/143 49/4618/2 116/4617/1
f 116/4617/1 49/4618/2 121/4591/127
f 49/4618/2 117/4593/129 121/4591/127
f 24/4619/3 118/4620/4 131/4621/5
f 118/4620/4 21/4622/6 131/4621/5
f 131/4621/5 21/4622/6 129/4623/7
f 21/4622/6 19/4624/8 129/4623/7
f 129/4623/7 19/4624/8 119/4625/9
f 19/4624/8 11/4626/10 119/4625/9
f 119/4625/9 11/4626/10 120/4627/11
f 11/4626/10 10/4628/12 120/4627/11
f 120/4627/11 10/4628/12 127/4580/116
f 10/4628/12 16/4578/114 127/4580/116
f 121/4591/127 152/4589/125 116/4617/1
f 152/4589/125 122/4629/13 116/4617/1
f 116/4617/1 122/4629/13 123/4616/152
f 122/4629/13 151/4630/14 123/4616/152
f 123/4616/152 151/4630/14 124/4631/15
f 151/4630/14 125/4632/16 124/4631/15
f 124/4631/15 125/4632/16 126/4633/17
f 125/4632/16 98/4583/119 126/4633/17
f 126/4633/17 98/4583/119 31/4581/117
f 127/4580/116 97/4582/118 120/4627/11
f 97/4582/118 128/4634/18 120/4627/11
f 120/4627/11 128/4634/18 119/4625/9
f 128/4634/18 55/4635/19 119/4625/9
f 119/4625/9 55/4635/19 129/4623/7
f 55/4635/19 130/4636/20 129/4623/7
f 129/4623/7 130/4636/20 131/4621/5
f 130/4636/20 35/4637/21 131/4621/5
f 132/4573/109 133/4572/108 134/4596/132
f 133/4572/108 135/4638/22 134/4596/132
f 134/4596/132 135/4638/22 136/4598/134
f 135/4638/22 137/4639/23 136/4598/134
f 136/4598/134 137/4639/23 138/4600/136
f 137/4639/23 139/4640/24 138/4600/136
f 138/4600/136 139/4640/24 47/4641/25
f 97/4582/118 99/4584/120 128/4634/18
f 99/4584/120 101/4586/122 128/4634/18
f 128/4634/18 101/4586/122 140/4642/26
f 101/4586/122 141/4588/124 140/4642/26
f 140/4642/26 141/4588/124 36/4590/126
f 77/4540/76 78/4542/78 75/4538/74
f 78/4542/78 40/4643/27 75/4538/74
f 75/4538/74 40/4643/27 142/4536/72
f 40/4643/27 143/4532/68 142/4536/72
f 142/4536/72 143/4532/68 144/4534/70
f 87/4560/96 145/4570/106 146/4562/98
f 145/4570/106 147/4644/28 146/4562/98
f 146/4562/98 147/4644/28 90/4564/100
f 147/4644/28 148/4568/104 90/4564/100
f 90/4564/100 148/4568/104 92/4566/102
f 74/4537/73 67/4547/83 76/4539/75
f 67/4547/83 149/4645/29 76/4539/75
f 76/4539/75 149/4645/29 150/4541/77
f 149/4645/29 68/4545/81 150/4541/77
f 150/4541/77 68/4545/81 79/4543/79
f 98/4583/119 125/4632/16 100/4585/121
f 125/4632/16 151/4630/14 100/4585/121
f 100/4585/121 151/4630/14 102/4587/123
f 151/4630/14 122/4629/13 102/4587/123
f 102/4587/123 122/4629/13 152/4589/125
f 29/4599/135 1/4646/30 2/4597/133
f 1/4646/30 3/4647/31 2/4597/133
f 2/4597/133 3/4647/31 57/4595/131
f 3/4647/31 32/4579/115 57/4595/131
f 82/4552/88 52/4550/86 4/4554/90
f 52/4550/86 54/4648/32 4/4554/90
f 4/4554/90 54/4648/32 5/4556/92
f 54/4648/32 85/4558/94 5/4556/92
f 6/4571/107 85/4558/94 112/4610/146
f 85/4558/94 53/4649/33 112/4610/146
f 112/4610/146 53/4649/33 81/4549/85
f 53/4649/33 52/4550/86 81/4549/85
f 7/4544/80 60/4546/82 8/4530/66
f 60/4546/82 9/4650/34 8/4530/66
f 8/4530/66 9/4650/34 72/4528/64
f 9/4650/34 71/4526/62 72/4528/64
f 10/4628/12 11/4626/10 12/4651/35
f 11/4626/10 13/4652/36 12/4651/35
f 12/4651/35 13/4652/36 18/4653/37
f 13/4652/36 20/4654/38 18/4653/37
f 69/4524/60 61/4533/69 14/4655/39
f 61/4533/69 63/4656/40 14/4655/39
f 14/4655/39 63/4656/40 64/4527/63
f 63/4656/40 15/4529/65 64/4527/63
f 16/4578/114 10/4628/12 95/4576/112
f 10/4628/12 12/4651/35 95/4576/112
f 95/4576/112 12/4651/35 17/4574/110
f 12/4651/35 18/4653/37 17/4574/110
f 11/4626/10 19/4624/8 13/4652/36
f 19/4624/8 22/4657/41 13/4652/36
f 13/4652/36 22/4657/41 20/4654/38
f 22/4657/41 23/4658/42 20/4654/38
f 19/4624/8 21/4622/6 22/4657/41
f 21/4622/6 118/4620/4 22/4657/41
f 22/4657/41 118/4620/4 23/4658/42
f 118/4620/4 24/4619/3 23/4658/42
f 25/4659/43 26/4660/44 45/4661/45
f 26/4660/44 27/4662/46 45/4661/45
f 45/4661/45 27/4662/46 28/4663/47
f 29/4599/135 30/4614/150 1/4646/30
f 30/4614/150 124/4631/15 1/4646/30
f 1/4646/30 124/4631/15 126/4633/17
f 1/4646/30 126/4633/17 3/4647/31
f 126/4633/17 31/4581/117 3/4647/31
f 3/4647/31 31/4581/117 32/4579/115
f 81/4549/85 33/4551/87 113/4611/147
f 33/4551/87 34/4613/149 113/4611/147
f 113/4611/147 34/4613/149 114/4612/148
f 35/4637/21 130/4636/20 58/4664/48
f 130/4636/20 140/4642/26 58/4664/48
f 58/4664/48 140/4642/26 36/4590/126
f 37/4665/49 38/4666/50 45/4661/45
f 38/4666/50 39/4667/51 45/4661/45
f 45/4661/45 39/4667/51 25/4659/43
f 78/4542/78 7/4544/80 40/4643/27
f 7/4544/80 8/4530/66 40/4643/27
f 40/4643/27 8/4530/66 143/4532/68
f 71/4526/62 80/4548/84 69/4524/60
f 80/4548/84 73/4535/71 69/4524/60
f 69/4524/60 73/4535/71 61/4533/69
f 37/4665/49 45/4661/45 41/4668/52
f 45/4661/45 42/4669/53 41/4668/52
f 42/4669/53 45/4661/45 43/4670/54
f 45/4661/45 44/4671/55 43/4670/54
f 44/4671/55 45/4661/45 46/4672/56
f 45/4661/45 65/4673/57 46/4672/56
f 107/4604/140 106/4602/138 47/4641/25
f 106/4602/138 138/4600/136 47/4641/25
f 123/4616/152 124/4631/15 48/4615/151
f 124/4631/15 30/4614/150 48/4615/151
f 117/4593/129 49/4618/2 50/4609/145
f 49/4618/2 110/4607/143 50/4609/145
f 33/4551/87 51/4553/89 34/4613/149
f 51/4553/89 83/4555/91 34/4613/149
f 52/4550/86 53/4649/33 54/4648/32
f 53/4649/33 85/4558/94 54/4648/32
f 128/4634/18 140/4642/26 55/4635/19
f 140/4642/26 130/4636/20 55/4635/19
f 56/4575/111 57/4595/131 96/4577/113
f 57/4595/131 32/4579/115 96/4577/113
f 35/4637/21 58/4664/48 59/4674/58
f 58/4664/48 104/4594/130 59/4674/58
f 60/4546/82 80/4548/84 9/4650/34
f 80/4548/84 71/4526/62 9/4650/34
f 104/4594/130 58/4664/48 103/4592/128
f 58/4664/48 36/4590/126 103/4592/128
f 61/4533/69 62/4531/67 63/4656/40
f 62/4531/67 15/4529/65 63/4656/40
f 69/4524/60 14/4655/39 70/4525/61
f 14/4655/39 64/4527/63 70/4525/61
f 65/4673/57 45/4661/45 66/4675/59
f 147/4644/28 145/4570/106 148/4568/104
f 67/4547/83 68/4545/81 149/4645/29
