mtllib Hair.mtl
o Mesh_0005.rip.010_Mesh_0005.rip_mesh0000.018
v 0.138906 0.155547 0.186680
v 0.180039 0.088789 0.102969
v 0.298399 0.225742 0.113086
v 0.313750 0.220156 0.000000
v 0.352461 0.334375 0.000000
v 0.263946 0.437031 -0.197852
v 0.176407 0.639922 -0.106016
v 0.060039 0.674883 -0.106016
v 0.063125 0.692422 0.000000
v -0.264883 0.546094 -0.052656
v -0.268984 0.548203 0.000000
v -0.281367 0.438438 0.000000
v -0.264883 0.546094 0.052656
v 0.335196 0.334375 -0.113086
v 0.239453 0.247187 -0.186680
v 0.129024 0.442617 -0.254414
v 0.014297 0.429258 -0.278789
v 0.028672 0.529570 -0.254414
v -0.048672 0.610625 -0.187617
v -0.151758 0.587500 -0.193672
v -0.198203 0.637852 0.000000
v -0.048672 0.610625 0.187617
v 0.160000 0.334375 0.261289
v 0.335196 0.334375 0.113086
v -0.143672 0.370000 -0.243281
v -0.233008 0.530039 -0.150039
v -0.186133 0.624609 -0.104805
v -0.252734 0.539883 -0.103281
v 0.331563 0.455039 -0.106016
v 0.270274 0.561172 -0.106016
v 0.158399 0.581836 0.187617
v -0.061211 0.681445 0.000000
v -0.058203 0.664453 0.106016
v 0.060039 0.674883 0.106016
v 0.028672 0.529570 0.254414
v 0.129024 0.442617 0.254414
v 0.263946 0.437031 0.197852
v 0.349961 0.462734 0.000000
v 0.187695 0.075547 0.000000
v 0.298399 0.225742 -0.113086
v 0.180039 0.088789 -0.102969
v 0.000000 0.334375 -0.263008
v -0.252734 0.539883 0.103281
v -0.186133 0.624609 0.104805
v -0.151758 0.587500 0.193672
v -0.233008 0.530039 0.150039
v -0.206328 0.517266 0.191328
v -0.215898 0.432461 0.180000
v -0.160000 0.480000 0.229297
v 0.014297 0.429258 0.278789
v -0.100000 0.521758 0.242227
v 0.160000 0.334375 -0.261289
v -0.107930 0.250625 -0.249062
v 0.138906 0.155547 0.186680
v 0.180039 0.088789 0.102969
v 0.187695 0.075547 0.000000
v 0.180039 0.088789 -0.102969
v 0.000000 0.334375 -0.263008
v -0.107930 0.250625 -0.249062
v -0.143672 0.370000 -0.243281
v -0.160000 0.480000 -0.229297
v -0.215898 0.432461 -0.180000
v -0.233008 0.530039 -0.150039
v -0.264414 0.436523 -0.095898
v 0.239453 0.247187 0.186680
v 0.170000 0.230000 0.220000
v 0.000000 0.334375 0.263008
v -0.107929 0.250625 0.249062
v -0.080000 0.390000 0.273125
v -0.143672 0.370000 0.243281
v 0.158399 0.581836 -0.187617
v 0.270274 0.561172 0.106016
v 0.284219 0.572851 0.000000
v 0.185508 0.655664 0.000000
v 0.000000 0.334375 0.263008
v -0.107929 0.250625 0.249062
v -0.143672 0.370000 0.243281
v -0.160000 0.480000 0.229297
v -0.215898 0.432461 0.180000
v -0.233008 0.530039 0.150039
v -0.264414 0.436523 0.095898
v -0.068750 0.441953 0.000000
v -0.264883 0.546094 0.052656
v -0.281367 0.438438 0.000000
v -0.264883 0.546094 -0.052656
v 0.331563 0.455039 0.106016
v 0.170000 0.230000 -0.220000
v 0.138906 0.155547 -0.186680
v 0.090235 0.219062 -0.240000
v -0.058203 0.664453 -0.106016
v -0.160000 0.480000 -0.229297
v -0.206328 0.517266 -0.191328
v -0.215898 0.432461 -0.180000
v 0.000000 0.250000 0.000000
v 0.138906 0.155547 -0.186680
v -0.264414 0.436523 0.095898
v 0.090235 0.219062 0.240000
v -0.264414 0.436523 -0.095898
v -0.100000 0.521758 -0.242227
v -0.080000 0.390000 -0.273125
v 0.176407 0.639922 0.106016
vn -0.4564 0.5153 -0.7254
vn -0.3943 0.4187 -0.8180
vn -0.6764 0.6281 -0.3847
vn -0.5899 0.3453 -0.7300
vn -0.7926 0.4605 -0.3996
vn -0.8959 0.1321 -0.4241
vn -0.8684 0.4959 0.0000
vn -0.9894 0.1455 0.0000
vn -0.8959 0.1321 0.4241
vn -0.8858 -0.2565 0.3867
vn -0.6162 -0.1828 0.7661
vn -0.7021 -0.5877 0.4021
vn -0.3489 -0.5797 0.7364
vn -0.4343 -0.8165 0.3803
vn -0.0978 -0.9081 0.4071
vn -0.1031 -0.9947 0.0000
vn 0.1702 -0.9209 0.3507
vn 0.1952 -0.9808 0.0000
vn 0.5299 -0.7831 0.3254
vn 0.5611 -0.8278 -0.0000
vn 0.8920 -0.4183 0.1715
vn 0.9243 -0.3817 -0.0000
vn 0.9937 -0.1121 0.0000
vn 0.8920 -0.4183 -0.1715
vn -0.7523 0.6588 0.0000
vn -0.7926 0.4605 0.3996
vn -0.5899 0.3453 0.7300
vn -0.3227 0.1000 0.9412
vn -0.2924 -0.2294 0.9284
vn -0.0206 -0.0758 0.9969
vn -0.0749 -0.4434 0.8932
vn 0.2247 -0.3604 0.9053
vn 0.0556 -0.7174 0.6945
vn 0.3797 -0.6123 0.6935
vn 0.5299 -0.7831 -0.3254
vn 0.1702 -0.9209 -0.3507
vn 0.3797 -0.6123 -0.6935
vn 0.0556 -0.7174 -0.6945
vn 0.2247 -0.3604 -0.9053
vn -0.0749 -0.4434 -0.8932
vn -0.0206 -0.0758 -0.9969
vn -0.2924 -0.2294 -0.9284
vn -0.3227 0.1000 -0.9412
vn -0.6162 -0.1828 -0.7661
vn 0.4204 0.0154 0.9072
vn 0.2069 0.0034 0.9783
vn 0.4529 -0.1787 0.8735
vn 0.6716 -0.2284 0.7048
vn 0.7922 -0.3515 0.4989
vn 0.8750 -0.3446 0.3399
vn 0.9423 -0.0833 0.3243
vn -0.9615 -0.2748 0.0000
vn -0.7614 -0.6483 -0.0000
vn -0.4755 -0.8797 -0.0000
vn -0.4343 -0.8165 -0.3803
vn -0.0978 -0.9081 -0.4071
vn -0.3489 -0.5797 -0.7364
vn -0.7021 -0.5877 -0.4021
vn -0.8858 -0.2565 -0.3867
vn -0.6764 0.6281 0.3847
vn -0.3943 0.4187 0.8180
vn -0.1778 0.3325 0.9262
vn -0.0090 0.1714 0.9852
vn 0.8750 -0.3446 -0.3399
vn 0.7922 -0.3515 -0.4989
vn 0.9423 -0.0833 -0.3243
vn 0.6716 -0.2284 -0.7048
vn 0.7266 0.0098 -0.6869
vn 0.4529 -0.1787 -0.8735
vn -0.0090 0.1714 -0.9852
vn 0.2069 0.0034 -0.9783
vn 0.1736 0.1337 0.9757
vn 0.7128 0.6756 -0.1885
vn 0.6983 0.7066 -0.1147
vn 0.7046 0.7096 0.0000
vn 0.6808 0.7325 0.0000
vn 0.6983 0.7066 0.1147
vn -0.5868 0.6841 -0.4332
vn 0.1149 0.7790 -0.6165
vn 0.3842 0.9232 0.0000
vn 0.9048 0.2420 -0.3502
vn 0.5494 0.8317 -0.0806
vn 0.1806 0.9633 -0.1984
vn 0.4355 0.8987 0.0508
vn -0.0051 0.9989 -0.0461
vn -0.1778 0.3325 -0.9262
vn 0.1736 0.1337 -0.9757
vn 0.4204 0.0154 -0.9072
vn -0.5868 0.6841 0.4332
vn 0.1149 0.7790 0.6165
vn 0.9048 0.2420 0.3502
vn 0.5494 0.8317 0.0806
vn 0.1806 0.9633 0.1984
vn 0.4355 0.8987 -0.0508
vn -0.0051 0.9989 0.0461
vn 0.4659 0.8847 -0.0142
vn -0.0165 0.9999 0.0000
vn 0.4659 0.8847 0.0142
vn -0.4564 0.5153 0.7254
vn 0.7266 0.0098 0.6869
vn 0.7128 0.6756 0.1885
usemtl Material.013
s 1
f 1/326/1 66/327/2 2/328/3
f 66/327/2 65/329/4 2/328/3
f 2/328/3 65/329/4 3/330/5
f 65/329/4 24/331/6 3/330/5
f 3/330/5 24/331/6 4/332/7
f 24/331/6 5/333/8 4/332/7
f 4/332/7 5/333/8 14/334/9
f 5/333/8 29/335/10 14/334/9
f 14/334/9 29/335/10 6/336/11
f 29/335/10 30/337/12 6/336/11
f 6/336/11 30/337/12 71/338/13
f 30/337/12 7/339/14 71/338/13
f 71/338/13 7/339/14 8/340/15
f 7/339/14 9/341/16 8/340/15
f 8/340/15 9/341/16 90/342/17
f 9/341/16 32/343/18 90/342/17
f 90/342/17 32/343/18 27/344/19
f 32/343/18 21/345/20 27/344/19
f 27/344/19 21/345/20 10/346/21
f 21/345/20 11/347/22 10/346/21
f 10/346/21 11/347/22 12/348/23
f 11/347/22 13/349/24 12/348/23
f 2/328/3 3/330/5 39/350/25
f 3/330/5 4/332/7 39/350/25
f 39/350/25 4/332/7 40/351/26
f 4/332/7 14/334/9 40/351/26
f 40/351/26 14/334/9 15/352/27
f 14/334/9 6/336/11 15/352/27
f 15/352/27 6/336/11 52/353/28
f 6/336/11 16/354/29 52/353/28
f 52/353/28 16/354/29 17/355/30
f 16/354/29 18/356/31 17/355/30
f 17/355/30 18/356/31 99/357/32
f 18/356/31 19/358/33 99/357/32
f 99/357/32 19/358/33 20/359/34
f 19/358/33 90/342/17 20/359/34
f 20/359/34 90/342/17 27/344/19
f 21/345/20 32/343/18 44/360/35
f 32/343/18 33/361/36 44/360/35
f 44/360/35 33/361/36 45/362/37
f 33/361/36 22/363/38 45/362/37
f 45/362/37 22/363/38 51/364/39
f 22/363/38 35/365/40 51/364/39
f 51/364/39 35/365/40 50/366/41
f 35/365/40 36/367/42 50/366/41
f 50/366/41 36/367/42 23/368/43
f 36/367/42 37/369/44 23/368/43
f 23/368/43 37/369/44 65/329/4
f 37/369/44 24/331/6 65/329/4
f 25/370/45 100/371/46 91/372/47
f 100/371/46 99/357/32 91/372/47
f 91/372/47 99/357/32 92/373/48
f 99/357/32 20/359/34 92/373/48
f 92/373/48 20/359/34 26/374/49
f 20/359/34 27/344/19 26/374/49
f 26/374/49 27/344/19 28/375/50
f 27/344/19 10/346/21 28/375/50
f 28/375/50 10/346/21 98/376/51
f 29/335/10 38/377/52 30/337/12
f 38/377/52 73/378/53 30/337/12
f 30/337/12 73/378/53 7/339/14
f 73/378/53 74/379/54 7/339/14
f 7/339/14 74/379/54 9/341/16
f 74/379/54 101/380/55 9/341/16
f 9/341/16 101/380/55 34/381/56
f 101/380/55 31/382/57 34/381/56
f 32/343/18 9/341/16 33/361/36
f 9/341/16 34/381/56 33/361/36
f 33/361/36 34/381/56 22/363/38
f 34/381/56 31/382/57 22/363/38
f 22/363/38 31/382/57 35/365/40
f 31/382/57 36/367/42 35/365/40
f 36/367/42 31/382/57 37/369/44
f 31/382/57 72/383/58 37/369/44
f 37/369/44 72/383/58 86/384/59
f 72/383/58 38/377/52 86/384/59
f 86/384/59 38/377/52 5/333/8
f 38/377/52 29/335/10 5/333/8
f 39/350/25 40/351/26 41/385/60
f 40/351/26 15/352/27 41/385/60
f 41/385/60 15/352/27 87/386/61
f 15/352/27 52/353/28 87/386/61
f 87/386/61 52/353/28 89/387/62
f 52/353/28 42/388/63 89/387/62
f 11/347/22 21/345/20 13/349/24
f 21/345/20 44/360/35 13/349/24
f 13/349/24 44/360/35 43/389/64
f 44/360/35 46/390/65 43/389/64
f 43/389/64 46/390/65 96/391/66
f 44/360/35 45/362/37 46/390/65
f 45/362/37 47/392/67 46/390/65
f 46/390/65 47/392/67 48/393/68
f 47/392/67 49/394/69 48/393/68
f 23/368/43 67/395/70 50/366/41
f 67/395/70 69/396/71 50/366/41
f 50/366/41 69/396/71 51/364/39
f 69/396/71 49/394/69 51/364/39
f 52/353/28 17/355/30 42/388/63
f 17/355/30 100/371/46 42/388/63
f 42/388/63 100/371/46 53/397/72
f 100/371/46 25/370/45 53/397/72
f 54/398/73 55/399/74 94/400/75
f 55/399/74 56/401/76 94/400/75
f 94/400/75 56/401/76 57/402/77
f 58/403/78 59/404/79 82/405/80
f 59/404/79 60/406/81 82/405/80
f 82/405/80 60/406/81 61/407/82
f 61/407/82 62/408/83 82/405/80
f 62/408/83 63/409/84 82/405/80
f 82/405/80 63/409/84 64/410/85
f 65/329/4 66/327/2 23/368/43
f 66/327/2 97/411/86 23/368/43
f 23/368/43 97/411/86 67/395/70
f 67/395/70 68/412/87 69/396/71
f 68/412/87 70/413/88 69/396/71
f 69/396/71 70/413/88 49/394/69
f 19/358/33 18/356/31 71/338/13
f 18/356/31 16/354/29 71/338/13
f 71/338/13 16/354/29 6/336/11
f 38/377/52 72/383/58 73/378/53
f 72/383/58 101/380/55 73/378/53
f 73/378/53 101/380/55 74/379/54
f 75/414/89 82/405/80 76/415/90
f 82/405/80 77/416/91 76/415/90
f 77/416/91 82/405/80 78/417/92
f 82/405/80 79/418/93 78/417/92
f 79/418/93 82/405/80 80/419/94
f 82/405/80 81/420/95 80/419/94
f 81/420/95 82/405/80 83/421/96
f 82/405/80 84/422/97 83/421/96
f 84/422/97 82/405/80 85/423/98
f 82/405/80 64/410/85 85/423/98
f 45/362/37 51/364/39 47/392/67
f 51/364/39 49/394/69 47/392/67
f 37/369/44 86/384/59 24/331/6
f 86/384/59 5/333/8 24/331/6
f 41/385/60 87/386/61 88/424/99
f 87/386/61 89/387/62 88/424/99
f 90/342/17 19/358/33 8/340/15
f 19/358/33 71/338/13 8/340/15
f 91/372/47 92/373/48 93/425/100
f 92/373/48 26/374/49 93/425/100
f 94/400/75 57/402/77 95/426/101
f 96/391/66 13/349/24 43/389/64
f 66/327/2 1/326/1 97/411/86
f 98/376/51 26/374/49 28/375/50
f 17/355/30 99/357/32 100/371/46
f 101/380/55 72/383/58 31/382/57
