mtllib Hair.mtl
o Mesh_0005.rip.070_Mesh_0005.rip_mesh0000.082
v -0.284258 0.550000 -0.080000
v -0.171914 0.634141 0.000000
v -0.058203 0.664453 -0.106016
v 0.270274 0.561172 -0.106016
v 0.183789 0.108906 -0.106680
v 0.337305 0.288008 0.114687
v 0.399219 0.264531 0.132461
v 0.432461 0.352070 0.093672
v 0.461133 0.241016 0.114687
v 0.489922 0.316875 0.081094
v 0.526563 0.267305 0.046836
v 0.526563 0.267305 -0.046836
v 0.461133 0.241016 -0.114688
v 0.312031 0.211875 -0.081094
v 0.296602 0.180781 0.000000
v 0.268477 0.243281 0.000000
v 0.278867 0.261133 0.046836
v -0.229180 0.510000 0.000000
v -0.284258 0.550000 0.080000
v -0.216250 0.430430 0.268555
v -0.143750 0.354844 0.303867
v -0.052773 0.302695 0.299258
v 0.020000 0.260000 0.267695
v 0.090234 0.219062 0.240000
v 0.138906 0.155547 0.186680
v -0.230000 0.590000 0.000000
v -0.230000 0.590000 0.094180
v -0.176367 0.623750 0.103203
v 0.284219 0.572851 0.000000
v 0.348633 0.461250 0.000000
v 0.020000 0.260000 -0.267695
v -0.069570 0.421523 -0.296719
v -0.143750 0.354844 -0.303867
v -0.121719 0.497773 -0.268438
v -0.216250 0.430430 -0.268555
v -0.230000 0.590000 -0.094180
v 0.291992 0.305195 0.066211
v 0.506484 0.223828 0.066211
v 0.308594 0.348984 0.046836
v 0.315469 0.367109 0.000000
v 0.366094 0.363828 0.081094
v 0.378008 0.395273 0.000000
v 0.446211 0.388359 0.000000
v 0.530000 0.285742 0.000000
v 0.366016 0.176953 -0.093672
v 0.432383 0.165195 -0.081094
v 0.506484 0.223828 -0.066211
v -0.052773 0.302695 -0.299258
v -0.109961 0.270000 -0.261367
v -0.201367 0.310000 -0.240000
v -0.270703 0.380000 -0.190000
v -0.248984 0.519922 -0.200352
v -0.300469 0.470000 -0.130000
v 0.160000 0.334375 -0.261289
v 0.129024 0.442617 -0.254414
v 0.028672 0.529570 -0.254414
v 0.501836 0.348281 0.000000
v 0.489922 0.316875 -0.081094
v 0.432461 0.352070 -0.093672
v 0.399219 0.264531 -0.132461
v 0.337305 0.288008 -0.114688
v 0.278867 0.261133 -0.046836
v 0.312031 0.211875 0.081094
v 0.366016 0.176953 0.093672
v 0.352227 0.140703 0.000000
v 0.191055 0.096289 0.000000
v 0.313750 0.220156 0.000000
v 0.335195 0.334375 0.113086
v 0.352461 0.334375 0.000000
v 0.331563 0.455039 0.106016
v 0.183789 0.108906 0.106680
v 0.298398 0.225742 0.113086
v 0.263945 0.437031 0.197852
v 0.291992 0.305195 -0.066211
v 0.366094 0.363828 -0.081094
v 0.308594 0.348984 -0.046836
v 0.176406 0.639922 0.106016
v 0.185508 0.655664 0.000000
v 0.060039 0.674883 0.106016
v 0.063125 0.692422 0.000000
v -0.058203 0.664453 0.106016
v -0.061211 0.681445 0.000000
v 0.335195 0.334375 -0.113086
v 0.331563 0.455039 -0.106016
v 0.263945 0.437031 -0.197852
v 0.158399 0.581836 -0.187617
v 0.176406 0.639922 -0.106016
v 0.432383 0.165195 0.081094
v 0.420469 0.133789 0.000000
v 0.489844 0.180039 -0.046836
v -0.160000 0.573477 0.200000
v -0.048672 0.610625 0.187617
v -0.121719 0.497773 0.268438
v -0.069570 0.421523 0.296719
v 0.028672 0.529570 0.254414
v 0.129024 0.442617 0.254414
v 0.019844 0.375781 0.284648
v 0.160000 0.334375 0.261289
v 0.019844 0.375781 -0.284648
v 0.253828 0.241953 0.197852
v 0.090234 0.219062 -0.240000
v 0.138906 0.155547 -0.186680
v 0.298398 0.225742 -0.113086
v -0.109961 0.270000 0.261367
v -0.201367 0.310000 0.240000
v -0.248984 0.519922 0.200352
v -0.270703 0.380000 0.190000
v -0.300469 0.470000 0.130000
v -0.160000 0.573477 -0.200000
v -0.176367 0.623750 -0.103203
v 0.489844 0.180039 0.046836
v 0.482969 0.161914 0.000000
v 0.523047 0.217539 0.000000
v -0.048672 0.610625 -0.187617
v 0.253828 0.241953 -0.197852
v 0.158399 0.581836 0.187617
v 0.270274 0.561172 0.106016
v 0.060039 0.674883 -0.106016
v 0.090234 0.219062 -0.240000
v 0.020000 0.260000 -0.267695
v -0.109961 0.270000 -0.261367
v -0.201367 0.310000 -0.240000
v -0.270703 0.380000 -0.190000
v 0.036836 0.510000 -0.080000
v -0.300469 0.470000 -0.130000
v -0.284258 0.550000 0.080000
v -0.300469 0.470000 0.130000
v 0.090234 0.219062 0.240000
v 0.020000 0.260000 0.267695
v -0.284258 0.550000 -0.080000
v -0.229180 0.510000 0.000000
v -0.270703 0.380000 0.190000
v -0.201367 0.310000 0.240000
v 0.036836 0.510000 0.080000
v -0.109961 0.270000 0.261367
vn 0.9999 0.0102 -0.0000
vn 0.7974 -0.5965 0.0916
vn 0.7924 -0.6100 0.0000
vn 0.5742 -0.7877 0.2231
vn 0.4845 -0.8748 -0.0000
vn 0.4429 -0.8485 0.2896
vn 0.2243 -0.9745 -0.0000
vn 0.1888 -0.9161 0.3537
vn -0.1031 -0.9947 -0.0000
vn -0.0978 -0.9081 0.4071
vn -0.4755 -0.8797 -0.0000
vn -0.4343 -0.8165 0.3803
vn -0.7661 -0.6428 -0.0000
vn -0.7041 -0.5865 0.4003
vn -0.9614 -0.2751 -0.0000
vn -0.8875 -0.2596 0.3808
vn -0.9897 0.1430 0.0000
vn -0.9146 0.1129 0.3884
vn -0.8527 0.5224 0.0000
vn -0.8089 0.4996 0.3101
vn -0.7103 0.7039 0.0000
vn -0.6277 0.6962 0.3483
vn 0.6702 -0.2385 -0.7028
vn 0.4836 -0.7184 -0.5001
vn 0.4500 -0.1630 -0.8780
vn 0.2228 -0.7502 -0.6225
vn 0.0000 -0.0001 -1.0000
vn -0.2508 -0.6610 -0.7072
vn -0.4436 0.1684 -0.8803
vn -0.6545 -0.4188 -0.6295
vn -0.7725 0.3110 -0.5536
vn -0.9217 -0.0507 -0.3846
vn -0.9285 0.3714 0.0000
vn -0.9743 -0.2246 0.0139
vn -0.9270 -0.0670 0.3691
vn -0.6568 -0.4234 0.6240
vn -0.4385 0.1702 0.8824
vn 0.0024 0.0010 1.0000
vn 0.2581 0.6571 0.7082
vn 0.6645 0.4060 0.6274
vn 0.7621 0.6474 -0.0054
vn 0.9147 0.4041 -0.0089
vn 0.8366 0.2251 -0.4995
vn 0.7974 -0.5965 -0.0916
vn 0.5742 -0.7877 -0.2231
vn 0.6440 -0.4759 -0.5990
vn 0.3143 -0.7000 -0.6412
vn 0.5697 -0.1367 -0.8104
vn 0.1675 -0.4585 -0.8728
vn 0.2960 0.1542 -0.9427
vn -0.0446 -0.1952 -0.9798
vn -0.0320 0.3431 -0.9388
vn -0.1910 -0.0380 -0.9808
vn -0.1700 0.2784 -0.9453
vn -0.3258 0.0750 -0.9424
vn -0.2455 0.3602 -0.9000
vn -0.5906 0.3668 -0.7188
vn -0.3608 0.5748 -0.7345
vn -0.6277 0.6962 -0.3483
vn 0.4429 -0.8485 -0.2896
vn 0.1888 -0.9161 -0.3537
vn 0.0683 -0.7335 -0.6762
vn -0.0978 -0.9081 -0.4071
vn -0.3489 -0.5797 -0.7364
vn -0.4343 -0.8165 -0.3803
vn -0.7041 -0.5865 -0.4003
vn -0.2455 0.3602 0.9000
vn -0.3258 0.0750 0.9424
vn -0.1700 0.2784 0.9453
vn -0.1910 -0.0380 0.9808
vn -0.0320 0.3431 0.9388
vn -0.0446 -0.1952 0.9798
vn 0.2960 0.1542 0.9427
vn 0.1675 -0.4585 0.8728
vn 0.5697 -0.1367 0.8104
vn 0.3143 -0.7000 0.6412
vn 0.6440 -0.4760 0.5990
vn 0.6667 0.4130 -0.6204
vn 0.2601 0.6598 -0.7050
vn -0.2229 0.7503 -0.6224
vn -0.6470 0.6579 -0.3855
vn 0.4105 -0.9119 -0.0002
vn 0.1313 -0.9913 0.0000
vn -0.3547 -0.9350 0.0000
vn -0.7522 -0.6590 0.0040
vn 0.3572 0.9340 -0.0026
vn -0.2228 0.7503 0.6224
vn -0.7720 0.3236 0.5470
vn 0.2660 0.5679 0.7789
vn 0.5879 0.3548 0.7270
vn 0.8026 0.0484 0.5945
vn 0.8568 -0.2421 0.4552
vn -0.5906 0.3668 0.7188
vn -0.6136 -0.2080 0.7617
vn -0.2878 -0.2305 0.9295
vn -0.3489 -0.5797 0.7364
vn -0.1255 -0.4595 0.8793
vn 0.0683 -0.7335 0.6762
vn -0.2507 -0.6611 0.7072
vn 0.4515 -0.1592 0.8780
vn 0.8324 0.2126 0.5118
vn -0.1312 0.9914 0.0000
vn -0.6470 0.6579 0.3855
vn -0.8089 0.4996 -0.3101
vn -0.9146 0.1129 -0.3884
vn -0.8875 -0.2596 -0.3808
vn -0.6136 -0.2080 -0.7617
vn 0.6688 -0.2300 0.7070
vn 0.2228 -0.7502 0.6225
vn 0.4837 -0.7181 0.5004
vn -0.5905 0.8070 -0.0000
vn -0.1255 -0.4595 -0.8793
vn -0.2878 -0.2305 -0.9295
vn -0.3608 0.5748 0.7345
vn 0.2660 0.5679 -0.7789
vn 0.5879 0.3548 -0.7270
vn 0.8026 0.0484 -0.5945
vn 0.8568 -0.2421 -0.4552
vn 0.5490 0.4779 -0.6858
vn 0.3056 0.5584 -0.7712
vn 0.0820 0.8827 -0.4628
vn 0.0383 0.5874 -0.8084
vn 0.0460 0.5901 -0.8060
vn 0.0428 0.5844 -0.8103
vn 0.0593 0.5453 -0.8361
vn 0.1067 0.8562 -0.5055
vn 0.1058 0.9944 0.0000
vn 0.1067 0.8562 0.5055
vn 0.0820 0.8827 0.4628
vn 0.0593 0.5453 0.8361
vn 0.0428 0.5844 0.8103
vn 0.5490 0.4779 0.6858
vn 0.3056 0.5584 0.7712
vn 0.0383 0.5874 0.8084
vn 0.0460 0.5901 0.8060
usemtl Material.013
s 1
f 18/7760/1 1/7761/2 26/7762/3
f 1/7761/2 36/7763/4 26/7762/3
f 26/7762/3 36/7763/4 2/7764/5
f 36/7763/4 110/7765/6 2/7764/5
f 2/7764/5 110/7765/6 82/7766/7
f 110/7765/6 3/7767/8 82/7766/7
f 82/7766/7 3/7767/8 80/7768/9
f 3/7767/8 118/7769/10 80/7768/9
f 80/7768/9 118/7769/10 78/7770/11
f 118/7769/10 87/7771/12 78/7770/11
f 78/7770/11 87/7771/12 29/7772/13
f 87/7771/12 4/7773/14 29/7772/13
f 29/7772/13 4/7773/14 30/7774/15
f 4/7773/14 84/7775/16 30/7774/15
f 30/7774/15 84/7775/16 69/7776/17
f 84/7775/16 83/7777/18 69/7776/17
f 69/7776/17 83/7777/18 67/7778/19
f 83/7777/18 103/7779/20 67/7778/19
f 67/7778/19 103/7779/20 66/7780/21
f 103/7779/20 5/7781/22 66/7780/21
f 37/7782/23 39/7783/24 6/7784/25
f 39/7783/24 41/7785/26 6/7784/25
f 6/7784/25 41/7785/26 7/7786/27
f 41/7785/26 8/7787/28 7/7786/27
f 7/7786/27 8/7787/28 9/7788/29
f 8/7787/28 10/7789/30 9/7788/29
f 9/7788/29 10/7789/30 38/7790/31
f 10/7789/30 11/7791/32 38/7790/31
f 38/7790/31 11/7791/32 113/7792/33
f 11/7791/32 44/7793/34 113/7792/33
f 113/7792/33 44/7793/34 12/7794/35
f 44/7793/34 58/7795/36 12/7794/35
f 12/7794/35 58/7795/36 13/7796/37
f 58/7795/36 60/7797/38 13/7796/37
f 13/7796/37 60/7797/38 45/7798/39
f 60/7797/38 14/7799/40 45/7798/39
f 45/7798/39 14/7799/40 15/7800/41
f 14/7799/40 16/7801/42 15/7800/41
f 15/7800/41 16/7801/42 17/7802/43
f 18/7760/1 26/7762/3 19/7803/44
f 26/7762/3 27/7804/45 19/7803/44
f 19/7803/44 27/7804/45 106/7805/46
f 27/7804/45 91/7806/47 106/7805/46
f 106/7805/46 91/7806/47 20/7807/48
f 91/7806/47 93/7808/49 20/7807/48
f 20/7807/48 93/7808/49 21/7809/50
f 93/7808/49 94/7810/51 21/7809/50
f 21/7809/50 94/7810/51 22/7811/52
f 94/7810/51 97/7812/53 22/7811/52
f 22/7811/52 97/7812/53 23/7813/54
f 97/7812/53 98/7814/55 23/7813/54
f 23/7813/54 98/7814/55 24/7815/56
f 98/7814/55 100/7816/57 24/7815/56
f 24/7815/56 100/7816/57 25/7817/58
f 100/7816/57 71/7818/59 25/7817/58
f 26/7762/3 2/7764/5 27/7804/45
f 2/7764/5 28/7819/60 27/7804/45
f 27/7804/45 28/7819/60 91/7806/47
f 28/7819/60 81/7820/61 91/7806/47
f 91/7806/47 81/7820/61 92/7821/62
f 81/7820/61 79/7822/63 92/7821/62
f 92/7821/62 79/7822/63 116/7823/64
f 79/7822/63 77/7824/65 116/7823/64
f 116/7823/64 77/7824/65 117/7825/66
f 77/7824/65 29/7772/13 117/7825/66
f 117/7825/66 29/7772/13 30/7774/15
f 101/7826/67 54/7827/68 31/7828/69
f 54/7827/68 99/7829/70 31/7828/69
f 31/7828/69 99/7829/70 48/7830/71
f 99/7829/70 32/7831/72 48/7830/71
f 48/7830/71 32/7831/72 33/7832/73
f 32/7831/72 34/7833/74 33/7832/73
f 33/7832/73 34/7833/74 35/7834/75
f 34/7833/74 109/7835/76 35/7834/75
f 35/7834/75 109/7835/76 52/7836/77
f 109/7835/76 36/7763/4 52/7836/77
f 52/7836/77 36/7763/4 1/7761/2
f 17/7802/43 37/7782/23 63/7837/78
f 37/7782/23 6/7784/25 63/7837/78
f 63/7837/78 6/7784/25 64/7838/79
f 6/7784/25 7/7786/27 64/7838/79
f 64/7838/79 7/7786/27 88/7839/80
f 7/7786/27 9/7788/29 88/7839/80
f 88/7839/80 9/7788/29 111/7840/81
f 9/7788/29 38/7790/31 111/7840/81
f 111/7840/81 38/7790/31 113/7792/33
f 39/7783/24 40/7841/82 41/7785/26
f 40/7841/82 42/7842/83 41/7785/26
f 41/7785/26 42/7842/83 8/7787/28
f 42/7842/83 43/7843/84 8/7787/28
f 8/7787/28 43/7843/84 10/7789/30
f 43/7843/84 57/7844/85 10/7789/30
f 10/7789/30 57/7844/85 11/7791/32
f 57/7844/85 44/7793/34 11/7791/32
f 17/7802/43 63/7837/78 15/7800/41
f 63/7837/78 65/7845/86 15/7800/41
f 15/7800/41 65/7845/86 45/7798/39
f 65/7845/86 46/7846/87 45/7798/39
f 45/7798/39 46/7846/87 13/7796/37
f 46/7846/87 47/7847/88 13/7796/37
f 13/7796/37 47/7847/88 12/7794/35
f 47/7847/88 113/7792/33 12/7794/35
f 31/7828/69 48/7830/71 49/7848/89
f 48/7830/71 33/7832/73 49/7848/89
f 49/7848/89 33/7832/73 50/7849/90
f 33/7832/73 35/7834/75 50/7849/90
f 50/7849/90 35/7834/75 51/7850/91
f 35/7834/75 52/7836/77 51/7850/91
f 51/7850/91 52/7836/77 53/7851/92
f 52/7836/77 1/7761/2 53/7851/92
f 101/7826/67 115/7852/93 54/7827/68
f 115/7852/93 85/7853/94 54/7827/68
f 54/7827/68 85/7853/94 55/7854/95
f 85/7853/94 86/7855/96 55/7854/95
f 55/7854/95 86/7855/96 56/7856/97
f 86/7855/96 114/7857/98 56/7856/97
f 56/7856/97 114/7857/98 34/7833/74
f 114/7857/98 109/7835/76 34/7833/74
f 44/7793/34 57/7844/85 58/7795/36
f 57/7844/85 59/7858/99 58/7795/36
f 58/7795/36 59/7858/99 60/7797/38
f 59/7858/99 61/7859/100 60/7797/38
f 60/7797/38 61/7859/100 14/7799/40
f 61/7859/100 62/7860/101 14/7799/40
f 14/7799/40 62/7860/101 16/7801/42
f 63/7837/78 64/7838/79 65/7845/86
f 64/7838/79 89/7861/102 65/7845/86
f 65/7845/86 89/7861/102 46/7846/87
f 89/7861/102 90/7862/103 46/7846/87
f 46/7846/87 90/7862/103 47/7847/88
f 90/7862/103 113/7792/33 47/7847/88
f 66/7780/21 72/7863/104 67/7778/19
f 72/7863/104 68/7864/105 67/7778/19
f 67/7778/19 68/7864/105 69/7776/17
f 68/7864/105 70/7865/106 69/7776/17
f 69/7776/17 70/7865/106 30/7774/15
f 70/7865/106 117/7825/66 30/7774/15
f 66/7780/21 71/7818/59 72/7863/104
f 71/7818/59 100/7816/57 72/7863/104
f 72/7863/104 100/7816/57 68/7864/105
f 100/7816/57 73/7866/107 68/7864/105
f 68/7864/105 73/7866/107 70/7865/106
f 73/7866/107 117/7825/66 70/7865/106
f 62/7860/101 61/7859/100 74/7867/108
f 61/7859/100 75/7868/109 74/7867/108
f 74/7867/108 75/7868/109 76/7869/110
f 75/7868/109 42/7842/83 76/7869/110
f 76/7869/110 42/7842/83 40/7841/82
f 29/7772/13 77/7824/65 78/7770/11
f 77/7824/65 79/7822/63 78/7770/11
f 78/7770/11 79/7822/63 80/7768/9
f 79/7822/63 81/7820/61 80/7768/9
f 80/7768/9 81/7820/61 82/7766/7
f 83/7777/18 84/7775/16 85/7853/94
f 84/7775/16 4/7773/14 85/7853/94
f 85/7853/94 4/7773/14 86/7855/96
f 4/7773/14 87/7771/12 86/7855/96
f 86/7855/96 87/7771/12 118/7769/10
f 64/7838/79 88/7839/80 89/7861/102
f 88/7839/80 112/7870/111 89/7861/102
f 89/7861/102 112/7870/111 90/7862/103
f 112/7870/111 113/7792/33 90/7862/103
f 91/7806/47 92/7821/62 93/7808/49
f 92/7821/62 95/7871/112 93/7808/49
f 93/7808/49 95/7871/112 94/7810/51
f 95/7871/112 97/7812/53 94/7810/51
f 92/7821/62 116/7823/64 95/7871/112
f 116/7823/64 96/7872/113 95/7871/112
f 95/7871/112 96/7872/113 97/7812/53
f 96/7872/113 98/7814/55 97/7812/53
f 54/7827/68 55/7854/95 99/7829/70
f 55/7854/95 56/7856/97 99/7829/70
f 99/7829/70 56/7856/97 32/7831/72
f 56/7856/97 34/7833/74 32/7831/72
f 61/7859/100 59/7858/99 75/7868/109
f 59/7858/99 43/7843/84 75/7868/109
f 75/7868/109 43/7843/84 42/7842/83
f 100/7816/57 98/7814/55 73/7866/107
f 98/7814/55 96/7872/113 73/7866/107
f 73/7866/107 96/7872/113 116/7823/64
f 101/7826/67 102/7873/114 115/7852/93
f 102/7873/114 5/7781/22 115/7852/93
f 115/7852/93 5/7781/22 103/7779/20
f 23/7813/54 104/7874/115 22/7811/52
f 104/7874/115 21/7809/50 22/7811/52
f 104/7874/115 105/7875/116 21/7809/50
f 105/7875/116 20/7807/48 21/7809/50
f 105/7875/116 107/7876/117 20/7807/48
f 107/7876/117 106/7805/46 20/7807/48
f 107/7876/117 108/7877/118 106/7805/46
f 108/7877/118 19/7803/44 106/7805/46
f 36/7763/4 109/7835/76 110/7765/6
f 109/7835/76 3/7767/8 110/7765/6
f 2/7764/5 82/7766/7 28/7819/60
f 82/7766/7 81/7820/61 28/7819/60
f 88/7839/80 111/7840/81 112/7870/111
f 111/7840/81 113/7792/33 112/7870/111
f 109/7835/76 114/7857/98 3/7767/8
f 114/7857/98 118/7769/10 3/7767/8
f 85/7853/94 115/7852/93 83/7777/18
f 115/7852/93 103/7779/20 83/7777/18
f 57/7844/85 43/7843/84 59/7858/99
f 73/7866/107 116/7823/64 117/7825/66
f 114/7857/98 86/7855/96 118/7769/10
f 119/7878/119 120/7879/120 124/7880/121
f 120/7879/120 121/7881/122 124/7880/121
f 124/7880/121 121/7881/122 122/7882/123
f 122/7882/123 123/7883/124 124/7880/121
f 123/7883/124 125/7884/125 124/7880/121
f 124/7880/121 125/7884/125 130/7885/126
f 131/7886/127 126/7887/128 134/7888/129
f 126/7887/128 127/7889/130 134/7888/129
f 134/7888/129 127/7889/130 132/7890/131
f 128/7891/132 134/7888/129 129/7892/133
f 134/7888/129 135/7893/134 129/7892/133
f 130/7885/126 131/7886/127 124/7880/121
f 131/7886/127 134/7888/129 124/7880/121
f 132/7890/131 133/7894/135 134/7888/129
f 133/7894/135 135/7893/134 134/7888/129
