mtllib Hair.mtl
o Mesh_0005.rip.071_Mesh_0005.rip_mesh0000.083
v 0.000000 0.334375 -0.263008
v 0.090234 0.219062 -0.240000
v 0.138906 0.155547 -0.186680
v 0.183789 0.108906 -0.106680
v 0.298398 0.225742 -0.113086
v 0.335195 0.334375 0.113086
v 0.266016 0.438711 0.197734
v 0.136328 0.269258 0.261953
v 0.014297 0.429258 0.278789
v -0.170000 0.503008 0.275156
v -0.168281 0.340117 0.234453
v -0.250000 0.433008 0.182344
v 0.309961 -0.019609 -0.187109
v 0.244414 0.018711 -0.295078
v 0.290117 0.040000 -0.291641
v 0.262812 -0.069375 -0.256836
v 0.252617 0.093906 -0.115859
v 0.232383 0.148203 -0.109414
v 0.203828 0.083516 -0.123633
v 0.174609 0.147070 -0.141250
v 0.201797 0.179844 -0.191719
v 0.258164 0.149023 -0.224492
v 0.229570 0.084336 -0.238711
v 0.287383 0.085469 -0.206875
v 0.260195 0.052734 -0.156406
v 0.202422 0.051602 -0.188281
v 0.275703 -0.028906 0.307344
v 0.262812 -0.069375 0.256836
v 0.291562 0.068437 0.225352
v 0.232305 0.055117 0.251172
v 0.290117 0.040000 0.291641
v 0.244414 0.018711 0.295078
v 0.260195 0.052734 0.156406
v 0.255508 0.041562 0.213008
v 0.173203 0.115156 0.205937
v 0.232383 0.148203 0.109414
v 0.259570 0.180937 0.159844
v 0.209336 0.138633 0.232266
v 0.345703 -0.049063 -0.361055
v 0.341562 -0.025586 -0.296289
v 0.343086 -0.074766 -0.252344
v 0.289180 -0.101055 -0.279883
v 0.348437 -0.136328 -0.283125
v 0.358437 -0.160430 -0.359453
v 0.418828 -0.136172 0.326289
v 0.419727 -0.160000 0.400000
v 0.351445 -0.119727 0.399492
v 0.358437 -0.160430 0.359453
v 0.299297 -0.116016 0.346523
v 0.343086 -0.074766 0.252344
v 0.298906 -0.042461 0.269180
v 0.341562 -0.025586 0.296289
v -0.193945 0.613984 -0.183477
v -0.080000 0.690000 -0.106016
v -0.080000 0.640000 -0.183242
v 0.270274 0.561172 -0.106016
v -0.224101 0.617734 -0.046875
v -0.173320 0.660938 -0.110234
v -0.061211 0.681445 0.000000
v 0.063125 0.692422 0.000000
v 0.060039 0.674883 0.106016
v -0.264414 0.543945 -0.105469
v -0.250000 0.433008 -0.182344
v -0.170000 0.503008 -0.275156
v 0.129024 0.442617 -0.254414
v 0.266016 0.438711 -0.197734
v 0.136328 0.269258 -0.261953
v -0.196172 0.587656 0.000000
v -0.224101 0.617734 0.046875
v -0.264414 0.543945 0.105469
v -0.193945 0.613984 0.183477
v 0.336445 0.012891 0.215273
v 0.278672 0.028008 0.174844
v 0.309961 -0.019609 0.187109
v 0.264297 -0.040898 0.190586
v 0.322070 -0.056016 0.231016
v 0.311914 -0.067695 0.286055
v 0.176406 0.639922 0.106016
v 0.158399 0.581836 0.187617
v 0.258164 0.149023 0.224492
v 0.203828 0.083516 0.123633
v 0.202422 0.051602 0.188281
v 0.158399 0.581836 -0.187617
v 0.349961 0.462734 0.000000
v 0.352461 0.334375 0.000000
v 0.333047 0.456602 0.108359
v 0.259570 0.180937 -0.159844
v -0.103008 0.390000 -0.302656
v -0.039805 0.537109 -0.254961
v 0.334961 -0.015586 -0.281523
v 0.291562 0.068437 -0.225352
v 0.232305 0.055117 -0.251172
v 0.219414 0.014648 -0.200664
v -0.140000 0.654492 -0.038516
v -0.140000 0.654492 0.038516
v -0.080000 0.690000 0.106016
v -0.173320 0.660938 0.110234
v -0.103008 0.390000 0.302656
v -0.030000 0.280430 0.264727
v 0.014922 0.315078 0.293047
v -0.168281 0.340117 -0.234453
v 0.014297 0.429258 -0.278789
v 0.313750 0.220156 0.000000
v 0.060039 0.674883 -0.106016
v 0.176406 0.639922 -0.106016
v 0.185508 0.655664 0.000000
v 0.284219 0.572851 0.000000
v 0.270274 0.561172 0.106016
v -0.039805 0.537109 0.254961
v -0.080000 0.640000 0.183242
v 0.394883 -0.069375 0.297656
v 0.217930 -0.013789 0.266914
v 0.219414 0.014648 0.200664
v 0.244883 0.068516 0.197578
v 0.201797 0.179844 0.191719
v 0.174609 0.147070 0.141250
v 0.208750 0.192656 0.136445
v 0.244883 0.068516 -0.197578
v 0.278672 0.028008 -0.174844
v 0.336445 0.012891 -0.215273
v 0.253828 0.241953 0.197852
v 0.298398 0.225742 0.113086
v 0.191055 0.096289 0.000000
v 0.255508 0.041562 -0.213008
v 0.173203 0.115156 -0.205938
v 0.208750 0.192656 -0.136445
v 0.288789 0.117383 -0.142188
v 0.183789 0.108906 0.106680
v 0.298906 -0.042461 -0.269180
v 0.287656 -0.051836 -0.323828
v 0.299297 -0.116016 -0.346523
v 0.287656 -0.051836 0.323828
v 0.289180 -0.101055 0.279883
v 0.348437 -0.136328 0.283125
v 0.000000 0.334375 0.263008
v 0.090234 0.219062 0.240000
v 0.138906 0.155547 0.186680
v 0.334961 -0.015586 0.281523
v 0.345703 -0.049063 0.361055
v 0.406719 -0.097422 0.372461
v 0.419726 -0.160000 -0.400000
v 0.351445 -0.119727 -0.399492
v 0.418828 -0.136172 -0.326289
v 0.394883 -0.069375 -0.297656
v 0.229570 0.084336 0.238711
v 0.287383 0.085469 0.206875
v 0.288789 0.117383 0.142187
v 0.311914 -0.067695 -0.286055
v 0.275703 -0.028906 -0.307344
v 0.217930 -0.013789 -0.266914
v 0.253828 0.241953 -0.197852
v 0.333047 0.456602 -0.108359
v -0.030000 0.280430 -0.264727
v 0.014922 0.315078 -0.293047
v 0.335195 0.334375 -0.113086
v 0.129024 0.442617 0.254414
v 0.406719 -0.097422 -0.372461
v 0.264297 -0.040898 -0.190586
v 0.322070 -0.056016 -0.231016
v 0.209336 0.138633 -0.232266
v 0.252617 0.093906 0.115859
v -0.196172 0.587656 0.000000
v -0.032812 0.543281 0.056406
v -0.224101 0.617734 0.046875
v 0.136328 0.269258 -0.261953
v -0.030000 0.280430 -0.264727
v -0.168281 0.340117 -0.234453
v -0.250000 0.433008 -0.182344
v -0.264414 0.543945 -0.105469
v -0.032812 0.543281 -0.056406
v -0.224101 0.617734 -0.046875
v -0.250000 0.433008 0.182344
v -0.264414 0.543945 0.105469
v 0.136328 0.269258 0.261953
v -0.030000 0.280430 0.264727
v -0.168281 0.340117 0.234453
vn 0.1324 0.2926 0.9470
vn -0.0589 0.4449 0.8936
vn -0.2271 0.2399 0.9439
vn -0.3560 0.5959 0.7198
vn -0.6019 0.3593 0.7132
vn -0.6277 0.6962 0.3483
vn -0.8089 0.4996 0.3101
vn -0.7103 0.7039 0.0000
vn -0.8527 0.5224 0.0000
vn -0.8089 0.4996 -0.3101
vn -0.9142 0.1216 -0.3867
vn -0.6019 0.3593 -0.7132
vn -0.6020 -0.1989 -0.7733
vn -0.2271 0.2399 -0.9439
vn -0.2839 -0.2084 -0.9359
vn -0.1706 -0.1954 -0.9658
vn -0.0982 -0.4490 -0.8881
vn 0.2445 0.1173 -0.9625
vn 0.4403 -0.2551 -0.8608
vn 0.5705 0.3166 -0.7578
vn 0.7768 -0.0553 -0.6273
vn -0.8619 -0.0525 0.5044
vn -0.6343 0.7070 -0.3128
vn -0.9149 -0.2751 -0.2954
vn -0.4964 0.2904 -0.8181
vn -0.1319 -0.2570 -0.9574
vn 0.3031 0.6329 -0.7125
vn 0.8602 0.0419 -0.5082
vn 0.9149 0.2751 0.2953
vn 0.6369 -0.7053 0.3114
vn 0.4966 -0.2903 0.8180
vn -0.3033 -0.6328 0.7125
vn 0.1367 0.2563 0.9569
vn -0.3945 0.7637 0.5109
vn 0.4220 0.9043 0.0648
vn -0.8994 0.1749 0.4006
vn -0.4109 0.8136 -0.4113
vn -0.9190 -0.0772 -0.3867
vn -0.3275 0.3388 -0.8820
vn -0.0951 -0.2845 -0.9540
vn 0.5150 0.4948 -0.6999
vn 0.8965 -0.1823 -0.4037
vn 0.9191 0.0773 0.3865
vn 0.4135 -0.8105 0.4148
vn 0.3278 -0.3386 0.8820
vn -0.5151 -0.4946 0.7000
vn 0.0990 0.2842 0.9536
vn -0.2838 0.8485 0.4466
vn 0.6069 0.7911 0.0770
vn -0.9149 -0.2751 0.2954
vn -0.6343 0.7070 0.3128
vn -0.8619 -0.0525 -0.5044
vn -0.3945 0.7637 -0.5109
vn 0.1367 0.2563 -0.9569
vn 0.4220 0.9043 -0.0648
vn 0.9149 0.2751 -0.2953
vn 0.3031 0.6329 0.7125
vn 0.8602 0.0419 0.5082
vn -0.1319 -0.2570 0.9574
vn 0.3636 -0.7900 0.4936
vn -0.4295 -0.9011 0.0601
vn 0.6369 -0.7053 -0.3114
vn -0.3033 -0.6328 -0.7125
vn 0.4966 -0.2903 -0.8180
vn -0.9190 -0.0772 0.3867
vn -0.4109 0.8136 0.4113
vn -0.8994 0.1749 -0.4006
vn -0.2838 0.8485 -0.4466
vn 0.0990 0.2842 -0.9536
vn 0.6069 0.7911 -0.0770
vn 0.9191 0.0773 -0.3865
vn 0.5150 0.4948 0.6999
vn 0.8965 -0.1823 0.4037
vn -0.0951 -0.2845 0.9540
vn 0.2525 -0.8680 0.4276
vn -0.6150 -0.7851 0.0731
vn 0.4135 -0.8105 -0.4148
vn -0.5151 -0.4946 -0.7000
vn 0.3278 -0.3386 -0.8820
vn -0.8085 -0.4236 -0.4085
vn -0.7032 -0.5285 0.4756
vn -0.8255 0.3944 -0.4036
vn -0.5839 0.5325 0.6128
vn 0.2857 0.9525 0.1054
vn 0.3366 0.0380 0.9409
vn 0.8335 0.3951 0.3862
vn 0.0048 -0.7523 0.6588
vn 0.8077 -0.4799 0.3426
vn -0.2001 -0.9673 -0.1558
vn 0.5464 -0.5814 -0.6028
vn -0.2118 -0.0590 -0.9755
vn 0.7794 0.4106 -0.4732
vn -0.0115 0.7531 -0.6579
vn -0.8085 -0.4236 0.4085
vn -0.8255 0.3944 0.4036
vn -0.7032 -0.5285 -0.4755
vn -0.5839 0.5325 -0.6128
vn 0.3366 0.0380 -0.9409
vn 0.2857 0.9525 -0.1054
vn 0.8335 0.3951 -0.3862
vn -0.0115 0.7531 0.6579
vn 0.7794 0.4106 0.4732
vn -0.2118 -0.0590 0.9755
vn 0.5464 -0.5814 0.6028
vn -0.2001 -0.9673 0.1558
vn 0.8077 -0.4799 -0.3426
vn 0.0048 -0.7523 -0.6588
vn 0.6174 -0.7614 -0.1977
vn 0.8247 -0.4177 0.3814
vn 0.4812 -0.8669 0.1303
vn 0.5594 -0.6188 0.5516
vn 0.1339 -0.9662 0.2204
vn 0.0177 -0.7325 0.6806
vn -0.1884 -0.8980 0.3976
vn -0.3489 -0.5707 0.7434
vn -0.4343 -0.8165 0.3803
vn -0.6985 -0.5950 0.3976
vn -0.7614 -0.6483 0.0000
vn -0.9605 -0.2783 -0.0000
vn -0.6985 -0.5950 -0.3976
vn -0.8852 -0.2618 -0.3845
vn 0.4448 -0.8757 -0.1879
vn 0.2161 -0.9764 -0.0000
vn -0.1584 -0.9874 -0.0000
vn 0.1339 -0.9662 -0.2204
vn -0.1884 -0.8980 -0.3976
vn 0.0177 -0.7325 -0.6806
vn -0.3489 -0.5707 -0.7434
vn 0.7768 -0.0553 0.6273
vn 0.4403 -0.2551 0.8608
vn -0.0982 -0.4490 0.8881
vn -0.2839 -0.2084 0.9359
vn -0.6020 -0.1989 0.7733
vn 0.5721 -0.8202 -0.0000
vn 0.4448 -0.8757 0.1879
vn 0.6174 -0.7614 0.1977
vn 0.4812 -0.8669 -0.1303
vn 0.8247 -0.4177 -0.3814
vn 0.5594 -0.6188 -0.5516
vn -0.4964 0.2904 0.8181
vn -0.4755 -0.8797 0.0000
vn -0.4343 -0.8165 -0.3803
vn -0.3275 0.3388 0.8820
vn -0.8852 -0.2618 0.3845
vn -0.9888 0.1496 0.0000
vn -0.6150 -0.7851 -0.0731
vn 0.2525 -0.8680 -0.4276
vn 0.5705 0.3166 0.7578
vn 0.2445 0.1173 0.9625
vn -0.1706 -0.1954 0.9658
vn -0.4295 -0.9011 -0.0601
vn 0.3636 -0.7900 -0.4936
vn 0.2059 0.5166 -0.8311
vn -0.0678 0.2479 -0.9664
vn 0.2059 0.5166 0.8311
vn -0.0678 0.2479 0.9664
vn -0.9142 0.1216 0.3867
vn -0.6277 0.6962 -0.3483
vn -0.3560 0.5959 -0.7198
vn 0.1324 0.2926 -0.9470
vn -0.0589 0.4449 -0.8936
vn 0.2165 0.8301 -0.5139
vn 0.3609 0.9326 -0.0000
vn 0.2165 0.8301 0.5139
vn 0.2989 0.8286 0.4733
vn 0.1723 0.5666 0.8057
vn 0.0547 0.6206 -0.7823
vn 0.0718 0.6200 -0.7813
vn 0.1242 0.6058 -0.7858
vn 0.1655 0.5828 -0.7956
vn 0.1723 0.5666 -0.8057
vn 0.2989 0.8286 -0.4733
vn 0.1242 0.6058 0.7858
vn 0.1655 0.5827 0.7956
vn 0.0547 0.6206 0.7823
vn 0.0718 0.6200 0.7813
usemtl Material.013
s 1
f 1/7895/1 2/7896/2 67/7897/3
f 2/7896/2 3/7898/4 67/7897/3
f 67/7897/3 3/7898/4 151/7899/5
f 3/7898/4 4/7900/6 151/7899/5
f 151/7899/5 4/7900/6 5/7901/7
f 4/7900/6 123/7902/8 5/7901/7
f 5/7901/7 123/7902/8 103/7903/9
f 123/7902/8 122/7904/10 103/7903/9
f 103/7903/9 122/7904/10 6/7905/11
f 122/7904/10 121/7906/12 6/7905/11
f 6/7905/11 121/7906/12 7/7907/13
f 121/7906/12 8/7908/14 7/7907/13
f 7/7907/13 8/7908/14 156/7909/15
f 8/7908/14 9/7910/16 156/7909/15
f 156/7909/15 9/7910/16 109/7911/17
f 9/7910/16 98/7912/18 109/7911/17
f 109/7911/17 98/7912/18 10/7913/19
f 98/7912/18 11/7914/20 10/7913/19
f 10/7913/19 11/7914/20 12/7915/21
f 90/7916/22 159/7917/23 120/7918/24
f 159/7917/23 13/7919/25 120/7918/24
f 120/7918/24 13/7919/25 119/7920/26
f 13/7919/25 158/7921/27 119/7920/26
f 119/7920/26 158/7921/27 93/7922/28
f 158/7921/27 150/7923/29 93/7922/28
f 93/7922/28 150/7923/29 92/7924/30
f 150/7923/29 14/7925/31 92/7924/30
f 92/7924/30 14/7925/31 15/7926/32
f 14/7925/31 149/7927/33 15/7926/32
f 15/7926/32 149/7927/33 90/7916/22
f 149/7927/33 148/7928/34 90/7916/22
f 90/7916/22 148/7928/34 159/7917/23
f 148/7928/34 16/7929/35 159/7917/23
f 159/7917/23 16/7929/35 158/7921/27
f 16/7929/35 150/7923/29 158/7921/27
f 24/7930/36 25/7931/37 127/7932/38
f 25/7931/37 17/7933/39 127/7932/38
f 127/7932/38 17/7933/39 18/7934/40
f 17/7933/39 19/7935/41 18/7934/40
f 18/7934/40 19/7935/41 20/7936/42
f 19/7935/41 125/7937/43 20/7936/42
f 20/7936/42 125/7937/43 21/7938/44
f 125/7937/43 160/7939/45 21/7938/44
f 21/7938/44 160/7939/45 22/7940/46
f 160/7939/45 23/7941/47 22/7940/46
f 22/7940/46 23/7941/47 24/7930/36
f 23/7941/47 124/7942/48 24/7930/36
f 24/7930/36 124/7942/48 25/7931/37
f 124/7942/48 26/7943/49 25/7931/37
f 25/7931/37 26/7943/49 19/7935/41
f 26/7943/49 125/7937/43 19/7935/41
f 72/7944/50 76/7945/51 138/7946/52
f 76/7945/51 77/7947/53 138/7946/52
f 138/7946/52 77/7947/53 27/7948/54
f 77/7947/53 28/7949/55 27/7948/54
f 27/7948/54 28/7949/55 112/7950/56
f 28/7949/55 75/7951/57 112/7950/56
f 112/7950/56 75/7951/57 113/7952/58
f 75/7951/57 73/7953/59 113/7952/58
f 113/7952/58 73/7953/59 114/7954/60
f 73/7953/59 29/7955/61 114/7954/60
f 114/7954/60 29/7955/61 30/7956/62
f 29/7955/61 31/7957/63 30/7956/62
f 30/7956/62 31/7957/63 32/7958/64
f 31/7957/63 27/7948/54 32/7958/64
f 32/7958/64 27/7948/54 112/7950/56
f 147/7959/65 33/7960/66 146/7961/67
f 33/7960/66 34/7962/68 146/7961/67
f 146/7961/67 34/7962/68 145/7963/69
f 34/7962/68 82/7964/70 145/7963/69
f 145/7963/69 82/7964/70 35/7965/71
f 82/7964/70 81/7966/72 35/7965/71
f 35/7965/71 81/7966/72 116/7967/73
f 81/7966/72 36/7968/74 116/7967/73
f 116/7967/73 36/7968/74 117/7969/75
f 36/7968/74 37/7970/76 117/7969/75
f 117/7969/75 37/7970/76 115/7971/77
f 37/7970/76 80/7972/78 115/7971/77
f 115/7971/77 80/7972/78 38/7973/79
f 80/7972/78 145/7963/69 38/7973/79
f 38/7973/79 145/7963/69 35/7965/71
f 144/7974/80 157/7975/81 143/7976/82
f 157/7975/81 141/7977/83 143/7976/82
f 143/7976/82 141/7977/83 44/7978/84
f 141/7977/83 142/7979/85 44/7978/84
f 44/7978/84 142/7979/85 131/7980/86
f 142/7979/85 39/7981/87 131/7980/86
f 131/7980/86 39/7981/87 130/7982/88
f 39/7981/87 40/7983/89 130/7982/88
f 130/7982/88 40/7983/89 129/7984/90
f 40/7983/89 41/7985/91 129/7984/90
f 129/7984/90 41/7985/91 42/7986/92
f 41/7985/91 43/7987/93 42/7986/92
f 42/7986/92 43/7987/93 131/7980/86
f 43/7987/93 44/7978/84 131/7980/86
f 111/7988/94 45/7989/95 140/7990/96
f 45/7989/95 46/7991/97 140/7990/96
f 140/7990/96 46/7991/97 47/7992/98
f 46/7991/97 48/7993/99 47/7992/98
f 47/7992/98 48/7993/99 49/7994/100
f 48/7993/99 134/7995/101 49/7994/100
f 49/7994/100 134/7995/101 133/7996/102
f 134/7995/101 50/7997/103 133/7996/102
f 133/7996/102 50/7997/103 51/7998/104
f 50/7997/103 52/7999/105 51/7998/104
f 51/7998/104 52/7999/105 132/8000/106
f 52/7999/105 139/8001/107 132/8000/106
f 132/8000/106 139/8001/107 49/7994/100
f 139/8001/107 47/7992/98 49/7994/100
f 57/8002/108 62/8003/109 58/8004/110
f 62/8003/109 53/8005/111 58/8004/110
f 58/8004/110 53/8005/111 54/8006/112
f 53/8005/111 55/8007/113 54/8006/112
f 54/8006/112 55/8007/113 104/8008/114
f 55/8007/113 83/8009/115 104/8008/114
f 104/8008/114 83/8009/115 105/8010/116
f 83/8009/115 56/8011/117 105/8010/116
f 105/8010/116 56/8011/117 107/8012/118
f 56/8011/117 84/8013/119 107/8012/118
f 107/8012/118 84/8013/119 108/8014/120
f 84/8013/119 86/8015/121 108/8014/120
f 108/8014/120 86/8015/121 7/7907/13
f 86/8015/121 6/7905/11 7/7907/13
f 57/8002/108 58/8004/110 94/8016/122
f 58/8004/110 54/8006/112 94/8016/122
f 94/8016/122 54/8006/112 59/8017/123
f 54/8006/112 60/8018/124 59/8017/123
f 59/8017/123 60/8018/124 96/8019/125
f 60/8018/124 61/8020/126 96/8019/125
f 96/8019/125 61/8020/126 110/8021/127
f 61/8020/126 79/8022/128 110/8021/127
f 110/8021/127 79/8022/128 109/7911/17
f 79/8022/128 156/7909/15 109/7911/17
f 62/8003/109 63/8023/129 53/8005/111
f 63/8023/129 64/8024/130 53/8005/111
f 53/8005/111 64/8024/130 55/8007/113
f 64/8024/130 89/8025/131 55/8007/113
f 55/8007/113 89/8025/131 83/8009/115
f 89/8025/131 65/8026/132 83/8009/115
f 83/8009/115 65/8026/132 66/8027/133
f 65/8026/132 67/7897/3 66/8027/133
f 66/8027/133 67/7897/3 151/7899/5
f 57/8002/108 94/8016/122 68/8028/134
f 94/8016/122 95/8029/135 68/8028/134
f 68/8028/134 95/8029/135 69/8030/136
f 95/8029/135 97/8031/137 69/8030/136
f 69/8030/136 97/8031/137 70/8032/138
f 97/8031/137 71/8033/139 70/8032/138
f 70/8032/138 71/8033/139 12/7915/21
f 71/8033/139 10/7913/19 12/7915/21
f 31/7957/63 29/7955/61 72/7944/50
f 29/7955/61 73/7953/59 72/7944/50
f 72/7944/50 73/7953/59 74/8034/140
f 73/7953/59 75/7951/57 74/8034/140
f 74/8034/140 75/7951/57 76/7945/51
f 75/7951/57 28/7949/55 76/7945/51
f 76/7945/51 28/7949/55 77/7947/53
f 54/8006/112 104/8008/114 60/8018/124
f 104/8008/114 106/8035/141 60/8018/124
f 60/8018/124 106/8035/141 61/8020/126
f 106/8035/141 78/8036/142 61/8020/126
f 61/8020/126 78/8036/142 79/8022/128
f 78/8036/142 108/8014/120 79/8022/128
f 79/8022/128 108/8014/120 7/7907/13
f 80/7972/78 37/7970/76 147/7959/65
f 37/7970/76 36/7968/74 147/7959/65
f 147/7959/65 36/7968/74 161/8037/143
f 36/7968/74 81/7966/72 161/8037/143
f 161/8037/143 81/7966/72 33/7960/66
f 81/7966/72 82/7964/70 33/7960/66
f 33/7960/66 82/7964/70 34/7962/68
f 83/8009/115 66/8027/133 56/8011/117
f 66/8027/133 152/8038/144 56/8011/117
f 56/8011/117 152/8038/144 84/8013/119
f 152/8038/144 85/8039/145 84/8013/119
f 84/8013/119 85/8039/145 86/8015/121
f 85/8039/145 6/7905/11 86/8015/121
f 24/7930/36 127/7932/38 22/7940/46
f 127/7932/38 87/8040/146 22/7940/46
f 22/7940/46 87/8040/146 21/7938/44
f 87/8040/146 126/8041/147 21/7938/44
f 21/7938/44 126/8041/147 20/7936/42
f 126/8041/147 18/7934/40 20/7936/42
f 63/8023/129 101/8042/148 64/8024/130
f 101/8042/148 88/8043/149 64/8024/130
f 64/8024/130 88/8043/149 89/8025/131
f 88/8043/149 102/8044/150 89/8025/131
f 89/8025/131 102/8044/150 65/8026/132
f 102/8044/150 67/7897/3 65/8026/132
f 90/7916/22 120/7918/24 15/7926/32
f 120/7918/24 91/8045/151 15/7926/32
f 15/7926/32 91/8045/151 92/7924/30
f 91/8045/151 118/8046/152 92/7924/30
f 92/7924/30 118/8046/152 93/7922/28
f 118/8046/152 119/7920/26 93/7922/28
f 94/8016/122 59/8017/123 95/8029/135
f 59/8017/123 96/8019/125 95/8029/135
f 95/8029/135 96/8019/125 97/8031/137
f 96/8019/125 71/8033/139 97/8031/137
f 11/7914/20 98/7912/18 99/8047/153
f 98/7912/18 100/8048/154 99/8047/153
f 99/8047/153 100/8048/154 8/7908/14
f 100/8048/154 9/7910/16 8/7908/14
f 101/8042/148 153/8049/155 88/8043/149
f 153/8049/155 154/8050/156 88/8043/149
f 88/8043/149 154/8050/156 102/8044/150
f 154/8050/156 67/7897/3 102/8044/150
f 6/7905/11 85/8039/145 103/7903/9
f 85/8039/145 155/8051/157 103/7903/9
f 103/7903/9 155/8051/157 5/7901/7
f 155/8051/157 151/7899/5 5/7901/7
f 104/8008/114 105/8010/116 106/8035/141
f 105/8010/116 107/8012/118 106/8035/141
f 106/8035/141 107/8012/118 78/8036/142
f 107/8012/118 108/8014/120 78/8036/142
f 109/7911/17 10/7913/19 110/8021/127
f 10/7913/19 71/8033/139 110/8021/127
f 110/8021/127 71/8033/139 96/8019/125
f 43/7987/93 41/7985/91 144/7974/80
f 41/7985/91 40/7983/89 144/7974/80
f 144/7974/80 40/7983/89 39/7981/87
f 139/8001/107 52/7999/105 111/7988/94
f 52/7999/105 50/7997/103 111/7988/94
f 111/7988/94 50/7997/103 134/7995/101
f 32/7958/64 112/7950/56 30/7956/62
f 112/7950/56 113/7952/58 30/7956/62
f 30/7956/62 113/7952/58 114/7954/60
f 38/7973/79 35/7965/71 115/7971/77
f 35/7965/71 116/7967/73 115/7971/77
f 115/7971/77 116/7967/73 117/7969/75
f 118/8046/152 91/8045/151 119/7920/26
f 91/8045/151 120/7918/24 119/7920/26
f 121/7906/12 122/7904/10 128/8052/158
f 122/7904/10 123/7902/8 128/8052/158
f 124/7942/48 23/7941/47 26/7943/49
f 23/7941/47 125/7937/43 26/7943/49
f 126/8041/147 87/8040/146 18/7934/40
f 87/8040/146 127/7932/38 18/7934/40
f 8/7908/14 121/7906/12 137/8053/159
f 121/7906/12 128/8052/158 137/8053/159
f 129/7984/90 42/7986/92 130/7982/88
f 42/7986/92 131/7980/86 130/7982/88
f 51/7998/104 132/8000/106 133/7996/102
f 132/8000/106 49/7994/100 133/7996/102
f 46/7991/97 45/7989/95 48/7993/99
f 45/7989/95 134/7995/101 48/7993/99
f 135/8054/160 8/7908/14 136/8055/161
f 8/7908/14 137/8053/159 136/8055/161
f 27/7948/54 31/7957/63 138/7946/52
f 31/7957/63 72/7944/50 138/7946/52
f 47/7992/98 139/8001/107 140/7990/96
f 139/8001/107 111/7988/94 140/7990/96
f 141/7977/83 157/7975/81 142/7979/85
f 157/7975/81 39/7981/87 142/7979/85
f 44/7978/84 43/7987/93 143/7976/82
f 43/7987/93 144/7974/80 143/7976/82
f 145/7963/69 80/7972/78 146/7961/67
f 80/7972/78 147/7959/65 146/7961/67
f 148/7928/34 149/7927/33 16/7929/35
f 149/7927/33 150/7923/29 16/7929/35
f 151/7899/5 155/8051/157 66/8027/133
f 155/8051/157 152/8038/144 66/8027/133
f 98/7912/18 9/7910/16 100/8048/154
f 153/8049/155 67/7897/3 154/8050/156
f 155/8051/157 85/8039/145 152/8038/144
f 7/7907/13 156/7909/15 79/8022/128
f 157/7975/81 144/7974/80 39/7981/87
f 149/7927/33 14/7925/31 150/7923/29
f 158/7921/27 13/7919/25 159/7917/23
f 23/7941/47 160/7939/45 125/7937/43
f 19/7935/41 17/7933/39 25/7931/37
f 134/7995/101 45/7989/95 111/7988/94
f 74/8034/140 76/7945/51 72/7944/50
f 161/8037/143 33/7960/66 147/7959/65
f 170/8056/162 162/8057/163 163/8058/164
f 162/8057/163 164/8059/165 163/8058/164
f 163/8058/164 164/8059/165 173/8060/166
f 165/8061/167 166/8062/168 170/8056/162
f 166/8062/168 167/8063/169 170/8056/162
f 170/8056/162 167/8063/169 168/8064/170
f 168/8064/170 169/8065/171 170/8056/162
f 169/8065/171 171/8066/172 170/8056/162
f 170/8056/162 171/8066/172 162/8057/163
f 176/8067/173 163/8058/164 172/8068/174
f 163/8058/164 173/8060/166 172/8068/174
f 174/8069/175 163/8058/164 175/8070/176
f 163/8058/164 176/8067/173 175/8070/176
