mtllib Hair.mtl
o Mesh_0005.rip.017_Mesh_0005.rip_mesh0000.025
v -0.119609 0.584961 0.123555
v -0.142773 0.631289 0.118867
v -0.120000 0.674922 0.133555
v -0.099492 0.706484 0.137500
v 0.249024 0.431211 -0.186680
v 0.332500 0.334375 0.000000
v 0.281523 0.231914 0.106680
v -0.119609 0.584961 -0.123555
v -0.104023 0.579062 -0.147109
v -0.051289 0.546367 -0.226758
v 0.121719 0.436484 -0.240000
v 0.150938 0.334375 -0.246484
v 0.239453 0.247187 -0.186680
v 0.316211 0.334375 -0.106680
v 0.281523 0.231914 -0.106680
v 0.296016 0.226641 0.000000
v 0.183789 0.108906 0.106680
v 0.239453 0.247187 0.186680
v 0.138906 0.155547 0.186680
v -0.002383 0.740937 -0.046133
v -0.008789 0.747891 0.000000
v 0.090234 0.219062 0.240000
v -0.163672 0.596328 0.100000
v -0.186719 0.571758 0.040508
v -0.186055 0.638125 0.077109
v -0.168906 0.690078 0.088125
v -0.126367 0.729102 0.085508
v -0.139765 0.740430 0.000000
v -0.081562 0.754023 0.000000
v -0.039531 0.718594 -0.127656
v 0.010000 0.655391 -0.184961
v -0.047148 0.608516 -0.202969
v 0.050703 0.570000 0.225703
v -0.047148 0.608516 0.202969
v -0.096016 0.361211 0.258281
v -0.086289 0.243789 0.263633
v 0.006211 0.302617 0.267773
v -0.086289 0.243789 -0.263633
v -0.096016 0.361211 -0.258281
v 0.006211 0.302617 -0.267773
v 0.150938 0.334375 0.246484
v 0.249024 0.431211 0.186680
v 0.316211 0.334375 0.106680
v 0.328906 0.454062 0.000000
v 0.312813 0.448203 -0.100000
v 0.255000 0.544141 -0.100000
v 0.121719 0.436484 0.240000
v 0.255000 0.544141 0.100000
v 0.160000 0.630000 0.100000
v 0.268125 0.559336 0.000000
v 0.160000 0.630000 -0.100000
v -0.068047 0.663242 -0.172969
v -0.096484 0.625625 -0.163477
v -0.120000 0.674922 -0.133555
v -0.186055 0.638125 -0.077109
v -0.070547 0.744766 0.070039
v -0.096484 0.625625 0.163477
v 0.136992 0.590000 -0.187617
v 0.056719 0.675273 -0.136602
v 0.015742 0.721250 -0.084102
v -0.070547 0.744766 -0.070039
v -0.182734 0.698789 0.000000
v -0.126367 0.729102 -0.085508
v -0.099492 0.706484 -0.137500
v 0.312813 0.448203 0.100000
v 0.191055 0.096289 0.000000
v 0.183789 0.108906 -0.106680
v 0.138906 0.155547 -0.186680
v 0.090234 0.219062 -0.240000
v -0.200000 0.641289 0.000000
v -0.186719 0.571758 -0.040508
v -0.039531 0.718594 0.127656
v 0.010000 0.655391 0.184961
v -0.068047 0.663242 0.172969
v -0.092812 0.574531 0.176992
v -0.099219 0.462227 -0.241758
v 0.013516 0.442227 -0.264531
v 0.050703 0.570000 -0.225703
v -0.142773 0.631289 -0.118867
v -0.163672 0.596328 -0.100000
v 0.136992 0.590000 0.187617
v 0.056719 0.675273 0.136602
v 0.171680 0.647422 0.000000
v -0.002383 0.740937 0.046133
v 0.015742 0.721250 0.084102
v -0.104023 0.579062 0.147109
v -0.051289 0.546367 0.226758
v -0.092812 0.574531 -0.176992
v -0.099219 0.462227 0.241758
v 0.013516 0.442227 0.264531
v -0.099219 0.462227 0.241758
v -0.092812 0.574531 -0.176992
v -0.099219 0.462227 -0.241758
v -0.092812 0.574531 0.176992
v -0.096016 0.361211 -0.258281
v -0.168906 0.690078 -0.088125
v -0.086289 0.243789 0.263633
v -0.193828 0.568555 0.000000
v -0.096016 0.361211 0.258281
v 0.025508 0.260000 0.000000
v 0.090234 0.219062 0.240000
v 0.006211 0.302617 0.267773
v -0.086289 0.243789 -0.263633
v 0.006211 0.302617 -0.267773
v 0.090234 0.219062 -0.240000
vn 0.6906 0.1771 -0.7012
vn 0.7208 0.1248 -0.6819
vn 0.6620 0.0169 -0.7493
vn 0.8967 -0.0477 -0.4400
vn 0.6183 -0.2039 -0.7590
vn 0.7749 -0.4202 -0.4721
vn 0.3317 -0.6238 -0.7077
vn 0.4202 -0.8336 -0.3586
vn 0.0288 -0.9599 -0.2789
vn 0.0867 -0.9962 0.0000
vn -0.2749 -0.9615 0.0000
vn 0.0288 -0.9599 0.2789
vn -0.3060 -0.9305 0.2014
vn -0.3825 -0.8636 0.3285
vn -0.5899 -0.8075 0.0000
vn -0.4131 -0.7816 0.4674
vn -0.5552 -0.7677 0.3201
vn -0.4594 -0.5293 0.7133
vn -0.7247 -0.5700 0.3872
vn -0.6232 -0.1964 0.7570
vn -0.8853 -0.2676 0.3802
vn -0.9146 0.1129 0.3883
vn -0.9897 0.1430 0.0000
vn -0.8777 0.4793 0.0000
vn -0.9146 0.1129 -0.3883
vn -0.8348 0.4539 -0.3115
vn -0.6265 0.3145 -0.7132
vn 0.6906 0.1771 0.7012
vn 0.8863 0.0192 0.4627
vn 0.6755 -0.0947 0.7313
vn 0.7134 -0.2282 0.6625
vn 0.3158 -0.3508 0.8816
vn 0.3121 -0.3612 0.8787
vn -0.1444 -0.3668 0.9190
vn -0.0316 -0.1618 0.9863
vn -0.3064 -0.1976 0.9312
vn -0.3428 0.0339 0.9388
vn -0.6265 0.3145 0.7132
vn -0.8348 0.4539 0.3115
vn -0.7814 0.6240 0.0000
vn -0.7089 0.6123 -0.3501
vn -0.4556 0.4999 -0.7366
vn -0.2979 0.2608 -0.9183
vn -0.3060 -0.9305 -0.2014
vn -0.3825 -0.8636 -0.3285
vn -0.0975 -0.8276 -0.5528
vn -0.4131 -0.7816 -0.4674
vn -0.1271 -0.6094 -0.7826
vn -0.4594 -0.5293 -0.7133
vn -0.1444 -0.3668 -0.9190
vn -0.3064 -0.1976 -0.9312
vn -0.0316 -0.1618 -0.9863
vn -0.3428 0.0339 -0.9388
vn -0.0445 0.0116 -0.9989
vn 0.9618 0.1231 -0.2444
vn 0.9947 -0.1032 -0.0000
vn 0.8509 -0.5254 0.0000
vn 0.4894 -0.8721 0.0000
vn 0.4202 -0.8336 0.3586
vn 0.3317 -0.6238 0.7077
vn -0.0975 -0.8276 0.5528
vn 0.3010 -0.4402 0.8459
vn -0.1271 -0.6094 0.7826
vn 0.3158 -0.3508 -0.8816
vn 0.3121 -0.3612 -0.8787
vn 0.7134 -0.2282 -0.6625
vn 0.2340 -0.2507 -0.9394
vn 0.1043 -0.0714 -0.9920
vn 0.0698 -0.0396 -0.9968
vn -0.2979 0.2608 0.9183
vn -0.0445 0.0116 0.9989
vn 0.0698 -0.0396 0.9968
vn 0.1043 -0.0714 0.9920
vn -0.6232 -0.1964 -0.7570
vn -0.8853 -0.2676 -0.3802
vn -0.9601 -0.2797 -0.0000
vn -0.7247 -0.5700 -0.3872
vn -0.5552 -0.7677 -0.3201
vn -0.7763 -0.6303 0.0000
vn 0.6183 -0.2039 0.7590
vn 0.6620 0.0169 0.7493
vn 0.8967 -0.0477 0.4400
vn 0.7208 0.1248 0.6819
vn 0.9618 0.1231 0.2444
vn 0.3010 -0.4402 -0.8459
vn 0.6755 -0.0947 -0.7313
vn 0.7749 -0.4202 0.4721
vn -0.7089 0.6123 0.3501
vn -0.4556 0.4999 0.7366
vn 0.9964 0.0846 0.0000
vn 0.2340 -0.2507 0.9394
vn 0.8863 0.0192 -0.4627
vn 0.9242 0.1499 0.3514
vn 0.9210 0.1283 0.3678
vn 0.8104 0.5859 -0.0000
vn 0.9145 0.0935 0.3936
vn 0.5068 0.8202 0.2653
vn 0.5068 0.8202 -0.2653
vn 0.9145 0.0935 -0.3936
vn 0.9242 0.1499 -0.3514
vn 0.9210 0.1283 -0.3678
vn 0.0128 0.9876 -0.1563
vn 0.6929 0.7182 -0.0644
vn 0.6929 0.7182 0.0644
vn 0.0128 0.9876 0.1563
usemtl Material.013
s 1
f 1/1066/1 23/1067/2 2/1068/3
f 23/1067/2 25/1069/4 2/1068/3
f 2/1068/3 25/1069/4 3/1070/5
f 25/1069/4 26/1071/6 3/1070/5
f 3/1070/5 26/1071/6 4/1072/7
f 26/1071/6 27/1073/8 4/1072/7
f 4/1072/7 27/1073/8 56/1074/9
f 27/1073/8 29/1075/10 56/1074/9
f 56/1074/9 29/1075/10 21/1076/11
f 29/1075/10 61/1077/12 21/1076/11
f 21/1076/11 61/1077/12 20/1078/13
f 61/1077/12 60/1079/14 20/1078/13
f 20/1078/13 60/1079/14 83/1080/15
f 60/1079/14 59/1081/16 83/1080/15
f 83/1080/15 59/1081/16 51/1082/17
f 59/1081/16 58/1083/18 51/1082/17
f 51/1082/17 58/1083/18 46/1084/19
f 58/1083/18 5/1085/20 46/1084/19
f 46/1084/19 5/1085/20 45/1086/21
f 5/1085/20 14/1087/22 45/1086/21
f 45/1086/21 14/1087/22 6/1088/23
f 14/1087/22 16/1089/24 6/1088/23
f 6/1088/23 16/1089/24 43/1090/25
f 16/1089/24 7/1091/26 43/1090/25
f 43/1090/25 7/1091/26 18/1092/27
f 8/1093/28 9/1094/29 53/1095/30
f 9/1094/29 92/1096/31 53/1095/30
f 53/1095/30 92/1096/31 32/1097/32
f 92/1096/31 10/1098/33 32/1097/32
f 32/1097/32 10/1098/33 78/1099/34
f 10/1098/33 77/1100/35 78/1099/34
f 78/1099/34 77/1100/35 11/1101/36
f 77/1100/35 12/1102/37 11/1101/36
f 11/1101/36 12/1102/37 5/1085/20
f 12/1102/37 13/1103/38 5/1085/20
f 5/1085/20 13/1103/38 14/1087/22
f 13/1103/38 15/1104/39 14/1087/22
f 14/1087/22 15/1104/39 16/1089/24
f 15/1104/39 66/1105/40 16/1089/24
f 16/1089/24 66/1105/40 7/1091/26
f 66/1105/40 17/1106/41 7/1091/26
f 7/1091/26 17/1106/41 18/1092/27
f 17/1106/41 19/1107/42 18/1092/27
f 18/1092/27 19/1107/42 22/1108/43
f 20/1078/13 83/1080/15 21/1076/11
f 83/1080/15 84/1109/44 21/1076/11
f 21/1076/11 84/1109/44 56/1074/9
f 84/1109/44 85/1110/45 56/1074/9
f 56/1074/9 85/1110/45 72/1111/46
f 85/1110/45 82/1112/47 72/1111/46
f 72/1111/46 82/1112/47 73/1113/48
f 82/1112/47 81/1114/49 73/1113/48
f 73/1113/48 81/1114/49 33/1115/50
f 81/1114/49 47/1116/51 33/1115/50
f 33/1115/50 47/1116/51 90/1117/52
f 47/1116/51 41/1118/53 90/1117/52
f 90/1117/52 41/1118/53 37/1119/54
f 41/1118/53 22/1108/43 37/1119/54
f 23/1067/2 24/1120/55 25/1069/4
f 24/1120/55 70/1121/56 25/1069/4
f 25/1069/4 70/1121/56 26/1071/6
f 70/1121/56 62/1122/57 26/1071/6
f 26/1071/6 62/1122/57 27/1073/8
f 62/1122/57 28/1123/58 27/1073/8
f 27/1073/8 28/1123/58 29/1075/10
f 28/1123/58 63/1124/59 29/1075/10
f 29/1075/10 63/1124/59 61/1077/12
f 63/1124/59 64/1125/60 61/1077/12
f 61/1077/12 64/1125/60 30/1126/61
f 64/1125/60 52/1127/62 30/1126/61
f 30/1126/61 52/1127/62 31/1128/63
f 52/1127/62 32/1097/32 31/1128/63
f 31/1128/63 32/1097/32 78/1099/34
f 73/1113/48 33/1115/50 34/1129/64
f 33/1115/50 87/1130/65 34/1129/64
f 34/1129/64 87/1130/65 75/1131/66
f 87/1130/65 91/1132/67 75/1131/66
f 35/1133/68 37/1119/54 36/1134/69
f 13/1103/38 12/1102/37 69/1135/70
f 12/1102/37 40/1136/71 69/1135/70
f 38/1137/72 40/1136/71 39/1138/73
f 39/1138/73 40/1136/71 77/1100/35
f 40/1136/71 12/1102/37 77/1100/35
f 22/1108/43 41/1118/53 18/1092/27
f 41/1118/53 42/1139/74 18/1092/27
f 18/1092/27 42/1139/74 43/1090/25
f 42/1139/74 65/1140/75 43/1090/25
f 43/1090/25 65/1140/75 6/1088/23
f 65/1140/75 44/1141/76 6/1088/23
f 6/1088/23 44/1141/76 45/1086/21
f 44/1141/76 46/1084/19 45/1086/21
f 41/1118/53 47/1116/51 42/1139/74
f 47/1116/51 81/1114/49 42/1139/74
f 42/1139/74 81/1114/49 48/1142/77
f 81/1114/49 49/1143/78 48/1142/77
f 48/1142/77 49/1143/78 50/1144/79
f 49/1143/78 83/1080/15 50/1144/79
f 50/1144/79 83/1080/15 51/1082/17
f 32/1097/32 52/1127/62 53/1095/30
f 52/1127/62 54/1145/80 53/1095/30
f 53/1095/30 54/1145/80 79/1146/81
f 54/1145/80 55/1147/82 79/1146/81
f 79/1146/81 55/1147/82 80/1148/83
f 55/1147/82 71/1149/84 80/1148/83
f 56/1074/9 72/1111/46 4/1072/7
f 72/1111/46 74/1150/85 4/1072/7
f 4/1072/7 74/1150/85 3/1070/5
f 74/1150/85 57/1151/86 3/1070/5
f 3/1070/5 57/1151/86 2/1068/3
f 57/1151/86 1/1066/1 2/1068/3
f 78/1099/34 58/1083/18 31/1128/63
f 58/1083/18 59/1081/16 31/1128/63
f 31/1128/63 59/1081/16 30/1126/61
f 59/1081/16 60/1079/14 30/1126/61
f 30/1126/61 60/1079/14 61/1077/12
f 28/1123/58 62/1122/57 63/1124/59
f 62/1122/57 96/1152/87 63/1124/59
f 63/1124/59 96/1152/87 64/1125/60
f 96/1152/87 54/1145/80 64/1125/60
f 64/1125/60 54/1145/80 52/1127/62
f 51/1082/17 46/1084/19 50/1144/79
f 46/1084/19 44/1141/76 50/1144/79
f 50/1144/79 44/1141/76 48/1142/77
f 44/1141/76 65/1140/75 48/1142/77
f 48/1142/77 65/1140/75 42/1139/74
f 66/1105/40 15/1104/39 67/1153/88
f 15/1104/39 13/1103/38 67/1153/88
f 67/1153/88 13/1103/38 68/1154/89
f 13/1103/38 69/1135/70 68/1154/89
f 54/1145/80 96/1152/87 55/1147/82
f 96/1152/87 70/1121/56 55/1147/82
f 55/1147/82 70/1121/56 71/1149/84
f 70/1121/56 98/1155/90 71/1149/84
f 72/1111/46 73/1113/48 74/1150/85
f 73/1113/48 34/1129/64 74/1150/85
f 74/1150/85 34/1129/64 57/1151/86
f 34/1129/64 75/1131/66 57/1151/86
f 76/1156/91 39/1138/73 77/1100/35
f 5/1085/20 58/1083/18 11/1101/36
f 58/1083/18 78/1099/34 11/1101/36
f 53/1095/30 79/1146/81 8/1093/28
f 79/1146/81 80/1148/83 8/1093/28
f 81/1114/49 82/1112/47 49/1143/78
f 82/1112/47 83/1080/15 49/1143/78
f 84/1109/44 83/1080/15 85/1110/45
f 83/1080/15 82/1112/47 85/1110/45
f 1/1066/1 57/1151/86 86/1157/92
f 57/1151/86 75/1131/66 86/1157/92
f 33/1115/50 90/1117/52 87/1130/65
f 90/1117/52 91/1132/67 87/1130/65
f 37/1119/54 35/1133/68 90/1117/52
f 35/1133/68 91/1132/67 90/1117/52
f 92/1096/31 76/1156/91 10/1098/33
f 76/1156/91 77/1100/35 10/1098/33
f 70/1121/56 96/1152/87 62/1122/57
f 98/1155/90 70/1121/56 24/1120/55
f 94/1158/93 89/1159/94 100/1160/95
f 89/1159/94 99/1161/96 100/1160/95
f 100/1160/95 99/1161/96 97/1162/97
f 100/1160/95 103/1163/98 95/1164/99
f 88/1165/100 100/1160/95 93/1166/101
f 100/1160/95 95/1164/99 93/1166/101
f 102/1167/102 101/1168/103 100/1160/95
f 97/1162/97 102/1167/102 100/1160/95
f 105/1169/104 104/1170/105 100/1160/95
f 104/1170/105 103/1163/98 100/1160/95
