mtllib Hair.mtl
o Mesh_0005.rip.013_Mesh_0005.rip_mesh0000.021
v -0.192930 0.652539 0.140039
v -0.139805 0.662656 0.127656
v -0.050000 0.626445 0.191719
v 0.053789 0.642266 0.120000
v 0.048437 0.610000 0.185352
v 0.166445 0.622617 0.100000
v 0.312812 0.448203 0.100000
v 0.183789 0.108906 -0.106680
v 0.138906 0.155547 -0.186680
v 0.090234 0.219062 -0.240000
v 0.000000 0.334375 -0.263008
v 0.013515 0.415547 -0.263008
v -0.050000 0.626445 -0.191758
v 0.056640 0.655625 -0.100000
v 0.175000 0.637461 0.000000
v 0.268125 0.559336 0.000000
v -0.145469 0.632578 0.195977
v -0.195899 0.590781 0.142266
v -0.186836 0.590703 0.101094
v -0.197344 0.549727 0.050000
v -0.202969 0.553984 0.000000
v -0.226211 0.596055 -0.074687
v -0.195899 0.590781 -0.142266
v -0.055938 0.573008 -0.233359
v -0.192930 0.652539 -0.140039
v -0.151250 0.681328 -0.065039
v -0.158399 0.625469 0.101094
v -0.151250 0.681328 0.065039
v -0.050000 0.679727 0.070117
v -0.120000 0.310000 0.241992
v -0.062227 0.431641 0.255742
v 0.013515 0.415547 0.263008
v 0.249023 0.431211 0.186680
v 0.316211 0.334375 0.106680
v 0.281523 0.231914 0.106680
v 0.191054 0.096289 0.000000
v 0.035976 0.568281 0.223164
v 0.024765 0.480898 -0.251836
v 0.121719 0.458437 -0.240000
v 0.130000 0.340000 -0.246484
v 0.239453 0.247187 -0.189531
v 0.316211 0.334375 -0.106680
v 0.249023 0.431211 -0.186680
v 0.332500 0.334375 0.000000
v 0.328906 0.454062 0.000000
v 0.255000 0.548320 0.100000
v 0.035976 0.568281 -0.223164
v 0.048437 0.610000 -0.185352
v 0.166445 0.622617 -0.103125
v 0.149414 0.567813 -0.176992
v 0.255000 0.548320 -0.103125
v -0.151445 0.579687 0.214492
v -0.141719 0.414570 0.236875
v 0.000000 0.334375 0.263008
v 0.130000 0.340000 0.246484
v 0.090234 0.219062 0.240000
v 0.138906 0.155547 0.186680
v 0.183789 0.108906 0.106680
v 0.149414 0.567813 0.176992
v 0.024765 0.480898 0.251836
v -0.055938 0.573008 0.233359
v 0.312812 0.448203 -0.100000
v -0.149258 0.499766 -0.225352
v -0.151445 0.579687 -0.210781
v -0.145469 0.630508 -0.195703
v -0.191758 0.545469 -0.100000
v -0.191758 0.545469 0.100000
v -0.156289 0.522305 0.176992
v -0.151211 0.496016 0.227187
v 0.059570 0.672148 0.000000
v 0.058398 0.655859 0.080000
v -0.050000 0.631211 0.100156
v -0.050000 0.657461 0.125273
v -0.156289 0.522305 -0.176992
v 0.281523 0.231914 -0.106680
v 0.296015 0.226641 0.000000
v -0.232578 0.673242 0.000000
v -0.236875 0.598047 0.000000
v -0.155078 0.687852 0.000000
v -0.050000 0.684687 0.000000
v -0.050000 0.674727 -0.101094
v 0.121719 0.458437 0.240000
v -0.062227 0.431641 -0.255742
v -0.120000 0.310000 -0.241992
v -0.141719 0.414570 -0.236953
v 0.239453 0.247187 0.189531
v -0.222305 0.667773 -0.073281
v -0.139805 0.662656 -0.127656
v 0.050000 0.630000 0.101094
v -0.226211 0.596055 0.074688
v -0.222305 0.667773 0.073281
v -0.149258 0.499766 -0.225352
v -0.156289 0.522305 0.176992
v -0.151211 0.496016 0.227187
v -0.141719 0.414570 0.236875
v -0.120000 0.310000 0.241992
v 0.000000 0.334375 -0.263008
v -0.120000 0.310000 -0.241992
v -0.130742 0.334375 0.000000
v -0.141719 0.414570 -0.236953
v -0.156289 0.522305 -0.176992
v 0.000000 0.334375 0.263008
vn 0.9090 -0.1863 -0.3730
vn 0.3916 -0.9087 -0.1445
vn 0.7344 -0.6787 0.0045
vn 0.0820 -0.9646 0.2507
vn 0.2697 -0.6491 -0.7113
vn -0.0832 -0.9814 0.1733
vn -0.1145 -0.7770 -0.6190
vn -0.1590 -0.9863 0.0448
vn -0.2366 -0.7461 -0.6224
vn -0.4339 -0.8251 -0.3618
vn -0.4321 -0.5527 -0.7126
vn -0.7041 -0.5866 -0.4002
vn -0.6138 -0.1973 -0.7644
vn -0.8875 -0.2595 -0.3807
vn -0.9164 0.1112 -0.3846
vn -0.9897 0.1430 0.0000
vn -0.8777 0.4793 0.0000
vn -0.9164 0.1112 0.3846
vn -0.8367 0.4550 0.3048
vn -0.6157 0.3017 0.7279
vn -0.7074 0.6157 0.3471
vn -0.4446 0.5107 0.7359
vn -0.2865 0.2297 0.9301
vn -0.2911 0.0317 0.9562
vn -0.0068 0.0349 0.9994
vn -0.0385 -0.0767 0.9963
vn 0.1526 -0.0825 0.9848
vn -0.0831 -0.2098 0.9742
vn 0.0245 -0.3811 0.9242
vn -0.2089 -0.4689 0.8582
vn -0.1014 -0.7661 0.6347
vn -0.2367 -0.7359 0.6343
vn -0.2199 -0.9217 0.3195
vn -0.4487 -0.8141 0.3687
vn -0.4721 -0.8815 -0.0050
vn -0.7660 -0.6428 -0.0025
vn 0.5871 -0.1351 -0.7982
vn 0.9761 0.0689 -0.2060
vn 0.9250 0.2642 -0.2732
vn 0.8705 0.1831 -0.4569
vn 0.8202 0.5684 -0.0640
vn 0.9614 0.2750 0.0062
vn 0.8020 0.5970 0.0196
vn 0.9443 0.2337 0.2316
vn 0.8663 0.4362 0.2433
vn 0.8867 0.1382 0.4412
vn 0.2834 -0.6254 0.7270
vn 0.0414 -0.9277 0.3711
vn 0.6031 -0.6094 0.5146
vn 0.0774 -0.9800 0.1836
vn 0.7178 -0.6350 0.2855
vn 0.0830 -0.9966 0.0011
vn 0.7591 -0.6510 -0.0013
vn 0.0587 -0.8671 -0.4947
vn 0.6087 -0.5820 -0.5392
vn -0.0439 -0.8589 -0.5102
vn -0.0718 -0.9973 0.0137
vn -0.2221 -0.9749 -0.0126
vn -0.0821 -0.9518 0.2954
vn 0.0055 -0.9951 -0.0990
vn -0.0764 -0.9855 -0.1512
vn -0.1603 -0.8462 -0.5082
vn 0.1933 0.0191 -0.9810
vn 0.1495 -0.0798 -0.9855
vn -0.0068 0.0349 -0.9994
vn -0.0385 -0.0767 -0.9963
vn -0.2911 0.0317 -0.9562
vn -0.3093 -0.2221 -0.9247
vn -0.6157 0.3017 -0.7279
vn -0.8367 0.4550 -0.3048
vn -0.7814 0.6240 0.0000
vn 0.0125 -0.3808 -0.9246
vn -0.2089 -0.4690 -0.8581
vn -0.3093 -0.2221 0.9247
vn -0.6130 -0.1938 0.7660
vn -0.8895 -0.2552 0.3791
vn -0.9616 -0.2745 -0.0006
vn -0.4276 -0.5466 0.7200
vn -0.7034 -0.5827 0.4070
vn 0.4517 -0.1244 -0.8834
vn 0.2393 -0.0420 -0.9700
vn -0.2865 0.2297 -0.9301
vn -0.4446 0.5107 -0.7359
vn -0.7074 0.6157 -0.3471
vn -0.0831 -0.2098 -0.9742
vn 0.2404 -0.0525 0.9693
vn 0.4605 -0.1308 0.8779
vn 0.5985 -0.1218 0.7918
vn 0.9382 0.1599 0.3068
vn 0.9448 0.1604 -0.2856
vn 0.1929 0.0193 0.9810
vn 0.9880 0.1530 -0.0198
vn 0.9908 0.1352 -0.0069
vn 0.8228 0.5683 0.0018
vn 0.9883 0.1527 -0.0059
vn 0.4485 0.8910 0.0698
vn -0.2159 0.9705 -0.1073
vn 0.4487 0.8909 -0.0698
vn 0.9905 0.1378 0.0007
vn 0.9901 0.1387 0.0205
vn 0.9810 0.1860 0.0559
vn -0.2159 0.9705 0.1073
usemtl Material.013
s 1
f 19/671/1 27/672/2 1/673/3
f 27/672/2 2/674/4 1/673/3
f 1/673/3 2/674/4 17/675/5
f 2/674/4 73/676/6 17/675/5
f 17/675/5 73/676/6 3/677/7
f 73/676/6 4/678/8 3/677/7
f 3/677/7 4/678/8 5/679/9
f 4/678/8 6/680/10 5/679/9
f 5/679/9 6/680/10 59/681/11
f 6/680/10 46/682/12 59/681/11
f 59/681/11 46/682/12 33/683/13
f 46/682/12 7/684/14 33/683/13
f 33/683/13 7/684/14 34/685/15
f 7/684/14 44/686/16 34/685/15
f 34/685/15 44/686/16 76/687/17
f 44/686/16 42/688/18 76/687/17
f 76/687/17 42/688/18 75/689/19
f 42/688/18 41/690/20 75/689/19
f 75/689/19 41/690/20 8/691/21
f 41/690/20 9/692/22 8/691/21
f 9/692/22 41/690/20 10/693/23
f 41/690/20 40/694/24 10/693/23
f 10/693/23 40/694/24 11/695/25
f 40/694/24 12/696/26 11/695/25
f 11/695/25 12/696/26 83/697/27
f 12/696/26 38/698/28 83/697/27
f 83/697/27 38/698/28 24/699/29
f 38/698/28 47/700/30 24/699/29
f 24/699/29 47/700/30 13/701/31
f 47/700/30 48/702/32 13/701/31
f 13/701/31 48/702/32 14/703/33
f 48/702/32 49/704/34 14/703/33
f 14/703/33 49/704/34 15/705/35
f 49/704/34 16/706/36 15/705/35
f 15/705/35 16/706/36 6/680/10
f 16/706/36 46/682/12 6/680/10
f 17/675/5 52/707/37 1/673/3
f 52/707/37 18/708/38 1/673/3
f 1/673/3 18/708/38 19/671/1
f 18/708/38 67/709/39 19/671/1
f 19/671/1 67/709/39 90/710/40
f 67/709/39 20/711/41 90/710/40
f 90/710/40 20/711/41 78/712/42
f 20/711/41 21/713/43 78/712/42
f 78/712/42 21/713/43 22/714/44
f 21/713/43 66/715/45 22/714/44
f 22/714/44 66/715/45 23/716/46
f 24/699/29 13/701/31 65/717/47
f 13/701/31 88/718/48 65/717/47
f 65/717/47 88/718/48 25/719/49
f 88/718/48 26/720/50 25/719/49
f 25/719/49 26/720/50 87/721/51
f 26/720/50 79/722/52 87/721/51
f 87/721/51 79/722/52 77/723/53
f 79/722/52 28/724/54 77/723/53
f 77/723/53 28/724/54 91/725/55
f 28/724/54 27/672/2 91/725/55
f 91/725/55 27/672/2 19/671/1
f 28/724/54 79/722/52 29/726/56
f 79/722/52 80/727/57 29/726/56
f 29/726/56 80/727/57 70/728/58
f 80/727/57 81/729/59 70/728/58
f 70/728/58 81/729/59 14/703/33
f 81/729/59 13/701/31 14/703/33
f 27/672/2 28/724/54 72/730/60
f 28/724/54 29/726/56 72/730/60
f 72/730/60 29/726/56 89/731/61
f 29/726/56 71/732/62 89/731/61
f 89/731/61 71/732/62 6/680/10
f 71/732/62 15/705/35 6/680/10
f 30/733/63 31/734/64 54/735/65
f 31/734/64 32/736/66 54/735/65
f 54/735/65 32/736/66 55/737/67
f 32/736/66 82/738/68 55/737/67
f 55/737/67 82/738/68 33/683/13
f 82/738/68 59/681/11 33/683/13
f 55/737/67 33/683/13 86/739/69
f 33/683/13 34/685/15 86/739/69
f 86/739/69 34/685/15 35/740/70
f 34/685/15 76/687/17 35/740/70
f 35/740/70 76/687/17 36/741/71
f 52/707/37 17/675/5 61/742/72
f 17/675/5 3/677/7 61/742/72
f 61/742/72 3/677/7 37/743/73
f 3/677/7 5/679/9 37/743/73
f 37/743/73 5/679/9 59/681/11
f 38/698/28 12/696/26 39/744/74
f 12/696/26 40/694/24 39/744/74
f 39/744/74 40/694/24 43/745/75
f 40/694/24 41/690/20 43/745/75
f 43/745/75 41/690/20 42/688/18
f 43/745/75 42/688/18 62/746/76
f 42/688/18 44/686/16 62/746/76
f 62/746/76 44/686/16 45/747/77
f 44/686/16 7/684/14 45/747/77
f 45/747/77 7/684/14 46/682/12
f 38/698/28 39/744/74 47/700/30
f 39/744/74 50/748/78 47/700/30
f 47/700/30 50/748/78 48/702/32
f 50/748/78 49/704/34 48/702/32
f 39/744/74 43/745/75 50/748/78
f 43/745/75 51/749/79 50/748/78
f 50/748/78 51/749/79 49/704/34
f 51/749/79 16/706/36 49/704/34
f 52/707/37 61/742/72 69/750/80
f 61/742/72 31/734/64 69/750/80
f 69/750/80 31/734/64 53/751/81
f 31/734/64 30/733/63 53/751/81
f 54/735/65 55/737/67 56/752/82
f 55/737/67 86/739/69 56/752/82
f 56/752/82 86/739/69 57/753/83
f 86/739/69 58/754/84 57/753/83
f 59/681/11 82/738/68 37/743/73
f 82/738/68 60/755/85 37/743/73
f 37/743/73 60/755/85 61/742/72
f 60/755/85 31/734/64 61/742/72
f 43/745/75 62/746/76 51/749/79
f 62/746/76 45/747/77 51/749/79
f 51/749/79 45/747/77 16/706/36
f 45/747/77 46/682/12 16/706/36
f 85/756/86 83/697/27 63/757/87
f 83/697/27 24/699/29 63/757/87
f 63/757/87 24/699/29 64/758/88
f 24/699/29 65/717/47 64/758/88
f 65/717/47 25/719/49 64/758/88
f 25/719/49 23/716/46 64/758/88
f 64/758/88 23/716/46 74/759/89
f 23/716/46 66/715/45 74/759/89
f 67/709/39 18/708/38 68/760/90
f 18/708/38 52/707/37 68/760/90
f 68/760/90 52/707/37 69/750/80
f 14/703/33 15/705/35 70/728/58
f 15/705/35 71/732/62 70/728/58
f 70/728/58 71/732/62 29/726/56
f 27/672/2 72/730/60 2/674/4
f 72/730/60 73/676/6 2/674/4
f 72/730/60 89/731/61 73/676/6
f 89/731/61 4/678/8 73/676/6
f 63/757/87 64/758/88 74/759/89
f 87/721/51 77/723/53 22/714/44
f 77/723/53 78/712/42 22/714/44
f 8/691/21 36/741/71 75/689/19
f 36/741/71 76/687/17 75/689/19
f 77/723/53 91/725/55 78/712/42
f 91/725/55 90/710/40 78/712/42
f 79/722/52 26/720/50 80/727/57
f 26/720/50 81/729/59 80/727/57
f 82/738/68 32/736/66 60/755/85
f 32/736/66 31/734/64 60/755/85
f 11/695/25 83/697/27 84/761/91
f 83/697/27 85/756/86 84/761/91
f 36/741/71 58/754/84 35/740/70
f 58/754/84 86/739/69 35/740/70
f 25/719/49 87/721/51 23/716/46
f 87/721/51 22/714/44 23/716/46
f 26/720/50 88/718/48 81/729/59
f 88/718/48 13/701/31 81/729/59
f 6/680/10 4/678/8 89/731/61
f 19/671/1 90/710/40 91/725/55
f 93/762/92 94/763/93 99/764/94
f 94/763/93 95/765/95 99/764/94
f 99/764/94 95/765/95 96/766/96
f 97/767/97 98/768/98 99/764/94
f 98/768/98 100/769/99 99/764/94
f 99/764/94 100/769/99 92/770/100
f 99/764/94 92/770/100 101/771/101
f 102/772/102 99/764/94 96/766/96
