mtllib Hair.mtl
o Mesh_0005.rip.035_Mesh_0005.rip_mesh0000.044
v -0.110000 0.250000 -0.251758
v -0.100000 0.343125 -0.252031
v 0.000000 0.334375 -0.263008
v -0.100000 0.400000 -0.249180
v -0.106289 0.470000 -0.239648
v -0.100000 0.698711 0.089609
v 0.015899 0.697383 0.072930
v 0.066133 0.646602 0.131133
v 0.149414 0.567813 0.176992
v 0.000000 0.334375 0.263008
v -0.070000 0.540000 -0.231484
v 0.027031 0.520000 -0.247656
v 0.312813 0.448203 -0.100000
v 0.316211 0.334375 0.106680
v 0.249024 0.431211 0.188164
v 0.239453 0.247187 0.186680
v 0.090234 0.219062 0.240000
v 0.150938 0.334375 0.246484
v 0.121719 0.436484 0.240000
v 0.166445 0.622617 0.100000
v 0.166445 0.622617 -0.100000
v -0.074062 0.653320 -0.163320
v -0.141367 0.626680 -0.176289
v -0.195430 0.662930 0.102773
v -0.114180 0.713945 0.000000
v -0.215039 0.675977 0.000000
v -0.195430 0.662930 -0.102773
v -0.220390 0.583320 -0.100195
v -0.192969 0.543281 -0.100000
v 0.249024 0.431211 -0.188164
v 0.239453 0.247187 -0.186680
v 0.316211 0.334375 -0.106680
v 0.183789 0.108906 0.106680
v -0.100000 0.698711 -0.089609
v 0.015899 0.697383 -0.072930
v -0.002148 0.714961 0.000000
v 0.175000 0.637461 0.000000
v -0.106289 0.470000 0.239648
v 0.010000 0.430000 0.265547
v 0.027031 0.520000 0.247656
v -0.150000 0.562461 0.172500
v -0.070000 0.540000 0.231484
v -0.141367 0.626680 0.176289
v -0.030000 0.590000 0.218945
v -0.074062 0.653320 0.163320
v -0.204062 0.538750 -0.042578
v -0.241758 0.588359 0.000000
v -0.211875 0.537383 0.000000
v -0.204062 0.538750 0.042578
v -0.150000 0.562461 -0.172500
v -0.110000 0.250000 -0.251758
v -0.110000 0.250000 0.000000
v -0.220390 0.583320 0.100195
v -0.192969 0.543281 0.100000
v -0.030000 0.590000 -0.218945
v 0.149414 0.567813 -0.176992
v 0.066133 0.646602 -0.131133
v -0.100000 0.343125 -0.252031
v -0.030000 0.240000 0.266016
v 0.121719 0.436484 -0.240000
v 0.010000 0.430000 -0.265547
v 0.150938 0.334375 -0.246484
v 0.090234 0.219062 -0.240000
v 0.138906 0.155547 -0.186680
v 0.183789 0.108906 -0.106680
v 0.000000 0.334375 0.263008
v -0.110000 0.250000 0.251758
v -0.100000 0.343125 0.252031
v -0.030000 0.240000 0.266016
v -0.100000 0.400000 0.249180
v 0.000000 0.334375 -0.263008
v -0.110000 0.250000 0.251758
v -0.030000 0.240000 -0.266016
v -0.100000 0.343125 0.252031
v -0.148945 0.547227 0.168125
v -0.100000 0.400000 0.249180
v 0.138906 0.155547 0.186680
v 0.268125 0.559336 0.000000
v 0.255000 0.548320 -0.100000
v 0.328906 0.454062 0.000000
v 0.312813 0.448203 0.100000
v 0.255000 0.548320 0.100000
v 0.332500 0.334375 0.000000
v 0.191055 0.096289 0.000000
v 0.281523 0.231914 -0.106680
v 0.281523 0.231914 0.106680
v 0.296016 0.226641 0.000000
v -0.148945 0.547227 -0.168125
v -0.100000 0.400000 -0.249180
v -0.106289 0.470000 -0.239648
v -0.148945 0.547227 -0.168125
v -0.030000 0.240000 -0.266016
v -0.106289 0.470000 0.239648
v -0.148945 0.547227 0.168125
vn 0.1735 -0.0157 0.9847
vn 0.1373 -0.0410 0.9897
vn 0.1194 -0.0464 0.9918
vn 0.0176 0.0108 0.9998
vn 0.1469 -0.0635 0.9871
vn -0.0116 -0.0946 0.9954
vn 0.2815 -0.2053 0.9373
vn 0.2729 -0.2877 0.9180
vn 0.7420 0.0243 0.6699
vn 0.4823 -0.4396 0.7577
vn 0.6475 -0.6130 0.4527
vn 0.1202 -0.9210 0.3705
vn 0.1891 -0.9819 -0.0000
vn -0.1824 -0.9832 0.0000
vn 0.1202 -0.9210 -0.3705
vn -0.2290 -0.9158 -0.3299
vn 0.0117 -0.7634 -0.6458
vn -0.2726 -0.7692 -0.5779
vn -0.0319 -0.5390 -0.8417
vn -0.4089 -0.5475 -0.7301
vn -0.1364 -0.3359 -0.9319
vn -0.3094 -0.2200 -0.9251
vn -0.0116 -0.0946 -0.9954
vn -0.3263 0.0396 -0.9444
vn 0.0176 0.0108 -0.9998
vn -0.2791 0.2538 -0.9261
vn -0.1364 -0.3359 0.9319
vn -0.3094 -0.2200 0.9251
vn -0.4089 -0.5475 0.7301
vn -0.6128 -0.2080 0.7624
vn -0.7041 -0.5878 0.3983
vn -0.8889 -0.2598 0.3773
vn -0.9614 -0.2751 -0.0000
vn -0.9897 0.1430 0.0000
vn -0.8889 -0.2598 -0.3773
vn -0.9153 0.1141 -0.3862
vn -0.6128 -0.2080 -0.7624
vn -0.6261 0.3162 -0.7127
vn -0.7041 -0.5878 -0.3983
vn -0.4928 -0.7841 -0.3773
vn -0.7660 -0.6428 -0.0000
vn -0.5332 -0.8460 -0.0000
vn -0.4928 -0.7841 0.3773
vn -0.2290 -0.9158 0.3299
vn -0.2726 -0.7692 0.5779
vn 0.0117 -0.7634 0.6458
vn -0.0319 -0.5390 0.8417
vn 0.4823 -0.4396 -0.7577
vn 0.6475 -0.6130 -0.4527
vn 0.7357 -0.6773 -0.0000
vn 0.8915 0.1227 0.4362
vn 0.7668 0.5082 0.3921
vn 0.8738 0.1892 0.4479
vn -0.3263 0.0396 0.9444
vn -0.6261 0.3162 0.7127
vn -0.9153 0.1141 0.3862
vn -0.8348 0.4539 0.3115
vn -0.8777 0.4793 0.0000
vn -0.7814 0.6240 0.0000
vn -0.8348 0.4539 -0.3115
vn -0.7089 0.6123 -0.3501
vn 0.1469 -0.0635 -0.9871
vn 0.2815 -0.2053 -0.9373
vn 0.2729 -0.2877 -0.9180
vn 0.7420 0.0243 -0.6699
vn 0.8389 0.5170 0.1701
vn 0.9947 0.1027 -0.0000
vn 0.8627 0.5057 -0.0000
vn 0.8389 0.5170 -0.1701
vn 0.8915 0.1227 -0.4362
vn 0.7668 0.5082 -0.3921
vn 0.8738 0.1892 -0.4479
vn -0.2791 0.2538 0.9261
vn -0.4556 0.4999 0.7366
vn -0.7089 0.6123 0.3501
vn 0.1735 -0.0157 -0.9847
vn 0.1194 -0.0464 -0.9918
vn 0.1373 -0.0410 -0.9897
vn -0.4556 0.4999 -0.7366
vn 0.9268 0.2695 0.2617
vn 0.6090 0.7931 0.0000
vn 0.9604 0.1977 0.1964
vn 0.9963 0.0494 0.0697
vn 0.9988 -0.0432 0.0237
vn 0.9604 0.1977 -0.1964
vn 0.9963 0.0494 -0.0697
vn 0.9988 -0.0432 -0.0237
vn 0.7514 0.6599 0.0000
vn -0.9530 0.3029 0.0000
vn -0.5731 0.8195 0.0000
vn 0.9268 0.2695 -0.2617
usemtl Material.013
s 1
f 1/3213/1 73/3214/2 2/3215/3
f 73/3214/2 3/3216/4 2/3215/3
f 2/3215/3 3/3216/4 4/3217/5
f 3/3216/4 61/3218/6 4/3217/5
f 4/3217/5 61/3218/6 5/3219/7
f 61/3218/6 11/3220/8 5/3219/7
f 5/3219/7 11/3220/8 50/3221/9
f 11/3220/8 23/3222/10 50/3221/9
f 50/3221/9 23/3222/10 27/3223/11
f 23/3222/10 34/3224/12 27/3223/11
f 27/3223/11 34/3224/12 25/3225/13
f 34/3224/12 36/3226/14 25/3225/13
f 25/3225/13 36/3226/14 6/3227/15
f 36/3226/14 7/3228/16 6/3227/15
f 6/3227/15 7/3228/16 45/3229/17
f 7/3228/16 8/3230/18 45/3229/17
f 45/3229/17 8/3230/18 44/3231/19
f 8/3230/18 9/3232/20 44/3231/19
f 44/3231/19 9/3232/20 40/3233/21
f 9/3232/20 19/3234/22 40/3233/21
f 40/3233/21 19/3234/22 39/3235/23
f 19/3234/22 18/3236/24 39/3235/23
f 39/3235/23 18/3236/24 10/3237/25
f 18/3236/24 17/3238/26 10/3237/25
f 11/3220/8 61/3218/6 12/3239/27
f 61/3218/6 60/3240/28 12/3239/27
f 12/3239/27 60/3240/28 56/3241/29
f 60/3240/28 30/3242/30 56/3241/29
f 56/3241/29 30/3242/30 79/3243/31
f 30/3242/30 13/3244/32 79/3243/31
f 79/3243/31 13/3244/32 80/3245/33
f 13/3244/32 83/3246/34 80/3245/33
f 80/3245/33 83/3246/34 81/3247/35
f 83/3246/34 14/3248/36 81/3247/35
f 81/3247/35 14/3248/36 15/3249/37
f 14/3248/36 16/3250/38 15/3249/37
f 15/3249/37 16/3250/38 18/3236/24
f 16/3250/38 17/3238/26 18/3236/24
f 18/3236/24 19/3234/22 15/3249/37
f 19/3234/22 9/3232/20 15/3249/37
f 15/3249/37 9/3232/20 82/3251/39
f 9/3232/20 20/3252/40 82/3251/39
f 82/3251/39 20/3252/40 78/3253/41
f 20/3252/40 37/3254/42 78/3253/41
f 78/3253/41 37/3254/42 21/3255/43
f 37/3254/42 35/3256/44 21/3255/43
f 21/3255/43 35/3256/44 57/3257/45
f 35/3256/44 22/3258/46 57/3257/45
f 57/3257/45 22/3258/46 55/3259/47
f 22/3258/46 23/3222/10 55/3259/47
f 55/3259/47 23/3222/10 11/3220/8
f 45/3229/17 43/3260/48 6/3227/15
f 43/3260/48 24/3261/49 6/3227/15
f 6/3227/15 24/3261/49 25/3225/13
f 24/3261/49 26/3262/50 25/3225/13
f 25/3225/13 26/3262/50 27/3223/11
f 26/3262/50 28/3263/51 27/3223/11
f 27/3223/11 28/3263/51 50/3221/9
f 28/3263/51 29/3264/52 50/3221/9
f 50/3221/9 29/3264/52 88/3265/53
f 60/3240/28 62/3266/54 30/3242/30
f 62/3266/54 31/3267/55 30/3242/30
f 30/3242/30 31/3267/55 32/3268/56
f 31/3267/55 85/3269/57 32/3268/56
f 32/3268/56 85/3269/57 87/3270/58
f 85/3269/57 84/3271/59 87/3270/58
f 87/3270/58 84/3271/59 86/3272/60
f 84/3271/59 33/3273/61 86/3272/60
f 86/3272/60 33/3273/61 16/3250/38
f 23/3222/10 22/3258/46 34/3224/12
f 22/3258/46 35/3256/44 34/3224/12
f 34/3224/12 35/3256/44 36/3226/14
f 35/3256/44 37/3254/42 36/3226/14
f 36/3226/14 37/3254/42 7/3228/16
f 37/3254/42 20/3252/40 7/3228/16
f 7/3228/16 20/3252/40 8/3230/18
f 20/3252/40 9/3232/20 8/3230/18
f 70/3274/62 38/3275/63 39/3235/23
f 38/3275/63 42/3276/64 39/3235/23
f 39/3235/23 42/3276/64 40/3233/21
f 42/3276/64 44/3231/19 40/3233/21
f 38/3275/63 41/3277/65 42/3276/64
f 41/3277/65 43/3260/48 42/3276/64
f 42/3276/64 43/3260/48 44/3231/19
f 43/3260/48 45/3229/17 44/3231/19
f 29/3264/52 28/3263/51 46/3278/66
f 28/3263/51 47/3279/67 46/3278/66
f 46/3278/66 47/3279/67 48/3280/68
f 47/3279/67 49/3281/69 48/3280/68
f 28/3263/51 26/3262/50 47/3279/67
f 26/3262/50 53/3282/70 47/3279/67
f 47/3279/67 53/3282/70 49/3281/69
f 53/3282/70 54/3283/71 49/3281/69
f 50/3221/9 88/3265/53 5/3219/7
f 26/3262/50 24/3261/49 53/3282/70
f 24/3261/49 41/3277/65 53/3282/70
f 53/3282/70 41/3277/65 54/3283/71
f 41/3277/65 75/3284/72 54/3283/71
f 11/3220/8 12/3239/27 55/3259/47
f 12/3239/27 56/3241/29 55/3259/47
f 55/3259/47 56/3241/29 57/3257/45
f 56/3241/29 21/3255/43 57/3257/45
f 60/3240/28 61/3218/6 62/3266/54
f 61/3218/6 3/3216/4 62/3266/54
f 62/3266/54 3/3216/4 63/3285/73
f 62/3266/54 63/3285/73 31/3267/55
f 63/3285/73 64/3286/74 31/3267/55
f 31/3267/55 64/3286/74 65/3287/75
f 67/3288/76 68/3289/77 69/3290/78
f 68/3289/77 10/3237/25 69/3290/78
f 68/3289/77 70/3274/62 10/3237/25
f 70/3274/62 39/3235/23 10/3237/25
f 41/3277/65 38/3275/63 75/3284/72
f 17/3238/26 16/3250/38 77/3291/79
f 16/3250/38 33/3273/61 77/3291/79
f 56/3241/29 79/3243/31 21/3255/43
f 79/3243/31 78/3253/41 21/3255/43
f 79/3243/31 80/3245/33 78/3253/41
f 80/3245/33 82/3251/39 78/3253/41
f 80/3245/33 81/3247/35 82/3251/39
f 81/3247/35 15/3249/37 82/3251/39
f 30/3242/30 32/3268/56 13/3244/32
f 32/3268/56 83/3246/34 13/3244/32
f 32/3268/56 87/3270/58 83/3246/34
f 87/3270/58 14/3248/36 83/3246/34
f 84/3271/59 85/3269/57 65/3287/75
f 85/3269/57 31/3267/55 65/3287/75
f 16/3250/38 14/3248/36 86/3272/60
f 14/3248/36 87/3270/58 86/3272/60
f 41/3277/65 24/3261/49 43/3260/48
f 91/3292/80 52/3293/81 90/3294/82
f 90/3294/82 52/3293/81 89/3295/83
f 52/3293/81 58/3296/84 89/3295/83
f 93/3297/85 76/3298/86 52/3293/81
f 76/3298/86 74/3299/87 52/3293/81
f 52/3293/81 74/3299/87 72/3300/88
f 71/3301/89 92/3302/90 66/3303/89
f 92/3302/90 59/3304/90 66/3303/89
f 58/3296/84 52/3293/81 51/3305/88
f 52/3293/81 92/3302/90 51/3305/88
f 52/3293/81 59/3304/90 92/3302/90
f 93/3297/85 52/3293/81 94/3306/91
f 59/3304/90 52/3293/81 72/3300/88
