mtllib Hair.mtl
o Mesh_0005.rip.014_Mesh_0005.rip_mesh0000.022
v -0.186992 0.567695 0.080000
v -0.255703 0.611406 0.040000
v -0.180000 0.640000 0.086016
v -0.259922 0.675938 -0.011250
v -0.192187 0.695391 -0.059414
v 0.060039 0.674883 -0.106016
v 0.176406 0.639922 -0.106016
v 0.349961 0.462734 0.000000
v 0.180000 0.030000 -0.102969
v 0.021484 0.331641 0.293750
v -0.100000 0.470000 0.299883
v -0.144101 0.536797 0.263984
v -0.260000 0.540000 0.238711
v -0.250000 0.610000 0.180000
v -0.155430 0.654609 0.129258
v -0.060000 0.660000 0.145508
v -0.058398 0.694336 0.053008
v 0.063125 0.692422 0.000000
v -0.060000 0.700000 0.000000
v -0.227695 0.611406 0.118203
v -0.266719 0.532969 0.156719
v -0.263672 0.453594 0.193594
v -0.225664 0.467930 0.282969
v -0.216953 0.387383 0.239141
v -0.141406 0.406328 0.312930
v -0.134883 0.346055 0.277930
v -0.046211 0.366719 0.308437
v -0.051992 0.330000 0.293750
v -0.080000 0.270000 0.261836
v 0.014297 0.429258 0.278789
v 0.160000 0.334375 0.261289
v 0.266016 0.438711 0.197734
v 0.161289 0.582305 0.187617
v 0.270274 0.561172 0.106016
v 0.284219 0.572851 0.000000
v 0.253828 0.241953 0.197852
v 0.233633 0.098437 0.102969
v 0.250000 0.090000 0.000000
v -0.080000 0.270000 -0.261836
v 0.017070 0.310859 -0.276406
v -0.100000 0.470000 -0.299883
v 0.132188 0.444297 -0.262383
v 0.270274 0.561172 -0.106016
v 0.161289 0.582305 -0.187617
v -0.060000 0.683047 -0.106016
v 0.028672 0.529570 -0.254414
v -0.244961 0.387383 -0.172695
v -0.162891 0.346055 -0.239648
v 0.190000 0.010000 0.000000
v 0.180000 0.030000 0.102969
v 0.142695 0.110352 0.189180
v 0.081211 0.215742 0.244922
v 0.017070 0.310859 0.276406
v 0.233633 0.098437 -0.102969
v 0.142695 0.110352 -0.189180
v 0.253828 0.241953 -0.197852
v 0.081211 0.215742 -0.244922
v 0.014297 0.429258 -0.278789
v -0.170976 0.631367 0.180742
v -0.170000 0.590000 0.225508
v 0.028672 0.529570 0.254414
v -0.291719 0.453594 -0.094180
v -0.294726 0.532969 -0.024922
v -0.301719 0.616367 -0.092461
v -0.037031 0.610859 0.201055
v 0.132227 0.444258 0.262461
v -0.253672 0.467930 -0.251094
v -0.300508 0.542500 -0.177266
v -0.202930 0.610000 -0.208906
v -0.227695 0.611406 0.118203
v -0.186992 0.567695 0.080000
v -0.255703 0.611406 0.040000
v -0.050000 0.410000 -0.301914
v -0.080000 0.330000 -0.283555
v 0.081211 0.215742 0.244922
v 0.142695 0.110352 0.189180
v 0.180000 0.030000 0.102969
v 0.190000 0.010000 0.000000
v 0.180000 0.030000 -0.102969
v 0.142695 0.110352 -0.189180
v 0.081211 0.215742 -0.244922
v 0.335195 0.334375 -0.113086
v 0.333047 0.456602 -0.108359
v -0.004961 0.270000 0.000000
v -0.130000 0.670000 0.092031
v 0.162969 0.336914 -0.257344
v 0.263945 0.437031 -0.197852
v 0.352461 0.334375 0.000000
v 0.333047 0.456602 0.108359
v 0.335195 0.334375 0.113086
v 0.313750 0.220156 0.000000
v 0.309375 0.221875 0.102969
v -0.209297 0.661992 -0.138711
v -0.037031 0.610859 -0.201055
v -0.172109 0.540000 -0.263984
v -0.074219 0.366719 -0.304297
v -0.169414 0.406328 -0.300977
v -0.060000 0.683047 0.099062
v -0.140000 0.700000 0.040000
v 0.309375 0.221875 -0.102969
v 0.176406 0.639922 0.106016
v -0.089766 0.554023 0.122500
v -0.040000 0.400000 0.301992
v 0.021484 0.331641 0.293750
v -0.051992 0.330000 0.293750
v -0.134883 0.346055 0.277930
v -0.089766 0.554023 0.122500
v -0.216953 0.387383 0.239141
v -0.263672 0.453594 0.193594
v -0.266719 0.532969 0.156719
v -0.100000 0.470000 -0.299883
v -0.080000 0.270000 -0.261836
v -0.294726 0.532969 -0.024922
v -0.291719 0.453594 -0.094180
v -0.244961 0.387383 -0.172695
v -0.162891 0.346055 -0.239648
v -0.080000 0.330000 -0.283555
v 0.021484 0.331641 -0.293750
v 0.017070 0.310859 -0.276406
v 0.060039 0.674883 0.106016
v 0.185508 0.655664 0.000000
v -0.089766 0.554023 0.045195
vn 0.9671 -0.0733 -0.2434
vn 0.7528 -0.2834 -0.5941
vn 0.6522 -0.7074 -0.2726
vn 0.6680 -0.7114 -0.2183
vn 0.1988 -0.9363 -0.2896
vn 0.1992 -0.9633 0.1800
vn -0.0440 -0.9986 0.0291
vn -0.0360 -0.9197 0.3911
vn -0.1814 -0.9834 0.0032
vn -0.1644 -0.9012 0.4011
vn -0.4755 -0.8797 -0.0000
vn -0.4345 -0.8192 0.3744
vn -0.7614 -0.6483 -0.0000
vn -0.7013 -0.5918 0.3975
vn -0.9605 -0.2783 -0.0000
vn -0.8823 -0.2616 0.3913
vn -0.9888 0.1496 0.0000
vn -0.9148 0.1032 0.3906
vn -0.9335 0.3585 0.0000
vn -0.8861 0.3572 0.2954
vn -0.8380 0.5457 0.0000
vn -0.7338 0.5356 0.4180
vn -0.7943 0.6075 0.0000
vn -0.7165 0.5615 0.4138
vn -0.4935 -0.2326 -0.8381
vn -0.0485 0.1200 -0.9916
vn -0.4970 -0.4286 -0.7545
vn 0.2542 0.1630 -0.9533
vn -0.1120 -0.3841 -0.9165
vn 0.5803 -0.0101 -0.8143
vn 0.0512 -0.5116 -0.8577
vn 0.7443 -0.3095 -0.5917
vn 0.0968 -0.6474 -0.7560
vn 0.7124 -0.6648 -0.2249
vn 0.1355 -0.8323 -0.5375
vn 0.3069 -0.9305 -0.1998
vn 0.0005 -0.8382 -0.5453
vn 0.0319 -0.9326 -0.3596
vn -0.1710 -0.8997 -0.4016
vn -0.0525 -0.9833 -0.1745
vn 0.7287 -0.5512 0.4064
vn 0.9893 -0.1447 0.0200
vn 0.9336 0.1730 -0.3137
vn 0.6889 0.4069 -0.5999
vn 0.3566 0.4736 -0.8053
vn 0.1241 0.3516 -0.9279
vn 0.5533 0.7333 -0.3950
vn 0.0300 0.4601 -0.8874
vn -0.1635 -0.0845 -0.9829
vn -0.3198 0.0923 -0.9430
vn -0.2825 -0.2095 -0.9361
vn -0.6256 -0.2037 -0.7531
vn -0.3653 -0.5895 -0.7205
vn -0.7012 -0.5943 -0.3938
vn -0.4345 -0.8192 -0.3744
vn -0.8852 -0.2618 -0.3845
vn -0.9158 0.1050 -0.3876
vn -0.6015 0.2797 -0.7483
vn -0.8861 0.3572 -0.2954
vn -0.7338 0.5356 -0.4180
vn 0.0658 0.1928 0.9790
vn -0.0876 0.1187 0.9891
vn -0.1731 -0.3481 0.9213
vn -0.1679 -0.0812 0.9825
vn -0.1616 -0.4460 0.8803
vn -0.2853 -0.1973 0.9379
vn -0.3674 -0.5875 0.7210
vn -0.6212 -0.1988 0.7580
vn -0.0757 -0.7036 0.7066
vn 0.3019 -0.8222 0.4826
vn 0.2132 -0.4406 0.8720
vn 0.7192 0.0674 0.6916
vn 0.4307 0.2165 0.8762
vn 0.8128 0.4510 0.3686
vn 0.5755 0.6130 0.5413
vn -0.7165 0.5615 -0.4138
vn -0.4674 0.4273 -0.7739
vn -0.2384 0.2822 -0.9292
vn -0.4674 0.4273 0.7739
vn -0.5988 0.2752 0.7521
vn -0.2460 0.2674 0.9317
vn -0.3271 0.0865 0.9410
vn -0.0820 -0.6882 -0.7208
vn -0.1617 -0.4461 -0.8803
vn 0.9713 0.2082 0.1150
vn 0.8862 -0.1698 0.4311
vn 0.9843 -0.0510 -0.1689
vn 0.8923 -0.4323 0.1300
vn 0.2937 -0.6474 0.7033
vn 0.2726 0.7043 0.6555
vn 0.1252 0.8363 0.5337
vn 0.3179 0.9481 -0.0078
vn 0.0295 0.9269 -0.3742
vn 0.2735 0.7346 -0.6209
vn 0.1964 0.6193 -0.7602
vn -0.4864 -0.4178 0.7674
vn 0.0602 0.2276 0.9719
vn -0.8060 0.4988 0.3187
vn 0.2211 0.5285 0.8196
vn 0.8045 0.5731 -0.1561
vn 0.8136 0.5577 -0.1644
vn 0.7933 0.6088 0.0000
vn 0.8077 0.5820 -0.0944
vn 0.8001 0.5999 0.0000
vn 0.8077 0.5820 0.0944
vn 0.8136 0.5577 0.1644
vn 0.8045 0.5731 0.1561
vn 0.3338 -0.8713 -0.3596
vn -0.7155 -0.6157 -0.3300
vn -0.0135 0.6058 0.7955
vn -0.0224 0.6048 0.7961
vn -0.0489 0.6047 0.7949
vn -0.0384 0.5925 0.8046
vn 0.0509 0.5168 0.8546
vn 0.1263 0.4083 0.9041
vn 0.9604 0.0437 -0.2752
vn 0.6261 0.7588 -0.1794
vn 0.2449 0.9561 0.1609
vn 0.0931 0.7389 -0.6674
vn -0.0249 0.8025 -0.5961
vn -0.1117 0.8160 -0.5671
vn -0.0965 0.8212 -0.5624
usemtl Material.013
s 1
f 1/773/1 2/774/2 3/775/3
f 2/774/2 4/776/4 3/775/3
f 3/775/3 4/776/4 99/777/5
f 4/776/4 5/778/6 99/777/5
f 99/777/5 5/778/6 19/779/7
f 5/778/6 45/780/8 19/779/7
f 19/779/7 45/780/8 18/781/9
f 45/780/8 6/782/10 18/781/9
f 18/781/9 6/782/10 121/783/11
f 6/782/10 7/784/12 121/783/11
f 121/783/11 7/784/12 35/785/13
f 7/784/12 43/786/14 35/785/13
f 35/785/13 43/786/14 8/787/15
f 43/786/14 83/788/16 8/787/15
f 8/787/15 83/788/16 88/789/17
f 83/788/16 82/790/18 88/789/17
f 88/789/17 82/790/18 91/791/19
f 82/790/18 100/792/20 91/791/19
f 91/791/19 100/792/20 38/793/21
f 100/792/20 54/794/22 38/793/21
f 38/793/21 54/794/22 49/795/23
f 54/794/22 9/796/24 49/795/23
f 10/797/25 27/798/26 103/799/27
f 27/798/26 25/800/28 103/799/27
f 103/799/27 25/800/28 11/801/29
f 25/800/28 23/802/30 11/801/29
f 11/801/29 23/802/30 12/803/31
f 23/802/30 13/804/32 12/803/31
f 12/803/31 13/804/32 60/805/33
f 13/804/32 14/806/34 60/805/33
f 60/805/33 14/806/34 59/807/35
f 14/806/34 15/808/36 59/807/35
f 59/807/35 15/808/36 16/809/37
f 15/808/36 98/810/38 16/809/37
f 16/809/37 98/810/38 120/811/39
f 98/810/38 17/812/40 120/811/39
f 120/811/39 17/812/40 18/781/9
f 17/812/40 19/779/7 18/781/9
f 1/773/1 3/775/3 20/813/41
f 3/775/3 14/806/34 20/813/41
f 20/813/41 14/806/34 21/814/42
f 14/806/34 13/804/32 21/814/42
f 21/814/42 13/804/32 22/815/43
f 13/804/32 23/802/30 22/815/43
f 22/815/43 23/802/30 24/816/44
f 23/802/30 25/800/28 24/816/44
f 24/816/44 25/800/28 26/817/45
f 25/800/28 27/798/26 26/817/45
f 26/817/45 27/798/26 28/818/46
f 27/798/26 10/797/25 28/818/46
f 29/819/47 11/801/29 53/820/48
f 11/801/29 30/821/49 53/820/48
f 53/820/48 30/821/49 31/822/50
f 30/821/49 66/823/51 31/822/50
f 31/822/50 66/823/51 32/824/52
f 66/823/51 33/825/53 32/824/52
f 32/824/52 33/825/53 34/826/54
f 33/825/53 101/827/55 34/826/54
f 34/826/54 101/827/55 35/785/13
f 101/827/55 121/783/11 35/785/13
f 35/785/13 8/787/15 34/826/54
f 8/787/15 89/828/56 34/826/54
f 34/826/54 89/828/56 32/824/52
f 89/828/56 90/829/57 32/824/52
f 32/824/52 90/829/57 36/830/58
f 90/829/57 92/831/59 36/830/58
f 36/830/58 92/831/59 37/832/60
f 92/831/59 38/793/21 37/832/60
f 37/832/60 38/793/21 49/795/23
f 39/833/61 40/834/62 41/835/63
f 40/834/62 58/836/64 41/835/63
f 41/835/63 58/836/64 46/837/65
f 58/836/64 42/838/66 46/837/65
f 46/837/65 42/838/66 44/839/67
f 42/838/66 87/840/68 44/839/67
f 44/839/67 87/840/68 43/786/14
f 87/840/68 83/788/16 43/786/14
f 43/786/14 7/784/12 44/839/67
f 7/784/12 6/782/10 44/839/67
f 44/839/67 6/782/10 94/841/69
f 6/782/10 45/780/8 94/841/69
f 94/841/69 45/780/8 93/842/70
f 45/780/8 5/778/6 93/842/70
f 93/842/70 5/778/6 4/776/4
f 44/839/67 94/841/69 46/837/65
f 94/841/69 95/843/71 46/837/65
f 46/837/65 95/843/71 41/835/63
f 95/843/71 67/844/72 41/835/63
f 41/835/63 67/844/72 97/845/73
f 67/844/72 47/846/74 97/845/73
f 97/845/73 47/846/74 48/847/75
f 49/795/23 50/848/76 37/832/60
f 50/848/76 51/849/77 37/832/60
f 37/832/60 51/849/77 36/830/58
f 51/849/77 52/850/78 36/830/58
f 36/830/58 52/850/78 31/822/50
f 52/850/78 53/820/48 31/822/50
f 9/796/24 54/794/22 55/851/79
f 54/794/22 56/852/80 55/851/79
f 55/851/79 56/852/80 57/853/81
f 56/852/80 86/854/82 57/853/81
f 57/853/81 86/854/82 40/834/62
f 86/854/82 58/836/64 40/834/62
f 59/807/35 16/809/37 60/805/33
f 16/809/37 65/855/83 60/805/33
f 60/805/33 65/855/83 12/803/31
f 65/855/83 61/856/84 12/803/31
f 12/803/31 61/856/84 11/801/29
f 61/856/84 30/821/49 11/801/29
f 47/846/74 67/844/72 62/857/85
f 67/844/72 68/858/86 62/857/85
f 62/857/85 68/858/86 63/859/87
f 68/858/86 64/860/88 63/859/87
f 63/859/87 64/860/88 2/774/2
f 64/860/88 4/776/4 2/774/2
f 16/809/37 120/811/39 65/855/83
f 120/811/39 33/825/53 65/855/83
f 65/855/83 33/825/53 61/856/84
f 33/825/53 66/823/51 61/856/84
f 61/856/84 66/823/51 30/821/49
f 67/844/72 95/843/71 68/858/86
f 95/843/71 69/861/89 68/858/86
f 68/858/86 69/861/89 64/860/88
f 69/861/89 93/842/70 64/860/88
f 64/860/88 93/842/70 4/776/4
f 70/862/90 107/863/91 71/864/92
f 107/863/91 122/865/93 71/864/92
f 71/864/92 122/865/93 72/866/94
f 122/865/93 113/867/95 72/866/94
f 41/835/63 97/845/73 73/868/96
f 97/845/73 96/869/97 73/868/96
f 73/868/96 96/869/97 118/870/98
f 96/869/97 74/871/99 118/870/98
f 75/872/100 76/873/101 84/874/102
f 76/873/101 77/875/103 84/874/102
f 84/874/102 77/875/103 78/876/104
f 78/876/104 79/877/105 84/874/102
f 79/877/105 80/878/106 84/874/102
f 84/874/102 80/878/106 81/879/107
f 86/854/82 56/852/80 87/840/68
f 56/852/80 82/790/18 87/840/68
f 87/840/68 82/790/18 83/788/16
f 11/801/29 29/819/47 84/874/102
f 29/819/47 53/820/48 84/874/102
f 84/874/102 53/820/48 75/872/100
f 14/806/34 3/775/3 15/808/36
f 3/775/3 85/880/108 15/808/36
f 15/808/36 85/880/108 98/810/38
f 58/836/64 86/854/82 42/838/66
f 86/854/82 87/840/68 42/838/66
f 8/787/15 88/789/17 89/828/56
f 88/789/17 90/829/57 89/828/56
f 88/789/17 91/791/19 90/829/57
f 91/791/19 92/831/59 90/829/57
f 93/842/70 69/861/89 94/841/69
f 69/861/89 95/843/71 94/841/69
f 96/869/97 97/845/73 74/871/99
f 97/845/73 48/847/75 74/871/99
f 3/775/3 99/777/5 85/880/108
f 99/777/5 98/810/38 85/880/108
f 98/810/38 99/777/5 17/812/40
f 99/777/5 19/779/7 17/812/40
f 82/790/18 56/852/80 100/792/20
f 56/852/80 54/794/22 100/792/20
f 33/825/53 120/811/39 101/827/55
f 120/811/39 121/783/11 101/827/55
f 11/801/29 102/881/109 103/799/27
f 102/881/109 10/797/25 103/799/27
f 104/882/110 107/863/91 105/883/111
f 107/863/91 106/884/112 105/883/111
f 106/884/112 107/863/91 108/885/113
f 107/863/91 109/886/114 108/885/113
f 109/886/114 107/863/91 110/887/115
f 107/863/91 70/862/90 110/887/115
f 111/888/116 84/874/102 112/889/117
f 84/874/102 119/890/118 112/889/117
f 113/867/95 122/865/93 114/891/119
f 122/865/93 115/892/120 114/891/119
f 115/892/120 122/865/93 116/893/121
f 122/865/93 117/894/122 116/893/121
f 117/894/122 122/865/93 118/870/98
f 122/865/93 73/868/96 118/870/98
f 119/890/118 84/874/102 81/879/107
f 36/830/58 31/822/50 32/824/52
f 38/793/21 92/831/59 91/791/19
f 120/811/39 18/781/9 121/783/11
f 41/835/63 73/868/96 122/865/93
