mtllib Hair.mtl
o Mesh_0005.rip.059_Mesh_0005.rip_mesh0000.071
v -0.057695 0.220898 -0.271445
v -0.073047 0.307227 -0.290078
v 0.000000 0.315156 -0.293320
v 0.132227 0.426680 -0.262461
v 0.000000 0.529570 -0.255195
v 0.060039 0.674883 -0.106016
v -0.056367 0.684062 0.000000
v -0.215898 0.432461 0.180000
v 0.210352 0.121445 -0.198320
v 0.280000 0.133320 -0.156758
v 0.353750 0.337851 0.000000
v 0.336641 0.338203 0.106680
v 0.331563 0.455039 0.106016
v 0.257461 0.333281 0.199219
v 0.132227 0.426680 0.262461
v -0.073047 0.307227 0.290078
v -0.143203 0.390430 0.243945
v 0.239297 0.225937 -0.196523
v 0.257461 0.333281 -0.199219
v 0.263945 0.437031 -0.197852
v 0.270274 0.561172 -0.106016
v 0.176406 0.639922 -0.106016
v 0.063125 0.692422 0.000000
v -0.053398 0.667188 0.104023
v -0.140000 0.600000 0.176563
v -0.206328 0.508008 0.197969
v -0.161094 0.470195 0.220820
v -0.082031 0.406250 -0.287773
v -0.143203 0.390430 -0.243945
v -0.161094 0.470195 -0.220820
v -0.110000 0.540703 -0.244844
v -0.206328 0.508008 -0.197969
v -0.260000 0.450000 0.078984
v -0.233008 0.530039 0.150039
v 0.293320 0.054609 -0.188242
v 0.300000 0.225937 -0.106992
v 0.300000 0.225937 0.106992
v 0.146524 0.334375 0.261289
v -0.109883 0.299063 -0.263047
v 0.000000 0.426680 -0.288359
v -0.091211 0.477852 -0.274531
v -0.048672 0.610625 -0.187617
v -0.140000 0.600000 -0.176563
v -0.053398 0.667188 -0.104023
v -0.170000 0.630000 -0.095195
v -0.181836 0.639727 0.000000
v 0.146523 0.334375 -0.261289
v 0.158399 0.581836 -0.187617
v 0.146484 0.059687 -0.314336
v 0.147422 0.132148 -0.258516
v 0.080000 0.132148 -0.286602
v 0.149375 0.225937 -0.253320
v 0.031523 0.225938 -0.273477
v 0.336641 0.338203 -0.106680
v 0.331563 0.455039 -0.106016
v 0.284219 0.572851 0.000000
v 0.348633 0.461250 0.000000
v 0.270274 0.561172 0.106016
v 0.185508 0.655664 0.000000
v 0.176406 0.639922 0.106016
v 0.060039 0.674883 0.106016
v 0.306289 0.109570 -0.077227
v 0.320000 0.132148 0.000000
v 0.320000 0.226680 0.000000
v 0.306289 0.109570 0.077227
v 0.280000 0.133320 0.156758
v 0.210352 0.121445 0.198320
v 0.199258 0.076445 0.000000
v 0.149102 0.099219 0.188086
v 0.031523 0.225938 0.273477
v 0.000000 0.315156 0.293320
v 0.031523 0.225938 0.273477
v 0.080000 0.132148 0.286602
v 0.146484 0.059687 0.314336
v 0.263945 0.437031 0.197852
v 0.158399 0.581836 0.187617
v 0.000000 0.529570 0.255195
v -0.110000 0.540703 0.244844
v -0.091211 0.477852 0.274531
v 0.210352 0.121445 -0.198320
v 0.293320 0.054609 -0.188242
v 0.191953 0.089062 -0.091953
v 0.306289 0.109570 -0.077227
v 0.293320 0.054609 0.188242
v 0.031523 0.225938 -0.273477
v 0.000000 0.315156 -0.293320
v 0.146484 0.059687 -0.314336
v 0.149102 0.099219 -0.188086
v 0.080000 0.132148 -0.286602
v -0.057695 0.220898 -0.271445
v -0.109883 0.299063 -0.263047
v -0.143203 0.390430 -0.243945
v -0.161094 0.470195 -0.220820
v -0.215898 0.432461 -0.180000
v -0.233008 0.530039 -0.150039
v -0.260000 0.450000 -0.078984
v -0.268984 0.548203 0.000000
v -0.260000 0.450000 0.078984
v 0.306289 0.109570 0.077227
v 0.360000 0.031016 0.000000
v 0.191953 0.089062 0.091953
v -0.215898 0.432461 -0.180000
v -0.109883 0.299063 0.263047
v -0.057695 0.220898 0.271445
v 0.000000 0.315156 0.293320
v -0.233008 0.530039 -0.150039
v -0.260000 0.540000 -0.085039
v -0.260000 0.450000 -0.078984
v -0.268984 0.548203 0.000000
v 0.149375 0.225937 0.253320
v 0.239297 0.225937 0.196523
v 0.147422 0.132148 0.258516
v -0.260000 0.540000 0.085039
v -0.170000 0.630000 0.095195
v 0.210352 0.121445 0.198320
v 0.146484 0.059687 0.314336
v 0.080000 0.132148 0.286602
v -0.057695 0.220898 0.271445
v -0.109883 0.299063 0.263047
v -0.143203 0.390430 0.243945
v -0.090000 0.550703 0.000000
v -0.161094 0.470195 0.220820
v -0.215898 0.432461 0.180000
v -0.082031 0.406250 0.287773
v -0.233008 0.530039 0.150039
v 0.360000 0.031016 0.000000
v 0.293320 0.054609 0.188242
v 0.000000 0.426680 0.288359
v -0.048672 0.610625 0.187617
vn 0.5650 0.1310 0.8146
vn 0.2417 0.2456 0.9388
vn 0.3094 0.1208 0.9432
vn -0.0924 0.0474 0.9946
vn -0.0869 -0.1662 0.9823
vn -0.3072 -0.1937 0.9317
vn -0.0934 -0.4839 0.8701
vn -0.3436 -0.5797 0.7389
vn 0.0464 -0.7407 0.6702
vn -0.1033 -0.9065 0.4094
vn 0.1749 -0.9203 0.3500
vn 0.2031 -0.9792 -0.0000
vn 0.5419 -0.8405 -0.0000
vn 0.1749 -0.9203 -0.3500
vn 0.5094 -0.8094 -0.2921
vn 0.3942 -0.7112 -0.5820
vn 0.7706 -0.4092 -0.4887
vn 0.6701 -0.1930 -0.7168
vn 0.6983 0.0807 -0.7113
vn 0.5429 -0.0286 -0.8393
vn -0.6033 -0.0501 0.7960
vn -0.7997 -0.1473 0.5821
vn -0.6648 0.0887 0.7417
vn -0.9216 0.1266 0.3669
vn -0.9112 0.1096 0.3972
vn -0.9916 0.1297 0.0000
vn -0.9597 -0.2810 0.0000
vn -0.9112 0.1096 -0.3972
vn -0.8847 -0.2492 -0.3939
vn -0.6475 0.0644 -0.7593
vn -0.6311 -0.1871 -0.7528
vn -0.3449 0.0229 -0.9383
vn -0.3072 -0.1937 -0.9317
vn -0.0924 0.0474 -0.9946
vn -0.0869 -0.1662 -0.9823
vn 0.3094 0.1208 -0.9432
vn 0.3157 -0.0596 -0.9470
vn 0.5650 0.1310 -0.8146
vn 0.5924 -0.0278 -0.8051
vn -0.6475 0.0644 0.7593
vn -0.8847 -0.2492 0.3939
vn -0.6311 -0.1871 0.7528
vn -0.7041 -0.5865 0.4003
vn -0.4343 -0.8165 0.3803
vn -0.1119 -0.9937 0.0000
vn -0.1033 -0.9065 -0.4094
vn 0.0464 -0.7407 -0.6702
vn 0.3073 -0.4668 -0.8293
vn 0.3157 -0.0596 0.9470
vn 0.5924 -0.0278 0.8051
vn 0.3126 -0.2371 0.9198
vn 0.5429 -0.0286 0.8393
vn 0.3073 -0.4668 0.8293
vn 0.6701 -0.1930 0.7168
vn 0.3942 -0.7112 0.5820
vn 0.7706 -0.4092 0.4887
vn 0.5094 -0.8094 0.2921
vn 0.9011 -0.3437 0.2644
vn 0.8739 -0.4860 0.0000
vn 0.9011 -0.3437 -0.2644
vn 0.9707 0.0161 -0.2399
vn -0.7258 -0.3578 0.5876
vn -0.9611 -0.1244 0.2467
vn -0.9890 0.1481 0.0000
vn -0.9216 0.1266 -0.3669
vn -0.6648 0.0887 -0.7417
vn -0.3779 -0.0089 -0.9258
vn -0.1926 -0.0127 -0.9812
vn -0.4730 -0.5338 0.7009
vn -0.5344 -0.2588 0.8046
vn -0.3779 -0.0089 0.9258
vn -0.3449 0.0229 0.9383
vn -0.2899 -0.3019 0.9082
vn -0.1926 -0.0127 0.9812
vn -0.7660 -0.6428 -0.0000
vn -0.4755 -0.8797 0.0000
vn -0.7041 -0.5865 -0.4003
vn -0.4343 -0.8165 -0.3803
vn -0.9875 -0.1576 -0.0000
vn -0.9611 -0.1244 -0.2467
vn -0.7997 -0.1473 -0.5821
vn -0.6033 -0.0501 -0.7960
vn 0.4834 0.8597 0.1650
vn 0.4999 0.8644 0.0542
vn 0.3962 0.9182 0.0000
vn 0.5780 0.8160 0.0000
vn 0.4999 0.8644 -0.0542
vn 0.0148 0.9999 0.0000
vn -0.2100 0.9048 0.3706
vn 0.7530 0.5634 0.3399
vn 0.8434 0.4828 0.2358
vn 0.3177 0.7845 0.5325
vn -0.2590 0.5985 0.7581
vn -0.2899 -0.3019 -0.9082
vn -0.5344 -0.2588 -0.8046
vn -0.4730 -0.5338 -0.7009
vn -0.3436 -0.5797 -0.7389
vn -0.0934 -0.4839 -0.8701
vn 0.3126 -0.2371 -0.9198
vn -0.1131 0.6555 0.7467
vn 0.4834 0.8597 -0.1650
vn 0.0949 0.9953 -0.0188
vn -0.2100 0.9048 -0.3706
vn 0.0949 0.9953 0.0188
vn -0.1131 0.6555 -0.7467
vn 0.8434 0.4828 -0.2358
vn 0.3177 0.7845 -0.5325
vn 0.4102 0.8679 -0.2803
vn 0.7530 0.5634 -0.3399
vn -0.2590 0.5985 -0.7581
vn 0.7111 0.4805 -0.5134
vn 0.8294 0.3665 -0.4217
vn 0.4116 0.8056 -0.4262
vn -0.1217 0.8665 -0.4841
vn 0.2286 0.9110 -0.3433
vn -0.4726 0.8757 -0.0991
vn -0.0140 0.9999 0.0000
vn -0.4726 0.8757 0.0991
vn 0.6983 0.0807 0.7113
vn 0.2417 0.2456 -0.9388
vn 0.9707 0.0161 0.2399
vn 0.4102 0.8679 0.2803
vn 0.7111 0.4805 0.5134
vn 0.8294 0.3665 0.4217
vn 0.4116 0.8056 0.4262
vn -0.1217 0.8665 0.4841
vn 0.2286 0.9110 0.3433
vn -0.9299 -0.3678 -0.0000
vn -0.7258 -0.3578 -0.5876
usemtl Material.013
s 1
f 39/6198/1 1/6199/2 2/6200/3
f 1/6199/2 3/6201/4 2/6200/3
f 2/6200/3 3/6201/4 40/6202/5
f 3/6201/4 4/6203/6 40/6202/5
f 40/6202/5 4/6203/6 5/6204/7
f 4/6203/6 48/6205/8 5/6204/7
f 5/6204/7 48/6205/8 42/6206/9
f 48/6205/8 6/6207/10 42/6206/9
f 42/6206/9 6/6207/10 44/6208/11
f 6/6207/10 7/6209/12 44/6208/11
f 44/6208/11 7/6209/12 46/6210/13
f 7/6209/12 24/6211/14 46/6210/13
f 46/6210/13 24/6211/14 114/6212/15
f 24/6211/14 25/6213/16 114/6212/15
f 114/6212/15 25/6213/16 34/6214/17
f 25/6213/16 26/6215/18 34/6214/17
f 34/6214/17 26/6215/18 8/6216/19
f 26/6215/18 27/6217/20 8/6216/19
f 9/6218/21 10/6219/22 18/6220/23
f 10/6219/22 36/6221/24 18/6220/23
f 18/6220/23 36/6221/24 54/6222/25
f 36/6221/24 11/6223/26 54/6222/25
f 54/6222/25 11/6223/26 57/6224/27
f 11/6223/26 12/6225/28 57/6224/27
f 57/6224/27 12/6225/28 13/6226/29
f 12/6225/28 14/6227/30 13/6226/29
f 13/6226/29 14/6227/30 75/6228/31
f 14/6227/30 38/6229/32 75/6228/31
f 75/6228/31 38/6229/32 15/6230/33
f 38/6229/32 105/6231/34 15/6230/33
f 15/6230/33 105/6231/34 128/6232/35
f 105/6231/34 16/6233/36 128/6232/35
f 128/6232/35 16/6233/36 124/6234/37
f 16/6233/36 103/6235/38 124/6234/37
f 124/6234/37 103/6235/38 17/6236/39
f 18/6220/23 54/6222/25 19/6237/40
f 54/6222/25 55/6238/41 19/6237/40
f 19/6237/40 55/6238/41 20/6239/42
f 55/6238/41 21/6240/43 20/6239/42
f 20/6239/42 21/6240/43 48/6205/8
f 21/6240/43 22/6241/44 48/6205/8
f 48/6205/8 22/6241/44 6/6207/10
f 22/6241/44 23/6242/45 6/6207/10
f 6/6207/10 23/6242/45 7/6209/12
f 23/6242/45 61/6243/46 7/6209/12
f 7/6209/12 61/6243/46 24/6211/14
f 61/6243/46 129/6244/47 24/6211/14
f 24/6211/14 129/6244/47 25/6213/16
f 129/6244/47 78/6245/48 25/6213/16
f 25/6213/16 78/6245/48 26/6215/18
f 78/6245/48 27/6217/20 26/6215/18
f 39/6198/1 28/6246/49 29/6247/50
f 28/6246/49 41/6248/51 29/6247/50
f 29/6247/50 41/6248/51 30/6249/52
f 41/6248/51 31/6250/53 30/6249/52
f 30/6249/52 31/6250/53 32/6251/54
f 31/6250/53 43/6252/55 32/6251/54
f 32/6251/54 43/6252/55 106/6253/56
f 43/6252/55 45/6254/57 106/6253/56
f 106/6253/56 45/6254/57 107/6255/58
f 45/6254/57 46/6210/13 107/6255/58
f 107/6255/58 46/6210/13 109/6256/59
f 46/6210/13 113/6257/60 109/6256/59
f 109/6256/59 113/6257/60 33/6258/61
f 113/6257/60 34/6214/17 33/6258/61
f 9/6218/21 35/6259/62 10/6219/22
f 35/6259/62 62/6260/63 10/6219/22
f 10/6219/22 62/6260/63 36/6221/24
f 62/6260/63 64/6261/64 36/6221/24
f 36/6221/24 64/6261/64 11/6223/26
f 64/6261/64 37/6262/65 11/6223/26
f 11/6223/26 37/6262/65 12/6225/28
f 37/6262/65 111/6263/66 12/6225/28
f 12/6225/28 111/6263/66 14/6227/30
f 111/6263/66 110/6264/67 14/6227/30
f 14/6227/30 110/6264/67 38/6229/32
f 110/6264/67 72/6265/68 38/6229/32
f 38/6229/32 72/6265/68 105/6231/34
f 39/6198/1 2/6200/3 28/6246/49
f 2/6200/3 40/6202/5 28/6246/49
f 28/6246/49 40/6202/5 41/6248/51
f 40/6202/5 5/6204/7 41/6248/51
f 41/6248/51 5/6204/7 31/6250/53
f 5/6204/7 42/6206/9 31/6250/53
f 31/6250/53 42/6206/9 43/6252/55
f 42/6206/9 44/6208/11 43/6252/55
f 43/6252/55 44/6208/11 45/6254/57
f 44/6208/11 46/6210/13 45/6254/57
f 49/6266/69 9/6218/21 50/6267/70
f 9/6218/21 18/6220/23 50/6267/70
f 50/6267/70 18/6220/23 52/6268/71
f 18/6220/23 19/6237/40 52/6268/71
f 52/6268/71 19/6237/40 47/6269/72
f 19/6237/40 20/6239/42 47/6269/72
f 47/6269/72 20/6239/42 4/6203/6
f 20/6239/42 48/6205/8 4/6203/6
f 49/6266/69 50/6267/70 51/6270/73
f 50/6267/70 52/6268/71 51/6270/73
f 51/6270/73 52/6268/71 53/6271/74
f 52/6268/71 47/6269/72 53/6271/74
f 53/6271/74 47/6269/72 3/6201/4
f 47/6269/72 4/6203/6 3/6201/4
f 54/6222/25 57/6224/27 55/6238/41
f 57/6224/27 56/6272/75 55/6238/41
f 55/6238/41 56/6272/75 21/6240/43
f 56/6272/75 59/6273/76 21/6240/43
f 21/6240/43 59/6273/76 22/6241/44
f 59/6273/76 23/6242/45 22/6241/44
f 57/6224/27 13/6226/29 56/6272/75
f 13/6226/29 58/6274/77 56/6272/75
f 56/6272/75 58/6274/77 59/6273/76
f 58/6274/77 60/6275/78 59/6273/76
f 59/6273/76 60/6275/78 23/6242/45
f 60/6275/78 61/6243/46 23/6242/45
f 62/6260/63 63/6276/79 64/6261/64
f 63/6276/79 65/6277/80 64/6261/64
f 64/6261/64 65/6277/80 37/6262/65
f 65/6277/80 66/6278/81 37/6262/65
f 37/6262/65 66/6278/81 111/6263/66
f 66/6278/81 67/6279/82 111/6263/66
f 69/6280/83 101/6281/84 121/6282/85
f 101/6281/84 68/6283/86 121/6282/85
f 121/6282/85 68/6283/86 82/6284/87
f 68/6283/86 100/6285/88 82/6284/87
f 82/6284/87 100/6285/88 83/6286/89
f 117/6287/90 69/6280/83 70/6288/91
f 69/6280/83 121/6282/85 70/6288/91
f 70/6288/91 121/6282/85 71/6289/92
f 121/6282/85 118/6290/93 71/6289/92
f 72/6265/68 110/6264/67 73/6291/94
f 110/6264/67 112/6292/95 73/6291/94
f 73/6291/94 112/6292/95 74/6293/96
f 112/6292/95 67/6279/82 74/6293/96
f 13/6226/29 75/6228/31 58/6274/77
f 75/6228/31 76/6294/97 58/6274/77
f 58/6274/77 76/6294/97 60/6275/78
f 76/6294/97 61/6243/46 60/6275/78
f 75/6228/31 15/6230/33 76/6294/97
f 15/6230/33 77/6295/98 76/6294/97
f 76/6294/97 77/6295/98 129/6244/47
f 77/6295/98 78/6245/48 129/6244/47
f 15/6230/33 128/6232/35 77/6295/98
f 128/6232/35 79/6296/99 77/6295/98
f 77/6295/98 79/6296/99 78/6245/48
f 79/6296/99 27/6217/20 78/6245/48
f 80/6297/100 88/6298/101 81/6299/102
f 88/6298/101 82/6284/87 81/6299/102
f 81/6299/102 82/6284/87 83/6286/89
f 99/6300/103 101/6281/84 84/6301/104
f 101/6281/84 69/6280/83 84/6301/104
f 84/6301/104 69/6280/83 115/6302/105
f 82/6284/87 88/6298/101 121/6282/85
f 88/6298/101 85/6303/106 121/6282/85
f 121/6282/85 85/6303/106 86/6304/107
f 80/6297/100 87/6305/108 88/6298/101
f 87/6305/108 89/6306/109 88/6298/101
f 88/6298/101 89/6306/109 85/6303/106
f 86/6304/107 90/6307/110 121/6282/85
f 90/6307/110 91/6308/111 121/6282/85
f 121/6282/85 91/6308/111 92/6309/112
f 92/6309/112 93/6310/113 121/6282/85
f 93/6310/113 94/6311/114 121/6282/85
f 121/6282/85 94/6311/114 95/6312/115
f 95/6312/115 96/6313/116 121/6282/85
f 96/6313/116 97/6314/117 121/6282/85
f 121/6282/85 97/6314/117 98/6315/118
f 99/6300/103 100/6285/88 101/6281/84
f 100/6285/88 68/6283/86 101/6281/84
f 106/6253/56 102/6316/119 32/6251/54
f 102/6316/119 30/6249/52 32/6251/54
f 103/6235/38 16/6233/36 104/6317/120
f 16/6233/36 105/6231/34 104/6317/120
f 106/6253/56 107/6255/58 108/6318/121
f 107/6255/58 109/6256/59 108/6318/121
f 110/6264/67 111/6263/66 112/6292/95
f 111/6263/66 67/6279/82 112/6292/95
f 34/6214/17 113/6257/60 114/6212/15
f 113/6257/60 46/6210/13 114/6212/15
f 115/6302/105 69/6280/83 116/6319/122
f 69/6280/83 117/6287/90 116/6319/122
f 118/6290/93 121/6282/85 119/6320/123
f 121/6282/85 120/6321/124 119/6320/123
f 120/6321/124 121/6282/85 122/6322/125
f 121/6282/85 123/6323/126 122/6322/125
f 27/6217/20 79/6296/99 17/6236/39
f 79/6296/99 124/6234/37 17/6236/39
f 123/6323/126 121/6282/85 125/6324/127
f 121/6282/85 98/6315/118 125/6324/127
f 62/6260/63 126/6325/128 63/6276/79
f 126/6325/128 65/6277/80 63/6276/79
f 67/6279/82 66/6278/81 127/6326/129
f 66/6278/81 65/6277/80 127/6326/129
f 79/6296/99 128/6232/35 124/6234/37
f 76/6294/97 129/6244/47 61/6243/46
